<?xml version="1.0" encoding="UTF-8" standalone="no"?>
<!-- Created with Inkscape (http://www.inkscape.org/) -->

<svg
   width="264.20123mm"
   height="224.56453mm"
   viewBox="0 0 264.20123 224.56453"
   version="1.1"
   id="svg163"
   inkscape:version="1.1.2 (0a00cf5339, 2022-02-04)"
   sodipodi:docname="icon.svg"
   xmlns:inkscape="http://www.inkscape.org/namespaces/inkscape"
   xmlns:sodipodi="http://sodipodi.sourceforge.net/DTD/sodipodi-0.dtd"
   xmlns="http://www.w3.org/2000/svg"
   xmlns:svg="http://www.w3.org/2000/svg">
  <sodipodi:namedview
     id="namedview165"
     pagecolor="#ffffff"
     bordercolor="#666666"
     borderopacity="1.0"
     inkscape:pageshadow="2"
     inkscape:pageopacity="0.0"
     inkscape:pagecheckerboard="0"
     inkscape:document-units="mm"
     showgrid="false"
     inkscape:zoom="0.78889056"
     inkscape:cx="273.80224"
     inkscape:cy="494.36515"
     inkscape:window-width="2560"
     inkscape:window-height="1412"
     inkscape:window-x="0"
     inkscape:window-y="0"
     inkscape:window-maximized="1"
     inkscape:current-layer="layer1"
     units="mm" />
  <defs
     id="defs160" />
  <g
     inkscape:label="Ebene 1"
     inkscape:groupmode="layer"
     id="layer1"
     transform="translate(4.5870187,15.808154)">
    <path
       style="fill:#000000;stroke-width:0.352778"
       d="m 25.546137,208.5445 c -8.514513,-1.20859 -15.06,-4.36799 -20.7602518,-10.02064 -2.685743,-2.66331 -3.633459,-4.01313 -6.328973,-9.0143 -2.841534,-5.27209 -3.717897,-13.23295 -2.526805,-22.95344 0.297187,-2.42534 0.622878,-5.28284 0.723755,-6.35 0.100878,-1.06715 0.408628,-3.36902 0.683891,-5.11527 0.275262,-1.74625 0.982192,-6.74688 1.570957,-11.11251 0.58876404,-4.36562 1.22204604,-8.89 1.40729304,-10.05416 0.185246,-1.16417 0.429698,-2.98979 0.543225,-4.05695 0.19254696,-1.80994 1.28705296,-10.10877 2.46591696,-18.69722 0.279642,-2.03729 0.762973,-5.60917 1.07407,-7.9375 0.311096,-2.32833 0.880812,-6.45583 1.266034,-9.17222 0.385223,-2.71639 0.90864,-6.44702 1.163149,-8.29028 0.725741,-5.25613 1.269956,-9.00358 1.972403,-13.58194 0.357231,-2.32834 0.754503,-5.34459 0.882827,-6.70278 0.128324,-1.3582 0.3853918,-3.18105 0.5712638,-4.05079 0.185871,-0.86974 0.56599,-3.40974 0.844709,-5.64445 0.278719,-2.2347 0.907941,-6.841222 1.39827,-10.236708 0.490329,-3.395486 1.129151,-7.999236 1.419606,-10.230556 0.290454,-2.231319 0.606011,-4.271557 0.701238,-4.533861 0.09523,-0.262304 0.412901,-2.722929 0.705942,-5.468056 0.476869,-4.467183 1.519501,-10.824866 2.624312,-16.0023453 0.43858,-2.05531 3.547207,-9.83591002 4.691733,-11.74296 2.341315,-3.90118 6.119089,-7.5874997 9.518943,-9.2885097 2.65642,-1.32905 2.819569,-1.36186 10.037848,-2.01842 16.79797,-1.52792 27.974299,-1.81689 77.540317,-2.00487 54.36793,-0.2062 59.93626,-0.0882 93.66434,1.98455 3.63338,0.22329 4.97158,0.47144 7.58651,1.40683 2.7987,1.00112 3.52022,1.4513 6.08813,3.7985797 3.22416,2.94715 4.89893,5.48073 7.35686,11.12941 1.63291,3.75266 3.8055,12.6788873 4.19062,17.2174303 0.12349,1.455208 0.52215,4.392083 0.88591,6.526389 0.88463,5.190363 1.67069,10.466564 1.94462,13.052778 0.12331,1.164167 0.43846,3.466042 0.70032,5.115278 0.26186,1.649236 0.57401,4.030486 0.69368,5.291671 0.11966,1.26118 0.44825,3.88055 0.73021,5.82083 0.93333,6.42268 2.26444,15.12305 2.8066,18.34444 0.51908,3.08433 1.10326,7.07648 2.13391,14.58278 0.27539,2.00567 0.64928,4.22817 0.83089,4.93889 0.1816,0.71072 0.43805,2.48285 0.56987,3.93806 0.13183,1.45521 0.37739,3.39445 0.54567,4.30944 0.16829,0.91498 0.47063,3.05811 0.67188,4.7625 0.20124,1.70439 0.67168,5.24202 1.04541,7.86139 1.10189,7.72275 1.75547,12.7238 1.98248,15.16945 0.11706,1.26118 0.3775,2.92805 0.57874,3.70416 0.20125,0.77611 0.57183,2.99861 0.8235,4.93889 0.25168,1.94028 1.02138,7.33778 1.71046,11.99445 1.29722,8.76643 2.3358,19.75684 2.3358,24.71772 0,4.32635 -0.9208,10.23122 -2.0043,12.85311 -0.89069,2.1553 -2.95738,5.77733 -4.42839,7.76111 -1.51512,2.04326 -5.87565,6.15017 -7.62308,7.17972 -1.03671,0.61081 -2.46546,1.47111 -3.175,1.91178 -0.70953,0.44067 -1.52819,0.88969 -1.81923,0.99782 -0.29104,0.10812 -1.24354,0.50019 -2.11667,0.87126 -0.87312,0.37106 -3.09562,1.0328 -4.93889,1.47053 l -3.35139,0.79587 -101.42362,0.042 C 72.950655,208.77598 26.516276,208.68218 25.546137,208.5445 Z M 232.13422,198.12202 c 2.64029,-0.5554 5.93071,-2.02954 8.07722,-3.61868 1.73575,-1.28503 6.65502,-6.41083 7.26682,-7.5719 0.28047,-0.53226 0.66976,-1.38811 0.8651,-1.90189 0.35059,-0.92213 0.34482,-0.92667 -0.4488,-0.35274 -0.83208,0.60175 -1.68935,1.17676 -3.80256,2.55055 -1.40826,0.9155 -4.39559,1.99328 -7.95977,2.87173 -2.27601,0.56097 -9.77011,0.61036 -107.14141,0.7061 -104.377165,0.10263 -104.705152,0.10075 -108.302787,-0.62096 -5.14416,-1.03196 -6.341287,-1.48549 -10.586232,-4.01065 -2.0801298,-1.23738 -3.7820548,-2.18194 -3.7820548,-2.09902 0,0.66218 3.350346,5.0232 5.8996148,7.6793 3.481017,3.6269 5.276357,4.70226 10.056841,6.02377 l 2.917157,0.80641 102.194311,0.0374 c 90.2353,0.0331 102.49298,-0.0254 104.74655,-0.49945 z m 4.24701,-18.45928 c 2.68908,-0.73491 6.35455,-3.187 8.86579,-5.93096 1.89366,-2.06916 2.45575,-2.97358 3.1094,-5.00307 l 0.79787,-2.47734 -0.79938,-6.46221 c -0.43966,-3.55421 -1.00883,-7.7322 -1.26483,-9.28443 -1.04405,-6.33064 -2.46794,-16.40228 -3.8902,-27.51666 -0.94976,-7.42199 -1.47021,-11.11772 -2.58335,-18.34445 -0.59773,-3.88055 -1.65289,-11.18305 -2.34482,-16.22778 -1.518,-11.06753 -2.2225,-15.76182 -2.6472,-17.63889 -0.17559,-0.77611 -0.41711,-2.36361 -0.53669,-3.52777 -0.11959,-1.16417 -0.76773,-5.92667 -1.44032,-10.58334 -0.67259,-4.65666 -1.44795,-10.212915 -1.72302,-12.34722 -0.27507,-2.134306 -0.5838,-4.436181 -0.68606,-5.115278 -0.10226,-0.679097 -0.35208,-2.663472 -0.55515,-4.409722 -0.20308,-1.74625 -0.59565,-4.524376 -0.87238,-6.173612 -0.27672,-1.649236 -0.76534,-5.062361 -1.08582,-7.584722 -1.25089,-9.845502 -3.66124,-17.1219723 -6.87623,-20.75833232 -1.97785,-2.23707998 -3.72451,-3.30438998 -6.42167,-3.92400998 -6.79001,-1.55988 -27.50863,-2.09036 -82.46019,-2.11133 -71.410427,-0.0272 -89.611124,0.49752 -95.879237,2.76449 -1.975715,0.71454 -4.988571,3.83633998 -6.624801,6.86433 -2.242418,4.14981 -3.21824,8.3029683 -5.069143,21.5745743 -0.581785,4.171598 -1.222836,8.695973 -1.424558,10.054167 -0.532527,3.585514 -1.666285,12.318782 -2.31279,17.815275 -0.897206,7.62792 -1.97264,15.38398 -3.326236,23.98889 -0.167869,1.06716 -0.794786,5.35341 -1.39315,9.525 -0.598364,4.1716 -1.326673,9.17223 -1.618464,11.1125 -0.29179,1.94028 -0.689652,4.83747 -0.884136,6.4382 -1.129686,9.29805 -2.406981,18.69713 -2.64874,19.49097 -0.165152,0.5423 -1.076511,7.2335 -2.3063608,16.93333 -0.381315,3.00744 -0.844344,6.34119 -1.028955,7.40834 -0.18461,1.06715 -0.513351,3.60715 -0.730535,5.64444 -0.217184,2.03729 -0.636486,5.04491 -0.931782,6.68359 -0.667053,3.70167 -0.412955,7.56878 0.634353,9.6542 1.107805,2.20589 6.4358928,7.2284 8.7750798,8.27182 4.252255,1.89676 -1.904747,1.80247 112.359735,1.72065 84.50371,-0.0605 106.52056,-0.16742 107.82397,-0.52364 z m -114.87953,-6.6052 c -0.58208,-0.0811 -2.80237,-0.32478 -4.93398,-0.54147 -7.80148,-0.79305 -17.912587,-3.88949 -27.63029,-8.46154 -1.612011,-0.75843 -2.991428,-1.37896 -3.065367,-1.37896 -0.163379,0 -5.155234,-3.57013 -6.537082,-4.67525 -0.545225,-0.43605 -1.639669,-1.1822 -2.432093,-1.65814 -1.677917,-1.00775 -5.428344,-4.81378 -8.098628,-8.2187 -1.027116,-1.30968 -1.985032,-2.38125 -2.1287,-2.38125 -0.568763,0 -7.700777,2.10772 -9.026643,2.66764 -2.860999,1.2082 -17.94684,6.35129 -25.223613,8.59927 -2.619375,0.80919 -5.283825,1.70079 -5.920997,1.98134 -1.617766,0.7123 -2.148373,0.641 -2.599609,-0.34936 -0.810019,-1.7778 0.141906,-2.38809 7.462273,-4.78415 2.231319,-0.73035 5.08882,-1.72081 6.35,-2.20104 8.379002,-3.1905 10.98318,-4.10601 12.700001,-4.46475 1.851622,-0.38691 13.652343,-4.51238 14.193677,-4.96203 0.142427,-0.11831 -0.434337,-1.95595 -1.281691,-4.08365 -0.847355,-2.1277 -1.639909,-4.16283 -1.761233,-4.52251 -0.145408,-0.43108 -0.419171,-0.57776 -0.803257,-0.43037 -0.320467,0.12297 -4.883193,0.92717 -10.139388,1.78709 -10.459778,1.71124 -15.950006,2.68098 -24.196999,4.27393 -2.29725,0.44372 -2.294882,0.44517 -2.269155,-1.38835 0.01489,-1.06121 0.21091,-1.81891 0.519974,-2.00993 0.487375,-0.30121 1.193448,-0.42475 8.981126,-1.5714 2.134306,-0.31426 5.944306,-0.94981 8.466668,-1.41233 14.050875,-2.57653 18.53865,-3.45793 18.639026,-3.6607 0.06143,-0.1241 0.04316,-1.53533 -0.0406,-3.13606 l -0.152298,-2.91041 -13.985566,-0.002 c -7.692059,-10e-4 -15.533375,-0.10438 -17.425146,-0.22966 l -3.439583,-0.22777 v -1.53429 -1.53429 h 17.427315 17.427316 l 0.376082,-1.6757 c 0.206844,-0.92163 0.421115,-2.13848 0.476159,-2.70411 l 0.100076,-1.02843 -4.93889,-1.18336 c -12.503003,-2.99575 -15.563597,-3.76404 -16.122965,-4.04732 -0.330409,-0.16733 -2.076659,-0.60401 -3.880556,-0.97041 -4.342812,-0.8821 -6.677816,-1.82947 -7.333401,-2.97536 -0.46978,-0.82111 -0.46616,-0.9787 0.03397,-1.47884 0.508758,-0.50876 0.830022,-0.51041 3.524419,-0.0182 4.599553,0.84031 8.725346,1.84446 11.461123,2.78944 1.374596,0.47481 3.200221,0.97885 4.056946,1.1201 1.261148,0.20792 4.540941,1.00726 8.789624,2.14218 4.102228,1.0958 5.391948,1.31979 5.865782,1.01872 0.292012,-0.18555 1.088612,-1.36923 1.770225,-2.63041 1.570093,-2.90514 4.320663,-7.02485 5.240383,-7.84889 0.388056,-0.34769 1.161623,-0.88121 1.719041,-1.18561 L 72.72866,98.4068 72.493368,94.46952 c -0.129406,-2.1655 -0.383371,-5.12789 -0.564356,-6.5831 -0.180989,-1.45521 -0.594346,-6.41501 -0.91857,-11.02177 l -0.589502,-8.37593 1.315307,-2.62641 c 1.682768,-3.36016 2.403736,-3.84516 5.448149,-3.66493 1.785285,0.10569 2.877894,0.41889 4.629799,1.32716 1.261181,0.65385 3.563056,1.83869 5.115279,2.63299 1.552222,0.79429 3.219097,1.78718 3.704167,2.20642 0.485069,0.41925 2.548819,2.06972 4.586111,3.66773 2.037292,1.59801 4.288872,3.45966 5.003508,4.13701 1.2255,1.16156 1.39774,1.21849 3.03083,1.00185 0.95232,-0.12633 2.66949,-0.47646 3.81593,-0.77808 3.96682,-1.04361 11.28328,-1.93733 17.60668,-2.15068 9.63793,-0.32519 18.38191,0.54574 26.99071,2.68835 3.37955,0.84111 3.35058,0.85047 6.52319,-2.10607 0.97014,-0.90407 2.71639,-2.30602 3.88056,-3.11544 1.16416,-0.80941 2.83104,-2.02106 3.70416,-2.69254 0.87313,-0.67149 1.71419,-1.22474 1.86903,-1.22944 0.15485,-0.005 1.10735,-0.52698 2.11667,-1.1606 3.57795,-2.24613 5.44324,-2.9049 8.22509,-2.9049 2.45105,0 2.62515,0.0556 3.86409,1.23472 2.63835,2.5109 2.60591,2.27825 2.6146,18.75374 l 0.008,14.69679 1.34216,1.70738 c 4.52622,5.75785 6.02119,7.97118 7.6276,11.29272 0.0161,0.0332 1.37786,-0.34394 3.02624,-0.83807 1.64838,-0.49414 4.18768,-1.17582 5.64289,-1.51484 3.37915,-0.78724 7.35678,-1.79651 11.81806,-2.99867 7.67018,-2.06685 8.90629,-2.33064 11.24133,-2.39899 1.97034,-0.0577 2.49619,0.0442 2.82042,0.54647 0.92796,1.43749 -0.28199,1.96735 -11.06314,4.84473 -1.45521,0.38838 -3.51896,0.953 -4.58611,1.25472 -2.51869,0.71209 -8.69508,2.20117 -11.75,2.83283 -1.32076,0.27309 -3.24402,0.74148 -4.27389,1.04087 l -1.87251,0.54436 0.31019,1.66451 c 0.62764,3.36799 -1.55246,3.03529 17.97894,2.74373 l 17.24614,-0.25745 v 1.56066 1.56066 l -10.84791,0.23269 c -5.96636,0.12799 -13.64336,0.23298 -17.06,0.23332 l -6.21208,7e-4 -0.1939,3.08681 c -0.11661,1.85638 -0.052,3.25886 0.16211,3.51844 0.19581,0.2374 0.93537,0.53273 1.64348,0.65629 0.70811,0.12355 4.06559,0.77709 7.46108,1.45231 7.10969,1.41381 6.92149,1.37862 11.1125,2.07777 5.40353,0.90143 6.94816,1.13952 10.23056,1.57691 4.71173,0.62785 4.7625,0.65887 4.7625,2.90978 0,2.24779 -0.17232,2.49509 -1.24763,1.79052 -1.01635,-0.66594 -5.3254,-1.53754 -14.62737,-2.95871 -3.97757,-0.60769 -7.78757,-1.2443 -8.46667,-1.41467 -0.6791,-0.17037 -3.2191,-0.64553 -5.64445,-1.05591 -2.42534,-0.41038 -4.80659,-0.81976 -5.29166,-0.90973 -0.77794,-0.1443 -0.95888,0.035 -1.53429,1.52066 -2.00185,5.16853 -2.69317,7.29818 -2.44622,7.53574 0.15199,0.14621 1.14946,0.58122 2.21662,0.96669 1.06715,0.38548 3.28965,1.20542 4.93889,1.8221 1.64923,0.61667 4.08749,1.35155 5.41835,1.63306 1.33085,0.28152 3.79148,1.06997 5.46805,1.75211 4.76414,1.93838 14.70927,5.57154 18.30596,6.68755 l 3.2632,1.01252 v 1.90485 c 0,1.68079 -0.0726,1.8734 -0.61737,1.63752 -0.33954,-0.14702 -4.18923,-1.44529 -8.55486,-2.88502 -4.36562,-1.43974 -9.525,-3.22959 -11.46528,-3.97744 -1.94027,-0.74786 -5.43277,-2.01416 -7.76111,-2.81401 -2.32833,-0.79986 -5.10646,-1.76553 -6.17361,-2.14594 -2.54537,-0.90745 -5.82673,-1.74417 -6.83977,-1.74417 -0.56991,0 -1.29278,0.62409 -2.45224,2.11714 -0.90425,1.16443 -1.6441,2.26658 -1.6441,2.44923 0,0.4864 -6.49625,6.06134 -7.65499,6.56935 -0.54344,0.23825 -1.49047,0.90449 -2.10451,1.48053 -2.32722,2.1832 -6.45838,4.43247 -14.22939,7.74741 -6.33046,2.70043 -14.16752,4.883 -21.34307,5.94392 -3.37849,0.49952 -16.84348,0.96245 -19.05,0.65495 z m 15.34584,-7.19845 c 11.23078,-1.32581 18.80638,-3.41592 25.92917,-7.15388 1.99326,-1.04604 2.25805,-1.17533 4.23334,-2.06705 3.13448,-1.41502 7.39187,-4.42151 10.61309,-7.49476 1.72988,-1.65042 3.74055,-3.56977 4.46816,-4.26523 0.7276,-0.69546 1.32079,-1.38087 1.31819,-1.52312 -0.002,-0.14226 -0.75665,-0.51848 -1.67569,-0.83606 -0.91904,-0.31757 -4.29035,-1.55796 -7.49181,-2.75642 -3.20146,-1.19845 -7.48771,-2.73247 -9.525,-3.40892 -2.03729,-0.67645 -4.20441,-1.46012 -4.81582,-1.7415 -1.45288,-0.66862 -1.73027,-0.64856 -2.8903,0.2091 -0.53614,0.39637 -1.96346,0.95132 -3.17183,1.23322 -2.37359,0.55372 -4.75316,1.62491 -5.879,2.6465 -0.97943,0.88873 -4.23834,2.75817 -8.81945,5.0592 -4.59537,2.30819 -7.72078,2.91486 -13.27373,2.57656 -5.54886,-0.33805 -9.5198,-2.03559 -17.95437,-7.67532 -1.16907,-0.78169 -2.76396,-1.47171 -3.98998,-1.72623 -1.32608,-0.27529 -2.45346,-0.78488 -3.21431,-1.45292 -0.64452,-0.56591 -1.49395,-1.02892 -1.887604,-1.02892 -2.036099,0 -9.552465,2.38334 -18.593899,5.89587 -1.74625,0.6784 -4.008438,1.54577 -5.027084,1.92748 -1.018645,0.38171 -1.852083,0.91064 -1.852083,1.17539 0,0.26476 0.595312,1.04676 1.322917,1.7378 0.727604,0.69102 2.354792,2.27591 3.615972,3.52196 3.665841,3.62186 8.584894,6.97125 13.295176,9.0527 1.321891,0.58414 3.197187,1.44762 4.167326,1.91884 0.970139,0.47123 2.464559,1.10125 3.320934,1.40004 0.856371,0.29879 1.749185,0.70272 1.984025,0.89762 0.59625,0.49484 8.02358,2.3038 13.06233,3.18139 8.67612,1.51109 14.35741,1.68521 22.73133,0.69666 z m -4.16359,-26.27431 c 2.35159,-0.49838 4.01918,-1.1601 3.70792,-1.47136 -0.0898,-0.0898 -0.53999,-0.22658 -1.00036,-0.3039 -0.46037,-0.0773 -1.8689,-0.31467 -3.13009,-0.52746 -1.26118,-0.21279 -2.73783,-0.5621 -3.28146,-0.77623 -0.74674,-0.29414 -1.35053,-0.27578 -2.46945,0.0751 -0.81456,0.25544 -2.75103,0.55591 -4.30325,0.66773 -1.56699,0.11288 -2.7998,0.36021 -2.7718,0.55608 0.0277,0.19403 1.13898,0.78306 2.46944,1.30895 2.84336,1.1239 6.86873,1.29983 10.77905,0.4711 z m 52.84693,-0.66794 c 0,-0.43259 0.33601,-1.41541 0.7467,-2.18404 1.59305,-2.98155 2.07552,-4.02725 2.07552,-4.49846 0,-0.34634 -1.05603,-0.66403 -3.61597,-1.08782 -4.76865,-0.78943 -14.36913,-1.94382 -20.66667,-2.48501 -3.6195,-0.31104 -5.14666,-0.57738 -5.37446,-0.93731 -0.17501,-0.27654 -0.32064,-1.17749 -0.32361,-2.00211 l -0.005,-1.4993 2.20486,0.009 c 1.21267,0.005 3.71299,0.15635 5.55625,0.33632 1.84326,0.17997 5.01827,0.48941 7.05556,0.68765 4.04088,0.39321 11.99097,1.3069 14.37569,1.65218 l 1.49931,0.21708 v -2.79749 c 0,-2.84944 -0.5249,-6.51644 -1.08169,-7.55681 -0.2819,-0.52673 -0.63525,-0.50528 -4.11128,0.24964 -4.12583,0.89603 -12.74537,3.08682 -18.09037,4.59795 -1.84326,0.52112 -4.16053,1.12186 -5.14949,1.33496 -0.98895,0.21311 -2.02083,0.57185 -2.29305,0.7972 -0.27223,0.22535 -1.36389,0.56732 -2.42593,0.75993 -1.80668,0.32766 -2.01623,0.28993 -3.25566,-0.58612 -1.63126,-1.15299 -1.67993,-1.68642 -0.19324,-2.11768 0.63059,-0.18293 2.97216,-0.88448 5.20348,-1.559 2.23132,-0.67453 4.45382,-1.33217 4.93889,-1.46143 0.48507,-0.12926 2.07257,-0.55587 3.52778,-0.94802 8.52726,-2.29793 15.09806,-3.86118 17.46469,-4.155 1.48492,-0.18436 2.78226,-0.41759 2.88296,-0.5183 0.18102,-0.18101 -1.66235,-4.03487 -2.50621,-5.23964 -0.40337,-0.5759 -2.3217,-2.77433 -5.58241,-6.39751 l -1.32292,-1.46998 -0.0248,-16.05154 c -0.0136,-8.82835 -0.15041,-15.73405 -0.30395,-15.34599 -0.15354,0.38805 -0.21167,0.886 -0.12919,1.10655 0.17451,0.4666 -0.98959,1.32846 -3.95178,2.92577 -1.16417,0.62775 -2.51354,1.50116 -2.99861,1.94091 -0.48507,0.43974 -2.3107,1.77694 -4.05695,2.97154 -5.23541,3.58152 -5.94871,4.44629 -5.45888,6.61811 0.16992,0.75341 0.19599,1.48279 0.0579,1.62084 -0.13806,0.13806 -1.04308,0.0391 -2.01115,-0.21983 -0.96807,-0.25897 -2.55389,-0.64187 -3.52402,-0.85089 -0.97014,-0.20903 -3.25554,-0.78459 -5.07866,-1.27902 -11.7255,-3.17997 -28.04572,-3.5504 -39.37135,-0.89363 -1.55222,0.36412 -4.84025,1.14681 -7.30673,1.73931 -2.46648,0.59251 -4.791057,1.07728 -5.165728,1.07728 -0.765765,0 -1.109487,-0.64973 -1.109487,-2.09724 0,-1.06943 -1.815722,-2.9698 -5.166977,-5.40787 -0.998577,-0.72646 -1.900019,-1.54086 -2.003207,-1.80976 -0.181832,-0.47385 -4.768794,-3.43809 -7.999261,-5.16939 -0.873126,-0.46793 -1.966098,-1.13102 -2.428826,-1.47354 -0.462728,-0.34251 -0.978666,-0.62275 -1.146528,-0.62275 -0.390285,0 -0.375881,3.12926 0.03411,7.40833 0.658834,6.87645 1.488053,23.58508 1.195921,24.09762 -0.165277,0.28996 -1.332375,1.43874 -2.593556,2.55283 -1.26118,1.11409 -2.6107,2.59819 -2.998932,3.298 -0.388232,0.69981 -1.305073,2.05455 -2.037426,3.01054 -1.40861,1.83874 -1.95888,3.24789 -1.446562,3.70439 0.17012,0.15159 1.817434,0.55258 3.660698,0.8911 1.843264,0.33852 6.288264,1.40798 9.877779,2.37659 3.589514,0.9686 9.114804,2.28528 12.278424,2.92595 5.515648,1.11699 8.831008,2.30321 9.155168,3.27569 0.10952,0.32856 -0.9549,0.43277 -4.38267,0.42906 -5.056449,-0.005 -8.486631,-0.62425 -17.4037,-3.13952 -4.307731,-1.2151 -7.580017,-2.00762 -14.163793,-3.43038 -0.988621,-0.21364 -1.084164,-0.0802 -1.550568,2.16508 -0.120911,0.58208 -0.307029,2.78293 -0.413597,4.89078 l -0.193756,3.83245 2.25183,-0.23105 c 1.238505,-0.12708 3.283702,-0.38201 4.544883,-0.5665 1.261181,-0.18449 4.991806,-0.65552 8.290278,-1.04673 3.298473,-0.39121 7.267223,-0.89579 8.819446,-1.12128 3.213364,-0.46682 7.401744,-0.58566 7.769649,-0.22047 0.370243,0.36752 -0.544686,3.81076 -1.013863,3.81556 -0.401101,0.004 -8.864188,1.05533 -13.987731,1.73745 -1.455209,0.19374 -4.471459,0.59237 -6.702779,0.88586 -2.231319,0.29348 -5.144929,0.7126 -6.474686,0.93138 l -2.417742,0.39777 0.208428,1.04214 c 0.244221,1.2211 1.912377,5.08675 2.714495,6.29034 l 0.556881,0.83561 3.500064,-1.36171 c 1.925031,-0.74895 3.738185,-1.54453 4.029227,-1.76795 0.291042,-0.22342 1.561042,-0.67923 2.822222,-1.01291 1.261181,-0.33367 4.198056,-1.29217 6.52639,-2.12999 2.328333,-0.83783 5.619609,-1.9688 7.313945,-2.51329 2.802276,-0.90053 3.136953,-0.94056 3.704167,-0.44307 2.26415,1.98584 5.76589,2.48612 16.35697,2.33684 9.34407,-0.13171 9.49019,-0.16966 9.49019,-2.46493 0,-3.13772 -1.46663,-4.72645 -5.99723,-6.4965 -1.45521,-0.56853 -3.12208,-1.45777 -3.70416,-1.9761 l -1.05834,-0.9424 0.74243,-0.99787 c 0.40834,-0.54884 1.23754,-1.28783 1.84267,-1.64221 2.55983,-1.49913 8.09958,-3.05984 10.8609,-3.05984 2.45572,0 6.40824,1.01733 9.19474,2.3666 3.08855,1.49554 3.72701,2.14448 3.57783,3.63662 -0.1059,1.05927 -0.27936,1.19102 -2.75884,2.09562 -3.45774,1.26149 -6.00249,2.57166 -6.87917,3.54174 -1.03472,1.14496 -0.98038,3.93986 0.0976,5.01837 0.79381,0.79422 0.91467,0.80413 10.40694,0.85326 12.41194,0.0642 12.54326,0.0491 14.50136,-1.67451 l 1.56663,-1.379 2.94153,1.1107 c 1.61784,0.61088 3.94316,1.48598 5.16737,1.94467 1.22422,0.45868 2.65297,1.05263 3.175,1.3199 0.52204,0.26726 2.21916,0.82688 3.77138,1.2436 2.62356,0.70433 8.87075,2.96637 11.27461,4.08242 1.23185,0.57191 1.60178,0.4226 1.60178,-0.64649 z M 97.865588,110.68106 c -2.51284,-0.61108 -5.368929,-2.26599 -6.18247,-3.58233 -0.453916,-0.73445 -0.696698,-1.75058 -0.696698,-2.91595 0,-1.99103 0.816339,-3.16059 3.201826,-4.58722 5.364734,-3.20835 16.695264,-1.75837 18.852114,2.41252 0.70187,1.35728 0.64862,3.0322 -0.1525,4.79637 -0.52944,1.16591 -1.05332,1.64729 -2.63461,2.42095 -3.4516,1.68871 -8.83029,2.32075 -12.387662,1.45566 z m 6.653962,-6.39022 c -0.15495,-0.40381 -0.81597,-0.52916 -2.79033,-0.52916 -2.392337,0 -3.295004,0.27465 -2.736913,0.83274 0.124079,0.12407 1.464153,0.22559 2.977953,0.22559 2.3016,0 2.7191,-0.0867 2.54929,-0.52917 z m 45.28783,6.51877 c -3.32618,-0.52508 -6.68035,-3.01893 -7.47022,-5.55417 -0.84165,-2.70147 2.9672,-6.19532 7.75772,-7.11613 1.48071,-0.28462 1.81477,-0.24508 2.20062,0.26044 0.39732,0.52055 0.49639,0.52923 0.78275,0.0685 0.24777,-0.3986 0.95532,-0.51439 2.89649,-0.47398 3.79831,0.0791 7.01879,1.66033 8.85241,4.34656 1.60784,2.35546 -0.62457,6.09021 -4.69362,7.85226 -1.86053,0.80567 -7.13347,1.12048 -10.32615,0.61648 z m 4.67905,-5.46043 c 0.24154,-0.29104 0.65785,-0.52917 0.92514,-0.52917 0.26728,0 0.48596,-0.15875 0.48596,-0.35278 0,-0.19403 -0.18593,-0.35278 -0.41319,-0.35278 -0.22725,0 -0.7091,-0.2678 -1.07078,-0.59511 -0.61928,-0.56044 -0.70003,-0.55267 -1.38611,0.13341 -0.60195,0.60195 -0.65892,0.85857 -0.32791,1.47706 0.46948,0.87723 1.16957,0.96318 1.78689,0.21937 z m -25.3733,17.2383 c 0.47038,-0.51137 1.46973,-1.38114 2.22077,-1.93281 l 1.36554,-1.00305 -1.01276,-0.39123 c -1.25482,-0.48473 -4.78394,-0.59845 -6.62073,-0.21333 l -1.37465,0.28822 2.06916,2.09098 c 1.13803,1.15003 2.16552,2.09097 2.28329,2.09097 0.11777,0 0.59899,-0.41839 1.06938,-0.92975 z M 45.478083,60.4227 C 43.155997,59.81908 40.466264,57.44008 39.92693,55.51284 39.778605,54.98283 39.657249,44.78605 39.657249,32.853342 c 0,-21.651838 0.0014,-21.698758 0.772968,-23.1403483 0.995984,-1.86128 2.909736,-3.53124 4.597252,-4.01159 1.829344,-0.52072 118.594571,-0.88565 144.435391,-0.45141 19.34564,0.3251 19.65267,0.3414 21.15145,1.1226 1.67462,0.87287 2.07445,1.28986 3.23493,3.3738 0.78463,1.4090003 0.78596,1.4427903 0.88968,22.5441163 0.0933,18.97126 0.0434,21.32524 -0.48722,23.01226 -0.62456,1.98565 -2.373,4.10683 -3.97855,4.82674 -0.70539,0.31628 -20.59555,0.42963 -82.42145,0.46967 -44.820419,0.029 -81.888548,-0.0504 -82.373617,-0.17648 z m 163.081187,-5.99077 0.78411,-0.78393 0.0923,-20.010525 c 0.0854,-18.514865 0.0458,-20.102809 -0.52917,-21.245245 l -0.62143,-1.234726 -6.52639,-0.21955 c -3.58951,-0.12075 -39.86826,-0.23981 -80.61943,-0.26458 -81.049376,-0.0493 -75.071045,-0.20468 -75.973937,1.975096 -0.299075,0.722034 -0.38383,6.395766 -0.313204,20.967496 0.09242,19.068684 0.127371,20.011344 0.76816,20.719204 l 0.671329,0.74161 78.174512,0.089 c 42.99598,0.0489 79.32979,0.0802 80.74179,0.0695 2.16707,-0.0164 2.6895,-0.14164 3.35139,-0.80337 z M 167.3213,50.89736 c -1.86317,-1.17018 -1.8219,-2.163384 0.21904,-5.270732 1.75253,-2.668238 2.22866,-3.841937 2.65065,-6.534132 0.29758,-1.898474 0.8715,-1.468184 1.58082,1.185199 0.3348,1.252368 1.26567,3.618015 2.06861,5.256985 0.80295,1.638974 1.4599,3.157086 1.4599,3.373582 0,0.216497 -0.48157,0.855008 -1.07015,1.418908 -0.9261,0.88726 -1.38912,1.04114 -3.43959,1.14312 -1.88397,0.0937 -2.59476,-0.0237 -3.46928,-0.57293 z m 30.1507,-0.84135 c -0.30468,-0.24514 -1.47007,-1.953848 -2.58976,-3.797112 -1.11968,-1.843264 -2.55438,-4.065764 -3.1882,-4.938889 -0.63382,-0.873125 -1.55683,-2.348999 -2.05113,-3.279719 -0.6926,-1.304103 -1.69587,-2.275029 -4.37435,-4.233333 -4.55672,-3.331535 -4.4874,-3.296621 -8.28303,-4.171534 -4.72967,-1.090218 -9.51292,-1.143201 -13.5385,-0.14997 -1.76155,0.434626 -3.66488,1.035096 -4.22962,1.334375 -0.56475,0.299283 -1.66181,0.882287 -2.43792,1.295563 -1.79094,0.953667 -5.65741,4.140143 -6.40135,5.275541 -1.67115,2.550502 -4.0369,7.586733 -4.23181,9.008713 -0.16742,1.221494 -0.37428,1.623142 -0.83598,1.623142 -0.33743,0 -1.1096,0.09922 -1.71594,0.220486 -0.69709,0.139418 -1.10243,0.07863 -1.10243,-0.165319 0,-0.212189 0.22207,-0.300588 0.49348,-0.196434 0.27142,0.104151 0.59829,0.01979 0.72638,-0.187462 0.37108,-0.600414 -1.26579,-0.444617 -1.9636,0.186898 -1.14131,1.032866 -1.48242,0.272433 -1.26419,-2.818225 0.1111,-1.573428 0.2761,-3.178278 0.36667,-3.566333 0.0906,-0.388056 0.41508,-1.776385 0.72112,-3.085176 0.6067,-2.594497 1.37456,-3.974522 4.50426,-8.095196 2.25795,-2.972886 4.52009,-4.860103 9.15765,-7.639847 4.60418,-2.759738 7.19339,-3.352275 14.77491,-3.381216 9.68361,-0.03696 12.17569,0.704984 19.98364,5.949583 2.0346,1.366636 6.82747,6.04205 6.82747,6.660148 0,0.174438 0.46153,1.001014 1.02562,1.836836 2.17756,3.226541 3.20771,5.92768 3.20771,8.410904 0,2.182244 -0.0732,2.392274 -1.24108,3.560138 -1.08246,1.082463 -1.18571,1.329757 -0.8078,1.93487 0.30397,0.486741 0.33219,0.979826 0.0945,1.652266 -0.40344,1.141622 -0.87527,1.360982 -1.62677,0.756302 z m -52.61067,-4.372373 c 0.072,-0.219378 -0.25822,-0.496517 -0.73371,-0.615858 -0.47549,-0.119341 -1.09692,-0.306158 -1.38095,-0.415153 -0.5558,-0.213275 -1.10339,0.73648 -0.75223,1.304671 0.28364,0.458936 2.70232,0.228057 2.86689,-0.27366 z m 0.75989,-3.768859 c 0.93572,-2.836817 1.72173,-4.305865 3.47983,-6.503797 0.6596,-0.824618 1.02053,-1.499306 0.80206,-1.499306 -0.21847,0 -0.2975,-0.161339 -0.17563,-0.358531 0.12187,-0.197193 0.37616,-0.263007 0.56507,-0.146252 0.18891,0.116756 1.08488,-0.396592 1.99104,-1.14077 1.94538,-1.597642 4.54866,-3.293336 5.05603,-3.293336 0.19759,0 0.9433,-0.396875 1.65714,-0.881944 0.71385,-0.48507 1.46752,-0.881945 1.67485,-0.881945 0.57371,0 2.27562,-0.848032 2.27874,-1.135457 0.001,-0.139429 0.2135,-0.172639 0.47108,-0.0738 0.25758,0.09884 0.93227,-0.01139 1.49931,-0.244961 0.56703,-0.233571 1.66597,-0.438489 2.44208,-0.455369 1.02385,-0.02226 1.38145,-0.168103 1.30302,-0.531383 -0.0934,-0.432399 -0.0255,-0.432399 0.49783,0 0.55161,0.455789 0.58945,0.413893 0.42203,-0.467211 -0.1115,-0.586846 0.005,-1.12467 0.29592,-1.366111 0.38681,-0.321028 0.47981,-0.18874 0.47981,0.682494 0,1.221836 0.61316,1.810301 1.12464,1.079352 0.27369,-0.391135 0.37631,-0.39655 0.52495,-0.02769 0.14647,0.36346 0.36021,0.3435 1.03148,-0.09633 0.63256,-0.414471 0.84968,-0.441201 0.85845,-0.105685 0.006,0.247008 0.34509,0.05223 0.75253,-0.432841 0.71378,-0.849782 0.73178,-0.852999 0.49366,-0.08819 -0.15,0.481746 -0.0991,0.79375 0.12941,0.79375 0.20711,0 0.37655,-0.387505 0.37655,-0.861124 0,-0.473618 0.18293,-0.974181 0.40651,-1.112357 0.2951,-0.182387 0.3423,0.150279 0.17222,1.213901 -0.23021,1.439626 0.26115,2.092131 0.70481,0.935969 0.29672,-0.773254 0.83313,-0.646282 0.83313,0.19721 0,1.107256 0.59603,0.497201 0.85312,-0.873193 0.12515,-0.66712 0.42096,-1.28495 0.65735,-1.372958 0.6663,-0.248059 -1.15937,-0.855034 -3.42213,-1.137747 -1.98818,-0.248408 -2.03182,-0.235881 -1.65178,0.474222 0.27205,0.508338 0.27755,0.79908 0.0181,0.959407 -0.20873,0.129004 -0.553,-0.248934 -0.78385,-0.860538 -0.33078,-0.876321 -0.62169,-1.0962 -1.48083,-1.11923 -0.58805,-0.01577 -1.54098,-0.06224 -2.11762,-0.103272 -2.72242,-0.193738 -9.40343,1.273172 -11.89201,2.61106 -0.32628,0.175408 -1.75504,0.905948 -3.17501,1.623417 -2.75267,1.390837 -5.98537,4.335296 -7.91488,7.209151 -1.36046,2.026317 -3.78266,7.03041 -3.52684,7.286227 0.10559,0.10559 -0.0405,0.523952 -0.32474,0.929693 -0.28419,0.40574 -0.50417,0.980196 -0.48885,1.276576 0.0187,0.362673 0.086,0.39468 0.20578,0.09789 0.24292,-0.602023 0.8247,-0.558052 0.8247,0.06233 0,0.276814 0.27781,0.583759 0.61736,0.682103 0.33955,0.09834 0.0221,0.110846 -0.70556,0.0278 -0.77514,-0.08849 -1.32291,3.53e-4 -1.32291,0.214729 0,0.642412 0.76929,1.215902 1.72173,1.283515 0.8487,0.06025 0.99232,-0.141224 1.76028,-2.469444 z m 8.39484,-13.529956 c -0.36824,-0.368233 -0.276,-0.823147 0.16689,-0.823147 0.22115,0 0.61297,-0.277813 0.87073,-0.617361 0.44415,-0.585103 0.46923,-0.583784 0.47986,0.02519 0.006,0.353406 -0.21557,0.869343 -0.49275,1.146528 -0.56908,0.569076 -0.69215,0.601359 -1.02473,0.268781 z m 17.40371,-5.262266 c 0,-0.501241 0.17065,-0.85446 0.37923,-0.784931 0.20858,0.06953 0.36733,0.241505 0.35278,0.382175 -0.0145,0.14067 -0.0265,0.493889 -0.0265,0.78493 0,0.291042 -0.15875,0.529167 -0.35277,0.529167 -0.19403,0 -0.35278,-0.410104 -0.35278,-0.911341 z m 5.82083,0.558563 c -0.23798,-0.385064 0.0641,-1.058333 0.47491,-1.058333 0.14129,0 0.28081,0.3175 0.31004,0.705556 0.0559,0.741912 -0.41395,0.953068 -0.78495,0.352777 z m 19.644,16.366995 c -0.0614,-0.755667 -0.28316,-1.532689 -0.49289,-1.726717 -0.26669,-0.246718 -0.31442,-0.162979 -0.15875,0.278529 0.12243,0.347222 0.0414,0.921505 -0.18014,1.276188 -0.47477,0.760222 -0.13114,1.923052 0.50255,1.700643 0.27851,-0.09775 0.39972,-0.660538 0.32923,-1.528643 z m -2.95357,-5.444628 c 1.04072,-0.969581 0.97928,-1.344471 -0.48095,-2.934437 -0.6873,-0.748376 -1.49856,-1.740563 -1.80277,-2.204861 -0.30422,-0.464298 -0.73481,-0.84418 -0.95686,-0.84418 -0.22206,0 -0.5989,-0.312504 -0.83743,-0.694457 -0.23854,-0.381952 -0.91944,-0.945642 -1.51311,-1.252643 -1.03234,-0.533845 -1.10892,-0.522789 -1.75609,0.253485 -0.90261,1.082657 -0.89993,2.620211 0.005,3.104726 0.47837,0.256011 0.70556,0.260008 0.70556,0.01242 0,-0.200861 -0.18521,-0.365195 -0.41158,-0.365195 -0.22636,0 -0.30957,-0.101999 -0.18491,-0.22666 0.12466,-0.124665 0.46101,-0.03217 0.74743,0.205535 0.29647,0.246056 0.84692,0.328673 1.27807,0.191834 0.65016,-0.206354 0.72378,-0.134715 0.52032,0.506338 -0.18243,0.574764 0.11228,1.113176 1.27989,2.338289 0.83429,0.875376 1.64752,1.825032 1.80719,2.110352 0.38718,0.691843 0.6816,0.654936 1.59985,-0.200544 z m -10.0576,-7.515902 c 0.13202,-0.344054 -0.0638,-0.427119 -0.71385,-0.302849 -0.65617,0.125433 -0.85201,0.03993 -0.73215,-0.319659 0.09,-0.269995 0.33562,-0.490901 0.54581,-0.490901 0.79348,0 0.76187,-0.436129 -0.0896,-1.236028 l -0.88056,-0.827239 -0.005,0.855246 c -0.003,0.470384 -0.0971,1.19941 -0.20997,1.620058 -0.16149,0.602058 -0.0291,0.798284 0.62218,0.922094 0.45504,0.08651 0.92941,0.178905 1.05417,0.205328 0.12477,0.02642 0.30871,-0.165298 0.40877,-0.42605 z m -2.5583,-1.322656 c 0.21736,-0.406128 0.29929,-1.120503 0.18208,-1.5875 -0.38741,-1.543579 -2.66911,-0.802926 -2.66911,0.866412 0,0.51719 1.03321,1.459502 1.60029,1.459502 0.27036,0 0.66939,-0.332285 0.88674,-0.738414 z M 57.119751,37.833308 c 0,-1.574814 0.1489,-2.863299 0.330888,-2.863299 0.181987,0 1.336946,0.23332 2.566575,0.518491 3.752614,0.870289 4.955434,1.048921 7.131883,1.059163 l 2.091845,0.0098 0.44104,-1.5875 c 0.634696,-2.284568 1.196259,-3.672286 2.855143,-7.055556 0.808652,-1.649236 1.787187,-3.792361 2.174519,-4.7625 l 0.704247,-1.763889 -2.97446,-0.101928 -2.974457,-0.101932 v -1.92654 -1.926544 h 5.601251 c 6.388294,0 6.607419,0.09017 6.507279,2.677629 -0.04369,1.129033 -0.860576,3.116502 -3.20481,7.797289 -1.730389,3.455116 -3.608179,7.592956 -4.17286,9.195202 -0.566269,1.606755 -1.264,2.979769 -1.55586,3.061674 -0.291041,0.08167 -3.902604,0.257665 -8.025695,0.391096 l -7.496528,0.242598 v -2.863299 z m 40.122207,2.560924 c -0.111048,-0.179677 0.447004,-1.632381 1.240119,-3.228231 1.679723,-3.37983 2.308053,-3.635516 4.062933,-1.653346 l 1.10507,1.248198 3.25008,-0.10167 3.25008,-0.101674 0.66624,-2.293056 c 0.36643,-1.261181 0.73548,-2.531181 0.82011,-2.822222 0.71521,-2.459412 1.55819,-7.402266 1.3832,-8.110355 -0.40574,-1.641782 -1.67727,-1.827971 -4.39111,-0.642983 -1.8192,0.794343 -1.77702,0.721695 -1.90768,3.285282 -0.0299,0.58523 -0.32174,0.723893 -1.71166,0.813079 -1.81619,0.11654 -1.8621,0.05516 -1.29461,-1.730576 0.77412,-2.435899 2.11668,-4.746481 3.15657,-5.432503 0.58823,-0.388056 1.16135,-1.062743 1.27361,-1.499306 0.20256,-0.787735 0.25434,-0.79375 6.8309,-0.79375 7.46338,0 7.05506,-0.165008 7.05506,2.851076 0,1.675867 -0.0346,1.735035 -1.01424,1.735035 -2.89562,0 -3.06641,0.154125 -4.06326,3.66678 -0.50585,1.782505 -0.91444,3.551999 -0.90799,3.932209 0.0108,0.637381 0.0665,0.625493 0.71438,-0.152435 0.38645,-0.464051 0.78297,-0.76339 0.88116,-0.665205 0.0982,0.09819 0.27314,0.97742 0.38878,1.953853 0.19142,1.616205 0.1351,1.814784 -0.62831,2.215554 -2.15461,1.1311 -3.39725,2.474376 -4.13724,4.472315 -0.41545,1.121685 -0.88891,2.245078 -1.05213,2.496422 -0.36154,0.55674 -14.641856,1.088559 -14.970062,0.557509 z m -20.35692,-0.39714 c 0.02667,-0.72487 3.157866,-5.268105 3.930809,-5.703418 1.212183,-0.682689 2.056684,-0.28792 2.056684,0.961414 0,1.328741 1.106547,1.831587 4.030532,1.831587 h 2.233443 l 0.806542,-2.204861 c 0.443601,-1.212674 1.90917,-4.453947 3.256827,-7.202833 1.347654,-2.748884 2.344071,-5.169821 2.21426,-5.379862 -0.53412,-0.864221 -4.118985,-0.157843 -5.739678,1.130974 -0.873442,0.694584 -1.317029,0.767751 -4.042692,0.666793 -2.915497,-0.107989 -3.033343,-0.143211 -2.469445,-0.738079 0.325685,-0.343573 1.189052,-1.356547 1.918589,-2.25105 1.719542,-2.108373 4.237962,-3.361722 7.643041,-3.803735 2.690777,-0.349285 6.553617,-0.14376 8.08453,0.430149 0.71346,0.267462 0.8028,0.489783 0.65461,1.629036 -0.21991,1.690554 -1.952852,6.801348 -2.540661,7.492912 -0.247379,0.291042 -1.35842,2.592917 -2.468983,5.115278 -3.242585,7.364706 -3.506904,7.81006 -4.787314,8.066141 -1.581567,0.316315 -14.792884,0.280162 -14.781094,-0.04045 z m 40.401412,-0.05894 c -0.10997,-0.177937 -0.29822,-1.040518 -0.41834,-1.916849 -0.21453,-1.565198 -0.19624,-1.602582 1.03586,-2.11739 0.68984,-0.28823 2.09904,-0.625909 3.13155,-0.750398 1.83582,-0.221336 1.89111,-0.201527 2.50292,0.896412 0.60679,1.088937 0.68425,1.117883 2.57227,0.961313 1.91106,-0.158479 3.50529,-0.965959 4.06503,-2.058935 0.14406,-0.281305 0.61345,-1.384589 1.0431,-2.451742 0.6461,-1.604814 3.93262,-8.686987 4.46105,-9.613195 0.083,-0.145521 -1.66683,-0.264583 -3.88857,-0.264583 h -4.03952 l -0.24184,0.970139 c -0.13301,0.533576 -0.4858,1.486076 -0.78399,2.116667 -0.46613,0.985745 -0.72204,1.145854 -1.82488,1.141712 -0.7055,-0.0028 -1.65344,-0.10408 -2.10654,-0.225397 -0.7271,-0.194684 -0.79662,-0.365555 -0.59216,-1.45543 0.12741,-0.679168 0.42186,-1.80805 0.65433,-2.508631 0.414,-1.247666 0.45641,-1.271426 2.06853,-1.158766 1.50267,0.105011 1.69021,0.02829 2.15548,-0.881945 0.28028,-0.548329 0.62072,-1.512898 0.75652,-2.143488 l 0.2469,-1.146528 4.82267,0.0309 c 2.65246,0.017 5.61641,0.136314 6.58655,0.265148 l 1.76389,0.234248 -0.083,2.458724 c -0.076,2.251731 -0.30385,2.919913 -2.70629,7.936932 -1.4428,3.013015 -3.25256,6.843995 -4.02168,8.51329 -1.05093,2.280938 -1.60568,3.090566 -2.2326,3.258379 -1.31357,0.351607 -14.70417,0.270341 -14.92724,-0.09059 z"
       id="path693" />
  </g>
</svg>
