%TF.GenerationSoftware,KiCad,Pcbnew,7.0.9-7.0.9~ubuntu22.04.1*%
%TF.CreationDate,2023-12-10T21:51:41+01:00*%
%TF.ProjectId,cat_scale,6361745f-7363-4616-9c65-2e6b69636164,rev?*%
%TF.SameCoordinates,Original*%
%TF.FileFunction,Copper,L2,Bot*%
%TF.FilePolarity,Positive*%
%FSLAX46Y46*%
G04 Gerber Fmt 4.6, Leading zero omitted, Abs format (unit mm)*
G04 Created by KiCad (PCBNEW 7.0.9-7.0.9~ubuntu22.04.1) date 2023-12-10 21:51:41*
%MOMM*%
%LPD*%
G01*
G04 APERTURE LIST*
G04 Aperture macros list*
%AMRoundRect*
0 Rectangle with rounded corners*
0 $1 Rounding radius*
0 $2 $3 $4 $5 $6 $7 $8 $9 X,Y pos of 4 corners*
0 Add a 4 corners polygon primitive as box body*
4,1,4,$2,$3,$4,$5,$6,$7,$8,$9,$2,$3,0*
0 Add four circle primitives for the rounded corners*
1,1,$1+$1,$2,$3*
1,1,$1+$1,$4,$5*
1,1,$1+$1,$6,$7*
1,1,$1+$1,$8,$9*
0 Add four rect primitives between the rounded corners*
20,1,$1+$1,$2,$3,$4,$5,0*
20,1,$1+$1,$4,$5,$6,$7,0*
20,1,$1+$1,$6,$7,$8,$9,0*
20,1,$1+$1,$8,$9,$2,$3,0*%
G04 Aperture macros list end*
%TA.AperFunction,ComponentPad*%
%ADD10C,6.400000*%
%TD*%
%TA.AperFunction,ComponentPad*%
%ADD11O,1.600000X2.000000*%
%TD*%
%TA.AperFunction,ComponentPad*%
%ADD12R,2.000000X2.000000*%
%TD*%
%TA.AperFunction,ComponentPad*%
%ADD13C,2.000000*%
%TD*%
%TA.AperFunction,ComponentPad*%
%ADD14R,3.000000X2.500000*%
%TD*%
%TA.AperFunction,SMDPad,CuDef*%
%ADD15RoundRect,0.250000X-0.312500X-0.625000X0.312500X-0.625000X0.312500X0.625000X-0.312500X0.625000X0*%
%TD*%
%TA.AperFunction,ComponentPad*%
%ADD16R,1.700000X1.700000*%
%TD*%
%TA.AperFunction,ComponentPad*%
%ADD17O,1.700000X1.700000*%
%TD*%
%TA.AperFunction,SMDPad,CuDef*%
%ADD18R,1.500000X0.900000*%
%TD*%
%TA.AperFunction,SMDPad,CuDef*%
%ADD19R,0.900000X1.500000*%
%TD*%
%TA.AperFunction,SMDPad,CuDef*%
%ADD20R,0.900000X0.900000*%
%TD*%
%TA.AperFunction,SMDPad,CuDef*%
%ADD21RoundRect,0.150000X-0.850000X-0.150000X0.850000X-0.150000X0.850000X0.150000X-0.850000X0.150000X0*%
%TD*%
%TA.AperFunction,SMDPad,CuDef*%
%ADD22RoundRect,0.250000X-0.625000X0.312500X-0.625000X-0.312500X0.625000X-0.312500X0.625000X0.312500X0*%
%TD*%
%TA.AperFunction,SMDPad,CuDef*%
%ADD23RoundRect,0.250000X-0.650000X0.325000X-0.650000X-0.325000X0.650000X-0.325000X0.650000X0.325000X0*%
%TD*%
%TA.AperFunction,SMDPad,CuDef*%
%ADD24RoundRect,0.250000X0.650000X-0.325000X0.650000X0.325000X-0.650000X0.325000X-0.650000X-0.325000X0*%
%TD*%
%TA.AperFunction,SMDPad,CuDef*%
%ADD25R,1.500000X1.500000*%
%TD*%
%TA.AperFunction,SMDPad,CuDef*%
%ADD26RoundRect,0.250000X0.625000X-0.312500X0.625000X0.312500X-0.625000X0.312500X-0.625000X-0.312500X0*%
%TD*%
%TA.AperFunction,SMDPad,CuDef*%
%ADD27RoundRect,0.250000X0.312500X0.625000X-0.312500X0.625000X-0.312500X-0.625000X0.312500X-0.625000X0*%
%TD*%
%TA.AperFunction,SMDPad,CuDef*%
%ADD28RoundRect,0.112500X0.112500X-0.187500X0.112500X0.187500X-0.112500X0.187500X-0.112500X-0.187500X0*%
%TD*%
%TA.AperFunction,SMDPad,CuDef*%
%ADD29R,1.500000X2.000000*%
%TD*%
%TA.AperFunction,SMDPad,CuDef*%
%ADD30R,3.800000X2.000000*%
%TD*%
%TA.AperFunction,SMDPad,CuDef*%
%ADD31RoundRect,0.150000X-0.150000X0.587500X-0.150000X-0.587500X0.150000X-0.587500X0.150000X0.587500X0*%
%TD*%
%TA.AperFunction,SMDPad,CuDef*%
%ADD32R,2.000000X1.000000*%
%TD*%
%TA.AperFunction,SMDPad,CuDef*%
%ADD33R,1.000000X0.520000*%
%TD*%
%TA.AperFunction,SMDPad,CuDef*%
%ADD34R,1.000000X0.270000*%
%TD*%
%TA.AperFunction,ComponentPad*%
%ADD35O,2.600000X1.300000*%
%TD*%
%TA.AperFunction,ComponentPad*%
%ADD36O,2.300000X1.300000*%
%TD*%
%TA.AperFunction,SMDPad,CuDef*%
%ADD37RoundRect,0.250000X0.325000X0.650000X-0.325000X0.650000X-0.325000X-0.650000X0.325000X-0.650000X0*%
%TD*%
%TA.AperFunction,SMDPad,CuDef*%
%ADD38RoundRect,0.243750X0.243750X0.456250X-0.243750X0.456250X-0.243750X-0.456250X0.243750X-0.456250X0*%
%TD*%
%TA.AperFunction,ViaPad*%
%ADD39C,0.800000*%
%TD*%
%TA.AperFunction,Conductor*%
%ADD40C,0.250000*%
%TD*%
%TA.AperFunction,Conductor*%
%ADD41C,0.500000*%
%TD*%
%TA.AperFunction,Conductor*%
%ADD42C,0.200000*%
%TD*%
G04 APERTURE END LIST*
D10*
%TO.P,H2,1,1*%
%TO.N,GND*%
X192000000Y-108000000D03*
%TD*%
D11*
%TO.P,J5,1,Pin_1*%
%TO.N,+5V*%
X144924000Y-83554000D03*
%TO.P,J5,2,Pin_2*%
%TO.N,GND*%
X147464000Y-83554000D03*
%TO.P,J5,3,Pin_3*%
%TO.N,/SCL*%
X150004000Y-83554000D03*
%TO.P,J5,4,Pin_4*%
%TO.N,/SDA*%
X152544000Y-83554000D03*
%TD*%
D10*
%TO.P,H3,1,1*%
%TO.N,GND*%
X126500000Y-79500000D03*
%TD*%
%TO.P,H1,1,1*%
%TO.N,GND*%
X192000000Y-79500000D03*
%TD*%
D12*
%TO.P,SW3,A,A*%
%TO.N,/ROT0*%
X177662000Y-90464000D03*
D13*
%TO.P,SW3,B,B*%
%TO.N,/ROT1*%
X177662000Y-95464000D03*
%TO.P,SW3,C,C*%
%TO.N,GND*%
X177662000Y-92964000D03*
D14*
%TO.P,SW3,MP*%
%TO.N,N/C*%
X185162000Y-87364000D03*
X185162000Y-98564000D03*
D13*
%TO.P,SW3,S1,S1*%
%TO.N,/BTN0*%
X192162000Y-90464000D03*
%TO.P,SW3,S2,S2*%
%TO.N,GND*%
X192162000Y-95464000D03*
%TD*%
D10*
%TO.P,H4,1,1*%
%TO.N,GND*%
X126508000Y-108042000D03*
%TD*%
D15*
%TO.P,R3,1*%
%TO.N,Net-(J1-CC1)*%
X131887500Y-98044000D03*
%TO.P,R3,2*%
%TO.N,GND*%
X134812500Y-98044000D03*
%TD*%
D16*
%TO.P,J4,1,Pin_1*%
%TO.N,/AVDD*%
X142758000Y-105943000D03*
D17*
%TO.P,J4,2,Pin_2*%
%TO.N,GND*%
X145298000Y-105943000D03*
%TO.P,J4,3,Pin_3*%
%TO.N,Net-(J4-Pin_3)*%
X147838000Y-105943000D03*
%TO.P,J4,4,Pin_4*%
%TO.N,/INA-*%
X150378000Y-105943000D03*
%TD*%
D18*
%TO.P,U1,1,GND*%
%TO.N,GND*%
X173998000Y-77494000D03*
%TO.P,U1,2,3V3*%
%TO.N,+3V3*%
X173998000Y-78764000D03*
%TO.P,U1,3,EN*%
%TO.N,/RST*%
X173998000Y-80034000D03*
%TO.P,U1,4,IO4*%
%TO.N,unconnected-(U1-IO4-Pad4)*%
X173998000Y-81304000D03*
%TO.P,U1,5,IO5*%
%TO.N,unconnected-(U1-IO5-Pad5)*%
X173998000Y-82574000D03*
%TO.P,U1,6,IO6*%
%TO.N,/LED_RGB*%
X173998000Y-83844000D03*
%TO.P,U1,7,IO7*%
%TO.N,/ROT0*%
X173998000Y-85114000D03*
%TO.P,U1,8,IO15*%
%TO.N,unconnected-(U1-IO15-Pad8)*%
X173998000Y-86384000D03*
%TO.P,U1,9,IO16*%
%TO.N,unconnected-(U1-IO16-Pad9)*%
X173998000Y-87654000D03*
%TO.P,U1,10,IO17*%
%TO.N,unconnected-(U1-IO17-Pad10)*%
X173998000Y-88924000D03*
%TO.P,U1,11,IO18*%
%TO.N,unconnected-(U1-IO18-Pad11)*%
X173998000Y-90194000D03*
%TO.P,U1,12,IO8*%
%TO.N,/ROT1*%
X173998000Y-91464000D03*
%TO.P,U1,13,IO19*%
%TO.N,/USB_D-*%
X173998000Y-92734000D03*
%TO.P,U1,14,IO20*%
%TO.N,/USB_D+*%
X173998000Y-94004000D03*
D19*
%TO.P,U1,15,IO3*%
%TO.N,unconnected-(U1-IO3-Pad15)*%
X172233000Y-95254000D03*
%TO.P,U1,16,IO46*%
%TO.N,unconnected-(U1-IO46-Pad16)*%
X170963000Y-95254000D03*
%TO.P,U1,17,IO9*%
%TO.N,/BTN0*%
X169693000Y-95254000D03*
%TO.P,U1,18,IO10*%
%TO.N,/HX711_DATA*%
X168423000Y-95254000D03*
%TO.P,U1,19,IO11*%
%TO.N,/HX711_SCK*%
X167153000Y-95254000D03*
%TO.P,U1,20,IO12*%
%TO.N,unconnected-(U1-IO12-Pad20)*%
X165883000Y-95254000D03*
%TO.P,U1,21,IO13*%
%TO.N,unconnected-(U1-IO13-Pad21)*%
X164613000Y-95254000D03*
%TO.P,U1,22,IO14*%
%TO.N,unconnected-(U1-IO14-Pad22)*%
X163343000Y-95254000D03*
%TO.P,U1,23,IO21*%
%TO.N,unconnected-(U1-IO21-Pad23)*%
X162073000Y-95254000D03*
%TO.P,U1,24,IO33*%
%TO.N,unconnected-(U1-IO33-Pad24)*%
X160803000Y-95254000D03*
%TO.P,U1,25,IO34*%
%TO.N,unconnected-(U1-IO34-Pad25)*%
X159533000Y-95254000D03*
%TO.P,U1,26,IO45*%
%TO.N,/BUZZ*%
X158263000Y-95254000D03*
D18*
%TO.P,U1,27,IO0*%
%TO.N,/BOOT*%
X156498000Y-94004000D03*
%TO.P,U1,28,IO35*%
%TO.N,unconnected-(U1-IO35-Pad28)*%
X156498000Y-92734000D03*
%TO.P,U1,29,IO36*%
%TO.N,unconnected-(U1-IO36-Pad29)*%
X156498000Y-91464000D03*
%TO.P,U1,30,IO37*%
%TO.N,unconnected-(U1-IO37-Pad30)*%
X156498000Y-90194000D03*
%TO.P,U1,31,IO38*%
%TO.N,unconnected-(U1-IO38-Pad31)*%
X156498000Y-88924000D03*
%TO.P,U1,32,IO39*%
%TO.N,unconnected-(U1-IO39-Pad32)*%
X156498000Y-87654000D03*
%TO.P,U1,33,IO40*%
%TO.N,unconnected-(U1-IO40-Pad33)*%
X156498000Y-86384000D03*
%TO.P,U1,34,IO41*%
%TO.N,/SCL*%
X156498000Y-85114000D03*
%TO.P,U1,35,IO42*%
%TO.N,/SDA*%
X156498000Y-83844000D03*
%TO.P,U1,36,RXD0*%
%TO.N,/RXD0*%
X156498000Y-82574000D03*
%TO.P,U1,37,TXD0*%
%TO.N,/TXD0*%
X156498000Y-81304000D03*
%TO.P,U1,38,IO2*%
%TO.N,unconnected-(U1-IO2-Pad38)*%
X156498000Y-80034000D03*
%TO.P,U1,39,IO1*%
%TO.N,unconnected-(U1-IO1-Pad39)*%
X156498000Y-78764000D03*
%TO.P,U1,40,GND*%
%TO.N,GND*%
X156498000Y-77494000D03*
D20*
%TO.P,U1,41_1,EPAD*%
X168148000Y-83814000D03*
%TO.P,U1,41_2,EPAD*%
X166748000Y-83814000D03*
%TO.P,U1,41_3,EPAD*%
X165348000Y-83814000D03*
%TO.P,U1,41_4,EPAD*%
X168148000Y-85214000D03*
%TO.P,U1,41_5,EPAD*%
X166748000Y-85214000D03*
%TO.P,U1,41_6,EPAD*%
X165348000Y-85214000D03*
%TO.P,U1,41_7,EPAD*%
X168148000Y-86614000D03*
%TO.P,U1,41_8,EPAD*%
X166748000Y-86614000D03*
%TO.P,U1,41_9,EPAD*%
X165348000Y-86614000D03*
%TD*%
D21*
%TO.P,U3,1,VSUP*%
%TO.N,+3V3*%
X168950000Y-108585000D03*
%TO.P,U3,2,BASE*%
%TO.N,Net-(Q2-B)*%
X168950000Y-107315000D03*
%TO.P,U3,3,AVDD*%
%TO.N,/AVDD*%
X168950000Y-106045000D03*
%TO.P,U3,4,VFB*%
%TO.N,Net-(U3-VFB)*%
X168950000Y-104775000D03*
%TO.P,U3,5,AGND*%
%TO.N,GND*%
X168950000Y-103505000D03*
%TO.P,U3,6,VBG*%
%TO.N,Net-(U3-VBG)*%
X168950000Y-102235000D03*
%TO.P,U3,7,INA-*%
%TO.N,/INA-*%
X168950000Y-100965000D03*
%TO.P,U3,8,INA+*%
%TO.N,/INA+*%
X168950000Y-99695000D03*
%TO.P,U3,9,INB-*%
%TO.N,/INB-*%
X173950000Y-99695000D03*
%TO.P,U3,10,INB+*%
%TO.N,/INB+*%
X173950000Y-100965000D03*
%TO.P,U3,11,PD_SCK*%
%TO.N,/HX711_SCK*%
X173950000Y-102235000D03*
%TO.P,U3,12,DOUT*%
%TO.N,/HX711_DATA*%
X173950000Y-103505000D03*
%TO.P,U3,13,XO*%
%TO.N,unconnected-(U3-XO-Pad13)*%
X173950000Y-104775000D03*
%TO.P,U3,14,XI*%
%TO.N,GND*%
X173950000Y-106045000D03*
%TO.P,U3,15,RATE*%
X173950000Y-107315000D03*
%TO.P,U3,16,DVDD*%
%TO.N,+3V3*%
X173950000Y-108585000D03*
%TD*%
D22*
%TO.P,R9,1*%
%TO.N,/INA+*%
X161544000Y-99629500D03*
%TO.P,R9,2*%
%TO.N,Net-(J4-Pin_3)*%
X161544000Y-102554500D03*
%TD*%
D16*
%TO.P,J3,1,Pin_1*%
%TO.N,+3V3*%
X145034000Y-79248000D03*
D17*
%TO.P,J3,2,Pin_2*%
%TO.N,GND*%
X147574000Y-79248000D03*
%TO.P,J3,3,Pin_3*%
%TO.N,/SCL*%
X150114000Y-79248000D03*
%TO.P,J3,4,Pin_4*%
%TO.N,/SDA*%
X152654000Y-79248000D03*
%TD*%
D23*
%TO.P,C9,1*%
%TO.N,Net-(U3-VBG)*%
X164338000Y-104443000D03*
%TO.P,C9,2*%
%TO.N,GND*%
X164338000Y-107393000D03*
%TD*%
D22*
%TO.P,R11,1*%
%TO.N,/SCL*%
X150876000Y-86929500D03*
%TO.P,R11,2*%
%TO.N,+3V3*%
X150876000Y-89854500D03*
%TD*%
D24*
%TO.P,C8,1*%
%TO.N,GND*%
X156464000Y-102567000D03*
%TO.P,C8,2*%
%TO.N,/AVDD*%
X156464000Y-99617000D03*
%TD*%
D22*
%TO.P,R1,1*%
%TO.N,/RST*%
X135382000Y-102677500D03*
%TO.P,R1,2*%
%TO.N,+3V3*%
X135382000Y-105602500D03*
%TD*%
D23*
%TO.P,C5,1*%
%TO.N,GND*%
X140970000Y-92251000D03*
%TO.P,C5,2*%
%TO.N,+5V*%
X140970000Y-95201000D03*
%TD*%
D24*
%TO.P,C10,1*%
%TO.N,/INA-*%
X164338000Y-102567000D03*
%TO.P,C10,2*%
%TO.N,/INA+*%
X164338000Y-99617000D03*
%TD*%
D25*
%TO.P,SW2,1,1*%
%TO.N,GND*%
X124370000Y-85852000D03*
%TO.P,SW2,2,2*%
%TO.N,/BOOT*%
X132170000Y-85852000D03*
%TD*%
D23*
%TO.P,C7,1*%
%TO.N,+3V3*%
X161544000Y-104443000D03*
%TO.P,C7,2*%
%TO.N,GND*%
X161544000Y-107393000D03*
%TD*%
D15*
%TO.P,R6,1*%
%TO.N,Net-(J1-D+-PadA6)*%
X131887500Y-92964000D03*
%TO.P,R6,2*%
%TO.N,/USB_D+*%
X134812500Y-92964000D03*
%TD*%
%TO.P,R5,1*%
%TO.N,Net-(J1-D--PadA7)*%
X131887500Y-95504000D03*
%TO.P,R5,2*%
%TO.N,/USB_D-*%
X134812500Y-95504000D03*
%TD*%
%TO.P,R2,1*%
%TO.N,Net-(J1-CC2)*%
X131887500Y-90424000D03*
%TO.P,R2,2*%
%TO.N,GND*%
X134812500Y-90424000D03*
%TD*%
D26*
%TO.P,R8,1*%
%TO.N,GND*%
X159004000Y-107380500D03*
%TO.P,R8,2*%
%TO.N,Net-(U3-VFB)*%
X159004000Y-104455500D03*
%TD*%
D25*
%TO.P,SW1,1,1*%
%TO.N,GND*%
X124370000Y-102362000D03*
%TO.P,SW1,2,2*%
%TO.N,/RST*%
X132170000Y-102362000D03*
%TD*%
D24*
%TO.P,C2,1*%
%TO.N,GND*%
X138176000Y-105615000D03*
%TO.P,C2,2*%
%TO.N,/RST*%
X138176000Y-102665000D03*
%TD*%
D16*
%TO.P,J6,1,Pin_1*%
%TO.N,+5V*%
X139187000Y-99060000D03*
D17*
%TO.P,J6,2,Pin_2*%
%TO.N,GND*%
X141727000Y-99060000D03*
%TD*%
D27*
%TO.P,R4,1*%
%TO.N,Net-(D1-A)*%
X148008500Y-98719000D03*
%TO.P,R4,2*%
%TO.N,+3V3*%
X145083500Y-98719000D03*
%TD*%
D22*
%TO.P,R12,1*%
%TO.N,/SDA*%
X153416000Y-86929500D03*
%TO.P,R12,2*%
%TO.N,+3V3*%
X153416000Y-89854500D03*
%TD*%
D28*
%TO.P,D2,1,K*%
%TO.N,+5V*%
X138176000Y-95284000D03*
%TO.P,D2,2,A*%
%TO.N,Net-(D2-A)*%
X138176000Y-93184000D03*
%TD*%
D22*
%TO.P,R7,1*%
%TO.N,/AVDD*%
X159004000Y-99629500D03*
%TO.P,R7,2*%
%TO.N,Net-(U3-VFB)*%
X159004000Y-102554500D03*
%TD*%
D29*
%TO.P,U2,1,GND*%
%TO.N,GND*%
X148350000Y-94844000D03*
%TO.P,U2,2,VO*%
%TO.N,+3V3*%
X146050000Y-94844000D03*
D30*
X146050000Y-88544000D03*
D29*
%TO.P,U2,3,VI*%
%TO.N,+5V*%
X143750000Y-94844000D03*
%TD*%
D31*
%TO.P,Q2,1,B*%
%TO.N,Net-(Q2-B)*%
X154498000Y-104726500D03*
%TO.P,Q2,2,E*%
%TO.N,+3V3*%
X156398000Y-104726500D03*
%TO.P,Q2,3,C*%
%TO.N,/AVDD*%
X155448000Y-106601500D03*
%TD*%
D32*
%TO.P,J1,*%
%TO.N,*%
X124834000Y-95634000D03*
X124834000Y-92834000D03*
D33*
%TO.P,J1,A1,GND*%
%TO.N,GND*%
X129034000Y-97334000D03*
%TO.P,J1,A4,VBUS*%
%TO.N,Net-(D2-A)*%
X129034000Y-96584000D03*
D34*
%TO.P,J1,A5,CC1*%
%TO.N,Net-(J1-CC1)*%
X129034000Y-95984000D03*
%TO.P,J1,A6,D+*%
%TO.N,Net-(J1-D+-PadA6)*%
X129034000Y-94484000D03*
%TO.P,J1,A7,D-*%
%TO.N,Net-(J1-D--PadA7)*%
X129034000Y-93484000D03*
%TO.P,J1,A8,SBU1*%
%TO.N,unconnected-(J1-SBU1-PadA8)*%
X129034000Y-92484000D03*
D33*
%TO.P,J1,A9,VBUS*%
%TO.N,Net-(D2-A)*%
X129034000Y-91884000D03*
%TO.P,J1,A12,GND*%
%TO.N,GND*%
X129034000Y-91134000D03*
%TO.P,J1,B1,GND*%
X129034000Y-91134000D03*
%TO.P,J1,B4,VBUS*%
%TO.N,Net-(D2-A)*%
X129034000Y-91884000D03*
D34*
%TO.P,J1,B5,CC2*%
%TO.N,Net-(J1-CC2)*%
X129034000Y-92984000D03*
%TO.P,J1,B6,D+*%
%TO.N,Net-(J1-D+-PadA6)*%
X129034000Y-93984000D03*
%TO.P,J1,B7,D-*%
%TO.N,Net-(J1-D--PadA7)*%
X129034000Y-94984000D03*
%TO.P,J1,B8,SBU2*%
%TO.N,unconnected-(J1-SBU2-PadB8)*%
X129034000Y-95484000D03*
D33*
%TO.P,J1,B9,VBUS*%
%TO.N,Net-(D2-A)*%
X129034000Y-96584000D03*
%TO.P,J1,B12,GND*%
%TO.N,GND*%
X129034000Y-97334000D03*
D35*
%TO.P,J1,S1,SHIELD*%
X124834000Y-98554000D03*
D36*
X128659000Y-98554000D03*
D35*
X124834000Y-89914000D03*
D36*
X128659000Y-89914000D03*
%TD*%
D37*
%TO.P,C4,1*%
%TO.N,GND*%
X180594000Y-78994000D03*
%TO.P,C4,2*%
%TO.N,+3V3*%
X177644000Y-78994000D03*
%TD*%
D16*
%TO.P,J2,1,Pin_1*%
%TO.N,+3V3*%
X132852000Y-79248000D03*
D17*
%TO.P,J2,2,Pin_2*%
%TO.N,/RXD0*%
X135392000Y-79248000D03*
%TO.P,J2,3,Pin_3*%
%TO.N,/TXD0*%
X137932000Y-79248000D03*
%TO.P,J2,4,Pin_4*%
%TO.N,GND*%
X140472000Y-79248000D03*
%TD*%
D37*
%TO.P,C3,1*%
%TO.N,GND*%
X180594000Y-82042000D03*
%TO.P,C3,2*%
%TO.N,+3V3*%
X177644000Y-82042000D03*
%TD*%
D38*
%TO.P,D1,1,K*%
%TO.N,GND*%
X151559500Y-98806000D03*
%TO.P,D1,2,A*%
%TO.N,Net-(D1-A)*%
X149684500Y-98806000D03*
%TD*%
D24*
%TO.P,C6,1*%
%TO.N,GND*%
X151130000Y-95201000D03*
%TO.P,C6,2*%
%TO.N,+3V3*%
X151130000Y-92251000D03*
%TD*%
D39*
%TO.N,GND*%
X166624000Y-102362000D03*
X146558000Y-104140000D03*
X175768000Y-90170000D03*
X154432000Y-82804000D03*
X151384000Y-81280000D03*
X141224000Y-83058000D03*
X157734000Y-101092000D03*
X175768000Y-91186000D03*
%TO.N,/BOOT*%
X157988000Y-93904498D03*
X137668000Y-86106000D03*
%TO.N,/RST*%
X139954000Y-101600000D03*
X171450000Y-80010000D03*
%TO.N,+3V3*%
X145542000Y-86106000D03*
X171450000Y-107696000D03*
X177800000Y-84074000D03*
X153924000Y-91694000D03*
X171450000Y-78740000D03*
%TO.N,/AVDD*%
X153416000Y-105156000D03*
X154686000Y-102616000D03*
%TO.N,/INA-*%
X164084000Y-101346000D03*
%TO.N,Net-(D2-A)*%
X130066201Y-91712201D03*
X138176000Y-92202000D03*
%TO.N,/SDA*%
X153416000Y-86106000D03*
%TO.N,Net-(J4-Pin_3)*%
X160517388Y-103356545D03*
%TO.N,/USB_D-*%
X136398000Y-95504000D03*
X162052000Y-92710000D03*
%TO.N,/USB_D+*%
X160160378Y-93612378D03*
X136398000Y-92964000D03*
%TO.N,Net-(U3-VFB)*%
X166878000Y-105156000D03*
X159004000Y-104394000D03*
%TO.N,/LED_RGB*%
X172212000Y-83820000D03*
%TO.N,/BUZZ*%
X158242000Y-96774000D03*
%TD*%
D40*
%TO.N,GND*%
X129034000Y-97334000D02*
X129034000Y-98179000D01*
X129034000Y-98179000D02*
X128659000Y-98554000D01*
%TO.N,/BOOT*%
X157888498Y-94004000D02*
X157988000Y-93904498D01*
X156498000Y-94004000D02*
X157888498Y-94004000D01*
X137414000Y-85852000D02*
X132170000Y-85852000D01*
X137668000Y-86106000D02*
X137414000Y-85852000D01*
%TO.N,/RST*%
X138176000Y-102665000D02*
X138889000Y-102665000D01*
X171450000Y-80010000D02*
X171474000Y-80034000D01*
X138889000Y-102665000D02*
X139954000Y-101600000D01*
X135189500Y-102870000D02*
X135382000Y-102677500D01*
X138163500Y-102677500D02*
X138176000Y-102665000D01*
X171474000Y-80034000D02*
X173998000Y-80034000D01*
X135382000Y-102677500D02*
X138163500Y-102677500D01*
X132170000Y-102870000D02*
X135189500Y-102870000D01*
D41*
%TO.N,+3V3*%
X157139500Y-105468000D02*
X156398000Y-104726500D01*
X150876000Y-91997000D02*
X151130000Y-92251000D01*
X177644000Y-78994000D02*
X177644000Y-82042000D01*
X146050000Y-94244000D02*
X148043000Y-92251000D01*
X170561000Y-108585000D02*
X171450000Y-107696000D01*
X151130000Y-92251000D02*
X153367000Y-92251000D01*
X152146000Y-101346000D02*
X154339000Y-103539000D01*
X145083500Y-98756500D02*
X145083500Y-98719000D01*
X148043000Y-92251000D02*
X151130000Y-92251000D01*
X177414000Y-78764000D02*
X177644000Y-78994000D01*
X171450000Y-78740000D02*
X173974000Y-78740000D01*
X160519000Y-105468000D02*
X157139500Y-105468000D01*
X155210500Y-103539000D02*
X156398000Y-104726500D01*
X145083500Y-99363500D02*
X145083500Y-98719000D01*
X146050000Y-94844000D02*
X146050000Y-94244000D01*
X146050000Y-86614000D02*
X145542000Y-86106000D01*
X139375000Y-104465000D02*
X145083500Y-98756500D01*
X150876000Y-89854500D02*
X150876000Y-91997000D01*
X135382000Y-105602500D02*
X136519500Y-104465000D01*
X153416000Y-89854500D02*
X150876000Y-89854500D01*
X177800000Y-82198000D02*
X177644000Y-82042000D01*
X152146000Y-101346000D02*
X147066000Y-101346000D01*
X153367000Y-92251000D02*
X153924000Y-91694000D01*
X161544000Y-104443000D02*
X160519000Y-105468000D01*
X154339000Y-103539000D02*
X155210500Y-103539000D01*
X172339000Y-108585000D02*
X171450000Y-107696000D01*
X147066000Y-101346000D02*
X145083500Y-99363500D01*
X173974000Y-78740000D02*
X173998000Y-78764000D01*
X173998000Y-78764000D02*
X177414000Y-78764000D01*
X146050000Y-88544000D02*
X146050000Y-86614000D01*
X146050000Y-97752500D02*
X145083500Y-98719000D01*
X173950000Y-108585000D02*
X172339000Y-108585000D01*
X146050000Y-94844000D02*
X146050000Y-97752500D01*
X136519500Y-104465000D02*
X139375000Y-104465000D01*
X146050000Y-88544000D02*
X149565500Y-88544000D01*
X177800000Y-84074000D02*
X177800000Y-82198000D01*
X149565500Y-88544000D02*
X150876000Y-89854500D01*
X168950000Y-108585000D02*
X170561000Y-108585000D01*
D40*
%TO.N,/AVDD*%
X163680827Y-105918000D02*
X162814000Y-105051173D01*
X160298327Y-100923827D02*
X159004000Y-99629500D01*
X159004000Y-99629500D02*
X156476500Y-99629500D01*
X154861500Y-106601500D02*
X155448000Y-106601500D01*
X155448000Y-106601500D02*
X153494500Y-106601500D01*
X162814000Y-105051173D02*
X162814000Y-100923827D01*
X167132000Y-105918000D02*
X163680827Y-105918000D01*
X153416000Y-105156000D02*
X154861500Y-106601500D01*
X152400000Y-107696000D02*
X144511000Y-107696000D01*
X168950000Y-106045000D02*
X167259000Y-106045000D01*
X153494500Y-106601500D02*
X152400000Y-107696000D01*
X167259000Y-106045000D02*
X167132000Y-105918000D01*
X144511000Y-107696000D02*
X142758000Y-105943000D01*
X154686000Y-101395000D02*
X154686000Y-102616000D01*
X162814000Y-100923827D02*
X160298327Y-100923827D01*
X156476500Y-99629500D02*
X156464000Y-99617000D01*
X156464000Y-99617000D02*
X154686000Y-101395000D01*
%TO.N,Net-(U3-VBG)*%
X166321000Y-104443000D02*
X164338000Y-104443000D01*
X168950000Y-102235000D02*
X168529000Y-102235000D01*
X168529000Y-102235000D02*
X166321000Y-104443000D01*
D42*
%TO.N,/INA-*%
X164338000Y-102567000D02*
X164338000Y-101600000D01*
X168950000Y-100965000D02*
X165940000Y-100965000D01*
X164338000Y-101600000D02*
X164084000Y-101346000D01*
X165940000Y-100965000D02*
X164338000Y-102567000D01*
%TO.N,/INA+*%
X164416000Y-99695000D02*
X164338000Y-99617000D01*
X161556500Y-99617000D02*
X161544000Y-99629500D01*
X168950000Y-99695000D02*
X164416000Y-99695000D01*
X164338000Y-99617000D02*
X161556500Y-99617000D01*
D40*
%TO.N,Net-(D1-A)*%
X148008500Y-98719000D02*
X149597500Y-98719000D01*
X149597500Y-98719000D02*
X149684500Y-98806000D01*
%TO.N,Net-(D2-A)*%
X127254000Y-95554000D02*
X128284000Y-96584000D01*
X129034000Y-91884000D02*
X128363594Y-91884000D01*
X128363594Y-91884000D02*
X127254000Y-92993594D01*
X128284000Y-96584000D02*
X129034000Y-96584000D01*
D41*
X138176000Y-92202000D02*
X138176000Y-93184000D01*
D40*
X127254000Y-92993594D02*
X127254000Y-95554000D01*
X129894402Y-91884000D02*
X130066201Y-91712201D01*
D41*
X129034000Y-91884000D02*
X129894402Y-91884000D01*
D40*
%TO.N,Net-(J1-CC1)*%
X129766000Y-95984000D02*
X129034000Y-95984000D01*
X131887500Y-98044000D02*
X131826000Y-98044000D01*
X131826000Y-98044000D02*
X129766000Y-95984000D01*
%TO.N,Net-(J1-D+-PadA6)*%
X129819000Y-93984000D02*
X129034000Y-93984000D01*
X129034000Y-94484000D02*
X129034000Y-93984000D01*
X131887500Y-92964000D02*
X130839000Y-92964000D01*
X130839000Y-92964000D02*
X129819000Y-93984000D01*
%TO.N,Net-(J1-D--PadA7)*%
X129034000Y-93484000D02*
X128249000Y-93484000D01*
X131887500Y-95504000D02*
X131367500Y-94984000D01*
X128249000Y-93484000D02*
X128016000Y-93717000D01*
X128016000Y-93717000D02*
X128016000Y-94751000D01*
X128016000Y-94751000D02*
X128249000Y-94984000D01*
X128249000Y-94984000D02*
X129034000Y-94984000D01*
X131367500Y-94984000D02*
X129034000Y-94984000D01*
%TO.N,Net-(J1-CC2)*%
X131887500Y-90424000D02*
X131887500Y-90915500D01*
X129819000Y-92984000D02*
X129034000Y-92984000D01*
X129054000Y-92964000D02*
X129034000Y-92984000D01*
X131887500Y-90915500D02*
X129819000Y-92984000D01*
%TO.N,/RXD0*%
X153162000Y-77724000D02*
X143256000Y-77724000D01*
X155498000Y-82574000D02*
X154318299Y-81394299D01*
X136567000Y-80423000D02*
X135392000Y-79248000D01*
X142494000Y-78486000D02*
X142494000Y-79756000D01*
X154318299Y-78880299D02*
X153162000Y-77724000D01*
X143256000Y-77724000D02*
X142494000Y-78486000D01*
X141827000Y-80423000D02*
X136567000Y-80423000D01*
X154318299Y-81394299D02*
X154318299Y-78880299D01*
X142494000Y-79756000D02*
X141827000Y-80423000D01*
X156498000Y-82574000D02*
X155498000Y-82574000D01*
%TO.N,/TXD0*%
X139964000Y-77216000D02*
X137932000Y-79248000D01*
X154940000Y-77724000D02*
X154432000Y-77216000D01*
X154940000Y-80746000D02*
X154940000Y-77724000D01*
X155498000Y-81304000D02*
X154940000Y-80746000D01*
X154432000Y-77216000D02*
X139964000Y-77216000D01*
X156498000Y-81304000D02*
X155498000Y-81304000D01*
%TO.N,/SCL*%
X150876000Y-85802000D02*
X151564000Y-85114000D01*
X150876000Y-86929500D02*
X150876000Y-85802000D01*
X150114000Y-83444000D02*
X150004000Y-83554000D01*
X156498000Y-85114000D02*
X151564000Y-85114000D01*
X151564000Y-85114000D02*
X150004000Y-83554000D01*
X150114000Y-79248000D02*
X150114000Y-83444000D01*
%TO.N,/SDA*%
X156498000Y-83844000D02*
X152834000Y-83844000D01*
X152834000Y-83844000D02*
X152544000Y-83554000D01*
X152654000Y-79248000D02*
X152654000Y-83444000D01*
X152654000Y-83444000D02*
X152544000Y-83554000D01*
X153416000Y-86929500D02*
X153416000Y-86106000D01*
%TO.N,Net-(J4-Pin_3)*%
X160517388Y-103356545D02*
X160741955Y-103356545D01*
X160741955Y-103356545D02*
X161544000Y-102554500D01*
%TO.N,Net-(Q2-B)*%
X165296000Y-106368000D02*
X156630249Y-106368000D01*
X154988749Y-104726500D02*
X154498000Y-104726500D01*
X168950000Y-107315000D02*
X166243000Y-107315000D01*
X166243000Y-107315000D02*
X165296000Y-106368000D01*
X156630249Y-106368000D02*
X154988749Y-104726500D01*
D42*
%TO.N,/USB_D-*%
X162076000Y-92734000D02*
X162052000Y-92710000D01*
X173998000Y-92734000D02*
X162076000Y-92734000D01*
X134812500Y-95504000D02*
X136398000Y-95504000D01*
%TO.N,/USB_D+*%
X160160378Y-93612378D02*
X172098378Y-93612378D01*
X134812500Y-92964000D02*
X136398000Y-92964000D01*
X172490000Y-94004000D02*
X173998000Y-94004000D01*
X172098378Y-93612378D02*
X172490000Y-94004000D01*
D40*
%TO.N,Net-(U3-VFB)*%
X159004000Y-102554500D02*
X159004000Y-104455500D01*
X168950000Y-104775000D02*
X167259000Y-104775000D01*
X167259000Y-104775000D02*
X166878000Y-105156000D01*
%TO.N,/LED_RGB*%
X172212000Y-83820000D02*
X173974000Y-83820000D01*
X173974000Y-83820000D02*
X173998000Y-83844000D01*
%TO.N,/ROT0*%
X174998000Y-85114000D02*
X173998000Y-85114000D01*
X177662000Y-90464000D02*
X177662000Y-87778000D01*
X177662000Y-87778000D02*
X174998000Y-85114000D01*
%TO.N,/ROT1*%
X175514000Y-95250000D02*
X175514000Y-91980000D01*
X174998000Y-91464000D02*
X173998000Y-91464000D01*
X175728000Y-95464000D02*
X175514000Y-95250000D01*
X175514000Y-91980000D02*
X174998000Y-91464000D01*
X177662000Y-95464000D02*
X175728000Y-95464000D01*
%TO.N,/BTN0*%
X185837000Y-96789000D02*
X170228000Y-96789000D01*
X169693000Y-96254000D02*
X169693000Y-95254000D01*
X170228000Y-96789000D02*
X169693000Y-96254000D01*
X192162000Y-90464000D02*
X185837000Y-96789000D01*
%TO.N,/HX711_DATA*%
X173165751Y-97239000D02*
X169408000Y-97239000D01*
X175514000Y-99587249D02*
X173165751Y-97239000D01*
X175514000Y-102342751D02*
X175514000Y-99587249D01*
X174351751Y-103505000D02*
X175514000Y-102342751D01*
X173950000Y-103505000D02*
X174351751Y-103505000D01*
X169408000Y-97239000D02*
X168423000Y-96254000D01*
X168423000Y-96254000D02*
X168423000Y-95254000D01*
%TO.N,/HX711_SCK*%
X167153000Y-96254000D02*
X168689000Y-97790000D01*
X172593000Y-102235000D02*
X173950000Y-102235000D01*
X171958000Y-98552000D02*
X171958000Y-101600000D01*
X168689000Y-97790000D02*
X171196000Y-97790000D01*
X171958000Y-101600000D02*
X172593000Y-102235000D01*
X171196000Y-97790000D02*
X171958000Y-98552000D01*
X167153000Y-95254000D02*
X167153000Y-96254000D01*
%TO.N,/BUZZ*%
X158242000Y-96774000D02*
X158242000Y-95275000D01*
X158242000Y-95275000D02*
X158263000Y-95254000D01*
D41*
%TO.N,+5V*%
X141327000Y-94844000D02*
X143750000Y-94844000D01*
X143256000Y-94350000D02*
X143256000Y-85222000D01*
X138176000Y-95284000D02*
X140887000Y-95284000D01*
X139187000Y-99060000D02*
X139187000Y-98801000D01*
X139187000Y-98801000D02*
X138176000Y-97790000D01*
X143256000Y-85222000D02*
X144924000Y-83554000D01*
X143750000Y-94844000D02*
X143256000Y-94350000D01*
X138176000Y-97790000D02*
X138176000Y-95284000D01*
X140970000Y-95201000D02*
X141224000Y-95455000D01*
X140887000Y-95284000D02*
X140970000Y-95201000D01*
X140970000Y-95201000D02*
X141327000Y-94844000D01*
%TD*%
%TA.AperFunction,Conductor*%
%TO.N,GND*%
G36*
X167501132Y-101585185D02*
G01*
X167546887Y-101637989D01*
X167556831Y-101707147D01*
X167540825Y-101752620D01*
X167498257Y-101824599D01*
X167498254Y-101824606D01*
X167452402Y-101982426D01*
X167452401Y-101982432D01*
X167449500Y-102019304D01*
X167449500Y-102378547D01*
X167429815Y-102445586D01*
X167413181Y-102466228D01*
X166098228Y-103781181D01*
X166036905Y-103814666D01*
X166010547Y-103817500D01*
X165753638Y-103817500D01*
X165686599Y-103797815D01*
X165648099Y-103758597D01*
X165580712Y-103649344D01*
X165524049Y-103592681D01*
X165490564Y-103531358D01*
X165495548Y-103461666D01*
X165524049Y-103417319D01*
X165545673Y-103395695D01*
X165580712Y-103360656D01*
X165672814Y-103211334D01*
X165727999Y-103044797D01*
X165738500Y-102942009D01*
X165738499Y-102191992D01*
X165728150Y-102090686D01*
X165740919Y-102021996D01*
X165763824Y-101990410D01*
X166152416Y-101601819D01*
X166213739Y-101568334D01*
X166240097Y-101565500D01*
X167434093Y-101565500D01*
X167501132Y-101585185D01*
G37*
%TD.AperFunction*%
%TA.AperFunction,Conductor*%
G36*
X157789834Y-100430048D02*
G01*
X157834181Y-100458549D01*
X157910344Y-100534712D01*
X158059666Y-100626814D01*
X158226203Y-100681999D01*
X158328991Y-100692500D01*
X159131047Y-100692499D01*
X159198086Y-100712183D01*
X159218728Y-100728818D01*
X159769729Y-101279819D01*
X159803214Y-101341142D01*
X159798230Y-101410834D01*
X159756358Y-101466767D01*
X159690894Y-101491184D01*
X159682048Y-101491500D01*
X158328998Y-101491500D01*
X158328981Y-101491501D01*
X158226203Y-101502000D01*
X158226200Y-101502001D01*
X158059668Y-101557185D01*
X158059663Y-101557187D01*
X157910345Y-101649287D01*
X157833827Y-101725805D01*
X157772503Y-101759289D01*
X157702812Y-101754305D01*
X157658465Y-101725804D01*
X157582345Y-101649684D01*
X157433124Y-101557643D01*
X157433119Y-101557641D01*
X157266697Y-101502494D01*
X157266690Y-101502493D01*
X157163986Y-101492000D01*
X156714000Y-101492000D01*
X156714000Y-102693000D01*
X156694315Y-102760039D01*
X156641511Y-102805794D01*
X156590000Y-102817000D01*
X156338000Y-102817000D01*
X156270961Y-102797315D01*
X156225206Y-102744511D01*
X156214000Y-102693000D01*
X156214000Y-101492000D01*
X155772950Y-101492000D01*
X155705911Y-101472315D01*
X155660156Y-101419511D01*
X155650212Y-101350353D01*
X155679237Y-101286797D01*
X155685247Y-101280342D01*
X156236771Y-100728817D01*
X156298094Y-100695333D01*
X156324452Y-100692499D01*
X157164002Y-100692499D01*
X157164008Y-100692499D01*
X157266797Y-100681999D01*
X157433334Y-100626814D01*
X157582656Y-100534712D01*
X157658819Y-100458549D01*
X157720142Y-100425064D01*
X157789834Y-100430048D01*
G37*
%TD.AperFunction*%
%TA.AperFunction,Conductor*%
G36*
X142461216Y-95861580D02*
G01*
X142500073Y-95919649D01*
X142505052Y-95943522D01*
X142505907Y-95951480D01*
X142556202Y-96086328D01*
X142556206Y-96086335D01*
X142642452Y-96201544D01*
X142642455Y-96201547D01*
X142757664Y-96287793D01*
X142757671Y-96287797D01*
X142892517Y-96338091D01*
X142892516Y-96338091D01*
X142899444Y-96338835D01*
X142952127Y-96344500D01*
X144547872Y-96344499D01*
X144607483Y-96338091D01*
X144742331Y-96287796D01*
X144825689Y-96225393D01*
X144891153Y-96200977D01*
X144959426Y-96215828D01*
X144974309Y-96225393D01*
X145028551Y-96265998D01*
X145057669Y-96287796D01*
X145057671Y-96287797D01*
X145192517Y-96338091D01*
X145200062Y-96339874D01*
X145199523Y-96342151D01*
X145253287Y-96364408D01*
X145293147Y-96421793D01*
X145299500Y-96460975D01*
X145299500Y-97219500D01*
X145279815Y-97286539D01*
X145227011Y-97332294D01*
X145175500Y-97343500D01*
X144720998Y-97343500D01*
X144720980Y-97343501D01*
X144618203Y-97354000D01*
X144618200Y-97354001D01*
X144451668Y-97409185D01*
X144451663Y-97409187D01*
X144302342Y-97501289D01*
X144178289Y-97625342D01*
X144086187Y-97774663D01*
X144086185Y-97774668D01*
X144070248Y-97822764D01*
X144031001Y-97941203D01*
X144031001Y-97941204D01*
X144031000Y-97941204D01*
X144020500Y-98043983D01*
X144020500Y-98706769D01*
X144000815Y-98773808D01*
X143984181Y-98794450D01*
X143234432Y-99544198D01*
X143173109Y-99577683D01*
X143103417Y-99572699D01*
X143047484Y-99530827D01*
X143023067Y-99465363D01*
X143026976Y-99424423D01*
X143057636Y-99310000D01*
X142160686Y-99310000D01*
X142186493Y-99269844D01*
X142227000Y-99131889D01*
X142227000Y-98988111D01*
X142186493Y-98850156D01*
X142160686Y-98810000D01*
X143057636Y-98810000D01*
X143057635Y-98809999D01*
X143000432Y-98596513D01*
X143000429Y-98596507D01*
X142900600Y-98382422D01*
X142900599Y-98382420D01*
X142765113Y-98188926D01*
X142765108Y-98188920D01*
X142598082Y-98021894D01*
X142404578Y-97886399D01*
X142190492Y-97786570D01*
X142190486Y-97786567D01*
X141977000Y-97729364D01*
X141977000Y-98624498D01*
X141869315Y-98575320D01*
X141762763Y-98560000D01*
X141691237Y-98560000D01*
X141584685Y-98575320D01*
X141477000Y-98624498D01*
X141477000Y-97729364D01*
X141476999Y-97729364D01*
X141263513Y-97786567D01*
X141263507Y-97786570D01*
X141049422Y-97886399D01*
X141049420Y-97886400D01*
X140855926Y-98021886D01*
X140733865Y-98143947D01*
X140672542Y-98177431D01*
X140602850Y-98172447D01*
X140546917Y-98130575D01*
X140530002Y-98099598D01*
X140480797Y-97967671D01*
X140480793Y-97967664D01*
X140394547Y-97852455D01*
X140394544Y-97852452D01*
X140279335Y-97766206D01*
X140279328Y-97766202D01*
X140144482Y-97715908D01*
X140144483Y-97715908D01*
X140084883Y-97709501D01*
X140084881Y-97709500D01*
X140084873Y-97709500D01*
X140084865Y-97709500D01*
X139208230Y-97709500D01*
X139141191Y-97689815D01*
X139120549Y-97673181D01*
X138962819Y-97515451D01*
X138929334Y-97454128D01*
X138926500Y-97427770D01*
X138926500Y-96158500D01*
X138946185Y-96091461D01*
X138998989Y-96045706D01*
X139050500Y-96034500D01*
X139715770Y-96034500D01*
X139782809Y-96054185D01*
X139803451Y-96070819D01*
X139851344Y-96118712D01*
X140000666Y-96210814D01*
X140167203Y-96265999D01*
X140269991Y-96276500D01*
X141670008Y-96276499D01*
X141772797Y-96265999D01*
X141939334Y-96210814D01*
X142088656Y-96118712D01*
X142212712Y-95994656D01*
X142276225Y-95891683D01*
X142328171Y-95844960D01*
X142397134Y-95833737D01*
X142461216Y-95861580D01*
G37*
%TD.AperFunction*%
%TA.AperFunction,Conductor*%
G36*
X177202507Y-93173844D02*
G01*
X177280239Y-93294798D01*
X177388900Y-93388952D01*
X177519685Y-93448680D01*
X177529466Y-93450086D01*
X176786100Y-94193450D01*
X176775482Y-94240148D01*
X176743376Y-94277556D01*
X176642255Y-94356262D01*
X176473836Y-94539215D01*
X176367309Y-94702267D01*
X176314162Y-94747623D01*
X176244931Y-94757047D01*
X176181595Y-94727545D01*
X176144264Y-94668485D01*
X176139500Y-94634445D01*
X176139500Y-93792639D01*
X176159185Y-93725600D01*
X176211989Y-93679845D01*
X176281147Y-93669901D01*
X176344703Y-93698926D01*
X176367309Y-93724818D01*
X176438564Y-93833882D01*
X177178922Y-93093523D01*
X177202507Y-93173844D01*
G37*
%TD.AperFunction*%
%TA.AperFunction,Conductor*%
G36*
X175453701Y-86454738D02*
G01*
X175460180Y-86460770D01*
X177000181Y-88000771D01*
X177033666Y-88062094D01*
X177036500Y-88088452D01*
X177036500Y-88839500D01*
X177016815Y-88906539D01*
X176964011Y-88952294D01*
X176912500Y-88963500D01*
X176614130Y-88963500D01*
X176614123Y-88963501D01*
X176554516Y-88969908D01*
X176419671Y-89020202D01*
X176419664Y-89020206D01*
X176304455Y-89106452D01*
X176304452Y-89106455D01*
X176218206Y-89221664D01*
X176218202Y-89221671D01*
X176167908Y-89356517D01*
X176161501Y-89416116D01*
X176161501Y-89416123D01*
X176161500Y-89416135D01*
X176161500Y-91440349D01*
X176141815Y-91507388D01*
X176089011Y-91553143D01*
X176019853Y-91563087D01*
X175958459Y-91535892D01*
X175937693Y-91518713D01*
X175933381Y-91514790D01*
X175498803Y-91080212D01*
X175488980Y-91067950D01*
X175488759Y-91068134D01*
X175483786Y-91062123D01*
X175471953Y-91051011D01*
X175433364Y-91014773D01*
X175418091Y-90999500D01*
X175412475Y-90993883D01*
X175406986Y-90989625D01*
X175402561Y-90985847D01*
X175368582Y-90953938D01*
X175368580Y-90953936D01*
X175368577Y-90953935D01*
X175351029Y-90944288D01*
X175334763Y-90933604D01*
X175318932Y-90921324D01*
X175306319Y-90915866D01*
X175252612Y-90871175D01*
X175231593Y-90804542D01*
X175239388Y-90758729D01*
X175242091Y-90751483D01*
X175248500Y-90691873D01*
X175248499Y-89696128D01*
X175242091Y-89636517D01*
X175229340Y-89602332D01*
X175224357Y-89532642D01*
X175229340Y-89515669D01*
X175242091Y-89481483D01*
X175248500Y-89421873D01*
X175248499Y-88426128D01*
X175242091Y-88366517D01*
X175229340Y-88332332D01*
X175224357Y-88262642D01*
X175229340Y-88245669D01*
X175242091Y-88211483D01*
X175248500Y-88151873D01*
X175248499Y-87156128D01*
X175242091Y-87096517D01*
X175229340Y-87062332D01*
X175224357Y-86992642D01*
X175229340Y-86975669D01*
X175242091Y-86941483D01*
X175248500Y-86881873D01*
X175248499Y-86548449D01*
X175268183Y-86481412D01*
X175320987Y-86435657D01*
X175390146Y-86425713D01*
X175453701Y-86454738D01*
G37*
%TD.AperFunction*%
%TA.AperFunction,Conductor*%
G36*
X147714000Y-85032872D02*
G01*
X147910317Y-84980269D01*
X147910326Y-84980265D01*
X148116482Y-84884134D01*
X148302820Y-84753657D01*
X148463657Y-84592820D01*
X148594132Y-84406484D01*
X148621341Y-84348134D01*
X148667513Y-84295695D01*
X148734707Y-84276542D01*
X148801588Y-84296757D01*
X148846105Y-84348132D01*
X148868088Y-84395275D01*
X148873431Y-84406732D01*
X148873432Y-84406734D01*
X149003954Y-84593141D01*
X149164858Y-84754045D01*
X149181328Y-84765577D01*
X149351266Y-84884568D01*
X149557504Y-84980739D01*
X149557509Y-84980740D01*
X149557511Y-84980741D01*
X149608921Y-84994516D01*
X149777308Y-85039635D01*
X149939230Y-85053801D01*
X150003998Y-85059468D01*
X150004000Y-85059468D01*
X150004002Y-85059468D01*
X150065048Y-85054127D01*
X150230692Y-85039635D01*
X150450496Y-84980739D01*
X150450500Y-84980736D01*
X150455725Y-84979337D01*
X150456334Y-84981612D01*
X150516056Y-84977786D01*
X150576485Y-85011076D01*
X150591730Y-85026322D01*
X150625213Y-85087646D01*
X150620226Y-85157337D01*
X150591727Y-85201680D01*
X150514715Y-85278693D01*
X150492208Y-85301200D01*
X150479951Y-85311020D01*
X150480134Y-85311241D01*
X150474123Y-85316213D01*
X150426772Y-85366636D01*
X150405889Y-85387519D01*
X150405877Y-85387532D01*
X150401621Y-85393017D01*
X150397837Y-85397447D01*
X150365937Y-85431418D01*
X150365936Y-85431420D01*
X150356284Y-85448976D01*
X150345610Y-85465226D01*
X150333329Y-85481061D01*
X150333324Y-85481068D01*
X150314815Y-85523838D01*
X150312245Y-85529084D01*
X150289803Y-85569906D01*
X150284822Y-85589307D01*
X150278521Y-85607710D01*
X150270562Y-85626102D01*
X150270561Y-85626105D01*
X150263271Y-85672127D01*
X150262087Y-85677846D01*
X150250501Y-85722972D01*
X150250500Y-85722982D01*
X150250500Y-85743016D01*
X150248971Y-85762428D01*
X150247932Y-85768983D01*
X150217995Y-85832115D01*
X150158679Y-85869039D01*
X150138063Y-85872929D01*
X150098202Y-85877001D01*
X150098200Y-85877001D01*
X149931668Y-85932185D01*
X149931663Y-85932187D01*
X149782342Y-86024289D01*
X149658289Y-86148342D01*
X149566187Y-86297663D01*
X149566186Y-86297666D01*
X149511001Y-86464203D01*
X149511001Y-86464204D01*
X149511000Y-86464204D01*
X149500500Y-86566983D01*
X149500500Y-87292001D01*
X149500501Y-87292019D01*
X149511000Y-87394796D01*
X149511001Y-87394799D01*
X149566185Y-87561331D01*
X149566190Y-87561342D01*
X149592751Y-87604403D01*
X149611192Y-87671795D01*
X149590270Y-87738459D01*
X149536628Y-87783228D01*
X149487213Y-87793500D01*
X148574499Y-87793500D01*
X148507460Y-87773815D01*
X148461705Y-87721011D01*
X148450499Y-87669500D01*
X148450499Y-87496129D01*
X148450498Y-87496123D01*
X148444091Y-87436516D01*
X148393797Y-87301671D01*
X148393793Y-87301664D01*
X148307547Y-87186455D01*
X148307544Y-87186452D01*
X148192335Y-87100206D01*
X148192328Y-87100202D01*
X148057482Y-87049908D01*
X148057483Y-87049908D01*
X147997883Y-87043501D01*
X147997881Y-87043500D01*
X147997873Y-87043500D01*
X147997865Y-87043500D01*
X146924500Y-87043500D01*
X146857461Y-87023815D01*
X146811706Y-86971011D01*
X146800500Y-86919500D01*
X146800500Y-86677705D01*
X146801809Y-86659735D01*
X146803253Y-86649876D01*
X146805289Y-86635977D01*
X146800735Y-86583933D01*
X146800500Y-86578532D01*
X146800500Y-86570297D01*
X146800500Y-86570291D01*
X146796691Y-86537707D01*
X146789998Y-86461202D01*
X146789996Y-86461197D01*
X146788538Y-86454133D01*
X146788597Y-86454120D01*
X146786967Y-86446764D01*
X146786908Y-86446779D01*
X146785241Y-86439751D01*
X146785241Y-86439745D01*
X146758966Y-86367556D01*
X146734813Y-86294665D01*
X146734808Y-86294658D01*
X146731760Y-86288119D01*
X146731815Y-86288092D01*
X146728529Y-86281305D01*
X146728476Y-86281332D01*
X146725238Y-86274883D01*
X146683023Y-86210700D01*
X146644560Y-86148342D01*
X146642711Y-86145344D01*
X146642710Y-86145343D01*
X146642709Y-86145341D01*
X146638233Y-86139681D01*
X146638280Y-86139643D01*
X146633519Y-86133799D01*
X146633474Y-86133838D01*
X146628834Y-86128309D01*
X146628832Y-86128307D01*
X146628830Y-86128304D01*
X146598061Y-86099275D01*
X146572966Y-86075598D01*
X146503883Y-86006516D01*
X146454768Y-85957401D01*
X146424522Y-85908043D01*
X146379338Y-85768983D01*
X146369181Y-85737721D01*
X146369178Y-85737715D01*
X146360672Y-85722982D01*
X146274533Y-85573784D01*
X146147871Y-85433112D01*
X146147870Y-85433111D01*
X145994734Y-85321851D01*
X145994729Y-85321848D01*
X145821807Y-85244857D01*
X145821802Y-85244855D01*
X145676001Y-85213865D01*
X145636646Y-85205500D01*
X145447822Y-85205500D01*
X145380783Y-85185815D01*
X145335028Y-85133011D01*
X145325084Y-85063853D01*
X145354109Y-85000297D01*
X145395417Y-84969118D01*
X145576734Y-84884568D01*
X145763139Y-84754047D01*
X145924047Y-84593139D01*
X146054568Y-84406734D01*
X146081895Y-84348129D01*
X146128064Y-84295695D01*
X146195257Y-84276542D01*
X146262139Y-84296757D01*
X146306657Y-84348133D01*
X146333865Y-84406482D01*
X146464342Y-84592820D01*
X146625179Y-84753657D01*
X146811517Y-84884134D01*
X147017673Y-84980265D01*
X147017682Y-84980269D01*
X147213999Y-85032872D01*
X147214000Y-85032871D01*
X147214000Y-83989501D01*
X147321685Y-84038680D01*
X147428237Y-84054000D01*
X147499763Y-84054000D01*
X147606315Y-84038680D01*
X147714000Y-83989501D01*
X147714000Y-85032872D01*
G37*
%TD.AperFunction*%
%TA.AperFunction,Conductor*%
G36*
X153631649Y-80300591D02*
G01*
X153679462Y-80351539D01*
X153692799Y-80407483D01*
X153692799Y-81311554D01*
X153691074Y-81327171D01*
X153691360Y-81327198D01*
X153690625Y-81334964D01*
X153692799Y-81404113D01*
X153692799Y-81433642D01*
X153692800Y-81433659D01*
X153693667Y-81440530D01*
X153694125Y-81446349D01*
X153695589Y-81492923D01*
X153695590Y-81492926D01*
X153701179Y-81512166D01*
X153705123Y-81531210D01*
X153707635Y-81551090D01*
X153724789Y-81594418D01*
X153726681Y-81599946D01*
X153739680Y-81644687D01*
X153749879Y-81661933D01*
X153758437Y-81679402D01*
X153765813Y-81698031D01*
X153793197Y-81735722D01*
X153796405Y-81740606D01*
X153820126Y-81780715D01*
X153820132Y-81780723D01*
X153834289Y-81794879D01*
X153846927Y-81809675D01*
X153858704Y-81825885D01*
X153858705Y-81825886D01*
X153894608Y-81855587D01*
X153898919Y-81859509D01*
X154740673Y-82701264D01*
X154997197Y-82957788D01*
X155007022Y-82970051D01*
X155007243Y-82969869D01*
X155012210Y-82975874D01*
X155042276Y-83004107D01*
X155077671Y-83064348D01*
X155074879Y-83134162D01*
X155034786Y-83191383D01*
X154970121Y-83217845D01*
X154957393Y-83218500D01*
X153949218Y-83218500D01*
X153882179Y-83198815D01*
X153836424Y-83146011D01*
X153829443Y-83126593D01*
X153828778Y-83124113D01*
X153770739Y-82907504D01*
X153674568Y-82701266D01*
X153544047Y-82514861D01*
X153383139Y-82353953D01*
X153367147Y-82342755D01*
X153332374Y-82318406D01*
X153288751Y-82263829D01*
X153279500Y-82216833D01*
X153279500Y-80523226D01*
X153299185Y-80456187D01*
X153332374Y-80421654D01*
X153497676Y-80305907D01*
X153563882Y-80283581D01*
X153631649Y-80300591D01*
G37*
%TD.AperFunction*%
%TA.AperFunction,Conductor*%
G36*
X151468855Y-79914546D02*
G01*
X151485575Y-79933842D01*
X151615281Y-80119082D01*
X151615505Y-80119401D01*
X151782599Y-80286495D01*
X151975624Y-80421653D01*
X152019248Y-80476228D01*
X152028500Y-80523226D01*
X152028500Y-82080441D01*
X152008815Y-82147480D01*
X151956906Y-82192823D01*
X151891266Y-82223431D01*
X151704858Y-82353954D01*
X151543954Y-82514858D01*
X151413432Y-82701265D01*
X151413431Y-82701267D01*
X151386382Y-82759275D01*
X151340209Y-82811714D01*
X151273016Y-82830866D01*
X151206135Y-82810650D01*
X151161618Y-82759275D01*
X151134686Y-82701520D01*
X151134568Y-82701266D01*
X151004047Y-82514861D01*
X150843139Y-82353953D01*
X150827147Y-82342755D01*
X150792374Y-82318406D01*
X150748751Y-82263829D01*
X150739500Y-82216833D01*
X150739500Y-80523226D01*
X150759185Y-80456187D01*
X150792374Y-80421654D01*
X150985401Y-80286495D01*
X151152495Y-80119401D01*
X151282425Y-79933842D01*
X151337002Y-79890217D01*
X151406500Y-79883023D01*
X151468855Y-79914546D01*
G37*
%TD.AperFunction*%
%TA.AperFunction,Conductor*%
G36*
X129227039Y-90353685D02*
G01*
X129272794Y-90406489D01*
X129284000Y-90458000D01*
X129284000Y-90999500D01*
X129264315Y-91066539D01*
X129211511Y-91112294D01*
X129160000Y-91123500D01*
X128843861Y-91123500D01*
X128776822Y-91103815D01*
X128731067Y-91051011D01*
X128721123Y-90981853D01*
X128750148Y-90918297D01*
X128756180Y-90911818D01*
X128784000Y-90883998D01*
X128784000Y-90458000D01*
X128803685Y-90390961D01*
X128856489Y-90345206D01*
X128908000Y-90334000D01*
X129160000Y-90334000D01*
X129227039Y-90353685D01*
G37*
%TD.AperFunction*%
%TA.AperFunction,Conductor*%
G36*
X190257951Y-76025685D02*
G01*
X190303706Y-76078489D01*
X190313650Y-76147647D01*
X190284625Y-76211203D01*
X190247207Y-76240485D01*
X190147456Y-76291310D01*
X189822206Y-76502531D01*
X189564648Y-76711095D01*
X189564648Y-76711096D01*
X191055819Y-78202266D01*
X190865130Y-78365130D01*
X190702266Y-78555818D01*
X189211096Y-77064648D01*
X189211095Y-77064648D01*
X189002531Y-77322206D01*
X188791310Y-77647456D01*
X188615244Y-77993005D01*
X188476262Y-78355063D01*
X188375887Y-78729669D01*
X188375886Y-78729676D01*
X188315219Y-79112712D01*
X188294922Y-79499999D01*
X188294922Y-79500000D01*
X188315219Y-79887287D01*
X188375886Y-80270323D01*
X188375887Y-80270330D01*
X188476262Y-80644936D01*
X188615244Y-81006994D01*
X188791310Y-81352543D01*
X189002531Y-81677793D01*
X189211095Y-81935350D01*
X189211096Y-81935350D01*
X190702266Y-80444180D01*
X190865130Y-80634870D01*
X191055819Y-80797733D01*
X189564648Y-82288903D01*
X189564649Y-82288904D01*
X189822206Y-82497468D01*
X190147456Y-82708689D01*
X190493005Y-82884755D01*
X190855063Y-83023737D01*
X191229669Y-83124112D01*
X191229676Y-83124113D01*
X191612712Y-83184780D01*
X191999999Y-83205078D01*
X192000001Y-83205078D01*
X192387287Y-83184780D01*
X192770323Y-83124113D01*
X192770330Y-83124112D01*
X193144936Y-83023737D01*
X193506994Y-82884755D01*
X193852543Y-82708689D01*
X194177783Y-82497476D01*
X194177785Y-82497475D01*
X194435349Y-82288902D01*
X192944180Y-80797733D01*
X193134870Y-80634870D01*
X193297733Y-80444180D01*
X194788902Y-81935349D01*
X194997475Y-81677785D01*
X194997476Y-81677783D01*
X195208691Y-81352541D01*
X195208692Y-81352538D01*
X195265015Y-81241999D01*
X195312989Y-81191202D01*
X195380810Y-81174407D01*
X195446945Y-81196944D01*
X195490397Y-81251659D01*
X195499500Y-81298293D01*
X195499500Y-106201706D01*
X195479815Y-106268745D01*
X195427011Y-106314500D01*
X195357853Y-106324444D01*
X195294297Y-106295419D01*
X195265015Y-106258001D01*
X195208689Y-106147456D01*
X194997468Y-105822206D01*
X194788904Y-105564649D01*
X194788903Y-105564648D01*
X193297733Y-107055818D01*
X193134870Y-106865130D01*
X192944180Y-106702266D01*
X194435350Y-105211096D01*
X194435350Y-105211095D01*
X194177793Y-105002531D01*
X193852543Y-104791310D01*
X193506994Y-104615244D01*
X193144936Y-104476262D01*
X192770330Y-104375887D01*
X192770323Y-104375886D01*
X192387287Y-104315219D01*
X192000001Y-104294922D01*
X191999999Y-104294922D01*
X191612712Y-104315219D01*
X191229676Y-104375886D01*
X191229669Y-104375887D01*
X190855063Y-104476262D01*
X190493005Y-104615244D01*
X190147456Y-104791310D01*
X189822206Y-105002531D01*
X189564648Y-105211095D01*
X189564648Y-105211096D01*
X191055819Y-106702266D01*
X190865130Y-106865130D01*
X190702266Y-107055818D01*
X189211096Y-105564648D01*
X189211095Y-105564648D01*
X189002531Y-105822206D01*
X188791310Y-106147456D01*
X188615244Y-106493005D01*
X188476262Y-106855063D01*
X188375887Y-107229669D01*
X188375886Y-107229676D01*
X188315219Y-107612712D01*
X188294922Y-107999999D01*
X188294922Y-108000000D01*
X188315219Y-108387287D01*
X188375886Y-108770323D01*
X188375887Y-108770330D01*
X188476262Y-109144936D01*
X188615244Y-109506994D01*
X188791310Y-109852543D01*
X189002531Y-110177793D01*
X189211095Y-110435350D01*
X189211096Y-110435350D01*
X190702266Y-108944180D01*
X190865130Y-109134870D01*
X191055819Y-109297733D01*
X189564648Y-110788903D01*
X189564649Y-110788904D01*
X189822206Y-110997468D01*
X190147456Y-111208689D01*
X190258001Y-111265015D01*
X190308797Y-111312990D01*
X190325592Y-111380811D01*
X190303055Y-111446945D01*
X190248340Y-111490397D01*
X190201706Y-111499500D01*
X128388724Y-111499500D01*
X128321685Y-111479815D01*
X128275930Y-111427011D01*
X128265986Y-111357853D01*
X128295011Y-111294297D01*
X128332429Y-111265015D01*
X128360543Y-111250689D01*
X128685783Y-111039476D01*
X128685785Y-111039475D01*
X128943349Y-110830902D01*
X127452180Y-109339733D01*
X127642870Y-109176870D01*
X127805733Y-108986180D01*
X129296902Y-110477349D01*
X129505475Y-110219785D01*
X129505476Y-110219783D01*
X129716689Y-109894543D01*
X129892755Y-109548994D01*
X130031737Y-109186936D01*
X130132112Y-108812330D01*
X130132113Y-108812323D01*
X130192780Y-108429287D01*
X130213078Y-108042000D01*
X130213078Y-108041999D01*
X130192780Y-107654712D01*
X130132113Y-107271676D01*
X130132112Y-107271669D01*
X130031737Y-106897063D01*
X129892755Y-106535005D01*
X129716689Y-106189456D01*
X129505468Y-105864206D01*
X129296904Y-105606649D01*
X129296903Y-105606648D01*
X127805732Y-107097818D01*
X127642870Y-106907130D01*
X127452180Y-106744266D01*
X128943350Y-105253096D01*
X128943350Y-105253095D01*
X128685793Y-105044531D01*
X128360543Y-104833310D01*
X128014994Y-104657244D01*
X127652936Y-104518262D01*
X127278330Y-104417887D01*
X127278323Y-104417886D01*
X126895287Y-104357219D01*
X126508001Y-104336922D01*
X126507999Y-104336922D01*
X126120712Y-104357219D01*
X125737676Y-104417886D01*
X125737669Y-104417887D01*
X125363063Y-104518262D01*
X125001005Y-104657244D01*
X124655456Y-104833310D01*
X124330206Y-105044531D01*
X124072648Y-105253095D01*
X124072648Y-105253096D01*
X125563819Y-106744266D01*
X125373130Y-106907130D01*
X125210266Y-107097819D01*
X123719096Y-105606648D01*
X123719095Y-105606648D01*
X123510531Y-105864206D01*
X123299310Y-106189456D01*
X123258485Y-106269580D01*
X123210510Y-106320376D01*
X123142689Y-106337171D01*
X123076554Y-106314633D01*
X123033103Y-106259918D01*
X123024000Y-106213285D01*
X123024000Y-103522735D01*
X123043685Y-103455696D01*
X123096489Y-103409941D01*
X123165647Y-103399997D01*
X123229203Y-103429022D01*
X123247267Y-103448424D01*
X123262813Y-103469190D01*
X123377906Y-103555350D01*
X123377913Y-103555354D01*
X123512620Y-103605596D01*
X123512627Y-103605598D01*
X123572155Y-103611999D01*
X123572172Y-103612000D01*
X124120000Y-103612000D01*
X124120000Y-102612000D01*
X124620000Y-102612000D01*
X124620000Y-103612000D01*
X125167828Y-103612000D01*
X125167844Y-103611999D01*
X125227372Y-103605598D01*
X125227379Y-103605596D01*
X125362086Y-103555354D01*
X125362093Y-103555350D01*
X125477187Y-103469190D01*
X125477190Y-103469187D01*
X125563350Y-103354093D01*
X125563354Y-103354086D01*
X125613596Y-103219379D01*
X125613598Y-103219372D01*
X125619996Y-103159870D01*
X130919500Y-103159870D01*
X130919501Y-103159876D01*
X130925908Y-103219483D01*
X130976202Y-103354328D01*
X130976206Y-103354335D01*
X131062452Y-103469544D01*
X131062455Y-103469547D01*
X131177664Y-103555793D01*
X131177671Y-103555797D01*
X131312517Y-103606091D01*
X131312516Y-103606091D01*
X131319444Y-103606835D01*
X131372127Y-103612500D01*
X132967872Y-103612499D01*
X133027483Y-103606091D01*
X133162331Y-103555796D01*
X133209837Y-103520232D01*
X133275301Y-103495816D01*
X133284148Y-103495500D01*
X134149770Y-103495500D01*
X134216809Y-103515185D01*
X134237451Y-103531819D01*
X134288344Y-103582712D01*
X134437666Y-103674814D01*
X134604203Y-103729999D01*
X134706991Y-103740500D01*
X135883270Y-103740499D01*
X135950309Y-103760184D01*
X135996064Y-103812987D01*
X136006008Y-103882146D01*
X135976983Y-103945702D01*
X135970951Y-103952180D01*
X135419949Y-104503181D01*
X135358626Y-104536666D01*
X135332268Y-104539500D01*
X134706998Y-104539500D01*
X134706980Y-104539501D01*
X134604203Y-104550000D01*
X134604200Y-104550001D01*
X134437668Y-104605185D01*
X134437663Y-104605187D01*
X134288342Y-104697289D01*
X134164289Y-104821342D01*
X134072187Y-104970663D01*
X134072185Y-104970668D01*
X134047516Y-105045116D01*
X134017001Y-105137203D01*
X134017001Y-105137204D01*
X134017000Y-105137204D01*
X134006500Y-105239983D01*
X134006500Y-105965001D01*
X134006501Y-105965019D01*
X134017000Y-106067796D01*
X134017001Y-106067799D01*
X134072185Y-106234331D01*
X134072187Y-106234336D01*
X134087966Y-106259918D01*
X134164288Y-106383656D01*
X134288344Y-106507712D01*
X134437666Y-106599814D01*
X134604203Y-106654999D01*
X134706991Y-106665500D01*
X136057008Y-106665499D01*
X136159797Y-106654999D01*
X136326334Y-106599814D01*
X136475656Y-106507712D01*
X136599712Y-106383656D01*
X136653545Y-106296377D01*
X136705491Y-106249654D01*
X136774454Y-106238431D01*
X136838536Y-106266274D01*
X136864622Y-106296378D01*
X136933684Y-106408345D01*
X137057654Y-106532315D01*
X137206875Y-106624356D01*
X137206880Y-106624358D01*
X137373302Y-106679505D01*
X137373309Y-106679506D01*
X137476019Y-106689999D01*
X137925999Y-106689999D01*
X137926000Y-106689998D01*
X137926000Y-105865000D01*
X138426000Y-105865000D01*
X138426000Y-106689999D01*
X138875972Y-106689999D01*
X138875986Y-106689998D01*
X138978697Y-106679505D01*
X139145119Y-106624358D01*
X139145124Y-106624356D01*
X139294345Y-106532315D01*
X139418315Y-106408345D01*
X139510356Y-106259124D01*
X139510358Y-106259119D01*
X139565505Y-106092697D01*
X139565506Y-106092690D01*
X139575999Y-105989986D01*
X139576000Y-105989973D01*
X139576000Y-105865000D01*
X138426000Y-105865000D01*
X137926000Y-105865000D01*
X137926000Y-105489000D01*
X137945685Y-105421961D01*
X137998489Y-105376206D01*
X138050000Y-105365000D01*
X139575999Y-105365000D01*
X139575999Y-105278566D01*
X139595684Y-105211527D01*
X139648488Y-105165772D01*
X139660976Y-105160867D01*
X139694334Y-105149814D01*
X139694346Y-105149806D01*
X139700882Y-105146760D01*
X139700908Y-105146816D01*
X139707690Y-105143532D01*
X139707663Y-105143478D01*
X139714106Y-105140240D01*
X139714117Y-105140237D01*
X139778283Y-105098034D01*
X139843656Y-105057712D01*
X139843662Y-105057705D01*
X139849325Y-105053229D01*
X139849362Y-105053277D01*
X139855204Y-105048518D01*
X139855164Y-105048471D01*
X139860691Y-105043832D01*
X139860696Y-105043830D01*
X139876034Y-105027573D01*
X139913386Y-104987981D01*
X141103552Y-103797815D01*
X144692320Y-100209045D01*
X144753641Y-100175562D01*
X144823333Y-100180546D01*
X144867677Y-100209045D01*
X145639152Y-100980519D01*
X146490267Y-101831634D01*
X146502048Y-101845266D01*
X146505863Y-101850390D01*
X146516390Y-101864530D01*
X146556420Y-101898119D01*
X146560392Y-101901759D01*
X146566223Y-101907590D01*
X146566222Y-101907590D01*
X146585290Y-101922666D01*
X146591944Y-101927927D01*
X146650786Y-101977302D01*
X146650794Y-101977306D01*
X146656824Y-101981273D01*
X146656790Y-101981323D01*
X146663137Y-101985366D01*
X146663169Y-101985316D01*
X146669318Y-101989108D01*
X146669320Y-101989109D01*
X146669323Y-101989111D01*
X146738930Y-102021569D01*
X146807567Y-102056040D01*
X146807576Y-102056042D01*
X146814355Y-102058510D01*
X146814334Y-102058567D01*
X146821451Y-102061040D01*
X146821470Y-102060984D01*
X146828330Y-102063257D01*
X146903532Y-102078784D01*
X146978279Y-102096500D01*
X146978288Y-102096500D01*
X146985452Y-102097338D01*
X146985445Y-102097397D01*
X146992946Y-102098163D01*
X146992952Y-102098104D01*
X147000140Y-102098733D01*
X147000143Y-102098732D01*
X147000144Y-102098733D01*
X147076898Y-102096500D01*
X151783770Y-102096500D01*
X151850809Y-102116185D01*
X151871451Y-102132819D01*
X152774132Y-103035500D01*
X153665946Y-103927313D01*
X153699431Y-103988636D01*
X153700128Y-104030053D01*
X153700899Y-104030114D01*
X153697500Y-104073304D01*
X153697500Y-104142090D01*
X153677815Y-104209129D01*
X153625011Y-104254884D01*
X153555853Y-104264828D01*
X153547720Y-104263380D01*
X153510647Y-104255500D01*
X153510646Y-104255500D01*
X153321354Y-104255500D01*
X153288897Y-104262398D01*
X153136197Y-104294855D01*
X153136192Y-104294857D01*
X152963270Y-104371848D01*
X152963265Y-104371851D01*
X152810129Y-104483111D01*
X152683466Y-104623785D01*
X152588821Y-104787715D01*
X152588818Y-104787722D01*
X152550747Y-104904894D01*
X152530326Y-104967744D01*
X152510540Y-105156000D01*
X152530326Y-105344256D01*
X152530327Y-105344259D01*
X152588818Y-105524277D01*
X152588821Y-105524284D01*
X152683467Y-105688216D01*
X152810129Y-105828888D01*
X152963265Y-105940148D01*
X152963267Y-105940149D01*
X152963270Y-105940151D01*
X153008830Y-105960436D01*
X153062065Y-106005684D01*
X153082387Y-106072533D01*
X153063342Y-106139757D01*
X153053938Y-106152753D01*
X153033212Y-106177807D01*
X153029278Y-106182131D01*
X152177228Y-107034181D01*
X152115905Y-107067666D01*
X152089547Y-107070500D01*
X151459758Y-107070500D01*
X151392719Y-107050815D01*
X151346964Y-106998011D01*
X151337020Y-106928853D01*
X151366045Y-106865297D01*
X151372077Y-106858819D01*
X151390026Y-106840870D01*
X151416495Y-106814401D01*
X151552035Y-106620830D01*
X151651903Y-106406663D01*
X151713063Y-106178408D01*
X151733659Y-105943000D01*
X151733409Y-105940148D01*
X151720486Y-105792432D01*
X151713063Y-105707592D01*
X151663946Y-105524284D01*
X151651905Y-105479344D01*
X151651904Y-105479343D01*
X151651903Y-105479337D01*
X151552035Y-105265171D01*
X151546731Y-105257595D01*
X151416494Y-105071597D01*
X151249402Y-104904506D01*
X151249395Y-104904501D01*
X151055834Y-104768967D01*
X151055830Y-104768965D01*
X151055828Y-104768964D01*
X150841663Y-104669097D01*
X150841659Y-104669096D01*
X150841655Y-104669094D01*
X150613413Y-104607938D01*
X150613403Y-104607936D01*
X150378001Y-104587341D01*
X150377999Y-104587341D01*
X150142596Y-104607936D01*
X150142586Y-104607938D01*
X149914344Y-104669094D01*
X149914335Y-104669098D01*
X149700171Y-104768964D01*
X149700169Y-104768965D01*
X149506597Y-104904505D01*
X149339505Y-105071597D01*
X149209575Y-105257158D01*
X149154998Y-105300783D01*
X149085500Y-105307977D01*
X149023145Y-105276454D01*
X149006425Y-105257158D01*
X148876494Y-105071597D01*
X148709402Y-104904506D01*
X148709395Y-104904501D01*
X148515834Y-104768967D01*
X148515830Y-104768965D01*
X148515828Y-104768964D01*
X148301663Y-104669097D01*
X148301659Y-104669096D01*
X148301655Y-104669094D01*
X148073413Y-104607938D01*
X148073403Y-104607936D01*
X147838001Y-104587341D01*
X147837999Y-104587341D01*
X147602596Y-104607936D01*
X147602586Y-104607938D01*
X147374344Y-104669094D01*
X147374335Y-104669098D01*
X147160171Y-104768964D01*
X147160169Y-104768965D01*
X146966597Y-104904505D01*
X146799508Y-105071594D01*
X146669269Y-105257595D01*
X146614692Y-105301219D01*
X146545193Y-105308412D01*
X146482839Y-105276890D01*
X146466119Y-105257594D01*
X146336113Y-105071926D01*
X146336108Y-105071920D01*
X146169082Y-104904894D01*
X145975578Y-104769399D01*
X145761492Y-104669570D01*
X145761486Y-104669567D01*
X145548000Y-104612364D01*
X145548000Y-105507498D01*
X145440315Y-105458320D01*
X145333763Y-105443000D01*
X145262237Y-105443000D01*
X145155685Y-105458320D01*
X145048000Y-105507498D01*
X145048000Y-104612364D01*
X145047999Y-104612364D01*
X144834513Y-104669567D01*
X144834507Y-104669570D01*
X144620422Y-104769399D01*
X144620420Y-104769400D01*
X144426926Y-104904886D01*
X144304865Y-105026947D01*
X144243542Y-105060431D01*
X144173850Y-105055447D01*
X144117917Y-105013575D01*
X144101002Y-104982598D01*
X144096552Y-104970668D01*
X144051796Y-104850669D01*
X144051795Y-104850668D01*
X144051793Y-104850664D01*
X143965547Y-104735455D01*
X143965544Y-104735452D01*
X143850335Y-104649206D01*
X143850328Y-104649202D01*
X143715482Y-104598908D01*
X143715483Y-104598908D01*
X143655883Y-104592501D01*
X143655881Y-104592500D01*
X143655873Y-104592500D01*
X143655864Y-104592500D01*
X141860129Y-104592500D01*
X141860123Y-104592501D01*
X141800516Y-104598908D01*
X141665671Y-104649202D01*
X141665664Y-104649206D01*
X141550455Y-104735452D01*
X141550452Y-104735455D01*
X141464206Y-104850664D01*
X141464202Y-104850671D01*
X141413908Y-104985517D01*
X141407501Y-105045116D01*
X141407500Y-105045135D01*
X141407500Y-106840870D01*
X141407501Y-106840876D01*
X141413908Y-106900483D01*
X141464202Y-107035328D01*
X141464206Y-107035335D01*
X141550452Y-107150544D01*
X141550455Y-107150547D01*
X141665664Y-107236793D01*
X141665671Y-107236797D01*
X141800517Y-107287091D01*
X141800516Y-107287091D01*
X141807444Y-107287835D01*
X141860127Y-107293500D01*
X143172546Y-107293499D01*
X143239585Y-107313184D01*
X143260227Y-107329818D01*
X144010197Y-108079788D01*
X144020022Y-108092051D01*
X144020243Y-108091869D01*
X144025214Y-108097878D01*
X144046043Y-108117437D01*
X144075635Y-108145226D01*
X144096529Y-108166120D01*
X144102011Y-108170373D01*
X144106443Y-108174157D01*
X144140418Y-108206062D01*
X144157976Y-108215714D01*
X144174235Y-108226395D01*
X144190064Y-108238673D01*
X144232838Y-108257182D01*
X144238056Y-108259738D01*
X144278908Y-108282197D01*
X144298316Y-108287180D01*
X144316717Y-108293480D01*
X144335104Y-108301437D01*
X144378488Y-108308308D01*
X144381119Y-108308725D01*
X144386839Y-108309909D01*
X144431981Y-108321500D01*
X144452016Y-108321500D01*
X144471414Y-108323026D01*
X144491194Y-108326159D01*
X144491195Y-108326160D01*
X144491195Y-108326159D01*
X144491196Y-108326160D01*
X144537584Y-108321775D01*
X144543422Y-108321500D01*
X152317257Y-108321500D01*
X152332877Y-108323224D01*
X152332904Y-108322939D01*
X152340660Y-108323671D01*
X152340667Y-108323673D01*
X152409814Y-108321500D01*
X152439350Y-108321500D01*
X152446228Y-108320630D01*
X152452041Y-108320172D01*
X152498627Y-108318709D01*
X152517869Y-108313117D01*
X152536912Y-108309174D01*
X152556792Y-108306664D01*
X152600122Y-108289507D01*
X152605646Y-108287617D01*
X152609396Y-108286527D01*
X152650390Y-108274618D01*
X152667629Y-108264422D01*
X152685103Y-108255862D01*
X152703727Y-108248488D01*
X152703727Y-108248487D01*
X152703732Y-108248486D01*
X152741449Y-108221082D01*
X152746305Y-108217892D01*
X152786420Y-108194170D01*
X152800589Y-108179999D01*
X152815379Y-108167368D01*
X152831587Y-108155594D01*
X152861299Y-108119676D01*
X152865212Y-108115376D01*
X153717271Y-107263319D01*
X153778594Y-107229834D01*
X153804952Y-107227000D01*
X154538541Y-107227000D01*
X154605580Y-107246685D01*
X154651335Y-107299489D01*
X154657617Y-107316405D01*
X154696254Y-107449393D01*
X154696255Y-107449396D01*
X154779917Y-107590862D01*
X154779923Y-107590870D01*
X154896129Y-107707076D01*
X154896133Y-107707079D01*
X154896135Y-107707081D01*
X155037602Y-107790744D01*
X155079224Y-107802836D01*
X155195426Y-107836597D01*
X155195429Y-107836597D01*
X155195431Y-107836598D01*
X155207722Y-107837565D01*
X155232304Y-107839500D01*
X155232306Y-107839500D01*
X155663696Y-107839500D01*
X155682131Y-107838049D01*
X155700569Y-107836598D01*
X155700571Y-107836597D01*
X155700573Y-107836597D01*
X155749239Y-107822458D01*
X155858398Y-107790744D01*
X155999865Y-107707081D01*
X156076446Y-107630500D01*
X157629001Y-107630500D01*
X157629001Y-107742986D01*
X157639494Y-107845697D01*
X157694641Y-108012119D01*
X157694643Y-108012124D01*
X157786684Y-108161345D01*
X157910654Y-108285315D01*
X158059875Y-108377356D01*
X158059880Y-108377358D01*
X158226302Y-108432505D01*
X158226309Y-108432506D01*
X158329019Y-108442999D01*
X158753999Y-108442999D01*
X158754000Y-108442998D01*
X158754000Y-107630500D01*
X159254000Y-107630500D01*
X159254000Y-108442999D01*
X159678972Y-108442999D01*
X159678986Y-108442998D01*
X159781697Y-108432505D01*
X159948119Y-108377358D01*
X159948124Y-108377356D01*
X160097342Y-108285317D01*
X160161317Y-108221342D01*
X160222640Y-108187857D01*
X160292332Y-108192841D01*
X160336680Y-108221341D01*
X160425657Y-108310317D01*
X160574875Y-108402356D01*
X160574880Y-108402358D01*
X160741302Y-108457505D01*
X160741309Y-108457506D01*
X160844019Y-108467999D01*
X161293999Y-108467999D01*
X161294000Y-108467998D01*
X161294000Y-107643000D01*
X161794000Y-107643000D01*
X161794000Y-108467999D01*
X162243972Y-108467999D01*
X162243986Y-108467998D01*
X162346697Y-108457505D01*
X162513119Y-108402358D01*
X162513124Y-108402356D01*
X162662345Y-108310315D01*
X162786315Y-108186345D01*
X162835461Y-108106668D01*
X162887409Y-108059944D01*
X162956372Y-108048721D01*
X163020454Y-108076565D01*
X163046539Y-108106668D01*
X163095684Y-108186345D01*
X163219654Y-108310315D01*
X163368875Y-108402356D01*
X163368880Y-108402358D01*
X163535302Y-108457505D01*
X163535309Y-108457506D01*
X163638019Y-108467999D01*
X164087999Y-108467999D01*
X164088000Y-108467998D01*
X164088000Y-107643000D01*
X161794000Y-107643000D01*
X161294000Y-107643000D01*
X160167862Y-107643000D01*
X160125292Y-107630500D01*
X159254000Y-107630500D01*
X158754000Y-107630500D01*
X157629001Y-107630500D01*
X156076446Y-107630500D01*
X156116081Y-107590865D01*
X156199744Y-107449398D01*
X156238382Y-107316405D01*
X156245597Y-107291573D01*
X156245598Y-107291567D01*
X156248500Y-107254696D01*
X156248500Y-107075631D01*
X156268185Y-107008592D01*
X156320989Y-106962837D01*
X156390147Y-106952893D01*
X156403326Y-106955524D01*
X156417561Y-106959179D01*
X156435959Y-106965478D01*
X156454354Y-106973438D01*
X156500378Y-106980726D01*
X156506081Y-106981907D01*
X156551230Y-106993500D01*
X156571265Y-106993500D01*
X156590662Y-106995026D01*
X156610445Y-106998160D01*
X156656833Y-106993775D01*
X156662671Y-106993500D01*
X157505000Y-106993500D01*
X157572039Y-107013185D01*
X157617794Y-107065989D01*
X157629000Y-107117500D01*
X157629000Y-107130500D01*
X160355138Y-107130500D01*
X160397708Y-107143000D01*
X164464000Y-107143000D01*
X164531039Y-107162685D01*
X164576794Y-107215489D01*
X164588000Y-107267000D01*
X164588000Y-108467999D01*
X165037972Y-108467999D01*
X165037986Y-108467998D01*
X165140697Y-108457505D01*
X165307119Y-108402358D01*
X165307124Y-108402356D01*
X165456345Y-108310315D01*
X165580315Y-108186345D01*
X165672356Y-108037124D01*
X165672358Y-108037119D01*
X165715566Y-107906726D01*
X165755338Y-107849281D01*
X165819854Y-107822458D01*
X165888630Y-107834773D01*
X165909272Y-107847750D01*
X165922064Y-107857673D01*
X165964838Y-107876182D01*
X165970056Y-107878738D01*
X166010908Y-107901197D01*
X166030316Y-107906180D01*
X166048717Y-107912480D01*
X166067104Y-107920437D01*
X166110488Y-107927308D01*
X166113119Y-107927725D01*
X166118839Y-107928909D01*
X166163981Y-107940500D01*
X166184016Y-107940500D01*
X166203414Y-107942026D01*
X166223194Y-107945159D01*
X166223195Y-107945160D01*
X166223195Y-107945159D01*
X166223196Y-107945160D01*
X166269584Y-107940775D01*
X166275422Y-107940500D01*
X167419308Y-107940500D01*
X167486347Y-107960185D01*
X167532102Y-108012989D01*
X167542046Y-108082147D01*
X167526041Y-108127620D01*
X167498254Y-108174605D01*
X167498254Y-108174606D01*
X167452402Y-108332426D01*
X167452401Y-108332432D01*
X167449500Y-108369304D01*
X167449500Y-108800696D01*
X167452401Y-108837567D01*
X167452402Y-108837573D01*
X167498254Y-108995393D01*
X167498255Y-108995396D01*
X167581917Y-109136862D01*
X167581923Y-109136870D01*
X167698129Y-109253076D01*
X167698133Y-109253079D01*
X167698135Y-109253081D01*
X167839602Y-109336744D01*
X167881224Y-109348836D01*
X167997426Y-109382597D01*
X167997429Y-109382597D01*
X167997431Y-109382598D01*
X168009722Y-109383565D01*
X168034304Y-109385500D01*
X168034306Y-109385500D01*
X169865696Y-109385500D01*
X169884131Y-109384049D01*
X169902569Y-109382598D01*
X169902571Y-109382597D01*
X169902573Y-109382597D01*
X170047733Y-109340424D01*
X170082328Y-109335500D01*
X170497295Y-109335500D01*
X170515265Y-109336809D01*
X170539023Y-109340289D01*
X170591068Y-109335735D01*
X170596470Y-109335500D01*
X170604704Y-109335500D01*
X170604709Y-109335500D01*
X170616327Y-109334141D01*
X170637276Y-109331693D01*
X170650028Y-109330577D01*
X170713797Y-109324999D01*
X170713805Y-109324996D01*
X170720866Y-109323539D01*
X170720878Y-109323598D01*
X170728243Y-109321965D01*
X170728229Y-109321906D01*
X170735246Y-109320241D01*
X170735255Y-109320241D01*
X170807423Y-109293974D01*
X170880334Y-109269814D01*
X170880343Y-109269807D01*
X170886882Y-109266760D01*
X170886908Y-109266816D01*
X170893690Y-109263532D01*
X170893663Y-109263478D01*
X170900106Y-109260240D01*
X170900117Y-109260237D01*
X170964283Y-109218034D01*
X171029656Y-109177712D01*
X171029662Y-109177705D01*
X171035325Y-109173229D01*
X171035363Y-109173277D01*
X171041200Y-109168522D01*
X171041161Y-109168475D01*
X171046696Y-109163830D01*
X171099385Y-109107982D01*
X171362319Y-108845049D01*
X171423642Y-108811564D01*
X171493334Y-108816548D01*
X171537681Y-108845049D01*
X171763270Y-109070638D01*
X171775051Y-109084270D01*
X171789388Y-109103528D01*
X171829409Y-109137111D01*
X171833397Y-109140766D01*
X171839216Y-109146585D01*
X171839220Y-109146588D01*
X171839223Y-109146591D01*
X171864959Y-109166940D01*
X171923786Y-109216302D01*
X171923787Y-109216302D01*
X171923789Y-109216304D01*
X171929818Y-109220270D01*
X171929785Y-109220319D01*
X171936147Y-109224372D01*
X171936179Y-109224321D01*
X171942319Y-109228108D01*
X171942323Y-109228111D01*
X171977132Y-109244343D01*
X172011941Y-109260575D01*
X172030336Y-109269813D01*
X172080567Y-109295040D01*
X172080569Y-109295040D01*
X172087357Y-109297511D01*
X172087336Y-109297567D01*
X172094457Y-109300043D01*
X172094476Y-109299986D01*
X172101322Y-109302254D01*
X172101327Y-109302257D01*
X172101332Y-109302258D01*
X172101335Y-109302259D01*
X172176565Y-109317792D01*
X172251279Y-109335500D01*
X172251282Y-109335500D01*
X172251286Y-109335501D01*
X172258453Y-109336339D01*
X172258446Y-109336398D01*
X172265944Y-109337164D01*
X172265950Y-109337105D01*
X172273139Y-109337734D01*
X172273143Y-109337733D01*
X172273144Y-109337734D01*
X172349917Y-109335500D01*
X172817672Y-109335500D01*
X172852267Y-109340424D01*
X172997426Y-109382597D01*
X172997429Y-109382597D01*
X172997431Y-109382598D01*
X173009722Y-109383565D01*
X173034304Y-109385500D01*
X173034306Y-109385500D01*
X174865696Y-109385500D01*
X174884131Y-109384049D01*
X174902569Y-109382598D01*
X174902571Y-109382597D01*
X174902573Y-109382597D01*
X174944191Y-109370505D01*
X175060398Y-109336744D01*
X175201865Y-109253081D01*
X175318081Y-109136865D01*
X175401744Y-108995398D01*
X175447598Y-108837569D01*
X175450500Y-108800694D01*
X175450500Y-108369306D01*
X175447598Y-108332431D01*
X175445776Y-108326160D01*
X175401745Y-108174606D01*
X175401744Y-108174603D01*
X175401744Y-108174602D01*
X175318081Y-108033135D01*
X175318078Y-108033132D01*
X175313298Y-108026969D01*
X175315635Y-108025155D01*
X175288798Y-107976050D01*
X175293756Y-107906356D01*
X175314554Y-107873998D01*
X175312903Y-107872717D01*
X175317686Y-107866550D01*
X175401281Y-107725198D01*
X175447100Y-107567486D01*
X175447295Y-107565001D01*
X175447295Y-107565000D01*
X173824000Y-107565000D01*
X173756961Y-107545315D01*
X173711206Y-107492511D01*
X173700000Y-107441000D01*
X173700000Y-106295000D01*
X174200000Y-106295000D01*
X174200000Y-107065000D01*
X175447295Y-107065000D01*
X175447295Y-107064998D01*
X175447100Y-107062513D01*
X175401281Y-106904801D01*
X175317685Y-106763447D01*
X175312900Y-106757278D01*
X175315252Y-106755453D01*
X175288445Y-106706405D01*
X175293402Y-106636712D01*
X175314465Y-106603936D01*
X175312900Y-106602722D01*
X175317685Y-106596552D01*
X175401281Y-106455198D01*
X175447100Y-106297486D01*
X175447295Y-106295001D01*
X175447295Y-106295000D01*
X174200000Y-106295000D01*
X173700000Y-106295000D01*
X172452705Y-106295000D01*
X172452704Y-106295001D01*
X172452899Y-106297486D01*
X172498718Y-106455198D01*
X172582314Y-106596552D01*
X172587100Y-106602722D01*
X172584753Y-106604542D01*
X172611564Y-106653642D01*
X172606580Y-106723334D01*
X172585541Y-106756069D01*
X172587100Y-106757278D01*
X172582314Y-106763447D01*
X172498717Y-106904803D01*
X172498716Y-106904806D01*
X172452900Y-107062504D01*
X172452899Y-107062510D01*
X172450000Y-107099356D01*
X172450000Y-107164276D01*
X172430315Y-107231315D01*
X172377511Y-107277070D01*
X172308353Y-107287014D01*
X172244797Y-107257989D01*
X172218613Y-107226276D01*
X172182534Y-107163785D01*
X172055870Y-107023111D01*
X171902734Y-106911851D01*
X171902729Y-106911848D01*
X171729807Y-106834857D01*
X171729802Y-106834855D01*
X171584001Y-106803865D01*
X171544646Y-106795500D01*
X171355354Y-106795500D01*
X171322897Y-106802398D01*
X171170197Y-106834855D01*
X171170192Y-106834857D01*
X170997270Y-106911848D01*
X170997265Y-106911851D01*
X170844129Y-107023111D01*
X170717466Y-107163785D01*
X170681887Y-107225410D01*
X170631320Y-107273626D01*
X170562713Y-107286849D01*
X170497848Y-107260881D01*
X170457320Y-107203967D01*
X170450500Y-107163410D01*
X170450500Y-107099304D01*
X170447598Y-107062432D01*
X170447597Y-107062426D01*
X170413836Y-106946224D01*
X170401744Y-106904602D01*
X170318081Y-106763135D01*
X170318078Y-106763132D01*
X170313298Y-106756969D01*
X170315750Y-106755066D01*
X170289155Y-106706421D01*
X170294104Y-106636726D01*
X170314940Y-106604304D01*
X170313298Y-106603031D01*
X170318075Y-106596870D01*
X170318081Y-106596865D01*
X170401744Y-106455398D01*
X170447598Y-106297569D01*
X170450500Y-106260694D01*
X170450500Y-105829306D01*
X170447598Y-105792431D01*
X170417320Y-105688216D01*
X170401745Y-105634606D01*
X170401744Y-105634603D01*
X170401744Y-105634602D01*
X170318081Y-105493135D01*
X170318078Y-105493132D01*
X170313298Y-105486969D01*
X170315750Y-105485066D01*
X170289155Y-105436421D01*
X170294104Y-105366726D01*
X170314940Y-105334304D01*
X170313298Y-105333031D01*
X170318075Y-105326870D01*
X170318081Y-105326865D01*
X170401744Y-105185398D01*
X170447598Y-105027569D01*
X170449049Y-105009131D01*
X170450500Y-104990696D01*
X170450500Y-104559304D01*
X170447598Y-104522432D01*
X170447597Y-104522426D01*
X170401745Y-104364606D01*
X170401744Y-104364603D01*
X170401744Y-104364602D01*
X170318081Y-104223135D01*
X170318078Y-104223132D01*
X170313298Y-104216969D01*
X170315635Y-104215155D01*
X170288798Y-104166050D01*
X170293756Y-104096356D01*
X170314554Y-104063998D01*
X170312903Y-104062717D01*
X170317686Y-104056550D01*
X170401281Y-103915198D01*
X170447100Y-103757486D01*
X170447295Y-103755001D01*
X170447295Y-103755000D01*
X168824000Y-103755000D01*
X168756961Y-103735315D01*
X168711206Y-103682511D01*
X168700000Y-103631000D01*
X168700000Y-103379000D01*
X168719685Y-103311961D01*
X168772489Y-103266206D01*
X168824000Y-103255000D01*
X170447295Y-103255000D01*
X170447295Y-103254998D01*
X170447100Y-103252513D01*
X170401281Y-103094801D01*
X170317685Y-102953447D01*
X170312900Y-102947278D01*
X170315366Y-102945364D01*
X170288802Y-102896776D01*
X170293749Y-102827082D01*
X170314856Y-102794232D01*
X170313301Y-102793026D01*
X170318077Y-102786868D01*
X170318081Y-102786865D01*
X170401744Y-102645398D01*
X170447598Y-102487569D01*
X170450500Y-102450694D01*
X170450500Y-102019306D01*
X170449969Y-102012564D01*
X170447598Y-101982432D01*
X170447597Y-101982426D01*
X170409236Y-101850388D01*
X170401744Y-101824602D01*
X170318081Y-101683135D01*
X170318078Y-101683132D01*
X170313298Y-101676969D01*
X170315750Y-101675066D01*
X170289155Y-101626421D01*
X170294104Y-101556726D01*
X170314940Y-101524304D01*
X170313298Y-101523031D01*
X170318075Y-101516870D01*
X170318081Y-101516865D01*
X170401744Y-101375398D01*
X170447598Y-101217569D01*
X170450500Y-101180694D01*
X170450500Y-100749306D01*
X170447598Y-100712431D01*
X170447089Y-100710680D01*
X170401745Y-100554606D01*
X170401744Y-100554603D01*
X170401744Y-100554602D01*
X170318081Y-100413135D01*
X170318078Y-100413132D01*
X170313298Y-100406969D01*
X170315750Y-100405066D01*
X170289155Y-100356421D01*
X170294104Y-100286726D01*
X170314940Y-100254304D01*
X170313298Y-100253031D01*
X170318075Y-100246870D01*
X170318081Y-100246865D01*
X170401744Y-100105398D01*
X170444604Y-99957876D01*
X170447597Y-99947573D01*
X170447598Y-99947567D01*
X170450500Y-99910696D01*
X170450500Y-99479304D01*
X170447598Y-99442432D01*
X170447597Y-99442426D01*
X170401745Y-99284606D01*
X170401744Y-99284603D01*
X170401744Y-99284602D01*
X170318081Y-99143135D01*
X170318079Y-99143133D01*
X170318076Y-99143129D01*
X170201870Y-99026923D01*
X170201862Y-99026917D01*
X170110123Y-98972663D01*
X170060398Y-98943256D01*
X170060397Y-98943255D01*
X170060396Y-98943255D01*
X170060393Y-98943254D01*
X169902573Y-98897402D01*
X169902567Y-98897401D01*
X169865696Y-98894500D01*
X169865694Y-98894500D01*
X168034306Y-98894500D01*
X168034304Y-98894500D01*
X167997432Y-98897401D01*
X167997426Y-98897402D01*
X167839606Y-98943254D01*
X167839603Y-98943255D01*
X167698137Y-99026917D01*
X167698129Y-99026923D01*
X167666874Y-99058180D01*
X167605552Y-99091666D01*
X167579192Y-99094500D01*
X165802727Y-99094500D01*
X165735688Y-99074815D01*
X165689933Y-99022011D01*
X165685021Y-99009505D01*
X165672814Y-98972666D01*
X165580712Y-98823344D01*
X165456656Y-98699288D01*
X165329818Y-98621054D01*
X165307336Y-98607187D01*
X165307331Y-98607185D01*
X165275107Y-98596507D01*
X165140797Y-98552001D01*
X165140795Y-98552000D01*
X165038010Y-98541500D01*
X163637998Y-98541500D01*
X163637981Y-98541501D01*
X163535203Y-98552000D01*
X163535200Y-98552001D01*
X163368668Y-98607185D01*
X163368663Y-98607187D01*
X163219342Y-98699289D01*
X163095288Y-98823343D01*
X163095285Y-98823347D01*
X163026327Y-98935145D01*
X162974379Y-98981870D01*
X162905416Y-98993091D01*
X162841334Y-98965248D01*
X162815250Y-98935144D01*
X162808751Y-98924608D01*
X162761712Y-98848344D01*
X162637656Y-98724288D01*
X162544888Y-98667069D01*
X162488336Y-98632187D01*
X162488331Y-98632185D01*
X162454740Y-98621054D01*
X162321797Y-98577001D01*
X162321795Y-98577000D01*
X162219010Y-98566500D01*
X160868998Y-98566500D01*
X160868981Y-98566501D01*
X160766203Y-98577000D01*
X160766200Y-98577001D01*
X160599668Y-98632185D01*
X160599663Y-98632187D01*
X160450342Y-98724289D01*
X160361681Y-98812951D01*
X160300358Y-98846436D01*
X160230666Y-98841452D01*
X160186319Y-98812951D01*
X160097657Y-98724289D01*
X160097656Y-98724288D01*
X160004888Y-98667069D01*
X159948336Y-98632187D01*
X159948331Y-98632185D01*
X159914740Y-98621054D01*
X159781797Y-98577001D01*
X159781795Y-98577000D01*
X159679010Y-98566500D01*
X158328998Y-98566500D01*
X158328981Y-98566501D01*
X158226203Y-98577000D01*
X158226200Y-98577001D01*
X158059668Y-98632185D01*
X158059663Y-98632187D01*
X157910342Y-98724289D01*
X157846681Y-98787951D01*
X157785358Y-98821436D01*
X157715666Y-98816452D01*
X157671319Y-98787951D01*
X157582657Y-98699289D01*
X157582656Y-98699288D01*
X157455818Y-98621054D01*
X157433336Y-98607187D01*
X157433331Y-98607185D01*
X157401107Y-98596507D01*
X157266797Y-98552001D01*
X157266795Y-98552000D01*
X157164010Y-98541500D01*
X155763998Y-98541500D01*
X155763981Y-98541501D01*
X155661203Y-98552000D01*
X155661200Y-98552001D01*
X155494668Y-98607185D01*
X155494663Y-98607187D01*
X155345342Y-98699289D01*
X155221289Y-98823342D01*
X155129187Y-98972663D01*
X155129185Y-98972668D01*
X155123995Y-98988331D01*
X155074001Y-99139203D01*
X155074001Y-99139204D01*
X155074000Y-99139204D01*
X155063500Y-99241983D01*
X155063500Y-99992001D01*
X155063501Y-99992019D01*
X155070572Y-100061231D01*
X155057802Y-100129924D01*
X155034895Y-100161513D01*
X154302208Y-100894199D01*
X154289951Y-100904020D01*
X154290134Y-100904241D01*
X154284123Y-100909213D01*
X154236772Y-100959636D01*
X154215889Y-100980519D01*
X154215877Y-100980532D01*
X154211621Y-100986017D01*
X154207837Y-100990447D01*
X154175937Y-101024418D01*
X154175936Y-101024420D01*
X154166284Y-101041976D01*
X154155610Y-101058226D01*
X154143329Y-101074061D01*
X154143324Y-101074068D01*
X154124815Y-101116838D01*
X154122245Y-101122084D01*
X154099803Y-101162906D01*
X154094822Y-101182307D01*
X154088521Y-101200710D01*
X154080562Y-101219102D01*
X154080561Y-101219105D01*
X154073271Y-101265127D01*
X154072087Y-101270846D01*
X154060501Y-101315972D01*
X154060500Y-101315982D01*
X154060500Y-101336016D01*
X154058973Y-101355415D01*
X154055840Y-101375194D01*
X154055840Y-101375195D01*
X154060225Y-101421583D01*
X154060500Y-101427421D01*
X154060500Y-101899770D01*
X154040815Y-101966809D01*
X153988011Y-102012564D01*
X153918853Y-102022508D01*
X153855297Y-101993483D01*
X153848819Y-101987451D01*
X152721729Y-100860361D01*
X152709949Y-100846730D01*
X152702482Y-100836701D01*
X152695612Y-100827472D01*
X152681763Y-100815851D01*
X152655587Y-100793886D01*
X152651612Y-100790244D01*
X152648690Y-100787322D01*
X152645780Y-100784411D01*
X152620040Y-100764059D01*
X152594992Y-100743041D01*
X152561214Y-100714698D01*
X152561213Y-100714697D01*
X152561209Y-100714694D01*
X152555180Y-100710729D01*
X152555212Y-100710680D01*
X152548853Y-100706628D01*
X152548822Y-100706679D01*
X152542680Y-100702891D01*
X152542678Y-100702890D01*
X152542677Y-100702889D01*
X152497877Y-100681998D01*
X152473058Y-100670424D01*
X152438894Y-100653267D01*
X152404433Y-100635960D01*
X152404431Y-100635959D01*
X152404430Y-100635959D01*
X152397645Y-100633489D01*
X152397665Y-100633433D01*
X152390549Y-100630959D01*
X152390531Y-100631015D01*
X152383671Y-100628742D01*
X152355841Y-100622996D01*
X152308434Y-100613207D01*
X152259472Y-100601603D01*
X152233719Y-100595499D01*
X152226547Y-100594661D01*
X152226553Y-100594601D01*
X152219055Y-100593835D01*
X152219050Y-100593895D01*
X152211860Y-100593265D01*
X152135083Y-100595500D01*
X147428229Y-100595500D01*
X147361190Y-100575815D01*
X147340548Y-100559181D01*
X146182818Y-99401451D01*
X146149333Y-99340128D01*
X146146499Y-99313770D01*
X146146499Y-98768729D01*
X146166184Y-98701690D01*
X146182818Y-98681048D01*
X146338026Y-98525840D01*
X146535642Y-98328224D01*
X146549257Y-98316458D01*
X146568530Y-98302110D01*
X146602123Y-98262074D01*
X146605757Y-98258108D01*
X146611590Y-98252277D01*
X146631927Y-98226555D01*
X146681302Y-98167714D01*
X146681304Y-98167709D01*
X146685272Y-98161679D01*
X146685323Y-98161712D01*
X146689369Y-98155360D01*
X146689317Y-98155328D01*
X146693106Y-98149182D01*
X146693111Y-98149177D01*
X146709118Y-98114848D01*
X146755288Y-98062410D01*
X146822482Y-98043257D01*
X146889363Y-98063472D01*
X146934699Y-98116636D01*
X146945500Y-98167253D01*
X146945500Y-99394001D01*
X146945501Y-99394018D01*
X146956000Y-99496796D01*
X146956001Y-99496799D01*
X147011185Y-99663331D01*
X147011187Y-99663336D01*
X147027178Y-99689261D01*
X147103288Y-99812656D01*
X147227344Y-99936712D01*
X147376666Y-100028814D01*
X147543203Y-100083999D01*
X147645991Y-100094500D01*
X148371008Y-100094499D01*
X148371016Y-100094498D01*
X148371019Y-100094498D01*
X148427302Y-100088748D01*
X148473797Y-100083999D01*
X148640334Y-100028814D01*
X148789656Y-99936712D01*
X148845031Y-99881337D01*
X148906354Y-99847852D01*
X148976046Y-99852836D01*
X148997809Y-99863480D01*
X149124066Y-99941357D01*
X149124069Y-99941358D01*
X149124075Y-99941362D01*
X149289225Y-99996087D01*
X149391152Y-100006500D01*
X149391157Y-100006500D01*
X149977843Y-100006500D01*
X149977848Y-100006500D01*
X150079775Y-99996087D01*
X150244925Y-99941362D01*
X150393003Y-99850026D01*
X150516026Y-99727003D01*
X150516755Y-99725821D01*
X150517466Y-99725181D01*
X150520507Y-99721336D01*
X150521163Y-99721855D01*
X150568701Y-99679097D01*
X150637664Y-99667873D01*
X150701746Y-99695715D01*
X150723761Y-99721123D01*
X150723888Y-99721023D01*
X150726113Y-99723838D01*
X150727833Y-99725822D01*
X150728365Y-99726685D01*
X150728369Y-99726690D01*
X150851308Y-99849629D01*
X150999285Y-99940903D01*
X150999290Y-99940905D01*
X151164326Y-99995592D01*
X151266184Y-100005999D01*
X151266197Y-100006000D01*
X151309500Y-100006000D01*
X151309500Y-99056000D01*
X151809500Y-99056000D01*
X151809500Y-100006000D01*
X151852803Y-100006000D01*
X151852815Y-100005999D01*
X151954673Y-99995592D01*
X152119709Y-99940905D01*
X152119714Y-99940903D01*
X152267691Y-99849629D01*
X152390629Y-99726691D01*
X152481903Y-99578714D01*
X152481905Y-99578709D01*
X152536592Y-99413673D01*
X152546999Y-99311815D01*
X152547000Y-99311802D01*
X152547000Y-99056000D01*
X151809500Y-99056000D01*
X151309500Y-99056000D01*
X151309500Y-97606000D01*
X151809500Y-97606000D01*
X151809500Y-98556000D01*
X152547000Y-98556000D01*
X152547000Y-98300197D01*
X152546999Y-98300184D01*
X152536592Y-98198326D01*
X152481905Y-98033290D01*
X152481903Y-98033285D01*
X152390629Y-97885308D01*
X152267691Y-97762370D01*
X152119714Y-97671096D01*
X152119709Y-97671094D01*
X151954673Y-97616407D01*
X151852815Y-97606000D01*
X151809500Y-97606000D01*
X151309500Y-97606000D01*
X151266184Y-97606000D01*
X151164326Y-97616407D01*
X150999290Y-97671094D01*
X150999285Y-97671096D01*
X150851308Y-97762370D01*
X150728369Y-97885309D01*
X150728364Y-97885315D01*
X150727829Y-97886184D01*
X150727306Y-97886654D01*
X150723888Y-97890977D01*
X150723149Y-97890392D01*
X150675879Y-97932906D01*
X150606916Y-97944125D01*
X150542835Y-97916278D01*
X150520586Y-97890601D01*
X150520507Y-97890664D01*
X150519111Y-97888898D01*
X150516758Y-97886183D01*
X150516028Y-97884999D01*
X150393003Y-97761974D01*
X150392999Y-97761971D01*
X150244933Y-97670642D01*
X150244927Y-97670639D01*
X150244925Y-97670638D01*
X150171185Y-97646203D01*
X150079776Y-97615913D01*
X149977855Y-97605500D01*
X149977848Y-97605500D01*
X149391152Y-97605500D01*
X149391144Y-97605500D01*
X149289223Y-97615913D01*
X149124077Y-97670637D01*
X149124070Y-97670641D01*
X149097461Y-97687053D01*
X149030068Y-97705492D01*
X148963405Y-97684568D01*
X148926828Y-97646609D01*
X148913712Y-97625344D01*
X148789656Y-97501288D01*
X148689048Y-97439233D01*
X148640336Y-97409187D01*
X148640331Y-97409185D01*
X148624684Y-97404000D01*
X148473797Y-97354001D01*
X148473795Y-97354000D01*
X148371010Y-97343500D01*
X147645998Y-97343500D01*
X147645980Y-97343501D01*
X147543203Y-97354000D01*
X147543200Y-97354001D01*
X147376668Y-97409185D01*
X147376663Y-97409187D01*
X147227342Y-97501289D01*
X147103289Y-97625342D01*
X147097243Y-97635144D01*
X147030304Y-97743672D01*
X147030039Y-97744101D01*
X146978091Y-97790825D01*
X146909129Y-97802048D01*
X146845046Y-97774204D01*
X146806190Y-97716136D01*
X146800500Y-97679004D01*
X146800500Y-96460976D01*
X146820185Y-96393937D01*
X146872989Y-96348182D01*
X146900135Y-96340736D01*
X146899932Y-96339876D01*
X146907479Y-96338092D01*
X146907481Y-96338091D01*
X146907483Y-96338091D01*
X147042331Y-96287796D01*
X147126105Y-96225082D01*
X147191569Y-96200665D01*
X147259842Y-96215516D01*
X147274727Y-96225082D01*
X147357910Y-96287352D01*
X147357913Y-96287354D01*
X147492620Y-96337596D01*
X147492627Y-96337598D01*
X147552155Y-96343999D01*
X147552172Y-96344000D01*
X148100000Y-96344000D01*
X148100000Y-93344000D01*
X148600000Y-93344000D01*
X148600000Y-96344000D01*
X149147828Y-96344000D01*
X149147844Y-96343999D01*
X149207372Y-96337598D01*
X149207379Y-96337596D01*
X149342086Y-96287354D01*
X149342093Y-96287350D01*
X149457187Y-96201190D01*
X149457190Y-96201187D01*
X149543350Y-96086093D01*
X149543354Y-96086086D01*
X149593596Y-95951379D01*
X149594603Y-95942020D01*
X149621340Y-95877468D01*
X149678732Y-95837619D01*
X149748558Y-95835124D01*
X149808647Y-95870776D01*
X149823432Y-95890176D01*
X149887684Y-95994345D01*
X150011654Y-96118315D01*
X150160875Y-96210356D01*
X150160880Y-96210358D01*
X150327302Y-96265505D01*
X150327309Y-96265506D01*
X150430019Y-96275999D01*
X150879999Y-96275999D01*
X150880000Y-96275998D01*
X150880000Y-95451000D01*
X151380000Y-95451000D01*
X151380000Y-96275999D01*
X151829972Y-96275999D01*
X151829986Y-96275998D01*
X151932697Y-96265505D01*
X152099119Y-96210358D01*
X152099124Y-96210356D01*
X152248345Y-96118315D01*
X152372315Y-95994345D01*
X152464356Y-95845124D01*
X152464358Y-95845119D01*
X152519505Y-95678697D01*
X152519506Y-95678690D01*
X152529999Y-95575986D01*
X152530000Y-95575973D01*
X152530000Y-95451000D01*
X151380000Y-95451000D01*
X150880000Y-95451000D01*
X150880000Y-94126000D01*
X151380000Y-94126000D01*
X151380000Y-94951000D01*
X152529999Y-94951000D01*
X152529999Y-94826028D01*
X152529998Y-94826013D01*
X152519505Y-94723302D01*
X152464358Y-94556880D01*
X152464356Y-94556875D01*
X152372315Y-94407654D01*
X152248345Y-94283684D01*
X152099124Y-94191643D01*
X152099119Y-94191641D01*
X151932697Y-94136494D01*
X151932690Y-94136493D01*
X151829986Y-94126000D01*
X151380000Y-94126000D01*
X150880000Y-94126000D01*
X150430028Y-94126000D01*
X150430012Y-94126001D01*
X150327302Y-94136494D01*
X150160880Y-94191641D01*
X150160875Y-94191643D01*
X150011654Y-94283684D01*
X149887684Y-94407654D01*
X149829539Y-94501923D01*
X149777591Y-94548647D01*
X149708628Y-94559870D01*
X149644546Y-94532026D01*
X149605690Y-94473957D01*
X149600000Y-94436826D01*
X149600000Y-93796172D01*
X149599999Y-93796155D01*
X149593598Y-93736627D01*
X149593596Y-93736620D01*
X149543354Y-93601913D01*
X149543350Y-93601906D01*
X149457190Y-93486812D01*
X149457187Y-93486809D01*
X149342093Y-93400649D01*
X149342086Y-93400645D01*
X149207379Y-93350403D01*
X149207372Y-93350401D01*
X149147844Y-93344000D01*
X148600000Y-93344000D01*
X148100000Y-93344000D01*
X148100000Y-93306729D01*
X148119685Y-93239690D01*
X148136319Y-93219048D01*
X148317548Y-93037819D01*
X148378871Y-93004334D01*
X148405229Y-93001500D01*
X149793132Y-93001500D01*
X149860171Y-93021185D01*
X149881346Y-93040383D01*
X149882181Y-93039549D01*
X149887288Y-93044656D01*
X150011344Y-93168712D01*
X150160666Y-93260814D01*
X150327203Y-93315999D01*
X150429991Y-93326500D01*
X151830008Y-93326499D01*
X151932797Y-93315999D01*
X152099334Y-93260814D01*
X152248656Y-93168712D01*
X152372712Y-93044656D01*
X152372712Y-93044655D01*
X152377819Y-93039549D01*
X152379705Y-93041435D01*
X152426625Y-93008212D01*
X152466868Y-93001500D01*
X153303295Y-93001500D01*
X153321265Y-93002809D01*
X153345023Y-93006289D01*
X153397068Y-93001735D01*
X153402470Y-93001500D01*
X153410704Y-93001500D01*
X153410709Y-93001500D01*
X153422327Y-93000141D01*
X153443276Y-92997693D01*
X153456028Y-92996577D01*
X153519797Y-92990999D01*
X153519805Y-92990996D01*
X153526866Y-92989539D01*
X153526878Y-92989598D01*
X153534243Y-92987965D01*
X153534229Y-92987906D01*
X153541246Y-92986241D01*
X153541255Y-92986241D01*
X153613423Y-92959974D01*
X153686334Y-92935814D01*
X153686343Y-92935807D01*
X153692882Y-92932760D01*
X153692908Y-92932816D01*
X153699690Y-92929532D01*
X153699663Y-92929478D01*
X153706106Y-92926240D01*
X153706117Y-92926237D01*
X153770283Y-92884034D01*
X153835656Y-92843712D01*
X153835662Y-92843705D01*
X153841325Y-92839229D01*
X153841363Y-92839277D01*
X153847200Y-92834522D01*
X153847161Y-92834475D01*
X153852696Y-92829830D01*
X153905385Y-92773983D01*
X153981239Y-92698128D01*
X154076772Y-92602594D01*
X154138091Y-92569112D01*
X154138423Y-92569040D01*
X154203803Y-92555144D01*
X154376730Y-92478151D01*
X154529871Y-92366888D01*
X154656533Y-92226216D01*
X154751179Y-92062284D01*
X154809674Y-91882256D01*
X154829460Y-91694000D01*
X154809674Y-91505744D01*
X154751179Y-91325716D01*
X154656533Y-91161784D01*
X154529871Y-91021112D01*
X154492389Y-90993880D01*
X154475665Y-90981729D01*
X154433000Y-90926398D01*
X154427021Y-90856785D01*
X154459627Y-90794990D01*
X154483453Y-90775873D01*
X154509656Y-90759712D01*
X154633712Y-90635656D01*
X154725814Y-90486334D01*
X154780999Y-90319797D01*
X154791500Y-90217009D01*
X154791499Y-89491992D01*
X154790425Y-89481483D01*
X154780999Y-89389203D01*
X154780998Y-89389200D01*
X154770168Y-89356517D01*
X154725814Y-89222666D01*
X154633712Y-89073344D01*
X154509656Y-88949288D01*
X154360334Y-88857186D01*
X154193797Y-88802001D01*
X154193795Y-88802000D01*
X154091010Y-88791500D01*
X152740998Y-88791500D01*
X152740981Y-88791501D01*
X152638203Y-88802000D01*
X152638200Y-88802001D01*
X152471668Y-88857185D01*
X152471663Y-88857187D01*
X152322342Y-88949289D01*
X152233681Y-89037951D01*
X152172358Y-89071436D01*
X152102666Y-89066452D01*
X152058319Y-89037951D01*
X151969657Y-88949289D01*
X151969656Y-88949288D01*
X151820334Y-88857186D01*
X151653797Y-88802001D01*
X151653795Y-88802000D01*
X151551016Y-88791500D01*
X151551009Y-88791500D01*
X150925729Y-88791500D01*
X150858690Y-88771815D01*
X150838048Y-88755181D01*
X150287048Y-88204180D01*
X150253563Y-88142857D01*
X150258547Y-88073165D01*
X150300419Y-88017232D01*
X150365883Y-87992815D01*
X150374704Y-87992499D01*
X151551008Y-87992499D01*
X151653797Y-87981999D01*
X151820334Y-87926814D01*
X151969656Y-87834712D01*
X152058319Y-87746049D01*
X152119642Y-87712564D01*
X152189334Y-87717548D01*
X152233681Y-87746049D01*
X152322344Y-87834712D01*
X152471666Y-87926814D01*
X152638203Y-87981999D01*
X152740991Y-87992500D01*
X154091008Y-87992499D01*
X154193797Y-87981999D01*
X154360334Y-87926814D01*
X154509656Y-87834712D01*
X154633712Y-87710656D01*
X154725814Y-87561334D01*
X154780999Y-87394797D01*
X154791500Y-87292009D01*
X154791499Y-86566992D01*
X154788507Y-86537706D01*
X154780999Y-86464203D01*
X154780998Y-86464200D01*
X154771540Y-86435657D01*
X154725814Y-86297666D01*
X154633712Y-86148344D01*
X154509656Y-86024288D01*
X154420081Y-85969038D01*
X154373358Y-85917091D01*
X154362135Y-85848128D01*
X154389979Y-85784046D01*
X154448047Y-85745190D01*
X154485179Y-85739500D01*
X155125219Y-85739500D01*
X155192258Y-85759185D01*
X155238013Y-85811989D01*
X155248507Y-85876756D01*
X155247500Y-85886127D01*
X155247500Y-85886129D01*
X155247500Y-86881870D01*
X155247501Y-86881876D01*
X155253908Y-86941481D01*
X155266659Y-86975669D01*
X155271642Y-87045361D01*
X155266659Y-87062331D01*
X155253908Y-87096518D01*
X155247501Y-87156116D01*
X155247501Y-87156123D01*
X155247500Y-87156135D01*
X155247500Y-88151870D01*
X155247501Y-88151876D01*
X155253908Y-88211481D01*
X155266659Y-88245669D01*
X155271642Y-88315361D01*
X155266659Y-88332331D01*
X155253908Y-88366518D01*
X155247501Y-88426116D01*
X155247501Y-88426123D01*
X155247500Y-88426135D01*
X155247500Y-89421870D01*
X155247501Y-89421876D01*
X155253908Y-89481481D01*
X155266659Y-89515669D01*
X155271642Y-89585361D01*
X155266659Y-89602331D01*
X155253908Y-89636518D01*
X155247501Y-89696116D01*
X155247501Y-89696123D01*
X155247500Y-89696135D01*
X155247500Y-90691870D01*
X155247501Y-90691876D01*
X155253908Y-90751481D01*
X155266659Y-90785669D01*
X155271642Y-90855361D01*
X155266659Y-90872331D01*
X155253908Y-90906518D01*
X155247501Y-90966116D01*
X155247501Y-90966123D01*
X155247500Y-90966135D01*
X155247500Y-91961870D01*
X155247501Y-91961876D01*
X155253908Y-92021481D01*
X155266659Y-92055669D01*
X155271642Y-92125361D01*
X155266659Y-92142331D01*
X155253908Y-92176518D01*
X155247501Y-92236116D01*
X155247501Y-92236123D01*
X155247500Y-92236135D01*
X155247500Y-93231870D01*
X155247501Y-93231876D01*
X155253908Y-93291481D01*
X155266659Y-93325669D01*
X155271642Y-93395361D01*
X155266659Y-93412331D01*
X155253908Y-93446518D01*
X155247501Y-93506116D01*
X155247500Y-93506135D01*
X155247500Y-94501870D01*
X155247501Y-94501876D01*
X155253908Y-94561483D01*
X155304202Y-94696328D01*
X155304206Y-94696335D01*
X155390452Y-94811544D01*
X155390455Y-94811547D01*
X155505664Y-94897793D01*
X155505671Y-94897797D01*
X155640517Y-94948091D01*
X155640516Y-94948091D01*
X155647444Y-94948835D01*
X155700127Y-94954500D01*
X157188500Y-94954499D01*
X157255539Y-94974184D01*
X157301294Y-95026987D01*
X157312500Y-95078499D01*
X157312500Y-96051870D01*
X157312501Y-96051876D01*
X157318908Y-96111483D01*
X157369202Y-96246328D01*
X157369204Y-96246331D01*
X157395755Y-96281799D01*
X157398691Y-96285720D01*
X157423109Y-96351184D01*
X157414752Y-96398860D01*
X157416829Y-96399535D01*
X157365427Y-96557733D01*
X157356326Y-96585744D01*
X157336540Y-96774000D01*
X157356326Y-96962256D01*
X157356327Y-96962259D01*
X157414818Y-97142277D01*
X157414821Y-97142284D01*
X157509467Y-97306216D01*
X157618915Y-97427770D01*
X157636129Y-97446888D01*
X157789265Y-97558148D01*
X157789270Y-97558151D01*
X157962192Y-97635142D01*
X157962197Y-97635144D01*
X158147354Y-97674500D01*
X158147355Y-97674500D01*
X158336644Y-97674500D01*
X158336646Y-97674500D01*
X158521803Y-97635144D01*
X158694730Y-97558151D01*
X158847871Y-97446888D01*
X158974533Y-97306216D01*
X159069179Y-97142284D01*
X159127674Y-96962256D01*
X159147460Y-96774000D01*
X159133529Y-96641457D01*
X159146098Y-96572731D01*
X159193830Y-96521707D01*
X159256850Y-96504499D01*
X160030871Y-96504499D01*
X160030872Y-96504499D01*
X160090483Y-96498091D01*
X160124667Y-96485340D01*
X160194358Y-96480357D01*
X160211327Y-96485338D01*
X160245517Y-96498091D01*
X160305127Y-96504500D01*
X161300872Y-96504499D01*
X161360483Y-96498091D01*
X161394667Y-96485340D01*
X161464358Y-96480357D01*
X161481327Y-96485338D01*
X161515517Y-96498091D01*
X161575127Y-96504500D01*
X162570872Y-96504499D01*
X162630483Y-96498091D01*
X162664667Y-96485340D01*
X162734358Y-96480357D01*
X162751327Y-96485338D01*
X162785517Y-96498091D01*
X162845127Y-96504500D01*
X163840872Y-96504499D01*
X163900483Y-96498091D01*
X163934667Y-96485340D01*
X164004358Y-96480357D01*
X164021327Y-96485338D01*
X164055517Y-96498091D01*
X164115127Y-96504500D01*
X165110872Y-96504499D01*
X165170483Y-96498091D01*
X165204667Y-96485340D01*
X165274358Y-96480357D01*
X165291327Y-96485338D01*
X165325517Y-96498091D01*
X165385127Y-96504500D01*
X166380872Y-96504499D01*
X166440483Y-96498091D01*
X166445687Y-96496149D01*
X166515376Y-96491161D01*
X166576701Y-96524642D01*
X166597686Y-96552587D01*
X166600512Y-96557729D01*
X166600514Y-96557732D01*
X166615089Y-96577793D01*
X166627898Y-96595423D01*
X166631106Y-96600307D01*
X166654827Y-96640416D01*
X166654833Y-96640424D01*
X166668990Y-96654580D01*
X166681627Y-96669375D01*
X166693406Y-96685587D01*
X166699128Y-96690321D01*
X166729309Y-96715288D01*
X166733620Y-96719210D01*
X167832765Y-97818356D01*
X168188197Y-98173788D01*
X168198022Y-98186051D01*
X168198243Y-98185869D01*
X168203214Y-98191878D01*
X168220599Y-98208203D01*
X168253635Y-98239226D01*
X168274529Y-98260120D01*
X168280011Y-98264373D01*
X168284443Y-98268157D01*
X168318418Y-98300062D01*
X168335976Y-98309714D01*
X168352233Y-98320393D01*
X168368064Y-98332673D01*
X168387737Y-98341186D01*
X168410833Y-98351182D01*
X168416077Y-98353750D01*
X168456908Y-98376197D01*
X168469523Y-98379435D01*
X168476305Y-98381177D01*
X168494719Y-98387481D01*
X168513104Y-98395438D01*
X168559157Y-98402732D01*
X168564826Y-98403906D01*
X168609981Y-98415500D01*
X168630016Y-98415500D01*
X168649413Y-98417026D01*
X168669196Y-98420160D01*
X168715584Y-98415775D01*
X168721422Y-98415500D01*
X170885548Y-98415500D01*
X170952587Y-98435185D01*
X170973229Y-98451819D01*
X171296181Y-98774771D01*
X171329666Y-98836094D01*
X171332500Y-98862452D01*
X171332500Y-101517255D01*
X171330775Y-101532872D01*
X171331061Y-101532899D01*
X171330326Y-101540665D01*
X171332500Y-101609814D01*
X171332500Y-101639343D01*
X171332501Y-101639360D01*
X171333368Y-101646231D01*
X171333826Y-101652050D01*
X171335290Y-101698624D01*
X171335291Y-101698627D01*
X171340880Y-101717867D01*
X171344824Y-101736911D01*
X171347336Y-101756792D01*
X171359793Y-101788256D01*
X171364490Y-101800119D01*
X171366382Y-101805647D01*
X171379381Y-101850388D01*
X171389580Y-101867634D01*
X171398138Y-101885103D01*
X171405514Y-101903732D01*
X171432898Y-101941423D01*
X171436106Y-101946307D01*
X171459827Y-101986416D01*
X171459833Y-101986424D01*
X171473990Y-102000580D01*
X171486628Y-102015376D01*
X171497158Y-102029870D01*
X171498406Y-102031587D01*
X171533941Y-102060984D01*
X171534309Y-102061288D01*
X171538620Y-102065210D01*
X171835965Y-102362555D01*
X172092194Y-102618784D01*
X172102019Y-102631048D01*
X172102240Y-102630866D01*
X172107210Y-102636873D01*
X172107213Y-102636876D01*
X172107214Y-102636877D01*
X172157651Y-102684241D01*
X172178530Y-102705120D01*
X172184004Y-102709366D01*
X172188442Y-102713156D01*
X172222418Y-102745062D01*
X172222422Y-102745064D01*
X172239973Y-102754713D01*
X172256231Y-102765392D01*
X172272064Y-102777674D01*
X172293293Y-102786860D01*
X172314837Y-102796183D01*
X172320081Y-102798752D01*
X172360908Y-102821197D01*
X172380312Y-102826179D01*
X172398710Y-102832478D01*
X172417105Y-102840438D01*
X172434585Y-102843206D01*
X172448529Y-102845415D01*
X172511664Y-102875344D01*
X172548596Y-102934655D01*
X172547598Y-103004517D01*
X172535865Y-103031008D01*
X172498254Y-103094605D01*
X172498254Y-103094606D01*
X172452402Y-103252426D01*
X172452401Y-103252432D01*
X172449500Y-103289304D01*
X172449500Y-103720696D01*
X172452401Y-103757567D01*
X172452402Y-103757573D01*
X172498254Y-103915393D01*
X172498255Y-103915396D01*
X172498256Y-103915398D01*
X172516178Y-103945702D01*
X172581917Y-104056862D01*
X172586702Y-104063031D01*
X172584256Y-104064927D01*
X172610857Y-104113642D01*
X172605873Y-104183334D01*
X172585069Y-104215703D01*
X172586702Y-104216969D01*
X172581917Y-104223137D01*
X172498255Y-104364603D01*
X172498254Y-104364606D01*
X172452402Y-104522426D01*
X172452401Y-104522432D01*
X172449500Y-104559304D01*
X172449500Y-104990696D01*
X172452401Y-105027567D01*
X172452402Y-105027573D01*
X172498254Y-105185393D01*
X172498255Y-105185396D01*
X172581917Y-105326862D01*
X172586702Y-105333031D01*
X172584369Y-105334840D01*
X172611210Y-105383995D01*
X172606226Y-105453687D01*
X172585470Y-105486021D01*
X172587097Y-105487283D01*
X172582313Y-105493449D01*
X172498718Y-105634801D01*
X172452899Y-105792513D01*
X172452704Y-105794998D01*
X172452705Y-105795000D01*
X175447295Y-105795000D01*
X175447295Y-105794998D01*
X175447100Y-105792513D01*
X175401281Y-105634801D01*
X175317685Y-105493447D01*
X175312900Y-105487278D01*
X175315366Y-105485364D01*
X175288802Y-105436776D01*
X175293749Y-105367082D01*
X175314856Y-105334232D01*
X175313301Y-105333026D01*
X175318077Y-105326868D01*
X175318081Y-105326865D01*
X175401744Y-105185398D01*
X175447598Y-105027569D01*
X175449049Y-105009131D01*
X175450500Y-104990696D01*
X175450500Y-104559304D01*
X175447598Y-104522432D01*
X175447597Y-104522426D01*
X175401745Y-104364606D01*
X175401744Y-104364603D01*
X175401744Y-104364602D01*
X175318081Y-104223135D01*
X175318078Y-104223132D01*
X175313298Y-104216969D01*
X175315750Y-104215066D01*
X175289155Y-104166421D01*
X175294104Y-104096726D01*
X175314940Y-104064304D01*
X175313298Y-104063031D01*
X175318075Y-104056870D01*
X175318081Y-104056865D01*
X175401744Y-103915398D01*
X175447598Y-103757569D01*
X175450500Y-103720694D01*
X175450500Y-103342203D01*
X175470185Y-103275164D01*
X175486819Y-103254522D01*
X175646739Y-103094602D01*
X175897788Y-102843552D01*
X175910042Y-102833737D01*
X175909859Y-102833515D01*
X175915866Y-102828543D01*
X175915877Y-102828537D01*
X175949224Y-102793026D01*
X175963227Y-102778115D01*
X175973671Y-102767669D01*
X175984120Y-102757222D01*
X175988379Y-102751729D01*
X175992152Y-102747312D01*
X176024062Y-102713333D01*
X176033713Y-102695775D01*
X176044396Y-102679512D01*
X176056673Y-102663687D01*
X176075185Y-102620904D01*
X176077738Y-102615692D01*
X176100197Y-102574843D01*
X176105180Y-102555431D01*
X176111481Y-102537031D01*
X176119437Y-102518647D01*
X176126729Y-102472603D01*
X176127906Y-102466922D01*
X176139500Y-102421770D01*
X176139500Y-102401734D01*
X176141027Y-102382333D01*
X176141627Y-102378547D01*
X176144160Y-102362555D01*
X176139775Y-102316166D01*
X176139500Y-102310328D01*
X176139500Y-99669991D01*
X176141224Y-99654371D01*
X176140939Y-99654344D01*
X176141673Y-99646582D01*
X176139500Y-99577421D01*
X176139500Y-99547905D01*
X176139500Y-99547899D01*
X176138631Y-99541028D01*
X176138173Y-99535201D01*
X176138036Y-99530827D01*
X176136710Y-99488622D01*
X176131119Y-99469379D01*
X176127173Y-99450327D01*
X176124664Y-99430457D01*
X176107504Y-99387116D01*
X176105624Y-99381628D01*
X176092618Y-99336859D01*
X176082422Y-99319619D01*
X176073861Y-99302143D01*
X176066487Y-99283519D01*
X176066486Y-99283517D01*
X176039079Y-99245794D01*
X176035888Y-99240935D01*
X176032728Y-99235592D01*
X176012170Y-99200829D01*
X176012168Y-99200827D01*
X176012165Y-99200823D01*
X175998006Y-99186664D01*
X175985368Y-99171868D01*
X175973594Y-99155662D01*
X175958451Y-99143135D01*
X175937688Y-99125958D01*
X175933376Y-99122035D01*
X174437523Y-97626181D01*
X174404038Y-97564858D01*
X174409022Y-97495166D01*
X174450894Y-97439233D01*
X174516358Y-97414816D01*
X174525204Y-97414500D01*
X183037500Y-97414500D01*
X183104539Y-97434185D01*
X183150294Y-97486989D01*
X183161500Y-97538500D01*
X183161500Y-99861870D01*
X183161501Y-99861876D01*
X183167908Y-99921483D01*
X183218202Y-100056328D01*
X183218206Y-100056335D01*
X183304452Y-100171544D01*
X183304455Y-100171547D01*
X183419664Y-100257793D01*
X183419671Y-100257797D01*
X183554517Y-100308091D01*
X183554516Y-100308091D01*
X183561444Y-100308835D01*
X183614127Y-100314500D01*
X186709872Y-100314499D01*
X186769483Y-100308091D01*
X186904331Y-100257796D01*
X187019546Y-100171546D01*
X187105796Y-100056331D01*
X187156091Y-99921483D01*
X187162500Y-99861873D01*
X187162499Y-97266128D01*
X187156091Y-97206517D01*
X187124174Y-97120944D01*
X187105797Y-97071671D01*
X187105793Y-97071664D01*
X187019547Y-96956455D01*
X187019544Y-96956452D01*
X186904335Y-96870206D01*
X186904328Y-96870202D01*
X186892870Y-96865929D01*
X186836937Y-96824058D01*
X186812519Y-96758594D01*
X186827370Y-96690321D01*
X186848519Y-96662069D01*
X188046583Y-95464005D01*
X190656859Y-95464005D01*
X190677385Y-95711729D01*
X190677387Y-95711738D01*
X190738412Y-95952717D01*
X190838266Y-96180364D01*
X190938564Y-96333882D01*
X191678923Y-95593523D01*
X191702507Y-95673844D01*
X191780239Y-95794798D01*
X191888900Y-95888952D01*
X192019685Y-95948680D01*
X192029466Y-95950086D01*
X191291942Y-96687609D01*
X191338768Y-96724055D01*
X191338770Y-96724056D01*
X191557385Y-96842364D01*
X191557396Y-96842369D01*
X191792506Y-96923083D01*
X192037707Y-96964000D01*
X192286293Y-96964000D01*
X192531493Y-96923083D01*
X192766603Y-96842369D01*
X192766614Y-96842364D01*
X192985228Y-96724057D01*
X192985231Y-96724055D01*
X193032056Y-96687609D01*
X192294533Y-95950086D01*
X192304315Y-95948680D01*
X192435100Y-95888952D01*
X192543761Y-95794798D01*
X192621493Y-95673844D01*
X192645076Y-95593524D01*
X193385434Y-96333882D01*
X193485731Y-96180369D01*
X193585587Y-95952717D01*
X193646612Y-95711738D01*
X193646614Y-95711729D01*
X193667141Y-95464005D01*
X193667141Y-95463994D01*
X193646614Y-95216270D01*
X193646612Y-95216261D01*
X193585587Y-94975282D01*
X193485731Y-94747630D01*
X193385434Y-94594116D01*
X192645076Y-95334475D01*
X192621493Y-95254156D01*
X192543761Y-95133202D01*
X192435100Y-95039048D01*
X192304315Y-94979320D01*
X192294534Y-94977913D01*
X193032057Y-94240390D01*
X193032056Y-94240389D01*
X192985229Y-94203943D01*
X192766614Y-94085635D01*
X192766603Y-94085630D01*
X192531493Y-94004916D01*
X192286293Y-93964000D01*
X192037707Y-93964000D01*
X191792506Y-94004916D01*
X191557396Y-94085630D01*
X191557390Y-94085632D01*
X191338761Y-94203949D01*
X191291942Y-94240388D01*
X191291942Y-94240390D01*
X192029466Y-94977913D01*
X192019685Y-94979320D01*
X191888900Y-95039048D01*
X191780239Y-95133202D01*
X191702507Y-95254156D01*
X191678923Y-95334475D01*
X190938564Y-94594116D01*
X190838267Y-94747632D01*
X190738412Y-94975282D01*
X190677387Y-95216261D01*
X190677385Y-95216270D01*
X190656859Y-95463994D01*
X190656859Y-95464005D01*
X188046583Y-95464005D01*
X191584771Y-91925817D01*
X191646092Y-91892334D01*
X191712712Y-91896218D01*
X191749310Y-91908783D01*
X191792385Y-91923571D01*
X192037665Y-91964500D01*
X192286335Y-91964500D01*
X192531614Y-91923571D01*
X192766810Y-91842828D01*
X192985509Y-91724474D01*
X193181744Y-91571738D01*
X193350164Y-91388785D01*
X193486173Y-91180607D01*
X193586063Y-90952881D01*
X193647108Y-90711821D01*
X193650242Y-90674000D01*
X193667643Y-90464005D01*
X193667643Y-90463994D01*
X193647109Y-90216187D01*
X193647107Y-90216175D01*
X193586063Y-89975118D01*
X193486173Y-89747393D01*
X193350166Y-89539217D01*
X193295542Y-89479880D01*
X193181744Y-89356262D01*
X192985509Y-89203526D01*
X192985507Y-89203525D01*
X192985506Y-89203524D01*
X192766811Y-89085172D01*
X192766802Y-89085169D01*
X192531616Y-89004429D01*
X192286335Y-88963500D01*
X192037665Y-88963500D01*
X191792383Y-89004429D01*
X191557197Y-89085169D01*
X191557188Y-89085172D01*
X191338493Y-89203524D01*
X191142257Y-89356261D01*
X190973833Y-89539217D01*
X190837826Y-89747393D01*
X190737936Y-89975118D01*
X190676892Y-90216175D01*
X190676890Y-90216187D01*
X190656357Y-90463994D01*
X190656357Y-90464005D01*
X190676890Y-90711812D01*
X190676892Y-90711824D01*
X190730863Y-90924949D01*
X190728238Y-90994769D01*
X190698338Y-91043070D01*
X185614228Y-96127181D01*
X185552905Y-96160666D01*
X185526547Y-96163500D01*
X179183473Y-96163500D01*
X179116434Y-96143815D01*
X179070679Y-96091011D01*
X179060735Y-96021853D01*
X179069916Y-95989692D01*
X179086063Y-95952881D01*
X179147108Y-95711821D01*
X179147152Y-95711288D01*
X179167643Y-95464005D01*
X179167643Y-95463994D01*
X179147109Y-95216187D01*
X179147107Y-95216175D01*
X179086063Y-94975118D01*
X178986173Y-94747393D01*
X178850166Y-94539217D01*
X178815787Y-94501872D01*
X178681744Y-94356262D01*
X178588496Y-94283684D01*
X178580623Y-94277556D01*
X178539810Y-94220846D01*
X178535697Y-94191249D01*
X177794533Y-93450086D01*
X177804315Y-93448680D01*
X177935100Y-93388952D01*
X178043761Y-93294798D01*
X178121493Y-93173844D01*
X178145076Y-93093524D01*
X178885434Y-93833882D01*
X178985731Y-93680369D01*
X179085587Y-93452717D01*
X179146612Y-93211738D01*
X179146614Y-93211729D01*
X179167141Y-92964005D01*
X179167141Y-92963994D01*
X179146614Y-92716270D01*
X179146612Y-92716261D01*
X179085587Y-92475282D01*
X178985732Y-92247632D01*
X178873515Y-92075870D01*
X178853328Y-92008981D01*
X178872508Y-91941795D01*
X178903013Y-91908782D01*
X178904329Y-91907796D01*
X178904331Y-91907796D01*
X179019546Y-91821546D01*
X179105796Y-91706331D01*
X179156091Y-91571483D01*
X179162500Y-91511873D01*
X179162499Y-89416128D01*
X179156091Y-89356517D01*
X179154205Y-89351461D01*
X179105797Y-89221671D01*
X179105793Y-89221664D01*
X179019547Y-89106455D01*
X179019544Y-89106452D01*
X178904335Y-89020206D01*
X178904328Y-89020202D01*
X178769482Y-88969908D01*
X178769483Y-88969908D01*
X178709883Y-88963501D01*
X178709881Y-88963500D01*
X178709873Y-88963500D01*
X178709865Y-88963500D01*
X178411500Y-88963500D01*
X178344461Y-88943815D01*
X178298706Y-88891011D01*
X178287500Y-88839500D01*
X178287500Y-88661870D01*
X183161500Y-88661870D01*
X183161501Y-88661876D01*
X183167908Y-88721483D01*
X183218202Y-88856328D01*
X183218206Y-88856335D01*
X183304452Y-88971544D01*
X183304455Y-88971547D01*
X183419664Y-89057793D01*
X183419671Y-89057797D01*
X183554517Y-89108091D01*
X183554516Y-89108091D01*
X183561444Y-89108835D01*
X183614127Y-89114500D01*
X186709872Y-89114499D01*
X186769483Y-89108091D01*
X186904331Y-89057796D01*
X187019546Y-88971546D01*
X187105796Y-88856331D01*
X187156091Y-88721483D01*
X187162500Y-88661873D01*
X187162499Y-86066128D01*
X187156091Y-86006517D01*
X187137746Y-85957332D01*
X187105797Y-85871671D01*
X187105793Y-85871664D01*
X187019547Y-85756455D01*
X187019544Y-85756452D01*
X186904335Y-85670206D01*
X186904328Y-85670202D01*
X186769482Y-85619908D01*
X186769483Y-85619908D01*
X186709883Y-85613501D01*
X186709881Y-85613500D01*
X186709873Y-85613500D01*
X186709864Y-85613500D01*
X183614129Y-85613500D01*
X183614123Y-85613501D01*
X183554516Y-85619908D01*
X183419671Y-85670202D01*
X183419664Y-85670206D01*
X183304455Y-85756452D01*
X183304452Y-85756455D01*
X183218206Y-85871664D01*
X183218202Y-85871671D01*
X183167908Y-86006517D01*
X183162522Y-86056623D01*
X183161501Y-86066123D01*
X183161500Y-86066135D01*
X183161500Y-88661870D01*
X178287500Y-88661870D01*
X178287500Y-87860742D01*
X178289224Y-87845122D01*
X178288939Y-87845096D01*
X178289671Y-87837340D01*
X178289673Y-87837333D01*
X178287500Y-87768185D01*
X178287500Y-87738650D01*
X178286631Y-87731772D01*
X178286172Y-87725943D01*
X178284709Y-87679372D01*
X178279122Y-87660144D01*
X178275174Y-87641084D01*
X178272663Y-87621204D01*
X178255512Y-87577887D01*
X178253619Y-87572358D01*
X178240618Y-87527609D01*
X178240616Y-87527606D01*
X178230423Y-87510371D01*
X178221861Y-87492894D01*
X178214487Y-87474270D01*
X178214486Y-87474268D01*
X178187079Y-87436545D01*
X178183888Y-87431686D01*
X178160172Y-87391583D01*
X178160165Y-87391574D01*
X178146006Y-87377415D01*
X178133368Y-87362619D01*
X178121594Y-87346413D01*
X178085688Y-87316709D01*
X178081376Y-87312786D01*
X175498803Y-84730212D01*
X175488980Y-84717950D01*
X175488759Y-84718134D01*
X175483786Y-84712123D01*
X175433364Y-84664773D01*
X175421250Y-84652659D01*
X175412475Y-84643883D01*
X175406986Y-84639625D01*
X175402561Y-84635847D01*
X175368582Y-84603938D01*
X175368580Y-84603936D01*
X175368577Y-84603935D01*
X175351029Y-84594288D01*
X175334763Y-84583604D01*
X175318932Y-84571324D01*
X175306319Y-84565866D01*
X175252612Y-84521175D01*
X175231593Y-84454542D01*
X175239388Y-84408729D01*
X175242091Y-84401483D01*
X175248500Y-84341873D01*
X175248499Y-83346128D01*
X175242091Y-83286517D01*
X175229340Y-83252332D01*
X175224357Y-83182642D01*
X175229338Y-83165672D01*
X175242091Y-83131483D01*
X175248500Y-83071873D01*
X175248499Y-82076128D01*
X175242091Y-82016517D01*
X175229340Y-81982332D01*
X175224357Y-81912642D01*
X175229340Y-81895669D01*
X175242091Y-81861483D01*
X175248500Y-81801873D01*
X175248499Y-80806128D01*
X175242091Y-80746517D01*
X175229340Y-80712332D01*
X175224357Y-80642642D01*
X175229338Y-80625672D01*
X175242091Y-80591483D01*
X175248500Y-80531873D01*
X175248499Y-79638499D01*
X175268183Y-79571461D01*
X175320987Y-79525706D01*
X175372499Y-79514500D01*
X176444501Y-79514500D01*
X176511540Y-79534185D01*
X176557295Y-79586989D01*
X176568501Y-79638500D01*
X176568501Y-79694018D01*
X176579000Y-79796796D01*
X176579001Y-79796799D01*
X176634185Y-79963331D01*
X176634187Y-79963336D01*
X176654307Y-79995956D01*
X176726096Y-80112345D01*
X176726289Y-80112657D01*
X176855451Y-80241819D01*
X176853559Y-80243710D01*
X176886774Y-80290583D01*
X176893500Y-80330867D01*
X176893500Y-80705132D01*
X176873815Y-80772171D01*
X176854616Y-80793346D01*
X176855451Y-80794181D01*
X176726289Y-80923342D01*
X176634187Y-81072663D01*
X176634185Y-81072668D01*
X176625128Y-81100000D01*
X176579001Y-81239203D01*
X176579001Y-81239204D01*
X176579000Y-81239204D01*
X176568500Y-81341983D01*
X176568500Y-82742001D01*
X176568501Y-82742018D01*
X176579000Y-82844796D01*
X176579001Y-82844799D01*
X176620446Y-82969869D01*
X176634186Y-83011334D01*
X176726288Y-83160656D01*
X176850344Y-83284712D01*
X176990597Y-83371220D01*
X177037321Y-83423167D01*
X177049500Y-83476758D01*
X177049500Y-83539677D01*
X177032887Y-83601677D01*
X176972821Y-83705714D01*
X176932617Y-83829450D01*
X176914326Y-83885744D01*
X176894540Y-84074000D01*
X176914326Y-84262256D01*
X176914327Y-84262259D01*
X176972818Y-84442277D01*
X176972821Y-84442284D01*
X177067467Y-84606216D01*
X177173918Y-84724441D01*
X177194129Y-84746888D01*
X177347265Y-84858148D01*
X177347270Y-84858151D01*
X177520192Y-84935142D01*
X177520197Y-84935144D01*
X177705354Y-84974500D01*
X177705355Y-84974500D01*
X177894644Y-84974500D01*
X177894646Y-84974500D01*
X178079803Y-84935144D01*
X178252730Y-84858151D01*
X178405871Y-84746888D01*
X178532533Y-84606216D01*
X178627179Y-84442284D01*
X178685674Y-84262256D01*
X178705460Y-84074000D01*
X178685674Y-83885744D01*
X178627179Y-83705716D01*
X178584472Y-83631744D01*
X178567113Y-83601677D01*
X178550500Y-83539677D01*
X178550500Y-83213999D01*
X178568960Y-83148904D01*
X178653814Y-83011334D01*
X178708999Y-82844797D01*
X178719500Y-82742009D01*
X178719500Y-82292000D01*
X179519001Y-82292000D01*
X179519001Y-82741986D01*
X179529494Y-82844697D01*
X179584641Y-83011119D01*
X179584643Y-83011124D01*
X179676684Y-83160345D01*
X179800654Y-83284315D01*
X179949875Y-83376356D01*
X179949880Y-83376358D01*
X180116302Y-83431505D01*
X180116309Y-83431506D01*
X180219019Y-83441999D01*
X180343999Y-83441999D01*
X180344000Y-83441998D01*
X180344000Y-82292000D01*
X180844000Y-82292000D01*
X180844000Y-83441999D01*
X180968972Y-83441999D01*
X180968986Y-83441998D01*
X181071697Y-83431505D01*
X181238119Y-83376358D01*
X181238124Y-83376356D01*
X181387345Y-83284315D01*
X181511315Y-83160345D01*
X181603356Y-83011124D01*
X181603358Y-83011119D01*
X181658505Y-82844697D01*
X181658506Y-82844690D01*
X181668999Y-82741986D01*
X181669000Y-82741973D01*
X181669000Y-82292000D01*
X180844000Y-82292000D01*
X180344000Y-82292000D01*
X179519001Y-82292000D01*
X178719500Y-82292000D01*
X178719499Y-81792000D01*
X179519000Y-81792000D01*
X180344000Y-81792000D01*
X180344000Y-80642000D01*
X180844000Y-80642000D01*
X180844000Y-81792000D01*
X181668999Y-81792000D01*
X181668999Y-81342028D01*
X181668998Y-81342013D01*
X181658505Y-81239302D01*
X181603358Y-81072880D01*
X181603356Y-81072875D01*
X181511315Y-80923654D01*
X181387345Y-80799684D01*
X181238124Y-80707643D01*
X181238119Y-80707641D01*
X181071697Y-80652494D01*
X181071690Y-80652493D01*
X180968986Y-80642000D01*
X180844000Y-80642000D01*
X180344000Y-80642000D01*
X180219027Y-80642000D01*
X180219012Y-80642001D01*
X180116302Y-80652494D01*
X179949880Y-80707641D01*
X179949875Y-80707643D01*
X179800654Y-80799684D01*
X179676684Y-80923654D01*
X179584643Y-81072875D01*
X179584641Y-81072880D01*
X179529494Y-81239302D01*
X179529493Y-81239309D01*
X179519000Y-81342013D01*
X179519000Y-81792000D01*
X178719499Y-81792000D01*
X178719499Y-81341992D01*
X178708999Y-81239203D01*
X178653814Y-81072666D01*
X178561712Y-80923344D01*
X178437656Y-80799288D01*
X178432549Y-80794181D01*
X178434435Y-80792294D01*
X178401212Y-80745375D01*
X178394500Y-80705132D01*
X178394500Y-80330867D01*
X178414185Y-80263828D01*
X178433386Y-80242656D01*
X178432549Y-80241819D01*
X178483004Y-80191364D01*
X178561712Y-80112656D01*
X178653814Y-79963334D01*
X178708999Y-79796797D01*
X178719500Y-79694009D01*
X178719500Y-79244000D01*
X179519001Y-79244000D01*
X179519001Y-79693986D01*
X179529494Y-79796697D01*
X179584641Y-79963119D01*
X179584643Y-79963124D01*
X179676684Y-80112345D01*
X179800654Y-80236315D01*
X179949875Y-80328356D01*
X179949880Y-80328358D01*
X180116302Y-80383505D01*
X180116309Y-80383506D01*
X180219019Y-80393999D01*
X180343999Y-80393999D01*
X180344000Y-80393998D01*
X180344000Y-79244000D01*
X180844000Y-79244000D01*
X180844000Y-80393999D01*
X180968972Y-80393999D01*
X180968986Y-80393998D01*
X181071697Y-80383505D01*
X181238119Y-80328358D01*
X181238124Y-80328356D01*
X181387345Y-80236315D01*
X181511315Y-80112345D01*
X181603356Y-79963124D01*
X181603358Y-79963119D01*
X181658505Y-79796697D01*
X181658506Y-79796690D01*
X181668999Y-79693986D01*
X181669000Y-79693973D01*
X181669000Y-79244000D01*
X180844000Y-79244000D01*
X180344000Y-79244000D01*
X179519001Y-79244000D01*
X178719500Y-79244000D01*
X178719499Y-78744000D01*
X179519000Y-78744000D01*
X180344000Y-78744000D01*
X180344000Y-77594000D01*
X180844000Y-77594000D01*
X180844000Y-78744000D01*
X181668999Y-78744000D01*
X181668999Y-78294028D01*
X181668998Y-78294013D01*
X181658505Y-78191302D01*
X181603358Y-78024880D01*
X181603356Y-78024875D01*
X181511315Y-77875654D01*
X181387345Y-77751684D01*
X181238124Y-77659643D01*
X181238119Y-77659641D01*
X181071697Y-77604494D01*
X181071690Y-77604493D01*
X180968986Y-77594000D01*
X180844000Y-77594000D01*
X180344000Y-77594000D01*
X180219027Y-77594000D01*
X180219012Y-77594001D01*
X180116302Y-77604494D01*
X179949880Y-77659641D01*
X179949875Y-77659643D01*
X179800654Y-77751684D01*
X179676684Y-77875654D01*
X179584643Y-78024875D01*
X179584641Y-78024880D01*
X179529494Y-78191302D01*
X179529493Y-78191309D01*
X179519000Y-78294013D01*
X179519000Y-78744000D01*
X178719499Y-78744000D01*
X178719499Y-78293992D01*
X178708999Y-78191203D01*
X178653814Y-78024666D01*
X178561712Y-77875344D01*
X178437656Y-77751288D01*
X178329618Y-77684650D01*
X178288336Y-77659187D01*
X178288331Y-77659185D01*
X178252935Y-77647456D01*
X178121797Y-77604001D01*
X178121795Y-77604000D01*
X178019010Y-77593500D01*
X177268998Y-77593500D01*
X177268980Y-77593501D01*
X177166203Y-77604000D01*
X177166200Y-77604001D01*
X176999668Y-77659185D01*
X176999663Y-77659187D01*
X176850342Y-77751289D01*
X176726289Y-77875342D01*
X176711080Y-77900000D01*
X176677649Y-77954202D01*
X176677405Y-77954597D01*
X176625457Y-78001321D01*
X176571866Y-78013500D01*
X175372000Y-78013500D01*
X175304961Y-77993815D01*
X175259206Y-77941011D01*
X175248000Y-77889500D01*
X175248000Y-77744000D01*
X172748000Y-77744000D01*
X172748000Y-77865500D01*
X172728315Y-77932539D01*
X172675511Y-77978294D01*
X172624000Y-77989500D01*
X171989337Y-77989500D01*
X171922298Y-77969815D01*
X171916452Y-77965818D01*
X171902734Y-77955851D01*
X171902729Y-77955848D01*
X171729807Y-77878857D01*
X171729802Y-77878855D01*
X171554055Y-77841500D01*
X171544646Y-77839500D01*
X171355354Y-77839500D01*
X171345945Y-77841500D01*
X171170197Y-77878855D01*
X171170192Y-77878857D01*
X170997270Y-77955848D01*
X170997265Y-77955851D01*
X170844129Y-78067111D01*
X170717466Y-78207785D01*
X170622821Y-78371715D01*
X170622818Y-78371722D01*
X170576105Y-78515492D01*
X170564326Y-78551744D01*
X170544540Y-78740000D01*
X170564326Y-78928256D01*
X170564327Y-78928259D01*
X170622818Y-79108277D01*
X170622821Y-79108284D01*
X170717467Y-79272216D01*
X170727806Y-79283699D01*
X170735307Y-79292030D01*
X170765535Y-79355022D01*
X170756909Y-79424357D01*
X170735307Y-79457970D01*
X170717466Y-79477785D01*
X170622821Y-79641715D01*
X170622818Y-79641722D01*
X170564327Y-79821740D01*
X170564326Y-79821744D01*
X170544540Y-80010000D01*
X170564326Y-80198256D01*
X170564327Y-80198259D01*
X170622818Y-80378277D01*
X170622821Y-80378284D01*
X170717467Y-80542216D01*
X170807313Y-80642000D01*
X170844129Y-80682888D01*
X170997265Y-80794148D01*
X170997270Y-80794151D01*
X171170192Y-80871142D01*
X171170197Y-80871144D01*
X171355354Y-80910500D01*
X171355355Y-80910500D01*
X171544644Y-80910500D01*
X171544646Y-80910500D01*
X171729803Y-80871144D01*
X171902730Y-80794151D01*
X171932983Y-80772171D01*
X172055467Y-80683182D01*
X172121273Y-80659702D01*
X172128352Y-80659500D01*
X172625219Y-80659500D01*
X172692258Y-80679185D01*
X172738013Y-80731989D01*
X172748507Y-80796756D01*
X172747500Y-80806127D01*
X172747500Y-80806129D01*
X172747500Y-81801870D01*
X172747501Y-81801876D01*
X172753908Y-81861481D01*
X172766659Y-81895669D01*
X172771642Y-81965361D01*
X172766659Y-81982331D01*
X172753908Y-82016518D01*
X172747501Y-82076116D01*
X172747501Y-82076123D01*
X172747500Y-82076135D01*
X172747500Y-82881757D01*
X172727815Y-82948796D01*
X172675011Y-82994551D01*
X172605853Y-83004495D01*
X172573064Y-82995036D01*
X172491806Y-82958857D01*
X172491802Y-82958855D01*
X172346001Y-82927865D01*
X172306646Y-82919500D01*
X172117354Y-82919500D01*
X172084897Y-82926398D01*
X171932197Y-82958855D01*
X171932192Y-82958857D01*
X171759270Y-83035848D01*
X171759265Y-83035851D01*
X171606129Y-83147111D01*
X171479466Y-83287785D01*
X171384821Y-83451715D01*
X171384818Y-83451722D01*
X171336095Y-83601677D01*
X171326326Y-83631744D01*
X171306540Y-83820000D01*
X171326326Y-84008256D01*
X171326327Y-84008259D01*
X171384818Y-84188277D01*
X171384821Y-84188284D01*
X171479467Y-84352216D01*
X171554606Y-84435666D01*
X171606129Y-84492888D01*
X171759265Y-84604148D01*
X171759270Y-84604151D01*
X171932192Y-84681142D01*
X171932197Y-84681144D01*
X172117354Y-84720500D01*
X172117355Y-84720500D01*
X172306644Y-84720500D01*
X172306646Y-84720500D01*
X172491803Y-84681144D01*
X172573064Y-84644964D01*
X172642314Y-84635679D01*
X172705590Y-84665307D01*
X172742804Y-84724441D01*
X172747500Y-84758243D01*
X172747500Y-85611870D01*
X172747501Y-85611876D01*
X172753908Y-85671481D01*
X172766659Y-85705669D01*
X172771642Y-85775361D01*
X172766659Y-85792331D01*
X172753908Y-85826518D01*
X172747501Y-85886116D01*
X172747501Y-85886123D01*
X172747500Y-85886135D01*
X172747500Y-86881870D01*
X172747501Y-86881876D01*
X172753908Y-86941481D01*
X172766659Y-86975669D01*
X172771642Y-87045361D01*
X172766659Y-87062331D01*
X172753908Y-87096518D01*
X172747501Y-87156116D01*
X172747501Y-87156123D01*
X172747500Y-87156135D01*
X172747500Y-88151870D01*
X172747501Y-88151876D01*
X172753908Y-88211481D01*
X172766659Y-88245669D01*
X172771642Y-88315361D01*
X172766659Y-88332331D01*
X172753908Y-88366518D01*
X172747501Y-88426116D01*
X172747501Y-88426123D01*
X172747500Y-88426135D01*
X172747500Y-89421870D01*
X172747501Y-89421876D01*
X172753908Y-89481481D01*
X172766659Y-89515669D01*
X172771642Y-89585361D01*
X172766659Y-89602331D01*
X172753908Y-89636518D01*
X172747501Y-89696116D01*
X172747501Y-89696123D01*
X172747500Y-89696135D01*
X172747500Y-90691870D01*
X172747501Y-90691876D01*
X172753908Y-90751481D01*
X172766659Y-90785669D01*
X172771642Y-90855361D01*
X172766659Y-90872331D01*
X172753908Y-90906518D01*
X172747501Y-90966116D01*
X172747501Y-90966123D01*
X172747500Y-90966135D01*
X172747500Y-91961870D01*
X172747501Y-91961876D01*
X172751196Y-91996247D01*
X172738789Y-92065006D01*
X172691178Y-92116143D01*
X172627906Y-92133500D01*
X162799868Y-92133500D01*
X162732829Y-92113815D01*
X162707718Y-92092472D01*
X162657876Y-92037116D01*
X162657869Y-92037110D01*
X162504734Y-91925851D01*
X162504729Y-91925848D01*
X162331807Y-91848857D01*
X162331802Y-91848855D01*
X162186001Y-91817865D01*
X162146646Y-91809500D01*
X161957354Y-91809500D01*
X161924897Y-91816398D01*
X161772197Y-91848855D01*
X161772192Y-91848857D01*
X161599270Y-91925848D01*
X161599265Y-91925851D01*
X161446129Y-92037111D01*
X161319466Y-92177785D01*
X161224821Y-92341715D01*
X161224818Y-92341722D01*
X161172470Y-92502835D01*
X161166326Y-92521744D01*
X161146540Y-92710000D01*
X161163873Y-92874919D01*
X161151305Y-92943646D01*
X161103573Y-92994670D01*
X161040553Y-93011878D01*
X160886636Y-93011878D01*
X160819597Y-92992193D01*
X160794487Y-92970851D01*
X160766249Y-92939490D01*
X160766242Y-92939484D01*
X160613112Y-92828229D01*
X160613107Y-92828226D01*
X160440185Y-92751235D01*
X160440180Y-92751233D01*
X160284334Y-92718108D01*
X160255024Y-92711878D01*
X160065732Y-92711878D01*
X160045069Y-92716270D01*
X159880575Y-92751233D01*
X159880570Y-92751235D01*
X159707648Y-92828226D01*
X159707643Y-92828229D01*
X159554507Y-92939489D01*
X159427844Y-93080163D01*
X159333199Y-93244093D01*
X159333196Y-93244100D01*
X159280306Y-93406880D01*
X159274704Y-93424122D01*
X159254918Y-93612378D01*
X159274704Y-93800634D01*
X159285707Y-93834499D01*
X159287879Y-93841182D01*
X159289874Y-93911023D01*
X159253794Y-93970856D01*
X159191093Y-94001684D01*
X159169949Y-94003500D01*
X159035130Y-94003500D01*
X159035111Y-94003501D01*
X159028901Y-94004169D01*
X158960143Y-93991756D01*
X158909011Y-93944140D01*
X158892340Y-93893842D01*
X158873674Y-93716242D01*
X158815179Y-93536214D01*
X158720533Y-93372282D01*
X158593871Y-93231610D01*
X158576581Y-93219048D01*
X158440734Y-93120349D01*
X158440729Y-93120346D01*
X158267807Y-93043355D01*
X158267802Y-93043353D01*
X158093424Y-93006289D01*
X158082646Y-93003998D01*
X157893354Y-93003998D01*
X157893349Y-93003998D01*
X157886886Y-93004677D01*
X157886611Y-93002062D01*
X157828600Y-92997629D01*
X157772871Y-92955486D01*
X157748773Y-92889903D01*
X157748499Y-92881660D01*
X157748499Y-92236129D01*
X157748498Y-92236123D01*
X157748497Y-92236116D01*
X157742091Y-92176517D01*
X157729340Y-92142332D01*
X157724357Y-92072642D01*
X157729340Y-92055669D01*
X157742091Y-92021483D01*
X157748500Y-91961873D01*
X157748499Y-90966128D01*
X157742091Y-90906517D01*
X157729340Y-90872332D01*
X157724357Y-90802642D01*
X157729340Y-90785669D01*
X157742091Y-90751483D01*
X157748500Y-90691873D01*
X157748499Y-89696128D01*
X157742091Y-89636517D01*
X157729340Y-89602332D01*
X157724357Y-89532642D01*
X157729340Y-89515669D01*
X157742091Y-89481483D01*
X157748500Y-89421873D01*
X157748499Y-88426128D01*
X157742091Y-88366517D01*
X157729340Y-88332332D01*
X157724357Y-88262642D01*
X157729340Y-88245669D01*
X157742091Y-88211483D01*
X157748500Y-88151873D01*
X157748499Y-87156128D01*
X157742091Y-87096517D01*
X157729340Y-87062332D01*
X157724357Y-86992642D01*
X157729340Y-86975669D01*
X157742091Y-86941483D01*
X157748500Y-86881873D01*
X157748500Y-86864000D01*
X164398000Y-86864000D01*
X164398000Y-87111844D01*
X164404401Y-87171372D01*
X164404403Y-87171379D01*
X164454645Y-87306086D01*
X164454649Y-87306093D01*
X164540809Y-87421187D01*
X164540812Y-87421190D01*
X164655906Y-87507350D01*
X164655913Y-87507354D01*
X164790620Y-87557596D01*
X164790627Y-87557598D01*
X164850155Y-87563999D01*
X164850172Y-87564000D01*
X165098000Y-87564000D01*
X165098000Y-86864000D01*
X165598000Y-86864000D01*
X165598000Y-87564000D01*
X165845828Y-87564000D01*
X165845844Y-87563999D01*
X165905372Y-87557598D01*
X165905376Y-87557597D01*
X166004666Y-87520564D01*
X166074358Y-87515580D01*
X166091334Y-87520564D01*
X166190623Y-87557597D01*
X166190627Y-87557598D01*
X166250155Y-87563999D01*
X166250172Y-87564000D01*
X166498000Y-87564000D01*
X166498000Y-86864000D01*
X166998000Y-86864000D01*
X166998000Y-87564000D01*
X167245828Y-87564000D01*
X167245844Y-87563999D01*
X167305372Y-87557598D01*
X167305376Y-87557597D01*
X167404666Y-87520564D01*
X167474358Y-87515580D01*
X167491334Y-87520564D01*
X167590623Y-87557597D01*
X167590627Y-87557598D01*
X167650155Y-87563999D01*
X167650172Y-87564000D01*
X167898000Y-87564000D01*
X167898000Y-86864000D01*
X168398000Y-86864000D01*
X168398000Y-87564000D01*
X168645828Y-87564000D01*
X168645844Y-87563999D01*
X168705372Y-87557598D01*
X168705379Y-87557596D01*
X168840086Y-87507354D01*
X168840093Y-87507350D01*
X168955187Y-87421190D01*
X168955190Y-87421187D01*
X169041350Y-87306093D01*
X169041354Y-87306086D01*
X169091596Y-87171379D01*
X169091598Y-87171372D01*
X169097999Y-87111844D01*
X169098000Y-87111827D01*
X169098000Y-86864000D01*
X168398000Y-86864000D01*
X167898000Y-86864000D01*
X166998000Y-86864000D01*
X166498000Y-86864000D01*
X165598000Y-86864000D01*
X165098000Y-86864000D01*
X164398000Y-86864000D01*
X157748500Y-86864000D01*
X157748499Y-85886128D01*
X157742091Y-85826517D01*
X157729340Y-85792332D01*
X157724357Y-85722642D01*
X157729340Y-85705669D01*
X157742091Y-85671483D01*
X157748500Y-85611873D01*
X157748500Y-85464000D01*
X164398000Y-85464000D01*
X164398000Y-85711844D01*
X164404401Y-85771372D01*
X164404403Y-85771383D01*
X164441434Y-85870668D01*
X164446418Y-85940360D01*
X164441434Y-85957332D01*
X164404403Y-86056616D01*
X164404401Y-86056627D01*
X164398000Y-86116155D01*
X164398000Y-86364000D01*
X165098000Y-86364000D01*
X165098000Y-85464000D01*
X165598000Y-85464000D01*
X165598000Y-86364000D01*
X166498000Y-86364000D01*
X166498000Y-85464000D01*
X166998000Y-85464000D01*
X166998000Y-86364000D01*
X167898000Y-86364000D01*
X167898000Y-85464000D01*
X168398000Y-85464000D01*
X168398000Y-86364000D01*
X169098000Y-86364000D01*
X169098000Y-86116172D01*
X169097999Y-86116155D01*
X169091598Y-86056627D01*
X169091597Y-86056623D01*
X169054564Y-85957334D01*
X169049580Y-85887642D01*
X169054564Y-85870666D01*
X169091597Y-85771376D01*
X169091598Y-85771372D01*
X169097999Y-85711844D01*
X169098000Y-85711827D01*
X169098000Y-85464000D01*
X168398000Y-85464000D01*
X167898000Y-85464000D01*
X166998000Y-85464000D01*
X166498000Y-85464000D01*
X165598000Y-85464000D01*
X165098000Y-85464000D01*
X164398000Y-85464000D01*
X157748500Y-85464000D01*
X157748499Y-84616128D01*
X157742091Y-84556517D01*
X157729340Y-84522332D01*
X157724357Y-84452642D01*
X157729338Y-84435672D01*
X157742091Y-84401483D01*
X157748500Y-84341873D01*
X157748500Y-84064000D01*
X164398000Y-84064000D01*
X164398000Y-84311844D01*
X164404401Y-84371372D01*
X164404403Y-84371383D01*
X164441434Y-84470668D01*
X164446418Y-84540360D01*
X164441434Y-84557332D01*
X164404403Y-84656616D01*
X164404401Y-84656627D01*
X164398000Y-84716155D01*
X164398000Y-84964000D01*
X165098000Y-84964000D01*
X165098000Y-84064000D01*
X165598000Y-84064000D01*
X165598000Y-84964000D01*
X166498000Y-84964000D01*
X166498000Y-84064000D01*
X166998000Y-84064000D01*
X166998000Y-84964000D01*
X167898000Y-84964000D01*
X167898000Y-84064000D01*
X168398000Y-84064000D01*
X168398000Y-84964000D01*
X169098000Y-84964000D01*
X169098000Y-84716172D01*
X169097999Y-84716155D01*
X169091598Y-84656627D01*
X169091597Y-84656623D01*
X169054564Y-84557334D01*
X169049580Y-84487642D01*
X169054564Y-84470666D01*
X169091597Y-84371376D01*
X169091598Y-84371372D01*
X169097999Y-84311844D01*
X169098000Y-84311827D01*
X169098000Y-84064000D01*
X168398000Y-84064000D01*
X167898000Y-84064000D01*
X166998000Y-84064000D01*
X166498000Y-84064000D01*
X165598000Y-84064000D01*
X165098000Y-84064000D01*
X164398000Y-84064000D01*
X157748500Y-84064000D01*
X157748499Y-83564000D01*
X164398000Y-83564000D01*
X165098000Y-83564000D01*
X165098000Y-82864000D01*
X165598000Y-82864000D01*
X165598000Y-83564000D01*
X166498000Y-83564000D01*
X166498000Y-82864000D01*
X166998000Y-82864000D01*
X166998000Y-83564000D01*
X167898000Y-83564000D01*
X167898000Y-82864000D01*
X168398000Y-82864000D01*
X168398000Y-83564000D01*
X169098000Y-83564000D01*
X169098000Y-83316172D01*
X169097999Y-83316155D01*
X169091598Y-83256627D01*
X169091596Y-83256620D01*
X169041354Y-83121913D01*
X169041350Y-83121906D01*
X168955190Y-83006812D01*
X168955187Y-83006809D01*
X168840093Y-82920649D01*
X168840086Y-82920645D01*
X168705379Y-82870403D01*
X168705372Y-82870401D01*
X168645844Y-82864000D01*
X168398000Y-82864000D01*
X167898000Y-82864000D01*
X167650155Y-82864000D01*
X167590627Y-82870401D01*
X167590616Y-82870403D01*
X167491332Y-82907434D01*
X167421640Y-82912418D01*
X167404668Y-82907434D01*
X167305383Y-82870403D01*
X167305372Y-82870401D01*
X167245844Y-82864000D01*
X166998000Y-82864000D01*
X166498000Y-82864000D01*
X166250155Y-82864000D01*
X166190627Y-82870401D01*
X166190616Y-82870403D01*
X166091332Y-82907434D01*
X166021640Y-82912418D01*
X166004668Y-82907434D01*
X165905383Y-82870403D01*
X165905372Y-82870401D01*
X165845844Y-82864000D01*
X165598000Y-82864000D01*
X165098000Y-82864000D01*
X164850155Y-82864000D01*
X164790627Y-82870401D01*
X164790620Y-82870403D01*
X164655913Y-82920645D01*
X164655906Y-82920649D01*
X164540812Y-83006809D01*
X164540809Y-83006812D01*
X164454649Y-83121906D01*
X164454645Y-83121913D01*
X164404403Y-83256620D01*
X164404401Y-83256627D01*
X164398000Y-83316155D01*
X164398000Y-83564000D01*
X157748499Y-83564000D01*
X157748499Y-83346128D01*
X157742091Y-83286517D01*
X157729340Y-83252332D01*
X157724357Y-83182642D01*
X157729338Y-83165672D01*
X157742091Y-83131483D01*
X157748500Y-83071873D01*
X157748499Y-82076128D01*
X157742091Y-82016517D01*
X157729340Y-81982332D01*
X157724357Y-81912642D01*
X157729340Y-81895669D01*
X157742091Y-81861483D01*
X157748500Y-81801873D01*
X157748499Y-80806128D01*
X157742091Y-80746517D01*
X157729340Y-80712332D01*
X157724357Y-80642642D01*
X157729338Y-80625672D01*
X157742091Y-80591483D01*
X157748500Y-80531873D01*
X157748499Y-79536128D01*
X157742091Y-79476517D01*
X157729340Y-79442332D01*
X157724357Y-79372642D01*
X157729338Y-79355672D01*
X157742091Y-79321483D01*
X157748500Y-79261873D01*
X157748499Y-78266128D01*
X157742091Y-78206517D01*
X157729073Y-78171616D01*
X157724090Y-78101926D01*
X157729075Y-78084949D01*
X157741597Y-78051375D01*
X157741598Y-78051372D01*
X157747999Y-77991844D01*
X157748000Y-77991827D01*
X157748000Y-77744000D01*
X156372000Y-77744000D01*
X156304961Y-77724315D01*
X156259206Y-77671511D01*
X156248000Y-77620000D01*
X156248000Y-76544000D01*
X156748000Y-76544000D01*
X156748000Y-77244000D01*
X157748000Y-77244000D01*
X172748000Y-77244000D01*
X173748000Y-77244000D01*
X173748000Y-76544000D01*
X174248000Y-76544000D01*
X174248000Y-77244000D01*
X175248000Y-77244000D01*
X175248000Y-76996172D01*
X175247999Y-76996155D01*
X175241598Y-76936627D01*
X175241596Y-76936620D01*
X175191354Y-76801913D01*
X175191350Y-76801906D01*
X175105190Y-76686812D01*
X175105187Y-76686809D01*
X174990093Y-76600649D01*
X174990086Y-76600645D01*
X174855379Y-76550403D01*
X174855372Y-76550401D01*
X174795844Y-76544000D01*
X174248000Y-76544000D01*
X173748000Y-76544000D01*
X173200155Y-76544000D01*
X173140627Y-76550401D01*
X173140620Y-76550403D01*
X173005913Y-76600645D01*
X173005906Y-76600649D01*
X172890812Y-76686809D01*
X172890809Y-76686812D01*
X172804649Y-76801906D01*
X172804645Y-76801913D01*
X172754403Y-76936620D01*
X172754401Y-76936627D01*
X172748000Y-76996155D01*
X172748000Y-77244000D01*
X157748000Y-77244000D01*
X157748000Y-76996172D01*
X157747999Y-76996155D01*
X157741598Y-76936627D01*
X157741596Y-76936620D01*
X157691354Y-76801913D01*
X157691350Y-76801906D01*
X157605190Y-76686812D01*
X157605187Y-76686809D01*
X157490093Y-76600649D01*
X157490086Y-76600645D01*
X157355379Y-76550403D01*
X157355372Y-76550401D01*
X157295844Y-76544000D01*
X156748000Y-76544000D01*
X156248000Y-76544000D01*
X155700155Y-76544000D01*
X155640627Y-76550401D01*
X155640620Y-76550403D01*
X155505913Y-76600645D01*
X155505906Y-76600649D01*
X155390812Y-76686809D01*
X155390809Y-76686812D01*
X155304649Y-76801906D01*
X155304646Y-76801911D01*
X155262829Y-76914028D01*
X155220957Y-76969961D01*
X155155493Y-76994378D01*
X155087220Y-76979526D01*
X155058966Y-76958375D01*
X154932803Y-76832212D01*
X154922980Y-76819950D01*
X154922759Y-76820134D01*
X154917786Y-76814123D01*
X154904784Y-76801913D01*
X154867364Y-76766773D01*
X154856919Y-76756328D01*
X154846475Y-76745883D01*
X154840986Y-76741625D01*
X154836561Y-76737847D01*
X154802582Y-76705938D01*
X154802580Y-76705936D01*
X154802577Y-76705935D01*
X154785029Y-76696288D01*
X154768763Y-76685604D01*
X154752933Y-76673325D01*
X154710168Y-76654818D01*
X154704922Y-76652248D01*
X154664093Y-76629803D01*
X154664092Y-76629802D01*
X154644693Y-76624822D01*
X154626281Y-76618518D01*
X154607898Y-76610562D01*
X154607892Y-76610560D01*
X154561874Y-76603272D01*
X154556152Y-76602087D01*
X154511021Y-76590500D01*
X154511019Y-76590500D01*
X154490984Y-76590500D01*
X154471586Y-76588973D01*
X154464162Y-76587797D01*
X154451805Y-76585840D01*
X154451804Y-76585840D01*
X154405416Y-76590225D01*
X154399578Y-76590500D01*
X140046743Y-76590500D01*
X140031122Y-76588775D01*
X140031096Y-76589061D01*
X140023334Y-76588327D01*
X140023333Y-76588327D01*
X139954186Y-76590500D01*
X139924649Y-76590500D01*
X139917766Y-76591369D01*
X139911949Y-76591826D01*
X139865373Y-76593290D01*
X139846129Y-76598881D01*
X139827079Y-76602825D01*
X139807211Y-76605334D01*
X139763884Y-76622488D01*
X139758358Y-76624379D01*
X139713614Y-76637379D01*
X139713610Y-76637381D01*
X139696366Y-76647579D01*
X139678905Y-76656133D01*
X139660274Y-76663510D01*
X139660262Y-76663517D01*
X139622570Y-76690902D01*
X139617687Y-76694109D01*
X139577580Y-76717829D01*
X139563414Y-76731995D01*
X139548624Y-76744627D01*
X139532414Y-76756404D01*
X139532411Y-76756407D01*
X139502710Y-76792309D01*
X139498777Y-76796631D01*
X138387646Y-77907762D01*
X138326323Y-77941247D01*
X138267872Y-77939856D01*
X138167413Y-77912938D01*
X138167403Y-77912936D01*
X137932001Y-77892341D01*
X137931999Y-77892341D01*
X137696596Y-77912936D01*
X137696586Y-77912938D01*
X137468344Y-77974094D01*
X137468335Y-77974098D01*
X137254171Y-78073964D01*
X137254169Y-78073965D01*
X137060597Y-78209505D01*
X136893505Y-78376597D01*
X136763575Y-78562158D01*
X136708998Y-78605783D01*
X136639500Y-78612977D01*
X136577145Y-78581454D01*
X136560425Y-78562158D01*
X136430494Y-78376597D01*
X136263402Y-78209506D01*
X136263395Y-78209501D01*
X136260944Y-78207785D01*
X136200848Y-78165705D01*
X136069834Y-78073967D01*
X136069830Y-78073965D01*
X136055132Y-78067111D01*
X135855663Y-77974097D01*
X135855659Y-77974096D01*
X135855655Y-77974094D01*
X135627413Y-77912938D01*
X135627403Y-77912936D01*
X135392001Y-77892341D01*
X135391999Y-77892341D01*
X135156596Y-77912936D01*
X135156586Y-77912938D01*
X134928344Y-77974094D01*
X134928335Y-77974098D01*
X134714171Y-78073964D01*
X134714169Y-78073965D01*
X134520600Y-78209503D01*
X134398673Y-78331430D01*
X134337350Y-78364914D01*
X134267658Y-78359930D01*
X134211725Y-78318058D01*
X134194810Y-78287081D01*
X134145797Y-78155671D01*
X134145793Y-78155664D01*
X134059547Y-78040455D01*
X134059544Y-78040452D01*
X133944335Y-77954206D01*
X133944328Y-77954202D01*
X133809482Y-77903908D01*
X133809483Y-77903908D01*
X133749883Y-77897501D01*
X133749881Y-77897500D01*
X133749873Y-77897500D01*
X133749864Y-77897500D01*
X131954129Y-77897500D01*
X131954123Y-77897501D01*
X131894516Y-77903908D01*
X131759671Y-77954202D01*
X131759664Y-77954206D01*
X131644455Y-78040452D01*
X131644452Y-78040455D01*
X131558206Y-78155664D01*
X131558202Y-78155671D01*
X131507908Y-78290517D01*
X131501501Y-78350116D01*
X131501500Y-78350135D01*
X131501500Y-80145870D01*
X131501501Y-80145876D01*
X131507908Y-80205483D01*
X131558202Y-80340328D01*
X131558206Y-80340335D01*
X131644452Y-80455544D01*
X131644455Y-80455547D01*
X131759664Y-80541793D01*
X131759671Y-80541797D01*
X131894517Y-80592091D01*
X131894516Y-80592091D01*
X131901444Y-80592835D01*
X131954127Y-80598500D01*
X133749872Y-80598499D01*
X133809483Y-80592091D01*
X133944331Y-80541796D01*
X134059546Y-80455546D01*
X134145796Y-80340331D01*
X134194810Y-80208916D01*
X134236681Y-80152984D01*
X134302145Y-80128566D01*
X134370418Y-80143417D01*
X134398673Y-80164569D01*
X134520599Y-80286495D01*
X134613491Y-80351539D01*
X134714165Y-80422032D01*
X134714167Y-80422033D01*
X134714170Y-80422035D01*
X134928337Y-80521903D01*
X134928343Y-80521904D01*
X134928344Y-80521905D01*
X134965512Y-80531864D01*
X135156592Y-80583063D01*
X135333034Y-80598500D01*
X135391999Y-80603659D01*
X135392000Y-80603659D01*
X135392001Y-80603659D01*
X135450966Y-80598500D01*
X135627408Y-80583063D01*
X135727875Y-80556143D01*
X135797721Y-80557806D01*
X135847646Y-80588237D01*
X136066197Y-80806788D01*
X136076022Y-80819051D01*
X136076243Y-80818869D01*
X136081214Y-80824878D01*
X136102043Y-80844437D01*
X136131635Y-80872226D01*
X136152529Y-80893120D01*
X136158011Y-80897373D01*
X136162443Y-80901157D01*
X136196418Y-80933062D01*
X136213976Y-80942714D01*
X136230233Y-80953393D01*
X136246064Y-80965673D01*
X136265737Y-80974186D01*
X136288833Y-80984182D01*
X136294077Y-80986750D01*
X136334908Y-81009197D01*
X136347523Y-81012435D01*
X136354305Y-81014177D01*
X136372719Y-81020481D01*
X136391104Y-81028438D01*
X136437157Y-81035732D01*
X136442826Y-81036906D01*
X136487981Y-81048500D01*
X136508016Y-81048500D01*
X136527413Y-81050026D01*
X136547196Y-81053160D01*
X136593584Y-81048775D01*
X136599422Y-81048500D01*
X141744257Y-81048500D01*
X141759877Y-81050224D01*
X141759904Y-81049939D01*
X141767660Y-81050671D01*
X141767667Y-81050673D01*
X141836814Y-81048500D01*
X141866350Y-81048500D01*
X141873228Y-81047630D01*
X141879041Y-81047172D01*
X141925627Y-81045709D01*
X141944869Y-81040117D01*
X141963912Y-81036174D01*
X141983792Y-81033664D01*
X142027122Y-81016507D01*
X142032646Y-81014617D01*
X142036396Y-81013527D01*
X142077390Y-81001618D01*
X142094629Y-80991422D01*
X142112103Y-80982862D01*
X142130727Y-80975488D01*
X142130727Y-80975487D01*
X142130732Y-80975486D01*
X142168449Y-80948082D01*
X142173305Y-80944892D01*
X142213420Y-80921170D01*
X142227589Y-80906999D01*
X142242379Y-80894368D01*
X142258587Y-80882594D01*
X142288299Y-80846676D01*
X142292212Y-80842376D01*
X142877787Y-80256802D01*
X142890042Y-80246986D01*
X142889859Y-80246764D01*
X142895866Y-80241792D01*
X142895877Y-80241786D01*
X142927226Y-80208402D01*
X142943227Y-80191364D01*
X142953671Y-80180918D01*
X142964120Y-80170471D01*
X142968379Y-80164978D01*
X142972152Y-80160561D01*
X143004062Y-80126582D01*
X143013713Y-80109024D01*
X143024396Y-80092761D01*
X143036673Y-80076936D01*
X143055185Y-80034153D01*
X143057738Y-80028941D01*
X143080197Y-79988092D01*
X143085180Y-79968680D01*
X143091481Y-79950280D01*
X143099437Y-79931896D01*
X143106729Y-79885852D01*
X143107906Y-79880171D01*
X143119500Y-79835019D01*
X143119500Y-79814983D01*
X143121027Y-79795582D01*
X143124160Y-79775804D01*
X143119775Y-79729415D01*
X143119500Y-79723577D01*
X143119500Y-78796452D01*
X143139185Y-78729413D01*
X143155819Y-78708771D01*
X143312850Y-78551740D01*
X143471821Y-78392768D01*
X143533142Y-78359285D01*
X143602833Y-78364269D01*
X143658767Y-78406140D01*
X143683184Y-78471605D01*
X143683500Y-78480451D01*
X143683500Y-80145870D01*
X143683501Y-80145876D01*
X143689908Y-80205483D01*
X143740202Y-80340328D01*
X143740206Y-80340335D01*
X143826452Y-80455544D01*
X143826455Y-80455547D01*
X143941664Y-80541793D01*
X143941671Y-80541797D01*
X144076517Y-80592091D01*
X144076516Y-80592091D01*
X144083444Y-80592835D01*
X144136127Y-80598500D01*
X145931872Y-80598499D01*
X145991483Y-80592091D01*
X146126331Y-80541796D01*
X146241546Y-80455546D01*
X146327796Y-80340331D01*
X146377002Y-80208401D01*
X146418872Y-80152468D01*
X146484337Y-80128050D01*
X146552610Y-80142901D01*
X146580865Y-80164053D01*
X146702917Y-80286105D01*
X146896421Y-80421600D01*
X147110507Y-80521429D01*
X147110516Y-80521433D01*
X147324000Y-80578634D01*
X147324000Y-79683501D01*
X147431685Y-79732680D01*
X147538237Y-79748000D01*
X147609763Y-79748000D01*
X147716315Y-79732680D01*
X147824000Y-79683501D01*
X147824000Y-80578633D01*
X148037483Y-80521433D01*
X148037492Y-80521429D01*
X148251578Y-80421600D01*
X148445082Y-80286105D01*
X148612105Y-80119082D01*
X148742119Y-79933405D01*
X148796696Y-79889781D01*
X148866195Y-79882588D01*
X148928549Y-79914110D01*
X148945269Y-79933405D01*
X149075505Y-80119401D01*
X149242599Y-80286495D01*
X149435624Y-80421653D01*
X149479248Y-80476228D01*
X149488500Y-80523226D01*
X149488500Y-82080441D01*
X149468815Y-82147480D01*
X149416906Y-82192823D01*
X149351266Y-82223431D01*
X149164858Y-82353954D01*
X149003954Y-82514858D01*
X148873433Y-82701264D01*
X148873432Y-82701266D01*
X148873315Y-82701518D01*
X148846106Y-82759867D01*
X148799933Y-82812306D01*
X148732739Y-82831457D01*
X148665858Y-82811241D01*
X148621342Y-82759865D01*
X148594135Y-82701520D01*
X148594134Y-82701518D01*
X148463657Y-82515179D01*
X148302820Y-82354342D01*
X148116482Y-82223865D01*
X147910328Y-82127734D01*
X147714000Y-82075127D01*
X147714000Y-83118498D01*
X147606315Y-83069320D01*
X147499763Y-83054000D01*
X147428237Y-83054000D01*
X147321685Y-83069320D01*
X147214000Y-83118498D01*
X147214000Y-82075127D01*
X147017671Y-82127734D01*
X146811517Y-82223865D01*
X146625179Y-82354342D01*
X146464342Y-82515179D01*
X146333867Y-82701515D01*
X146306657Y-82759867D01*
X146260484Y-82812306D01*
X146193290Y-82831457D01*
X146126409Y-82811241D01*
X146081893Y-82759865D01*
X146054685Y-82701518D01*
X146054568Y-82701266D01*
X145924047Y-82514861D01*
X145924045Y-82514858D01*
X145763141Y-82353954D01*
X145576734Y-82223432D01*
X145576732Y-82223431D01*
X145370497Y-82127261D01*
X145370488Y-82127258D01*
X145150697Y-82068366D01*
X145150693Y-82068365D01*
X145150692Y-82068365D01*
X145150691Y-82068364D01*
X145150686Y-82068364D01*
X144924002Y-82048532D01*
X144923998Y-82048532D01*
X144697313Y-82068364D01*
X144697302Y-82068366D01*
X144477511Y-82127258D01*
X144477502Y-82127261D01*
X144271267Y-82223431D01*
X144271265Y-82223432D01*
X144084858Y-82353954D01*
X143923954Y-82514858D01*
X143793432Y-82701265D01*
X143793431Y-82701267D01*
X143697261Y-82907502D01*
X143697258Y-82907511D01*
X143638366Y-83127302D01*
X143638364Y-83127312D01*
X143623500Y-83297216D01*
X143623500Y-83741769D01*
X143603815Y-83808808D01*
X143587181Y-83829450D01*
X142770358Y-84646272D01*
X142756729Y-84658051D01*
X142737468Y-84672390D01*
X142703898Y-84712397D01*
X142700253Y-84716376D01*
X142694409Y-84722222D01*
X142674059Y-84747959D01*
X142624695Y-84806789D01*
X142620729Y-84812819D01*
X142620682Y-84812788D01*
X142616630Y-84819147D01*
X142616679Y-84819177D01*
X142612889Y-84825321D01*
X142580424Y-84894941D01*
X142545960Y-84963566D01*
X142543488Y-84970357D01*
X142543432Y-84970336D01*
X142540960Y-84977450D01*
X142541015Y-84977469D01*
X142538742Y-84984327D01*
X142532405Y-85015020D01*
X142523207Y-85059565D01*
X142516552Y-85087646D01*
X142505498Y-85134286D01*
X142504661Y-85141454D01*
X142504601Y-85141447D01*
X142503835Y-85148945D01*
X142503895Y-85148951D01*
X142503265Y-85156140D01*
X142505500Y-85232916D01*
X142505500Y-91495743D01*
X142485815Y-91562782D01*
X142433011Y-91608537D01*
X142363853Y-91618481D01*
X142300297Y-91589456D01*
X142275961Y-91560840D01*
X142212315Y-91457654D01*
X142088345Y-91333684D01*
X141939124Y-91241643D01*
X141939119Y-91241641D01*
X141772697Y-91186494D01*
X141772690Y-91186493D01*
X141669986Y-91176000D01*
X141220000Y-91176000D01*
X141220000Y-93325999D01*
X141669972Y-93325999D01*
X141669986Y-93325998D01*
X141772697Y-93315505D01*
X141939119Y-93260358D01*
X141939124Y-93260356D01*
X142088345Y-93168315D01*
X142212317Y-93044343D01*
X142275961Y-92941160D01*
X142327909Y-92894435D01*
X142396871Y-92883212D01*
X142460954Y-92911056D01*
X142499810Y-92969124D01*
X142505500Y-93006256D01*
X142505500Y-93736999D01*
X142505144Y-93743631D01*
X142499501Y-93796116D01*
X142499500Y-93796135D01*
X142499500Y-93969500D01*
X142479815Y-94036539D01*
X142427011Y-94082294D01*
X142375500Y-94093500D01*
X141390705Y-94093500D01*
X141372735Y-94092191D01*
X141348972Y-94088710D01*
X141303890Y-94092655D01*
X141296933Y-94093264D01*
X141291532Y-94093500D01*
X141283287Y-94093500D01*
X141257222Y-94096546D01*
X141250705Y-94097308D01*
X141245403Y-94097771D01*
X141174201Y-94104001D01*
X141167134Y-94105461D01*
X141167122Y-94105404D01*
X141159753Y-94107038D01*
X141159767Y-94107095D01*
X141152740Y-94108760D01*
X141127289Y-94118023D01*
X141084882Y-94125500D01*
X140269998Y-94125500D01*
X140269980Y-94125501D01*
X140167203Y-94136000D01*
X140167200Y-94136001D01*
X140000668Y-94191185D01*
X140000663Y-94191187D01*
X139851342Y-94283289D01*
X139727287Y-94407344D01*
X139685807Y-94474596D01*
X139633859Y-94521321D01*
X139580268Y-94533500D01*
X138565492Y-94533500D01*
X138530901Y-94528577D01*
X138385156Y-94486235D01*
X138385153Y-94486234D01*
X138385151Y-94486234D01*
X138350407Y-94483500D01*
X138350405Y-94483500D01*
X138117865Y-94483500D01*
X138001595Y-94483501D01*
X137966847Y-94486234D01*
X137966844Y-94486235D01*
X137818113Y-94529445D01*
X137818111Y-94529445D01*
X137818111Y-94529446D01*
X137684805Y-94608282D01*
X137684796Y-94608289D01*
X137575289Y-94717796D01*
X137575282Y-94717805D01*
X137503904Y-94838500D01*
X137496445Y-94851113D01*
X137482882Y-94897797D01*
X137453234Y-94999847D01*
X137453234Y-94999849D01*
X137450500Y-95034593D01*
X137450500Y-95063209D01*
X137430815Y-95130248D01*
X137378011Y-95176003D01*
X137308853Y-95185947D01*
X137245297Y-95156922D01*
X137219113Y-95125209D01*
X137166797Y-95034595D01*
X137130533Y-94971784D01*
X137003871Y-94831112D01*
X137003870Y-94831111D01*
X136850734Y-94719851D01*
X136850729Y-94719848D01*
X136677807Y-94642857D01*
X136677802Y-94642855D01*
X136532001Y-94611865D01*
X136492646Y-94603500D01*
X136303354Y-94603500D01*
X136270897Y-94610398D01*
X136118197Y-94642855D01*
X136118192Y-94642857D01*
X135998560Y-94696122D01*
X135929310Y-94705407D01*
X135866033Y-94675779D01*
X135830418Y-94621846D01*
X135825924Y-94608285D01*
X135809814Y-94559666D01*
X135717712Y-94410344D01*
X135629049Y-94321681D01*
X135595564Y-94260358D01*
X135600548Y-94190666D01*
X135629049Y-94146319D01*
X135671367Y-94104001D01*
X135717712Y-94057656D01*
X135809814Y-93908334D01*
X135830418Y-93846152D01*
X135870190Y-93788708D01*
X135934706Y-93761885D01*
X135998560Y-93771878D01*
X136118192Y-93825142D01*
X136118197Y-93825144D01*
X136303354Y-93864500D01*
X136303355Y-93864500D01*
X136492644Y-93864500D01*
X136492646Y-93864500D01*
X136677803Y-93825144D01*
X136850730Y-93748151D01*
X137003871Y-93636888D01*
X137130533Y-93496216D01*
X137218647Y-93343596D01*
X137269211Y-93295384D01*
X137337818Y-93282160D01*
X137402683Y-93308128D01*
X137442545Y-93363165D01*
X137443013Y-93364450D01*
X137450500Y-93406880D01*
X137450501Y-93433404D01*
X137453234Y-93468152D01*
X137453234Y-93468155D01*
X137453235Y-93468156D01*
X137496445Y-93616887D01*
X137509528Y-93639009D01*
X137575282Y-93750194D01*
X137575289Y-93750203D01*
X137684796Y-93859710D01*
X137684800Y-93859713D01*
X137684802Y-93859715D01*
X137818113Y-93938555D01*
X137966844Y-93981765D01*
X137990011Y-93983588D01*
X138001593Y-93984500D01*
X138001594Y-93984499D01*
X138001595Y-93984500D01*
X138234134Y-93984499D01*
X138350405Y-93984499D01*
X138357354Y-93983952D01*
X138385156Y-93981765D01*
X138533887Y-93938555D01*
X138667198Y-93859715D01*
X138776715Y-93750198D01*
X138855555Y-93616887D01*
X138898765Y-93468156D01*
X138901500Y-93433405D01*
X138901499Y-93391695D01*
X138904842Y-93363097D01*
X138907852Y-93350401D01*
X138926500Y-93271721D01*
X138926500Y-92736321D01*
X138943113Y-92674321D01*
X138953217Y-92656820D01*
X139003179Y-92570284D01*
X139025691Y-92501000D01*
X139570001Y-92501000D01*
X139570001Y-92625986D01*
X139580494Y-92728697D01*
X139635641Y-92895119D01*
X139635643Y-92895124D01*
X139727684Y-93044345D01*
X139851654Y-93168315D01*
X140000875Y-93260356D01*
X140000880Y-93260358D01*
X140167302Y-93315505D01*
X140167309Y-93315506D01*
X140270019Y-93325999D01*
X140719999Y-93325999D01*
X140720000Y-93325998D01*
X140720000Y-92501000D01*
X139570001Y-92501000D01*
X139025691Y-92501000D01*
X139061674Y-92390256D01*
X139081460Y-92202000D01*
X139061674Y-92013744D01*
X139057533Y-92001000D01*
X139570000Y-92001000D01*
X140720000Y-92001000D01*
X140720000Y-91176000D01*
X140270028Y-91176000D01*
X140270012Y-91176001D01*
X140167302Y-91186494D01*
X140000880Y-91241641D01*
X140000875Y-91241643D01*
X139851654Y-91333684D01*
X139727684Y-91457654D01*
X139635643Y-91606875D01*
X139635641Y-91606880D01*
X139580494Y-91773302D01*
X139580493Y-91773309D01*
X139570001Y-91876011D01*
X139570000Y-91876026D01*
X139570000Y-92001000D01*
X139057533Y-92001000D01*
X139003179Y-91833716D01*
X138908533Y-91669784D01*
X138781871Y-91529112D01*
X138767558Y-91518713D01*
X138628734Y-91417851D01*
X138628729Y-91417848D01*
X138455807Y-91340857D01*
X138455802Y-91340855D01*
X138310001Y-91309865D01*
X138270646Y-91301500D01*
X138081354Y-91301500D01*
X138048897Y-91308398D01*
X137896197Y-91340855D01*
X137896192Y-91340857D01*
X137723270Y-91417848D01*
X137723265Y-91417851D01*
X137570129Y-91529111D01*
X137443466Y-91669785D01*
X137348821Y-91833715D01*
X137348818Y-91833722D01*
X137290327Y-92013740D01*
X137290326Y-92013744D01*
X137273218Y-92176517D01*
X137270540Y-92202000D01*
X137276494Y-92258654D01*
X137263924Y-92327384D01*
X137216191Y-92378407D01*
X137148451Y-92395524D01*
X137082210Y-92373301D01*
X137061023Y-92354586D01*
X137049440Y-92341722D01*
X137003871Y-92291112D01*
X137003870Y-92291111D01*
X136850734Y-92179851D01*
X136850729Y-92179848D01*
X136677807Y-92102857D01*
X136677802Y-92102855D01*
X136532001Y-92071865D01*
X136492646Y-92063500D01*
X136303354Y-92063500D01*
X136270897Y-92070398D01*
X136118197Y-92102855D01*
X136118192Y-92102857D01*
X135998560Y-92156122D01*
X135929310Y-92165407D01*
X135866033Y-92135779D01*
X135830418Y-92081846D01*
X135827368Y-92072642D01*
X135809814Y-92019666D01*
X135717712Y-91870344D01*
X135628695Y-91781327D01*
X135595210Y-91720004D01*
X135600194Y-91650312D01*
X135628695Y-91605964D01*
X135717317Y-91517342D01*
X135809356Y-91368124D01*
X135809358Y-91368119D01*
X135864505Y-91201697D01*
X135864506Y-91201690D01*
X135874999Y-91098986D01*
X135875000Y-91098973D01*
X135875000Y-90674000D01*
X133750001Y-90674000D01*
X133750001Y-91098986D01*
X133760494Y-91201697D01*
X133815641Y-91368119D01*
X133815643Y-91368124D01*
X133907684Y-91517345D01*
X133996304Y-91605965D01*
X134029789Y-91667288D01*
X134024805Y-91736980D01*
X133996305Y-91781327D01*
X133907287Y-91870345D01*
X133815187Y-92019663D01*
X133815185Y-92019668D01*
X133791326Y-92091671D01*
X133760001Y-92186203D01*
X133760001Y-92186204D01*
X133760000Y-92186204D01*
X133749500Y-92288983D01*
X133749500Y-93639001D01*
X133749501Y-93639018D01*
X133760000Y-93741796D01*
X133760001Y-93741799D01*
X133815185Y-93908331D01*
X133815187Y-93908336D01*
X133820611Y-93917129D01*
X133907287Y-94057655D01*
X133907289Y-94057657D01*
X133995951Y-94146319D01*
X134029436Y-94207642D01*
X134024452Y-94277334D01*
X133995951Y-94321681D01*
X133907289Y-94410342D01*
X133815187Y-94559663D01*
X133815185Y-94559668D01*
X133790720Y-94633500D01*
X133760001Y-94726203D01*
X133760001Y-94726204D01*
X133760000Y-94726204D01*
X133749500Y-94828983D01*
X133749500Y-96179001D01*
X133749501Y-96179018D01*
X133760000Y-96281796D01*
X133760001Y-96281799D01*
X133815185Y-96448331D01*
X133815187Y-96448336D01*
X133828043Y-96469179D01*
X133899938Y-96585740D01*
X133907289Y-96597657D01*
X133996304Y-96686672D01*
X134029789Y-96747995D01*
X134024805Y-96817687D01*
X133996305Y-96862034D01*
X133907682Y-96950657D01*
X133815643Y-97099875D01*
X133815641Y-97099880D01*
X133760494Y-97266302D01*
X133760493Y-97266309D01*
X133750000Y-97369013D01*
X133750000Y-97794000D01*
X135874999Y-97794000D01*
X135874999Y-97369028D01*
X135874998Y-97369013D01*
X135864505Y-97266302D01*
X135809358Y-97099880D01*
X135809356Y-97099875D01*
X135717315Y-96950654D01*
X135628695Y-96862034D01*
X135595210Y-96800711D01*
X135600194Y-96731019D01*
X135628691Y-96686676D01*
X135717712Y-96597656D01*
X135809814Y-96448334D01*
X135830418Y-96386152D01*
X135870190Y-96328708D01*
X135934706Y-96301885D01*
X135998560Y-96311878D01*
X136118192Y-96365142D01*
X136118197Y-96365144D01*
X136303354Y-96404500D01*
X136303355Y-96404500D01*
X136492644Y-96404500D01*
X136492646Y-96404500D01*
X136677803Y-96365144D01*
X136850730Y-96288151D01*
X137003871Y-96176888D01*
X137130533Y-96036216D01*
X137194114Y-95926089D01*
X137244679Y-95877876D01*
X137313286Y-95864652D01*
X137378151Y-95890620D01*
X137418680Y-95947534D01*
X137425500Y-95988091D01*
X137425500Y-97726294D01*
X137424191Y-97744263D01*
X137420710Y-97768025D01*
X137424132Y-97807131D01*
X137425114Y-97818356D01*
X137425264Y-97820064D01*
X137425500Y-97825470D01*
X137425500Y-97833709D01*
X137429135Y-97864816D01*
X137429306Y-97866274D01*
X137436000Y-97942791D01*
X137437461Y-97949867D01*
X137437403Y-97949878D01*
X137439034Y-97957237D01*
X137439092Y-97957224D01*
X137440757Y-97964250D01*
X137467025Y-98036424D01*
X137491185Y-98109331D01*
X137494236Y-98115874D01*
X137494182Y-98115898D01*
X137497470Y-98122688D01*
X137497521Y-98122663D01*
X137500761Y-98129113D01*
X137500762Y-98129114D01*
X137500763Y-98129117D01*
X137529261Y-98172447D01*
X137542965Y-98193283D01*
X137583287Y-98258655D01*
X137587766Y-98264319D01*
X137587719Y-98264356D01*
X137592482Y-98270202D01*
X137592528Y-98270164D01*
X137597173Y-98275700D01*
X137640363Y-98316447D01*
X137653017Y-98328385D01*
X137800182Y-98475550D01*
X137833666Y-98536871D01*
X137836500Y-98563230D01*
X137836500Y-99957870D01*
X137836501Y-99957876D01*
X137842908Y-100017483D01*
X137893202Y-100152328D01*
X137893206Y-100152335D01*
X137979452Y-100267544D01*
X137979455Y-100267547D01*
X138094664Y-100353793D01*
X138094671Y-100353797D01*
X138229517Y-100404091D01*
X138229516Y-100404091D01*
X138236444Y-100404835D01*
X138289127Y-100410500D01*
X140084872Y-100410499D01*
X140144483Y-100404091D01*
X140279331Y-100353796D01*
X140394546Y-100267546D01*
X140480796Y-100152331D01*
X140530002Y-100020401D01*
X140571872Y-99964468D01*
X140637337Y-99940050D01*
X140705610Y-99954901D01*
X140733865Y-99976053D01*
X140855917Y-100098105D01*
X141049421Y-100233600D01*
X141263507Y-100333429D01*
X141263516Y-100333433D01*
X141477000Y-100390634D01*
X141477000Y-99495501D01*
X141584685Y-99544680D01*
X141691237Y-99560000D01*
X141762763Y-99560000D01*
X141869315Y-99544680D01*
X141977000Y-99495501D01*
X141977000Y-100390633D01*
X142091425Y-100359975D01*
X142161275Y-100361638D01*
X142219137Y-100400801D01*
X142246641Y-100465029D01*
X142235054Y-100533932D01*
X142211199Y-100567431D01*
X141069577Y-101709053D01*
X141008254Y-101742538D01*
X140938562Y-101737554D01*
X140882629Y-101695682D01*
X140858212Y-101630218D01*
X140858575Y-101608412D01*
X140859460Y-101600000D01*
X140839674Y-101411744D01*
X140781179Y-101231716D01*
X140686533Y-101067784D01*
X140559871Y-100927112D01*
X140559870Y-100927111D01*
X140406734Y-100815851D01*
X140406729Y-100815848D01*
X140233807Y-100738857D01*
X140233802Y-100738855D01*
X140082181Y-100706628D01*
X140048646Y-100699500D01*
X139859354Y-100699500D01*
X139826897Y-100706398D01*
X139674197Y-100738855D01*
X139674192Y-100738857D01*
X139501270Y-100815848D01*
X139501265Y-100815851D01*
X139348129Y-100927111D01*
X139221466Y-101067785D01*
X139126821Y-101231715D01*
X139126818Y-101231722D01*
X139068327Y-101411740D01*
X139068326Y-101411744D01*
X139062543Y-101466767D01*
X139060723Y-101484088D01*
X139034138Y-101548702D01*
X138976841Y-101588687D01*
X138924800Y-101594484D01*
X138876011Y-101589500D01*
X137475998Y-101589500D01*
X137475981Y-101589501D01*
X137373203Y-101600000D01*
X137373200Y-101600001D01*
X137206668Y-101655185D01*
X137206663Y-101655187D01*
X137057342Y-101747289D01*
X136933288Y-101871343D01*
X136933285Y-101871347D01*
X136864327Y-101983145D01*
X136812379Y-102029870D01*
X136743416Y-102041091D01*
X136679334Y-102013248D01*
X136653250Y-101983144D01*
X136652810Y-101982431D01*
X136599712Y-101896344D01*
X136475656Y-101772288D01*
X136351457Y-101695682D01*
X136326336Y-101680187D01*
X136326331Y-101680185D01*
X136310883Y-101675066D01*
X136159797Y-101625001D01*
X136159795Y-101625000D01*
X136057010Y-101614500D01*
X134706998Y-101614500D01*
X134706981Y-101614501D01*
X134604203Y-101625000D01*
X134604200Y-101625001D01*
X134437668Y-101680185D01*
X134437663Y-101680187D01*
X134288342Y-101772289D01*
X134164289Y-101896342D01*
X134072187Y-102045663D01*
X134072185Y-102045668D01*
X134034464Y-102159504D01*
X133994691Y-102216949D01*
X133930175Y-102243772D01*
X133916758Y-102244500D01*
X133544499Y-102244500D01*
X133477460Y-102224815D01*
X133431705Y-102172011D01*
X133420499Y-102120500D01*
X133420499Y-101564129D01*
X133420498Y-101564123D01*
X133420497Y-101564116D01*
X133414091Y-101504517D01*
X133413336Y-101502494D01*
X133363797Y-101369671D01*
X133363793Y-101369664D01*
X133277547Y-101254455D01*
X133277544Y-101254452D01*
X133162335Y-101168206D01*
X133162328Y-101168202D01*
X133027482Y-101117908D01*
X133027483Y-101117908D01*
X132967883Y-101111501D01*
X132967881Y-101111500D01*
X132967873Y-101111500D01*
X132967864Y-101111500D01*
X131372129Y-101111500D01*
X131372123Y-101111501D01*
X131312516Y-101117908D01*
X131177671Y-101168202D01*
X131177664Y-101168206D01*
X131062455Y-101254452D01*
X131062452Y-101254455D01*
X130976206Y-101369664D01*
X130976202Y-101369671D01*
X130925908Y-101504517D01*
X130920246Y-101557185D01*
X130919501Y-101564123D01*
X130919500Y-101564135D01*
X130919500Y-103159870D01*
X125619996Y-103159870D01*
X125619999Y-103159844D01*
X125620000Y-103159827D01*
X125620000Y-102612000D01*
X124620000Y-102612000D01*
X124120000Y-102612000D01*
X124120000Y-101112000D01*
X124620000Y-101112000D01*
X124620000Y-102112000D01*
X125620000Y-102112000D01*
X125620000Y-101564172D01*
X125619999Y-101564155D01*
X125613598Y-101504627D01*
X125613596Y-101504620D01*
X125563354Y-101369913D01*
X125563350Y-101369906D01*
X125477190Y-101254812D01*
X125477187Y-101254809D01*
X125362093Y-101168649D01*
X125362086Y-101168645D01*
X125227379Y-101118403D01*
X125227372Y-101118401D01*
X125167844Y-101112000D01*
X124620000Y-101112000D01*
X124120000Y-101112000D01*
X123572155Y-101112000D01*
X123512627Y-101118401D01*
X123512620Y-101118403D01*
X123377913Y-101168645D01*
X123377906Y-101168649D01*
X123262812Y-101254809D01*
X123262810Y-101254811D01*
X123247265Y-101275577D01*
X123191331Y-101317447D01*
X123121639Y-101322430D01*
X123060317Y-101288943D01*
X123026833Y-101227619D01*
X123024000Y-101201264D01*
X123024000Y-99300868D01*
X123043685Y-99233829D01*
X123096489Y-99188074D01*
X123165647Y-99178130D01*
X123229203Y-99207155D01*
X123253428Y-99235592D01*
X123262348Y-99250000D01*
X123405928Y-99407499D01*
X123576010Y-99535940D01*
X123766783Y-99630933D01*
X123766803Y-99630941D01*
X123971780Y-99689261D01*
X123971783Y-99689262D01*
X124130833Y-99704000D01*
X124584000Y-99704000D01*
X124584000Y-98854000D01*
X125084000Y-98854000D01*
X125084000Y-99704000D01*
X125537167Y-99704000D01*
X125696216Y-99689262D01*
X125696219Y-99689261D01*
X125901196Y-99630941D01*
X125901216Y-99630933D01*
X126091989Y-99535940D01*
X126262071Y-99407499D01*
X126405651Y-99249999D01*
X126405653Y-99249997D01*
X126517846Y-99068798D01*
X126517850Y-99068789D01*
X126594836Y-98870063D01*
X126594837Y-98870058D01*
X126607187Y-98804000D01*
X125650111Y-98804000D01*
X125689610Y-98779543D01*
X125757201Y-98690038D01*
X125787895Y-98582160D01*
X125777546Y-98470479D01*
X125727552Y-98370078D01*
X125655069Y-98304000D01*
X126607187Y-98304000D01*
X126594837Y-98237941D01*
X126594836Y-98237936D01*
X126517850Y-98039210D01*
X126517846Y-98039201D01*
X126405653Y-97858002D01*
X126405651Y-97858000D01*
X126262071Y-97700500D01*
X126091989Y-97572059D01*
X125901216Y-97477066D01*
X125901196Y-97477058D01*
X125696219Y-97418738D01*
X125696216Y-97418737D01*
X125537167Y-97404000D01*
X125084000Y-97404000D01*
X125084000Y-98254000D01*
X124584000Y-98254000D01*
X124584000Y-97404000D01*
X124130833Y-97404000D01*
X123971783Y-97418737D01*
X123971780Y-97418738D01*
X123766803Y-97477058D01*
X123766783Y-97477066D01*
X123576010Y-97572059D01*
X123405928Y-97700500D01*
X123262349Y-97857999D01*
X123253427Y-97872409D01*
X123201399Y-97919044D01*
X123132417Y-97930148D01*
X123068383Y-97902195D01*
X123029626Y-97844059D01*
X123024000Y-97807131D01*
X123024000Y-96181870D01*
X123333500Y-96181870D01*
X123333501Y-96181876D01*
X123339908Y-96241483D01*
X123390202Y-96376328D01*
X123390206Y-96376335D01*
X123476452Y-96491544D01*
X123476455Y-96491547D01*
X123591664Y-96577793D01*
X123591671Y-96577797D01*
X123726517Y-96628091D01*
X123726516Y-96628091D01*
X123733444Y-96628835D01*
X123786127Y-96634500D01*
X125881872Y-96634499D01*
X125941483Y-96628091D01*
X126076331Y-96577796D01*
X126191546Y-96491546D01*
X126277796Y-96376331D01*
X126328091Y-96241483D01*
X126334500Y-96181873D01*
X126334499Y-95086128D01*
X126328091Y-95026517D01*
X126318144Y-94999849D01*
X126277797Y-94891671D01*
X126277793Y-94891664D01*
X126191547Y-94776455D01*
X126191544Y-94776452D01*
X126076335Y-94690206D01*
X126076328Y-94690202D01*
X125941482Y-94639908D01*
X125941483Y-94639908D01*
X125881883Y-94633501D01*
X125881881Y-94633500D01*
X125881873Y-94633500D01*
X125881864Y-94633500D01*
X123786129Y-94633500D01*
X123786123Y-94633501D01*
X123726516Y-94639908D01*
X123591671Y-94690202D01*
X123591664Y-94690206D01*
X123476455Y-94776452D01*
X123476452Y-94776455D01*
X123390206Y-94891664D01*
X123390202Y-94891671D01*
X123339908Y-95026517D01*
X123335964Y-95063209D01*
X123333501Y-95086123D01*
X123333500Y-95086135D01*
X123333500Y-96181870D01*
X123024000Y-96181870D01*
X123024000Y-93381870D01*
X123333500Y-93381870D01*
X123333501Y-93381876D01*
X123339908Y-93441483D01*
X123390202Y-93576328D01*
X123390206Y-93576335D01*
X123476452Y-93691544D01*
X123476455Y-93691547D01*
X123591664Y-93777793D01*
X123591671Y-93777797D01*
X123726517Y-93828091D01*
X123726516Y-93828091D01*
X123733444Y-93828835D01*
X123786127Y-93834500D01*
X125881872Y-93834499D01*
X125941483Y-93828091D01*
X126076331Y-93777796D01*
X126191546Y-93691546D01*
X126277796Y-93576331D01*
X126328091Y-93441483D01*
X126334500Y-93381873D01*
X126334500Y-92973790D01*
X126623840Y-92973790D01*
X126627831Y-93016009D01*
X126628225Y-93020177D01*
X126628500Y-93026015D01*
X126628500Y-95471255D01*
X126626775Y-95486872D01*
X126627061Y-95486899D01*
X126626326Y-95494665D01*
X126628500Y-95563814D01*
X126628500Y-95593343D01*
X126628501Y-95593360D01*
X126629368Y-95600231D01*
X126629826Y-95606050D01*
X126631290Y-95652624D01*
X126631291Y-95652627D01*
X126636880Y-95671867D01*
X126640824Y-95690911D01*
X126643336Y-95710792D01*
X126645090Y-95715221D01*
X126660490Y-95754119D01*
X126662382Y-95759647D01*
X126662443Y-95759858D01*
X126675382Y-95804390D01*
X126683166Y-95817553D01*
X126685580Y-95821634D01*
X126694138Y-95839103D01*
X126701514Y-95857732D01*
X126728898Y-95895423D01*
X126732106Y-95900307D01*
X126755827Y-95940416D01*
X126755833Y-95940424D01*
X126769990Y-95954580D01*
X126782627Y-95969375D01*
X126794406Y-95985587D01*
X126805367Y-95994655D01*
X126830309Y-96015288D01*
X126834620Y-96019210D01*
X127179818Y-96364408D01*
X127512892Y-96697482D01*
X127546377Y-96758805D01*
X127541393Y-96828497D01*
X127526515Y-96856671D01*
X127440623Y-96978352D01*
X127440621Y-96978355D01*
X127389946Y-97120939D01*
X127389946Y-97120942D01*
X127379619Y-97271918D01*
X127379619Y-97271921D01*
X127410405Y-97420078D01*
X127410407Y-97420083D01*
X127410408Y-97420085D01*
X127428048Y-97454128D01*
X127458400Y-97512705D01*
X127471765Y-97581285D01*
X127445931Y-97646203D01*
X127423030Y-97668706D01*
X127380930Y-97700499D01*
X127380929Y-97700499D01*
X127237348Y-97858000D01*
X127237346Y-97858002D01*
X127125153Y-98039201D01*
X127125149Y-98039210D01*
X127048163Y-98237936D01*
X127048162Y-98237941D01*
X127035813Y-98304000D01*
X127992889Y-98304000D01*
X127953390Y-98328457D01*
X127885799Y-98417962D01*
X127855105Y-98525840D01*
X127865454Y-98637521D01*
X127915448Y-98737922D01*
X127987931Y-98804000D01*
X127035813Y-98804000D01*
X127048162Y-98870058D01*
X127048163Y-98870063D01*
X127125149Y-99068789D01*
X127125153Y-99068798D01*
X127237346Y-99249997D01*
X127237348Y-99249999D01*
X127380928Y-99407499D01*
X127551010Y-99535940D01*
X127741783Y-99630933D01*
X127741803Y-99630941D01*
X127946780Y-99689261D01*
X127946783Y-99689262D01*
X128105833Y-99704000D01*
X128409000Y-99704000D01*
X128409000Y-98854000D01*
X128909000Y-98854000D01*
X128909000Y-99704000D01*
X129212167Y-99704000D01*
X129371216Y-99689262D01*
X129371219Y-99689261D01*
X129576196Y-99630941D01*
X129576216Y-99630933D01*
X129766989Y-99535940D01*
X129937071Y-99407499D01*
X130080651Y-99249999D01*
X130080653Y-99249997D01*
X130192846Y-99068798D01*
X130192850Y-99068789D01*
X130269836Y-98870063D01*
X130269837Y-98870058D01*
X130282187Y-98804000D01*
X129325111Y-98804000D01*
X129364610Y-98779543D01*
X129432201Y-98690038D01*
X129462895Y-98582160D01*
X129452546Y-98470479D01*
X129402552Y-98370078D01*
X129330069Y-98304000D01*
X130282187Y-98304000D01*
X130269837Y-98237941D01*
X130269836Y-98237936D01*
X130192850Y-98039210D01*
X130192846Y-98039201D01*
X130080654Y-97858004D01*
X130052544Y-97827169D01*
X130021927Y-97764365D01*
X130027155Y-97709240D01*
X130025814Y-97708924D01*
X130027598Y-97701372D01*
X130033999Y-97641844D01*
X130034000Y-97641827D01*
X130034000Y-97435953D01*
X130053685Y-97368914D01*
X130106489Y-97323159D01*
X130175647Y-97313215D01*
X130239203Y-97342240D01*
X130245681Y-97348272D01*
X130788181Y-97890772D01*
X130821666Y-97952095D01*
X130824500Y-97978453D01*
X130824500Y-98719001D01*
X130824501Y-98719019D01*
X130835000Y-98821796D01*
X130835001Y-98821799D01*
X130888044Y-98981870D01*
X130890186Y-98988334D01*
X130982288Y-99137656D01*
X131106344Y-99261712D01*
X131255666Y-99353814D01*
X131422203Y-99408999D01*
X131524991Y-99419500D01*
X132250008Y-99419499D01*
X132250016Y-99419498D01*
X132250019Y-99419498D01*
X132307041Y-99413673D01*
X132352797Y-99408999D01*
X132519334Y-99353814D01*
X132668656Y-99261712D01*
X132792712Y-99137656D01*
X132884814Y-98988334D01*
X132939999Y-98821797D01*
X132950500Y-98719009D01*
X132950500Y-98294000D01*
X133750001Y-98294000D01*
X133750001Y-98718986D01*
X133760494Y-98821697D01*
X133815641Y-98988119D01*
X133815643Y-98988124D01*
X133907684Y-99137345D01*
X134031654Y-99261315D01*
X134180875Y-99353356D01*
X134180880Y-99353358D01*
X134347302Y-99408505D01*
X134347309Y-99408506D01*
X134450019Y-99418999D01*
X134562499Y-99418999D01*
X134562500Y-99418998D01*
X134562500Y-98294000D01*
X135062500Y-98294000D01*
X135062500Y-99418999D01*
X135174972Y-99418999D01*
X135174986Y-99418998D01*
X135277697Y-99408505D01*
X135444119Y-99353358D01*
X135444124Y-99353356D01*
X135593345Y-99261315D01*
X135717315Y-99137345D01*
X135809356Y-98988124D01*
X135809358Y-98988119D01*
X135864505Y-98821697D01*
X135864506Y-98821690D01*
X135874999Y-98718986D01*
X135875000Y-98718973D01*
X135875000Y-98294000D01*
X135062500Y-98294000D01*
X134562500Y-98294000D01*
X133750001Y-98294000D01*
X132950500Y-98294000D01*
X132950499Y-97368992D01*
X132948382Y-97348272D01*
X132939999Y-97266203D01*
X132939998Y-97266200D01*
X132920221Y-97206517D01*
X132884814Y-97099666D01*
X132792712Y-96950344D01*
X132704049Y-96861681D01*
X132670564Y-96800358D01*
X132675548Y-96730666D01*
X132704049Y-96686319D01*
X132735788Y-96654580D01*
X132792712Y-96597656D01*
X132884814Y-96448334D01*
X132939999Y-96281797D01*
X132950500Y-96179009D01*
X132950499Y-94828992D01*
X132939999Y-94726203D01*
X132884814Y-94559666D01*
X132792712Y-94410344D01*
X132704049Y-94321681D01*
X132670564Y-94260358D01*
X132675548Y-94190666D01*
X132704049Y-94146319D01*
X132746367Y-94104001D01*
X132792712Y-94057656D01*
X132884814Y-93908334D01*
X132939999Y-93741797D01*
X132950500Y-93639009D01*
X132950499Y-92288992D01*
X132950206Y-92286128D01*
X132939999Y-92186203D01*
X132939998Y-92186200D01*
X132916012Y-92113815D01*
X132884814Y-92019666D01*
X132792712Y-91870344D01*
X132704049Y-91781681D01*
X132670564Y-91720358D01*
X132675548Y-91650666D01*
X132704049Y-91606319D01*
X132747586Y-91562782D01*
X132792712Y-91517656D01*
X132884814Y-91368334D01*
X132939999Y-91201797D01*
X132950500Y-91099009D01*
X132950499Y-90174000D01*
X133750000Y-90174000D01*
X134562500Y-90174000D01*
X134562500Y-89049000D01*
X135062500Y-89049000D01*
X135062500Y-90174000D01*
X135874999Y-90174000D01*
X135874999Y-89749028D01*
X135874998Y-89749013D01*
X135864505Y-89646302D01*
X135809358Y-89479880D01*
X135809356Y-89479875D01*
X135717315Y-89330654D01*
X135593345Y-89206684D01*
X135444124Y-89114643D01*
X135444119Y-89114641D01*
X135277697Y-89059494D01*
X135277690Y-89059493D01*
X135174986Y-89049000D01*
X135062500Y-89049000D01*
X134562500Y-89049000D01*
X134450027Y-89049000D01*
X134450012Y-89049001D01*
X134347302Y-89059494D01*
X134180880Y-89114641D01*
X134180875Y-89114643D01*
X134031654Y-89206684D01*
X133907684Y-89330654D01*
X133815643Y-89479875D01*
X133815641Y-89479880D01*
X133760494Y-89646302D01*
X133760493Y-89646309D01*
X133750000Y-89749013D01*
X133750000Y-90174000D01*
X132950499Y-90174000D01*
X132950499Y-89748992D01*
X132939999Y-89646203D01*
X132884814Y-89479666D01*
X132792712Y-89330344D01*
X132668656Y-89206288D01*
X132519843Y-89114500D01*
X132519336Y-89114187D01*
X132519331Y-89114185D01*
X132517862Y-89113698D01*
X132352797Y-89059001D01*
X132352795Y-89059000D01*
X132250010Y-89048500D01*
X131524998Y-89048500D01*
X131524980Y-89048501D01*
X131422203Y-89059000D01*
X131422200Y-89059001D01*
X131255668Y-89114185D01*
X131255663Y-89114187D01*
X131106342Y-89206289D01*
X130982289Y-89330342D01*
X130890187Y-89479663D01*
X130890185Y-89479668D01*
X130882106Y-89504049D01*
X130835001Y-89646203D01*
X130835001Y-89646204D01*
X130835000Y-89646204D01*
X130824500Y-89748983D01*
X130824500Y-90906694D01*
X130804815Y-90973733D01*
X130752011Y-91019488D01*
X130682853Y-91029432D01*
X130627615Y-91007013D01*
X130591097Y-90980481D01*
X130518931Y-90928050D01*
X130518929Y-90928049D01*
X130518930Y-90928049D01*
X130346008Y-90851058D01*
X130346003Y-90851056D01*
X130194894Y-90818937D01*
X130160847Y-90811701D01*
X130160846Y-90811701D01*
X130154490Y-90810350D01*
X130154904Y-90808397D01*
X130099033Y-90785402D01*
X130059056Y-90728100D01*
X130056405Y-90658281D01*
X130077675Y-90613940D01*
X130080655Y-90609993D01*
X130192846Y-90428798D01*
X130192850Y-90428789D01*
X130269836Y-90230063D01*
X130269837Y-90230058D01*
X130282187Y-90164000D01*
X129325111Y-90164000D01*
X129364610Y-90139543D01*
X129432201Y-90050038D01*
X129462895Y-89942160D01*
X129452546Y-89830479D01*
X129402552Y-89730078D01*
X129330069Y-89664000D01*
X130282187Y-89664000D01*
X130269837Y-89597941D01*
X130269836Y-89597936D01*
X130192850Y-89399210D01*
X130192846Y-89399201D01*
X130080653Y-89218002D01*
X130080651Y-89218000D01*
X129937071Y-89060500D01*
X129766989Y-88932059D01*
X129576216Y-88837066D01*
X129576196Y-88837058D01*
X129371219Y-88778738D01*
X129371216Y-88778737D01*
X129212167Y-88764000D01*
X128909000Y-88764000D01*
X128909000Y-89614000D01*
X128409000Y-89614000D01*
X128409000Y-88764000D01*
X128105833Y-88764000D01*
X127946783Y-88778737D01*
X127946780Y-88778738D01*
X127741803Y-88837058D01*
X127741783Y-88837066D01*
X127551010Y-88932059D01*
X127380928Y-89060500D01*
X127237348Y-89218000D01*
X127237346Y-89218002D01*
X127125153Y-89399201D01*
X127125149Y-89399210D01*
X127048163Y-89597936D01*
X127048162Y-89597941D01*
X127035813Y-89664000D01*
X127992889Y-89664000D01*
X127953390Y-89688457D01*
X127885799Y-89777962D01*
X127855105Y-89885840D01*
X127865454Y-89997521D01*
X127915448Y-90097922D01*
X127987931Y-90164000D01*
X127035813Y-90164000D01*
X127048162Y-90230058D01*
X127048163Y-90230063D01*
X127125149Y-90428789D01*
X127125153Y-90428798D01*
X127237346Y-90609997D01*
X127237348Y-90609999D01*
X127380929Y-90767500D01*
X127385166Y-90771362D01*
X127383466Y-90773226D01*
X127418670Y-90820667D01*
X127423361Y-90890379D01*
X127421712Y-90896951D01*
X127384594Y-91029432D01*
X127383500Y-91033336D01*
X127383500Y-91396658D01*
X127398929Y-91508917D01*
X127398930Y-91508920D01*
X127459218Y-91647717D01*
X127459219Y-91647718D01*
X127459220Y-91647720D01*
X127503205Y-91701785D01*
X127503467Y-91702107D01*
X127530505Y-91766533D01*
X127518419Y-91835349D01*
X127494959Y-91868042D01*
X126870208Y-92492793D01*
X126857951Y-92502614D01*
X126858134Y-92502835D01*
X126852123Y-92507807D01*
X126804772Y-92558230D01*
X126783889Y-92579113D01*
X126783877Y-92579126D01*
X126779621Y-92584611D01*
X126775837Y-92589041D01*
X126743937Y-92623012D01*
X126743936Y-92623014D01*
X126734284Y-92640570D01*
X126723610Y-92656820D01*
X126711329Y-92672655D01*
X126711324Y-92672662D01*
X126692815Y-92715432D01*
X126690245Y-92720678D01*
X126667803Y-92761500D01*
X126662822Y-92780901D01*
X126656521Y-92799304D01*
X126648562Y-92817696D01*
X126648561Y-92817699D01*
X126641271Y-92863721D01*
X126640087Y-92869440D01*
X126628501Y-92914566D01*
X126628500Y-92914576D01*
X126628500Y-92934610D01*
X126626973Y-92954009D01*
X126625391Y-92964000D01*
X126623840Y-92973790D01*
X126334500Y-92973790D01*
X126334499Y-92286128D01*
X126328091Y-92226517D01*
X126313055Y-92186204D01*
X126277797Y-92091671D01*
X126277793Y-92091664D01*
X126191547Y-91976455D01*
X126191544Y-91976452D01*
X126076335Y-91890206D01*
X126076328Y-91890202D01*
X125941482Y-91839908D01*
X125941483Y-91839908D01*
X125881883Y-91833501D01*
X125881881Y-91833500D01*
X125881873Y-91833500D01*
X125881864Y-91833500D01*
X123786129Y-91833500D01*
X123786123Y-91833501D01*
X123726516Y-91839908D01*
X123591671Y-91890202D01*
X123591664Y-91890206D01*
X123476455Y-91976452D01*
X123476452Y-91976455D01*
X123390206Y-92091664D01*
X123390202Y-92091671D01*
X123339908Y-92226517D01*
X123333501Y-92286116D01*
X123333501Y-92286123D01*
X123333500Y-92286135D01*
X123333500Y-93381870D01*
X123024000Y-93381870D01*
X123024000Y-90660868D01*
X123043685Y-90593829D01*
X123096489Y-90548074D01*
X123165647Y-90538130D01*
X123229203Y-90567155D01*
X123253428Y-90595592D01*
X123262348Y-90610000D01*
X123405928Y-90767499D01*
X123576010Y-90895940D01*
X123766783Y-90990933D01*
X123766803Y-90990941D01*
X123971780Y-91049261D01*
X123971783Y-91049262D01*
X124130833Y-91064000D01*
X124584000Y-91064000D01*
X124584000Y-90214000D01*
X125084000Y-90214000D01*
X125084000Y-91064000D01*
X125537167Y-91064000D01*
X125696216Y-91049262D01*
X125696219Y-91049261D01*
X125901196Y-90990941D01*
X125901216Y-90990933D01*
X126091989Y-90895940D01*
X126262071Y-90767499D01*
X126405651Y-90609999D01*
X126405653Y-90609997D01*
X126517846Y-90428798D01*
X126517850Y-90428789D01*
X126594836Y-90230063D01*
X126594837Y-90230058D01*
X126607187Y-90164000D01*
X125650111Y-90164000D01*
X125689610Y-90139543D01*
X125757201Y-90050038D01*
X125787895Y-89942160D01*
X125777546Y-89830479D01*
X125727552Y-89730078D01*
X125655069Y-89664000D01*
X126607187Y-89664000D01*
X126594837Y-89597941D01*
X126594836Y-89597936D01*
X126517850Y-89399210D01*
X126517846Y-89399201D01*
X126405653Y-89218002D01*
X126405651Y-89218000D01*
X126262071Y-89060500D01*
X126091989Y-88932059D01*
X125901216Y-88837066D01*
X125901196Y-88837058D01*
X125696219Y-88778738D01*
X125696216Y-88778737D01*
X125537167Y-88764000D01*
X125084000Y-88764000D01*
X125084000Y-89614000D01*
X124584000Y-89614000D01*
X124584000Y-88764000D01*
X124130833Y-88764000D01*
X123971783Y-88778737D01*
X123971780Y-88778738D01*
X123766803Y-88837058D01*
X123766783Y-88837066D01*
X123576010Y-88932059D01*
X123405928Y-89060500D01*
X123262349Y-89217999D01*
X123253427Y-89232409D01*
X123201399Y-89279044D01*
X123132417Y-89290148D01*
X123068383Y-89262195D01*
X123029626Y-89204059D01*
X123024000Y-89167131D01*
X123024000Y-87012735D01*
X123043685Y-86945696D01*
X123096489Y-86899941D01*
X123165647Y-86889997D01*
X123229203Y-86919022D01*
X123247267Y-86938424D01*
X123262813Y-86959190D01*
X123377906Y-87045350D01*
X123377913Y-87045354D01*
X123512620Y-87095596D01*
X123512627Y-87095598D01*
X123572155Y-87101999D01*
X123572172Y-87102000D01*
X124120000Y-87102000D01*
X124120000Y-86102000D01*
X124620000Y-86102000D01*
X124620000Y-87102000D01*
X125167828Y-87102000D01*
X125167844Y-87101999D01*
X125227372Y-87095598D01*
X125227379Y-87095596D01*
X125362086Y-87045354D01*
X125362093Y-87045350D01*
X125477187Y-86959190D01*
X125477190Y-86959187D01*
X125563350Y-86844093D01*
X125563354Y-86844086D01*
X125613596Y-86709379D01*
X125613598Y-86709372D01*
X125619996Y-86649870D01*
X130919500Y-86649870D01*
X130919501Y-86649876D01*
X130925908Y-86709483D01*
X130976202Y-86844328D01*
X130976206Y-86844335D01*
X131062452Y-86959544D01*
X131062455Y-86959547D01*
X131177664Y-87045793D01*
X131177671Y-87045797D01*
X131312517Y-87096091D01*
X131312516Y-87096091D01*
X131319444Y-87096835D01*
X131372127Y-87102500D01*
X132967872Y-87102499D01*
X133027483Y-87096091D01*
X133162331Y-87045796D01*
X133277546Y-86959546D01*
X133363796Y-86844331D01*
X133414091Y-86709483D01*
X133420500Y-86649873D01*
X133420500Y-86601500D01*
X133440185Y-86534461D01*
X133492989Y-86488706D01*
X133544500Y-86477500D01*
X136771086Y-86477500D01*
X136838125Y-86497185D01*
X136878473Y-86539500D01*
X136935465Y-86638214D01*
X137062129Y-86778888D01*
X137215265Y-86890148D01*
X137215270Y-86890151D01*
X137388192Y-86967142D01*
X137388197Y-86967144D01*
X137573354Y-87006500D01*
X137573355Y-87006500D01*
X137762644Y-87006500D01*
X137762646Y-87006500D01*
X137947803Y-86967144D01*
X138120730Y-86890151D01*
X138273871Y-86778888D01*
X138400533Y-86638216D01*
X138495179Y-86474284D01*
X138553674Y-86294256D01*
X138573460Y-86106000D01*
X138553674Y-85917744D01*
X138495179Y-85737716D01*
X138400533Y-85573784D01*
X138273871Y-85433112D01*
X138273870Y-85433111D01*
X138120734Y-85321851D01*
X138120729Y-85321848D01*
X137947807Y-85244857D01*
X137947802Y-85244855D01*
X137802001Y-85213865D01*
X137762646Y-85205500D01*
X137573354Y-85205500D01*
X137529087Y-85214909D01*
X137492196Y-85222750D01*
X137447022Y-85223933D01*
X137433805Y-85221840D01*
X137433804Y-85221840D01*
X137387416Y-85226225D01*
X137381578Y-85226500D01*
X133544499Y-85226500D01*
X133477460Y-85206815D01*
X133431705Y-85154011D01*
X133420499Y-85102500D01*
X133420499Y-85054129D01*
X133420498Y-85054123D01*
X133420497Y-85054116D01*
X133414091Y-84994517D01*
X133410290Y-84984327D01*
X133363797Y-84859671D01*
X133363793Y-84859664D01*
X133277547Y-84744455D01*
X133277544Y-84744452D01*
X133162335Y-84658206D01*
X133162328Y-84658202D01*
X133027482Y-84607908D01*
X133027483Y-84607908D01*
X132967883Y-84601501D01*
X132967881Y-84601500D01*
X132967873Y-84601500D01*
X132967864Y-84601500D01*
X131372129Y-84601500D01*
X131372123Y-84601501D01*
X131312516Y-84607908D01*
X131177671Y-84658202D01*
X131177664Y-84658206D01*
X131062455Y-84744452D01*
X131062452Y-84744455D01*
X130976206Y-84859664D01*
X130976202Y-84859671D01*
X130925908Y-84994517D01*
X130922489Y-85026322D01*
X130919501Y-85054123D01*
X130919500Y-85054135D01*
X130919500Y-86649870D01*
X125619996Y-86649870D01*
X125619999Y-86649844D01*
X125620000Y-86649827D01*
X125620000Y-86102000D01*
X124620000Y-86102000D01*
X124120000Y-86102000D01*
X124120000Y-84602000D01*
X124620000Y-84602000D01*
X124620000Y-85602000D01*
X125620000Y-85602000D01*
X125620000Y-85054172D01*
X125619999Y-85054155D01*
X125613598Y-84994627D01*
X125613596Y-84994620D01*
X125563354Y-84859913D01*
X125563350Y-84859906D01*
X125477190Y-84744812D01*
X125477187Y-84744809D01*
X125362093Y-84658649D01*
X125362086Y-84658645D01*
X125227379Y-84608403D01*
X125227372Y-84608401D01*
X125167844Y-84602000D01*
X124620000Y-84602000D01*
X124120000Y-84602000D01*
X123572155Y-84602000D01*
X123512627Y-84608401D01*
X123512620Y-84608403D01*
X123377913Y-84658645D01*
X123377906Y-84658649D01*
X123262812Y-84744809D01*
X123262810Y-84744811D01*
X123247265Y-84765577D01*
X123191331Y-84807447D01*
X123121639Y-84812430D01*
X123060317Y-84778943D01*
X123026833Y-84717619D01*
X123024000Y-84691264D01*
X123024000Y-81344415D01*
X123043685Y-81277376D01*
X123096489Y-81231621D01*
X123165647Y-81221677D01*
X123229203Y-81250702D01*
X123258485Y-81288120D01*
X123291310Y-81352543D01*
X123502531Y-81677793D01*
X123711095Y-81935350D01*
X123711096Y-81935350D01*
X125202266Y-80444179D01*
X125365130Y-80634870D01*
X125555819Y-80797733D01*
X124064648Y-82288903D01*
X124064649Y-82288904D01*
X124322206Y-82497468D01*
X124647456Y-82708689D01*
X124993005Y-82884755D01*
X125355063Y-83023737D01*
X125729669Y-83124112D01*
X125729676Y-83124113D01*
X126112712Y-83184780D01*
X126499999Y-83205078D01*
X126500001Y-83205078D01*
X126887287Y-83184780D01*
X127270323Y-83124113D01*
X127270330Y-83124112D01*
X127644936Y-83023737D01*
X128006994Y-82884755D01*
X128352543Y-82708689D01*
X128677783Y-82497476D01*
X128677785Y-82497475D01*
X128935349Y-82288902D01*
X127444180Y-80797733D01*
X127634870Y-80634870D01*
X127797733Y-80444180D01*
X129288902Y-81935349D01*
X129497475Y-81677785D01*
X129497476Y-81677783D01*
X129708689Y-81352543D01*
X129884755Y-81006994D01*
X130023737Y-80644936D01*
X130124112Y-80270330D01*
X130124113Y-80270323D01*
X130184780Y-79887287D01*
X130205078Y-79500000D01*
X130205078Y-79499999D01*
X130184780Y-79112712D01*
X130124113Y-78729676D01*
X130124112Y-78729669D01*
X130023737Y-78355063D01*
X129884755Y-77993005D01*
X129708689Y-77647456D01*
X129497468Y-77322206D01*
X129288904Y-77064649D01*
X129288903Y-77064648D01*
X127797732Y-78555818D01*
X127634870Y-78365130D01*
X127444179Y-78202266D01*
X128935350Y-76711096D01*
X128935350Y-76711095D01*
X128677793Y-76502531D01*
X128352543Y-76291310D01*
X128252793Y-76240485D01*
X128201997Y-76192511D01*
X128185202Y-76124690D01*
X128207739Y-76058555D01*
X128262454Y-76015103D01*
X128309088Y-76006000D01*
X190190912Y-76006000D01*
X190257951Y-76025685D01*
G37*
%TD.AperFunction*%
%TD*%
M02*
