%TF.GenerationSoftware,KiCad,Pcbnew,7.0.9-7.0.9~ubuntu22.04.1*%
%TF.CreationDate,2023-12-10T21:51:41+01:00*%
%TF.ProjectId,cat_scale,6361745f-7363-4616-9c65-2e6b69636164,rev?*%
%TF.SameCoordinates,Original*%
%TF.FileFunction,Copper,L11,Inr*%
%TF.FilePolarity,Positive*%
%FSLAX46Y46*%
G04 Gerber Fmt 4.6, Leading zero omitted, Abs format (unit mm)*
G04 Created by KiCad (PCBNEW 7.0.9-7.0.9~ubuntu22.04.1) date 2023-12-10 21:51:41*
%MOMM*%
%LPD*%
G01*
G04 APERTURE LIST*
%TA.AperFunction,ComponentPad*%
%ADD10C,6.400000*%
%TD*%
%TA.AperFunction,ComponentPad*%
%ADD11O,1.600000X2.000000*%
%TD*%
%TA.AperFunction,ComponentPad*%
%ADD12R,2.000000X2.000000*%
%TD*%
%TA.AperFunction,ComponentPad*%
%ADD13C,2.000000*%
%TD*%
%TA.AperFunction,ComponentPad*%
%ADD14R,3.000000X2.500000*%
%TD*%
%TA.AperFunction,ComponentPad*%
%ADD15R,1.700000X1.700000*%
%TD*%
%TA.AperFunction,ComponentPad*%
%ADD16O,1.700000X1.700000*%
%TD*%
%TA.AperFunction,ComponentPad*%
%ADD17O,2.600000X1.300000*%
%TD*%
%TA.AperFunction,ComponentPad*%
%ADD18O,2.300000X1.300000*%
%TD*%
%TA.AperFunction,ViaPad*%
%ADD19C,0.800000*%
%TD*%
G04 APERTURE END LIST*
D10*
%TO.N,GND*%
%TO.C,H2*%
X192000000Y-108000000D03*
%TD*%
D11*
%TO.N,+5V*%
%TO.C,J5*%
X144924000Y-83554000D03*
%TO.N,GND*%
X147464000Y-83554000D03*
%TO.N,/SCL*%
X150004000Y-83554000D03*
%TO.N,/SDA*%
X152544000Y-83554000D03*
%TD*%
D10*
%TO.N,GND*%
%TO.C,H3*%
X126500000Y-79500000D03*
%TD*%
%TO.N,GND*%
%TO.C,H1*%
X192000000Y-79500000D03*
%TD*%
D12*
%TO.N,/ROT0*%
%TO.C,SW3*%
X177662000Y-90464000D03*
D13*
%TO.N,/ROT1*%
X177662000Y-95464000D03*
%TO.N,GND*%
X177662000Y-92964000D03*
D14*
%TO.N,N/C*%
X185162000Y-87364000D03*
X185162000Y-98564000D03*
D13*
%TO.N,/BTN0*%
X192162000Y-90464000D03*
%TO.N,GND*%
X192162000Y-95464000D03*
%TD*%
D10*
%TO.N,GND*%
%TO.C,H4*%
X126508000Y-108042000D03*
%TD*%
D15*
%TO.N,/AVDD*%
%TO.C,J4*%
X142758000Y-105943000D03*
D16*
%TO.N,GND*%
X145298000Y-105943000D03*
%TO.N,Net-(J4-Pin_3)*%
X147838000Y-105943000D03*
%TO.N,/INA-*%
X150378000Y-105943000D03*
%TD*%
D15*
%TO.N,+3V3*%
%TO.C,J3*%
X145034000Y-79248000D03*
D16*
%TO.N,GND*%
X147574000Y-79248000D03*
%TO.N,/SCL*%
X150114000Y-79248000D03*
%TO.N,/SDA*%
X152654000Y-79248000D03*
%TD*%
D15*
%TO.N,+5V*%
%TO.C,J6*%
X139187000Y-99060000D03*
D16*
%TO.N,GND*%
X141727000Y-99060000D03*
%TD*%
D17*
%TO.N,GND*%
%TO.C,J1*%
X124834000Y-98554000D03*
D18*
X128659000Y-98554000D03*
D17*
X124834000Y-89914000D03*
D18*
X128659000Y-89914000D03*
%TD*%
D15*
%TO.N,+3V3*%
%TO.C,J2*%
X132852000Y-79248000D03*
D16*
%TO.N,/RXD0*%
X135392000Y-79248000D03*
%TO.N,/TXD0*%
X137932000Y-79248000D03*
%TO.N,GND*%
X140472000Y-79248000D03*
%TD*%
D19*
%TO.N,GND*%
X166624000Y-102362000D03*
X146558000Y-104140000D03*
X175768000Y-90170000D03*
X154432000Y-82804000D03*
X151384000Y-81280000D03*
X141224000Y-83058000D03*
X157734000Y-101092000D03*
X175768000Y-91186000D03*
%TO.N,/BOOT*%
X157988000Y-93904498D03*
X137668000Y-86106000D03*
%TO.N,/RST*%
X139954000Y-101600000D03*
X171450000Y-80010000D03*
%TO.N,+3V3*%
X145542000Y-86106000D03*
X171450000Y-107696000D03*
X177800000Y-84074000D03*
X153924000Y-91694000D03*
X171450000Y-78740000D03*
%TO.N,/AVDD*%
X153416000Y-105156000D03*
X154686000Y-102616000D03*
%TO.N,/INA-*%
X164084000Y-101346000D03*
%TO.N,Net-(D2-A)*%
X130066201Y-91712201D03*
X138176000Y-92202000D03*
%TO.N,/SDA*%
X153416000Y-86106000D03*
%TO.N,Net-(J4-Pin_3)*%
X160517388Y-103356545D03*
%TO.N,/USB_D-*%
X136398000Y-95504000D03*
X162052000Y-92710000D03*
%TO.N,/USB_D+*%
X160160378Y-93612378D03*
X136398000Y-92964000D03*
%TO.N,Net-(U3-VFB)*%
X166878000Y-105156000D03*
X159004000Y-104394000D03*
%TO.N,/LED_RGB*%
X172212000Y-83820000D03*
%TO.N,/BUZZ*%
X158242000Y-96774000D03*
%TD*%
M02*
