M48
; DRILL file {KiCad 7.0.9-7.0.9~ubuntu22.04.1} date Sun 10 Dec 2023 21:51:41 CET
; FORMAT={-:-/ absolute / metric / decimal}
; #@! TF.CreationDate,2023-12-10T21:51:41+01:00
; #@! TF.GenerationSoftware,Kicad,Pcbnew,7.0.9-7.0.9~ubuntu22.04.1
; #@! TF.FileFunction,MixedPlating,1,2
FMAT,2
METRIC
; #@! TA.AperFunction,Plated,PTH,ViaDrill
T1C0.400
; #@! TA.AperFunction,Plated,PTH,ComponentDrill
T2C0.600
; #@! TA.AperFunction,Plated,PTH,ComponentDrill
T3C1.000
; #@! TA.AperFunction,Plated,PTH,ComponentDrill
T4C2.000
; #@! TA.AperFunction,Plated,PTH,ComponentDrill
T5C3.200
; #@! TA.AperFunction,NonPlated,NPTH,ComponentDrill
T6C0.600
%
G90
G05
T1
X130.066Y-91.712
X136.398Y-92.964
X136.398Y-95.504
X137.668Y-86.106
X138.176Y-92.202
X139.954Y-101.6
X141.224Y-83.058
X145.542Y-86.106
X146.558Y-104.14
X151.384Y-81.28
X153.416Y-86.106
X153.416Y-105.156
X153.924Y-91.694
X154.432Y-82.804
X154.686Y-102.616
X157.734Y-101.092
X157.988Y-93.904
X158.242Y-96.774
X159.004Y-104.394
X160.16Y-93.612
X160.517Y-103.357
X162.052Y-92.71
X164.084Y-101.346
X166.624Y-102.362
X166.878Y-105.156
X171.45Y-78.74
X171.45Y-80.01
X171.45Y-107.696
X172.212Y-83.82
X175.768Y-90.17
X175.768Y-91.186
X177.8Y-84.074
T3
X132.852Y-79.248
X135.392Y-79.248
X137.932Y-79.248
X139.187Y-99.06
X140.472Y-79.248
X141.727Y-99.06
X142.758Y-105.943
X144.924Y-83.554
X145.034Y-79.248
X145.298Y-105.943
X147.464Y-83.554
X147.574Y-79.248
X147.838Y-105.943
X150.004Y-83.554
X150.114Y-79.248
X150.378Y-105.943
X152.544Y-83.554
X152.654Y-79.248
X177.662Y-90.464
X177.662Y-92.964
X177.662Y-95.464
X192.162Y-90.464
X192.162Y-95.464
T5
X126.5Y-79.5
X126.508Y-108.042
X192.0Y-79.5
X192.0Y-108.0
T6
X127.934Y-97.234
T2
X124.184Y-89.914G85X125.484Y-89.914
G05
X124.184Y-98.554G85X125.484Y-98.554
G05
X128.159Y-89.914G85X129.159Y-89.914
G05
X128.159Y-98.554G85X129.159Y-98.554
G05
T4
X184.912Y-87.364G85X185.412Y-87.364
G05
X184.912Y-98.564G85X185.412Y-98.564
G05
T6
X127.934Y-91.359G85X127.934Y-91.109
G05
T0
M30
