%TF.GenerationSoftware,KiCad,Pcbnew,7.0.9-7.0.9~ubuntu22.04.1*%
%TF.CreationDate,2023-12-10T21:51:41+01:00*%
%TF.ProjectId,cat_scale,6361745f-7363-4616-9c65-2e6b69636164,rev?*%
%TF.SameCoordinates,Original*%
%TF.FileFunction,Soldermask,Bot*%
%TF.FilePolarity,Negative*%
%FSLAX46Y46*%
G04 Gerber Fmt 4.6, Leading zero omitted, Abs format (unit mm)*
G04 Created by KiCad (PCBNEW 7.0.9-7.0.9~ubuntu22.04.1) date 2023-12-10 21:51:41*
%MOMM*%
%LPD*%
G01*
G04 APERTURE LIST*
G04 Aperture macros list*
%AMRoundRect*
0 Rectangle with rounded corners*
0 $1 Rounding radius*
0 $2 $3 $4 $5 $6 $7 $8 $9 X,Y pos of 4 corners*
0 Add a 4 corners polygon primitive as box body*
4,1,4,$2,$3,$4,$5,$6,$7,$8,$9,$2,$3,0*
0 Add four circle primitives for the rounded corners*
1,1,$1+$1,$2,$3*
1,1,$1+$1,$4,$5*
1,1,$1+$1,$6,$7*
1,1,$1+$1,$8,$9*
0 Add four rect primitives between the rounded corners*
20,1,$1+$1,$2,$3,$4,$5,0*
20,1,$1+$1,$4,$5,$6,$7,0*
20,1,$1+$1,$6,$7,$8,$9,0*
20,1,$1+$1,$8,$9,$2,$3,0*%
G04 Aperture macros list end*
%ADD10C,6.400000*%
%ADD11O,1.600000X2.000000*%
%ADD12R,2.000000X2.000000*%
%ADD13C,2.000000*%
%ADD14R,3.000000X2.500000*%
%ADD15RoundRect,0.250000X-0.312500X-0.625000X0.312500X-0.625000X0.312500X0.625000X-0.312500X0.625000X0*%
%ADD16R,1.700000X1.700000*%
%ADD17O,1.700000X1.700000*%
%ADD18R,1.500000X0.900000*%
%ADD19R,0.900000X1.500000*%
%ADD20R,0.900000X0.900000*%
%ADD21RoundRect,0.150000X-0.850000X-0.150000X0.850000X-0.150000X0.850000X0.150000X-0.850000X0.150000X0*%
%ADD22RoundRect,0.250000X-0.625000X0.312500X-0.625000X-0.312500X0.625000X-0.312500X0.625000X0.312500X0*%
%ADD23RoundRect,0.250000X-0.650000X0.325000X-0.650000X-0.325000X0.650000X-0.325000X0.650000X0.325000X0*%
%ADD24RoundRect,0.250000X0.650000X-0.325000X0.650000X0.325000X-0.650000X0.325000X-0.650000X-0.325000X0*%
%ADD25R,1.500000X1.500000*%
%ADD26RoundRect,0.250000X0.625000X-0.312500X0.625000X0.312500X-0.625000X0.312500X-0.625000X-0.312500X0*%
%ADD27RoundRect,0.250000X0.312500X0.625000X-0.312500X0.625000X-0.312500X-0.625000X0.312500X-0.625000X0*%
%ADD28RoundRect,0.112500X0.112500X-0.187500X0.112500X0.187500X-0.112500X0.187500X-0.112500X-0.187500X0*%
%ADD29R,1.500000X2.000000*%
%ADD30R,3.800000X2.000000*%
%ADD31RoundRect,0.150000X-0.150000X0.587500X-0.150000X-0.587500X0.150000X-0.587500X0.150000X0.587500X0*%
%ADD32C,0.600000*%
%ADD33R,2.000000X1.000000*%
%ADD34O,0.600000X0.850000*%
%ADD35R,1.000000X0.520000*%
%ADD36R,1.000000X0.270000*%
%ADD37O,2.600000X1.300000*%
%ADD38O,2.300000X1.300000*%
%ADD39RoundRect,0.250000X0.325000X0.650000X-0.325000X0.650000X-0.325000X-0.650000X0.325000X-0.650000X0*%
%ADD40RoundRect,0.243750X0.243750X0.456250X-0.243750X0.456250X-0.243750X-0.456250X0.243750X-0.456250X0*%
G04 APERTURE END LIST*
D10*
%TO.C,H2*%
X192000000Y-108000000D03*
%TD*%
D11*
%TO.C,J5*%
X144924000Y-83554000D03*
X147464000Y-83554000D03*
X150004000Y-83554000D03*
X152544000Y-83554000D03*
%TD*%
D10*
%TO.C,H3*%
X126500000Y-79500000D03*
%TD*%
%TO.C,H1*%
X192000000Y-79500000D03*
%TD*%
D12*
%TO.C,SW3*%
X177662000Y-90464000D03*
D13*
X177662000Y-95464000D03*
X177662000Y-92964000D03*
D14*
X185162000Y-87364000D03*
X185162000Y-98564000D03*
D13*
X192162000Y-90464000D03*
X192162000Y-95464000D03*
%TD*%
D10*
%TO.C,H4*%
X126508000Y-108042000D03*
%TD*%
D15*
%TO.C,R3*%
X131887500Y-98044000D03*
X134812500Y-98044000D03*
%TD*%
D16*
%TO.C,J4*%
X142758000Y-105943000D03*
D17*
X145298000Y-105943000D03*
X147838000Y-105943000D03*
X150378000Y-105943000D03*
%TD*%
D18*
%TO.C,U1*%
X173998000Y-77494000D03*
X173998000Y-78764000D03*
X173998000Y-80034000D03*
X173998000Y-81304000D03*
X173998000Y-82574000D03*
X173998000Y-83844000D03*
X173998000Y-85114000D03*
X173998000Y-86384000D03*
X173998000Y-87654000D03*
X173998000Y-88924000D03*
X173998000Y-90194000D03*
X173998000Y-91464000D03*
X173998000Y-92734000D03*
X173998000Y-94004000D03*
D19*
X172233000Y-95254000D03*
X170963000Y-95254000D03*
X169693000Y-95254000D03*
X168423000Y-95254000D03*
X167153000Y-95254000D03*
X165883000Y-95254000D03*
X164613000Y-95254000D03*
X163343000Y-95254000D03*
X162073000Y-95254000D03*
X160803000Y-95254000D03*
X159533000Y-95254000D03*
X158263000Y-95254000D03*
D18*
X156498000Y-94004000D03*
X156498000Y-92734000D03*
X156498000Y-91464000D03*
X156498000Y-90194000D03*
X156498000Y-88924000D03*
X156498000Y-87654000D03*
X156498000Y-86384000D03*
X156498000Y-85114000D03*
X156498000Y-83844000D03*
X156498000Y-82574000D03*
X156498000Y-81304000D03*
X156498000Y-80034000D03*
X156498000Y-78764000D03*
X156498000Y-77494000D03*
D20*
X168148000Y-83814000D03*
X166748000Y-83814000D03*
X165348000Y-83814000D03*
X168148000Y-85214000D03*
X166748000Y-85214000D03*
X165348000Y-85214000D03*
X168148000Y-86614000D03*
X166748000Y-86614000D03*
X165348000Y-86614000D03*
%TD*%
D21*
%TO.C,U3*%
X168950000Y-108585000D03*
X168950000Y-107315000D03*
X168950000Y-106045000D03*
X168950000Y-104775000D03*
X168950000Y-103505000D03*
X168950000Y-102235000D03*
X168950000Y-100965000D03*
X168950000Y-99695000D03*
X173950000Y-99695000D03*
X173950000Y-100965000D03*
X173950000Y-102235000D03*
X173950000Y-103505000D03*
X173950000Y-104775000D03*
X173950000Y-106045000D03*
X173950000Y-107315000D03*
X173950000Y-108585000D03*
%TD*%
D22*
%TO.C,R9*%
X161544000Y-99629500D03*
X161544000Y-102554500D03*
%TD*%
D16*
%TO.C,J3*%
X145034000Y-79248000D03*
D17*
X147574000Y-79248000D03*
X150114000Y-79248000D03*
X152654000Y-79248000D03*
%TD*%
D23*
%TO.C,C9*%
X164338000Y-104443000D03*
X164338000Y-107393000D03*
%TD*%
D22*
%TO.C,R11*%
X150876000Y-86929500D03*
X150876000Y-89854500D03*
%TD*%
D24*
%TO.C,C8*%
X156464000Y-102567000D03*
X156464000Y-99617000D03*
%TD*%
D22*
%TO.C,R1*%
X135382000Y-102677500D03*
X135382000Y-105602500D03*
%TD*%
D23*
%TO.C,C5*%
X140970000Y-92251000D03*
X140970000Y-95201000D03*
%TD*%
D24*
%TO.C,C10*%
X164338000Y-102567000D03*
X164338000Y-99617000D03*
%TD*%
D25*
%TO.C,SW2*%
X124370000Y-85852000D03*
X132170000Y-85852000D03*
%TD*%
D23*
%TO.C,C7*%
X161544000Y-104443000D03*
X161544000Y-107393000D03*
%TD*%
D15*
%TO.C,R6*%
X131887500Y-92964000D03*
X134812500Y-92964000D03*
%TD*%
%TO.C,R5*%
X131887500Y-95504000D03*
X134812500Y-95504000D03*
%TD*%
%TO.C,R2*%
X131887500Y-90424000D03*
X134812500Y-90424000D03*
%TD*%
D26*
%TO.C,R8*%
X159004000Y-107380500D03*
X159004000Y-104455500D03*
%TD*%
D25*
%TO.C,SW1*%
X124370000Y-102362000D03*
X132170000Y-102362000D03*
%TD*%
D24*
%TO.C,C2*%
X138176000Y-105615000D03*
X138176000Y-102665000D03*
%TD*%
D16*
%TO.C,J6*%
X139187000Y-99060000D03*
D17*
X141727000Y-99060000D03*
%TD*%
D27*
%TO.C,R4*%
X148008500Y-98719000D03*
X145083500Y-98719000D03*
%TD*%
D22*
%TO.C,R12*%
X153416000Y-86929500D03*
X153416000Y-89854500D03*
%TD*%
D28*
%TO.C,D2*%
X138176000Y-95284000D03*
X138176000Y-93184000D03*
%TD*%
D22*
%TO.C,R7*%
X159004000Y-99629500D03*
X159004000Y-102554500D03*
%TD*%
D29*
%TO.C,U2*%
X148350000Y-94844000D03*
X146050000Y-94844000D03*
D30*
X146050000Y-88544000D03*
D29*
X143750000Y-94844000D03*
%TD*%
D31*
%TO.C,Q2*%
X154498000Y-104726500D03*
X156398000Y-104726500D03*
X155448000Y-106601500D03*
%TD*%
D32*
%TO.C,J1*%
X127934000Y-97234000D03*
D33*
X124834000Y-95634000D03*
X124834000Y-92834000D03*
D34*
X127934000Y-91234000D03*
D35*
X129034000Y-97334000D03*
X129034000Y-96584000D03*
D36*
X129034000Y-95984000D03*
X129034000Y-94484000D03*
X129034000Y-93484000D03*
X129034000Y-92484000D03*
D35*
X129034000Y-91884000D03*
X129034000Y-91134000D03*
X129034000Y-91134000D03*
X129034000Y-91884000D03*
D36*
X129034000Y-92984000D03*
X129034000Y-93984000D03*
X129034000Y-94984000D03*
X129034000Y-95484000D03*
D35*
X129034000Y-96584000D03*
X129034000Y-97334000D03*
D37*
X124834000Y-98554000D03*
D38*
X128659000Y-98554000D03*
D37*
X124834000Y-89914000D03*
D38*
X128659000Y-89914000D03*
%TD*%
D39*
%TO.C,C4*%
X180594000Y-78994000D03*
X177644000Y-78994000D03*
%TD*%
D16*
%TO.C,J2*%
X132852000Y-79248000D03*
D17*
X135392000Y-79248000D03*
X137932000Y-79248000D03*
X140472000Y-79248000D03*
%TD*%
D39*
%TO.C,C3*%
X180594000Y-82042000D03*
X177644000Y-82042000D03*
%TD*%
D40*
%TO.C,D1*%
X151559500Y-98806000D03*
X149684500Y-98806000D03*
%TD*%
D24*
%TO.C,C6*%
X151130000Y-95201000D03*
X151130000Y-92251000D03*
%TD*%
M02*
