%TF.GenerationSoftware,KiCad,Pcbnew,7.0.9-7.0.9~ubuntu22.04.1*%
%TF.CreationDate,2023-12-10T21:51:41+01:00*%
%TF.ProjectId,cat_scale,6361745f-7363-4616-9c65-2e6b69636164,rev?*%
%TF.SameCoordinates,Original*%
%TF.FileFunction,Copper,L1,Top*%
%TF.FilePolarity,Positive*%
%FSLAX46Y46*%
G04 Gerber Fmt 4.6, Leading zero omitted, Abs format (unit mm)*
G04 Created by KiCad (PCBNEW 7.0.9-7.0.9~ubuntu22.04.1) date 2023-12-10 21:51:41*
%MOMM*%
%LPD*%
G01*
G04 APERTURE LIST*
G04 Aperture macros list*
%AMRoundRect*
0 Rectangle with rounded corners*
0 $1 Rounding radius*
0 $2 $3 $4 $5 $6 $7 $8 $9 X,Y pos of 4 corners*
0 Add a 4 corners polygon primitive as box body*
4,1,4,$2,$3,$4,$5,$6,$7,$8,$9,$2,$3,0*
0 Add four circle primitives for the rounded corners*
1,1,$1+$1,$2,$3*
1,1,$1+$1,$4,$5*
1,1,$1+$1,$6,$7*
1,1,$1+$1,$8,$9*
0 Add four rect primitives between the rounded corners*
20,1,$1+$1,$2,$3,$4,$5,0*
20,1,$1+$1,$4,$5,$6,$7,0*
20,1,$1+$1,$6,$7,$8,$9,0*
20,1,$1+$1,$8,$9,$2,$3,0*%
G04 Aperture macros list end*
%TA.AperFunction,ComponentPad*%
%ADD10C,6.400000*%
%TD*%
%TA.AperFunction,ComponentPad*%
%ADD11O,1.600000X2.000000*%
%TD*%
%TA.AperFunction,SMDPad,CuDef*%
%ADD12R,3.400000X1.300000*%
%TD*%
%TA.AperFunction,SMDPad,CuDef*%
%ADD13RoundRect,0.250000X0.312500X0.625000X-0.312500X0.625000X-0.312500X-0.625000X0.312500X-0.625000X0*%
%TD*%
%TA.AperFunction,SMDPad,CuDef*%
%ADD14R,1.500000X0.900000*%
%TD*%
%TA.AperFunction,ComponentPad*%
%ADD15R,2.000000X2.000000*%
%TD*%
%TA.AperFunction,ComponentPad*%
%ADD16C,2.000000*%
%TD*%
%TA.AperFunction,ComponentPad*%
%ADD17R,3.000000X2.500000*%
%TD*%
%TA.AperFunction,SMDPad,CuDef*%
%ADD18RoundRect,0.250000X-0.325000X-0.650000X0.325000X-0.650000X0.325000X0.650000X-0.325000X0.650000X0*%
%TD*%
%TA.AperFunction,ComponentPad*%
%ADD19R,1.700000X1.700000*%
%TD*%
%TA.AperFunction,ComponentPad*%
%ADD20O,1.700000X1.700000*%
%TD*%
%TA.AperFunction,ComponentPad*%
%ADD21O,2.600000X1.300000*%
%TD*%
%TA.AperFunction,ComponentPad*%
%ADD22O,2.300000X1.300000*%
%TD*%
%TA.AperFunction,ViaPad*%
%ADD23C,0.800000*%
%TD*%
%TA.AperFunction,Conductor*%
%ADD24C,0.250000*%
%TD*%
%TA.AperFunction,Conductor*%
%ADD25C,0.500000*%
%TD*%
%TA.AperFunction,Conductor*%
%ADD26C,0.200000*%
%TD*%
G04 APERTURE END LIST*
D10*
%TO.P,H2,1,1*%
%TO.N,GND*%
X192000000Y-108000000D03*
%TD*%
D11*
%TO.P,J5,1,Pin_1*%
%TO.N,+5V*%
X144924000Y-83554000D03*
%TO.P,J5,2,Pin_2*%
%TO.N,GND*%
X147464000Y-83554000D03*
%TO.P,J5,3,Pin_3*%
%TO.N,/SCL*%
X150004000Y-83554000D03*
%TO.P,J5,4,Pin_4*%
%TO.N,/SDA*%
X152544000Y-83554000D03*
%TD*%
D10*
%TO.P,H3,1,1*%
%TO.N,GND*%
X126500000Y-79500000D03*
%TD*%
D12*
%TO.P,BZ1,1,-*%
%TO.N,/BUZZ*%
X148590000Y-97346000D03*
%TO.P,BZ1,2,+*%
%TO.N,GND*%
X148590000Y-88646000D03*
%TD*%
D13*
%TO.P,R10,1*%
%TO.N,Net-(D3-DIN)*%
X171896500Y-87884000D03*
%TO.P,R10,2*%
%TO.N,/LED_RGB*%
X168971500Y-87884000D03*
%TD*%
D14*
%TO.P,D3,1,VDD*%
%TO.N,+3V3*%
X166968000Y-90806000D03*
%TO.P,D3,2,DOUT*%
%TO.N,unconnected-(D3-DOUT-Pad2)*%
X166968000Y-94106000D03*
%TO.P,D3,3,VSS*%
%TO.N,GND*%
X171868000Y-94106000D03*
%TO.P,D3,4,DIN*%
%TO.N,Net-(D3-DIN)*%
X171868000Y-90806000D03*
%TD*%
D10*
%TO.P,H1,1,1*%
%TO.N,GND*%
X192000000Y-79500000D03*
%TD*%
D15*
%TO.P,SW3,A,A*%
%TO.N,/ROT0*%
X177662000Y-90464000D03*
D16*
%TO.P,SW3,B,B*%
%TO.N,/ROT1*%
X177662000Y-95464000D03*
%TO.P,SW3,C,C*%
%TO.N,GND*%
X177662000Y-92964000D03*
D17*
%TO.P,SW3,MP*%
%TO.N,N/C*%
X185162000Y-87364000D03*
X185162000Y-98564000D03*
D16*
%TO.P,SW3,S1,S1*%
%TO.N,/BTN0*%
X192162000Y-90464000D03*
%TO.P,SW3,S2,S2*%
%TO.N,GND*%
X192162000Y-95464000D03*
%TD*%
D18*
%TO.P,C11,1*%
%TO.N,+3V3*%
X168959000Y-97028000D03*
%TO.P,C11,2*%
%TO.N,GND*%
X171909000Y-97028000D03*
%TD*%
D10*
%TO.P,H4,1,1*%
%TO.N,GND*%
X126508000Y-108042000D03*
%TD*%
D19*
%TO.P,J4,1,Pin_1*%
%TO.N,/AVDD*%
X142758000Y-105943000D03*
D20*
%TO.P,J4,2,Pin_2*%
%TO.N,GND*%
X145298000Y-105943000D03*
%TO.P,J4,3,Pin_3*%
%TO.N,Net-(J4-Pin_3)*%
X147838000Y-105943000D03*
%TO.P,J4,4,Pin_4*%
%TO.N,/INA-*%
X150378000Y-105943000D03*
%TD*%
D19*
%TO.P,J3,1,Pin_1*%
%TO.N,+3V3*%
X145034000Y-79248000D03*
D20*
%TO.P,J3,2,Pin_2*%
%TO.N,GND*%
X147574000Y-79248000D03*
%TO.P,J3,3,Pin_3*%
%TO.N,/SCL*%
X150114000Y-79248000D03*
%TO.P,J3,4,Pin_4*%
%TO.N,/SDA*%
X152654000Y-79248000D03*
%TD*%
D19*
%TO.P,J6,1,Pin_1*%
%TO.N,+5V*%
X139187000Y-99060000D03*
D20*
%TO.P,J6,2,Pin_2*%
%TO.N,GND*%
X141727000Y-99060000D03*
%TD*%
D21*
%TO.P,J1,S1,SHIELD*%
%TO.N,GND*%
X124834000Y-98554000D03*
D22*
X128659000Y-98554000D03*
D21*
X124834000Y-89914000D03*
D22*
X128659000Y-89914000D03*
%TD*%
D19*
%TO.P,J2,1,Pin_1*%
%TO.N,+3V3*%
X132852000Y-79248000D03*
D20*
%TO.P,J2,2,Pin_2*%
%TO.N,/RXD0*%
X135392000Y-79248000D03*
%TO.P,J2,3,Pin_3*%
%TO.N,/TXD0*%
X137932000Y-79248000D03*
%TO.P,J2,4,Pin_4*%
%TO.N,GND*%
X140472000Y-79248000D03*
%TD*%
D23*
%TO.N,GND*%
X166624000Y-102362000D03*
X146558000Y-104140000D03*
X175768000Y-90170000D03*
X154432000Y-82804000D03*
X151384000Y-81280000D03*
X141224000Y-83058000D03*
X157734000Y-101092000D03*
X175768000Y-91186000D03*
%TO.N,/BOOT*%
X157988000Y-93904498D03*
X137668000Y-86106000D03*
%TO.N,/RST*%
X139954000Y-101600000D03*
X171450000Y-80010000D03*
%TO.N,+3V3*%
X145542000Y-86106000D03*
X171450000Y-107696000D03*
X177800000Y-84074000D03*
X153924000Y-91694000D03*
X171450000Y-78740000D03*
%TO.N,/AVDD*%
X153416000Y-105156000D03*
X154686000Y-102616000D03*
%TO.N,/INA-*%
X164084000Y-101346000D03*
%TO.N,Net-(D2-A)*%
X130066201Y-91712201D03*
X138176000Y-92202000D03*
%TO.N,/SDA*%
X153416000Y-86106000D03*
%TO.N,Net-(J4-Pin_3)*%
X160517388Y-103356545D03*
%TO.N,/USB_D-*%
X136398000Y-95504000D03*
X162052000Y-92710000D03*
%TO.N,/USB_D+*%
X160160378Y-93612378D03*
X136398000Y-92964000D03*
%TO.N,Net-(U3-VFB)*%
X166878000Y-105156000D03*
X159004000Y-104394000D03*
%TO.N,/LED_RGB*%
X172212000Y-83820000D03*
%TO.N,/BUZZ*%
X158242000Y-96774000D03*
%TD*%
D24*
%TO.N,/BOOT*%
X157912498Y-93980000D02*
X157988000Y-93904498D01*
X145542000Y-93980000D02*
X157912498Y-93980000D01*
X137668000Y-86106000D02*
X145542000Y-93980000D01*
%TO.N,/RST*%
X162777000Y-88683000D02*
X162777000Y-94017000D01*
X162777000Y-94017000D02*
X155194000Y-101600000D01*
X139954000Y-101600000D02*
X155194000Y-101600000D01*
X171450000Y-80010000D02*
X162777000Y-88683000D01*
D25*
%TO.N,+3V3*%
X143256000Y-85344000D02*
X142494000Y-84582000D01*
X145034000Y-80518000D02*
X145034000Y-79248000D01*
X166968000Y-90806000D02*
X166968000Y-87861918D01*
X145542000Y-86106000D02*
X145508233Y-86106000D01*
X144746233Y-85344000D02*
X143256000Y-85344000D01*
X142494000Y-84582000D02*
X142494000Y-83058000D01*
X142494000Y-83058000D02*
X140970000Y-81534000D01*
X168959000Y-92797000D02*
X168959000Y-97028000D01*
X168959000Y-97028000D02*
X168959000Y-105205000D01*
X172300000Y-79590000D02*
X171450000Y-78740000D01*
X153924000Y-91694000D02*
X166878000Y-78740000D01*
X135138000Y-81534000D02*
X132852000Y-79248000D01*
X166968000Y-87861918D02*
X172300000Y-82529918D01*
X168959000Y-105205000D02*
X171450000Y-107696000D01*
X166968000Y-90806000D02*
X168959000Y-92797000D01*
X145508233Y-86106000D02*
X144746233Y-85344000D01*
X172300000Y-82529918D02*
X172300000Y-79590000D01*
X166878000Y-78740000D02*
X171450000Y-78740000D01*
X142494000Y-83058000D02*
X145034000Y-80518000D01*
X140970000Y-81534000D02*
X135138000Y-81534000D01*
D24*
%TO.N,/AVDD*%
X154686000Y-102616000D02*
X153416000Y-103886000D01*
X153416000Y-103886000D02*
X153416000Y-105156000D01*
D26*
%TO.N,/INA-*%
X164084000Y-101346000D02*
X159766000Y-101346000D01*
X159766000Y-101346000D02*
X155169000Y-105943000D01*
X155169000Y-105943000D02*
X150378000Y-105943000D01*
D24*
%TO.N,Net-(D3-DIN)*%
X171896500Y-87884000D02*
X171868000Y-87912500D01*
X171868000Y-87912500D02*
X171868000Y-90806000D01*
D25*
%TO.N,Net-(D2-A)*%
X137686201Y-91712201D02*
X138176000Y-92202000D01*
X130066201Y-91712201D02*
X137686201Y-91712201D01*
D24*
%TO.N,/SDA*%
X153416000Y-86106000D02*
X152544000Y-85234000D01*
X152544000Y-85234000D02*
X152544000Y-83554000D01*
%TO.N,Net-(J4-Pin_3)*%
X159016150Y-103356545D02*
X154676695Y-107696000D01*
X154676695Y-107696000D02*
X149591000Y-107696000D01*
X149591000Y-107696000D02*
X147838000Y-105943000D01*
X160517388Y-103356545D02*
X159016150Y-103356545D01*
D26*
%TO.N,/USB_D-*%
X159258000Y-95504000D02*
X136398000Y-95504000D01*
X162052000Y-92710000D02*
X159258000Y-95504000D01*
%TO.N,/USB_D+*%
X159030756Y-94742000D02*
X160160378Y-93612378D01*
X138176000Y-94742000D02*
X136398000Y-92964000D01*
X159030756Y-94742000D02*
X138176000Y-94742000D01*
D24*
%TO.N,Net-(U3-VFB)*%
X166878000Y-105156000D02*
X159766000Y-105156000D01*
X159766000Y-105156000D02*
X159004000Y-104394000D01*
%TO.N,/LED_RGB*%
X168971500Y-87884000D02*
X168971500Y-87060500D01*
X168971500Y-87060500D02*
X172212000Y-83820000D01*
%TO.N,/BUZZ*%
X148590000Y-97346000D02*
X157670000Y-97346000D01*
X157670000Y-97346000D02*
X158242000Y-96774000D01*
%TD*%
%TA.AperFunction,Conductor*%
%TO.N,GND*%
G36*
X190257951Y-76025685D02*
G01*
X190303706Y-76078489D01*
X190313650Y-76147647D01*
X190284625Y-76211203D01*
X190247207Y-76240485D01*
X190147456Y-76291310D01*
X189822206Y-76502531D01*
X189564648Y-76711095D01*
X189564648Y-76711096D01*
X191055819Y-78202266D01*
X190865130Y-78365130D01*
X190702266Y-78555818D01*
X189211096Y-77064648D01*
X189211095Y-77064648D01*
X189002531Y-77322206D01*
X188791310Y-77647456D01*
X188615244Y-77993005D01*
X188476262Y-78355063D01*
X188375887Y-78729669D01*
X188375886Y-78729676D01*
X188315219Y-79112712D01*
X188294922Y-79499999D01*
X188294922Y-79500000D01*
X188315219Y-79887287D01*
X188375886Y-80270323D01*
X188375887Y-80270330D01*
X188476262Y-80644936D01*
X188615244Y-81006994D01*
X188791310Y-81352543D01*
X189002531Y-81677793D01*
X189211095Y-81935350D01*
X189211096Y-81935350D01*
X190702266Y-80444180D01*
X190865130Y-80634870D01*
X191055819Y-80797733D01*
X189564648Y-82288903D01*
X189564649Y-82288904D01*
X189822206Y-82497468D01*
X190147456Y-82708689D01*
X190493005Y-82884755D01*
X190855063Y-83023737D01*
X191229669Y-83124112D01*
X191229676Y-83124113D01*
X191612712Y-83184780D01*
X191999999Y-83205078D01*
X192000001Y-83205078D01*
X192387287Y-83184780D01*
X192770323Y-83124113D01*
X192770330Y-83124112D01*
X193144936Y-83023737D01*
X193506994Y-82884755D01*
X193852543Y-82708689D01*
X194177783Y-82497476D01*
X194177785Y-82497475D01*
X194435349Y-82288902D01*
X192944180Y-80797733D01*
X193134870Y-80634870D01*
X193297733Y-80444180D01*
X194788902Y-81935349D01*
X194997475Y-81677785D01*
X194997476Y-81677783D01*
X195208691Y-81352541D01*
X195208692Y-81352538D01*
X195265015Y-81241999D01*
X195312989Y-81191202D01*
X195380810Y-81174407D01*
X195446945Y-81196944D01*
X195490397Y-81251659D01*
X195499500Y-81298293D01*
X195499500Y-106201706D01*
X195479815Y-106268745D01*
X195427011Y-106314500D01*
X195357853Y-106324444D01*
X195294297Y-106295419D01*
X195265015Y-106258001D01*
X195208689Y-106147456D01*
X194997468Y-105822206D01*
X194788904Y-105564649D01*
X194788903Y-105564648D01*
X193297733Y-107055818D01*
X193134870Y-106865130D01*
X192944180Y-106702266D01*
X194435350Y-105211096D01*
X194435350Y-105211095D01*
X194177793Y-105002531D01*
X193852543Y-104791310D01*
X193506994Y-104615244D01*
X193144936Y-104476262D01*
X192770330Y-104375887D01*
X192770323Y-104375886D01*
X192387287Y-104315219D01*
X192000001Y-104294922D01*
X191999999Y-104294922D01*
X191612712Y-104315219D01*
X191229676Y-104375886D01*
X191229669Y-104375887D01*
X190855063Y-104476262D01*
X190493005Y-104615244D01*
X190147456Y-104791310D01*
X189822206Y-105002531D01*
X189564648Y-105211095D01*
X189564648Y-105211096D01*
X191055819Y-106702266D01*
X190865130Y-106865130D01*
X190702266Y-107055818D01*
X189211096Y-105564648D01*
X189211095Y-105564648D01*
X189002531Y-105822206D01*
X188791310Y-106147456D01*
X188615244Y-106493005D01*
X188476262Y-106855063D01*
X188375887Y-107229669D01*
X188375886Y-107229676D01*
X188315219Y-107612712D01*
X188294922Y-107999999D01*
X188294922Y-108000000D01*
X188315219Y-108387287D01*
X188375886Y-108770323D01*
X188375887Y-108770330D01*
X188476262Y-109144936D01*
X188615244Y-109506994D01*
X188791310Y-109852543D01*
X189002531Y-110177793D01*
X189211095Y-110435350D01*
X189211096Y-110435350D01*
X190702266Y-108944180D01*
X190865130Y-109134870D01*
X191055819Y-109297733D01*
X189564648Y-110788903D01*
X189564649Y-110788904D01*
X189822206Y-110997468D01*
X190147456Y-111208689D01*
X190258001Y-111265015D01*
X190308797Y-111312990D01*
X190325592Y-111380811D01*
X190303055Y-111446945D01*
X190248340Y-111490397D01*
X190201706Y-111499500D01*
X128388724Y-111499500D01*
X128321685Y-111479815D01*
X128275930Y-111427011D01*
X128265986Y-111357853D01*
X128295011Y-111294297D01*
X128332429Y-111265015D01*
X128360543Y-111250689D01*
X128685783Y-111039476D01*
X128685785Y-111039475D01*
X128943349Y-110830902D01*
X127452180Y-109339733D01*
X127642870Y-109176870D01*
X127805733Y-108986180D01*
X129296902Y-110477349D01*
X129505475Y-110219785D01*
X129505476Y-110219783D01*
X129716689Y-109894543D01*
X129892755Y-109548994D01*
X130031737Y-109186936D01*
X130132112Y-108812330D01*
X130132113Y-108812323D01*
X130192780Y-108429287D01*
X130213078Y-108042000D01*
X130213078Y-108041999D01*
X130192780Y-107654712D01*
X130132113Y-107271676D01*
X130132112Y-107271669D01*
X130031737Y-106897063D01*
X129892755Y-106535005D01*
X129716689Y-106189456D01*
X129505468Y-105864206D01*
X129296904Y-105606649D01*
X129296903Y-105606648D01*
X127805732Y-107097818D01*
X127642870Y-106907130D01*
X127452180Y-106744266D01*
X128943350Y-105253096D01*
X128943350Y-105253095D01*
X128685793Y-105044531D01*
X128360543Y-104833310D01*
X128014994Y-104657244D01*
X127652936Y-104518262D01*
X127278330Y-104417887D01*
X127278323Y-104417886D01*
X126895287Y-104357219D01*
X126508001Y-104336922D01*
X126507999Y-104336922D01*
X126120712Y-104357219D01*
X125737676Y-104417886D01*
X125737669Y-104417887D01*
X125363063Y-104518262D01*
X125001005Y-104657244D01*
X124655456Y-104833310D01*
X124330206Y-105044531D01*
X124072648Y-105253095D01*
X124072648Y-105253096D01*
X125563819Y-106744266D01*
X125373130Y-106907130D01*
X125210266Y-107097819D01*
X123719096Y-105606648D01*
X123719095Y-105606648D01*
X123510531Y-105864206D01*
X123299310Y-106189456D01*
X123258485Y-106269580D01*
X123210510Y-106320376D01*
X123142689Y-106337171D01*
X123076554Y-106314633D01*
X123033103Y-106259918D01*
X123024000Y-106213285D01*
X123024000Y-99957870D01*
X137836500Y-99957870D01*
X137836501Y-99957876D01*
X137842908Y-100017483D01*
X137893202Y-100152328D01*
X137893206Y-100152335D01*
X137979452Y-100267544D01*
X137979455Y-100267547D01*
X138094664Y-100353793D01*
X138094671Y-100353797D01*
X138229517Y-100404091D01*
X138229516Y-100404091D01*
X138236444Y-100404835D01*
X138289127Y-100410500D01*
X140084872Y-100410499D01*
X140144483Y-100404091D01*
X140279331Y-100353796D01*
X140394546Y-100267546D01*
X140480796Y-100152331D01*
X140530002Y-100020401D01*
X140571872Y-99964468D01*
X140637337Y-99940050D01*
X140705610Y-99954901D01*
X140733865Y-99976053D01*
X140855917Y-100098105D01*
X141049421Y-100233600D01*
X141263507Y-100333429D01*
X141263516Y-100333433D01*
X141477000Y-100390634D01*
X141477000Y-99495501D01*
X141584685Y-99544680D01*
X141691237Y-99560000D01*
X141762763Y-99560000D01*
X141869315Y-99544680D01*
X141977000Y-99495501D01*
X141977000Y-100390633D01*
X142190483Y-100333433D01*
X142190492Y-100333429D01*
X142404578Y-100233600D01*
X142598082Y-100098105D01*
X142765105Y-99931082D01*
X142900600Y-99737578D01*
X143000429Y-99523492D01*
X143000432Y-99523486D01*
X143057636Y-99310000D01*
X142160686Y-99310000D01*
X142186493Y-99269844D01*
X142227000Y-99131889D01*
X142227000Y-98988111D01*
X142186493Y-98850156D01*
X142160686Y-98810000D01*
X143057636Y-98810000D01*
X143057635Y-98809999D01*
X143000432Y-98596513D01*
X143000429Y-98596507D01*
X142900600Y-98382422D01*
X142900599Y-98382420D01*
X142765113Y-98188926D01*
X142765108Y-98188920D01*
X142598082Y-98021894D01*
X142404578Y-97886399D01*
X142190492Y-97786570D01*
X142190486Y-97786567D01*
X141977000Y-97729364D01*
X141977000Y-98624498D01*
X141869315Y-98575320D01*
X141762763Y-98560000D01*
X141691237Y-98560000D01*
X141584685Y-98575320D01*
X141477000Y-98624498D01*
X141477000Y-97729364D01*
X141476999Y-97729364D01*
X141263513Y-97786567D01*
X141263507Y-97786570D01*
X141049422Y-97886399D01*
X141049420Y-97886400D01*
X140855926Y-98021886D01*
X140733865Y-98143947D01*
X140672542Y-98177431D01*
X140602850Y-98172447D01*
X140546917Y-98130575D01*
X140530002Y-98099598D01*
X140480797Y-97967671D01*
X140480793Y-97967664D01*
X140394547Y-97852455D01*
X140394544Y-97852452D01*
X140279335Y-97766206D01*
X140279328Y-97766202D01*
X140144482Y-97715908D01*
X140144483Y-97715908D01*
X140084883Y-97709501D01*
X140084881Y-97709500D01*
X140084873Y-97709500D01*
X140084864Y-97709500D01*
X138289129Y-97709500D01*
X138289123Y-97709501D01*
X138229516Y-97715908D01*
X138094671Y-97766202D01*
X138094664Y-97766206D01*
X137979455Y-97852452D01*
X137979452Y-97852455D01*
X137893206Y-97967664D01*
X137893202Y-97967671D01*
X137842908Y-98102517D01*
X137836501Y-98162116D01*
X137836500Y-98162135D01*
X137836500Y-99957870D01*
X123024000Y-99957870D01*
X123024000Y-99300868D01*
X123043685Y-99233829D01*
X123096489Y-99188074D01*
X123165647Y-99178130D01*
X123229203Y-99207155D01*
X123253428Y-99235592D01*
X123262348Y-99250000D01*
X123405928Y-99407499D01*
X123576010Y-99535940D01*
X123766783Y-99630933D01*
X123766803Y-99630941D01*
X123971780Y-99689261D01*
X123971783Y-99689262D01*
X124130833Y-99704000D01*
X124584000Y-99704000D01*
X124584000Y-98854000D01*
X125084000Y-98854000D01*
X125084000Y-99704000D01*
X125537167Y-99704000D01*
X125696216Y-99689262D01*
X125696219Y-99689261D01*
X125901196Y-99630941D01*
X125901216Y-99630933D01*
X126091989Y-99535940D01*
X126262071Y-99407499D01*
X126405651Y-99249999D01*
X126405653Y-99249997D01*
X126517846Y-99068798D01*
X126517850Y-99068789D01*
X126594836Y-98870063D01*
X126594837Y-98870058D01*
X126607187Y-98804000D01*
X127035813Y-98804000D01*
X127048162Y-98870058D01*
X127048163Y-98870063D01*
X127125149Y-99068789D01*
X127125153Y-99068798D01*
X127237346Y-99249997D01*
X127237348Y-99249999D01*
X127380928Y-99407499D01*
X127551010Y-99535940D01*
X127741783Y-99630933D01*
X127741803Y-99630941D01*
X127946780Y-99689261D01*
X127946783Y-99689262D01*
X128105833Y-99704000D01*
X128409000Y-99704000D01*
X128409000Y-98854000D01*
X128909000Y-98854000D01*
X128909000Y-99704000D01*
X129212167Y-99704000D01*
X129371216Y-99689262D01*
X129371219Y-99689261D01*
X129576196Y-99630941D01*
X129576216Y-99630933D01*
X129766989Y-99535940D01*
X129937071Y-99407499D01*
X130080651Y-99249999D01*
X130080653Y-99249997D01*
X130192846Y-99068798D01*
X130192850Y-99068789D01*
X130269836Y-98870063D01*
X130269837Y-98870058D01*
X130282187Y-98804000D01*
X129325111Y-98804000D01*
X129364610Y-98779543D01*
X129432201Y-98690038D01*
X129462895Y-98582160D01*
X129452546Y-98470479D01*
X129402552Y-98370078D01*
X129330069Y-98304000D01*
X130282187Y-98304000D01*
X130269837Y-98237941D01*
X130269836Y-98237936D01*
X130192850Y-98039210D01*
X130192846Y-98039201D01*
X130080653Y-97858002D01*
X130080651Y-97858000D01*
X129937071Y-97700500D01*
X129766989Y-97572059D01*
X129576216Y-97477066D01*
X129576196Y-97477058D01*
X129371219Y-97418738D01*
X129371216Y-97418737D01*
X129212167Y-97404000D01*
X128909000Y-97404000D01*
X128909000Y-98254000D01*
X128409000Y-98254000D01*
X128409000Y-97555036D01*
X128425658Y-97498305D01*
X128423476Y-97497175D01*
X128427374Y-97489649D01*
X128427377Y-97489647D01*
X128434255Y-97470293D01*
X128478053Y-97347060D01*
X128478053Y-97347058D01*
X128478054Y-97347056D01*
X128488381Y-97196079D01*
X128472768Y-97120944D01*
X128457594Y-97047921D01*
X128457592Y-97047918D01*
X128457592Y-97047915D01*
X128387971Y-96913553D01*
X128387967Y-96913549D01*
X128387967Y-96913548D01*
X128284681Y-96802956D01*
X128206053Y-96755141D01*
X128155382Y-96724328D01*
X128009665Y-96683500D01*
X127896342Y-96683500D01*
X127896341Y-96683500D01*
X127784082Y-96698929D01*
X127784079Y-96698930D01*
X127645283Y-96759217D01*
X127527889Y-96854724D01*
X127440623Y-96978352D01*
X127440621Y-96978355D01*
X127389946Y-97120939D01*
X127389946Y-97120942D01*
X127379619Y-97271918D01*
X127379619Y-97271921D01*
X127410405Y-97420078D01*
X127410407Y-97420083D01*
X127410408Y-97420085D01*
X127458400Y-97512705D01*
X127471765Y-97581285D01*
X127445931Y-97646203D01*
X127423030Y-97668706D01*
X127380930Y-97700499D01*
X127380929Y-97700499D01*
X127237348Y-97858000D01*
X127237346Y-97858002D01*
X127125153Y-98039201D01*
X127125149Y-98039210D01*
X127048163Y-98237936D01*
X127048162Y-98237941D01*
X127035813Y-98304000D01*
X127992889Y-98304000D01*
X127953390Y-98328457D01*
X127885799Y-98417962D01*
X127855105Y-98525840D01*
X127865454Y-98637521D01*
X127915448Y-98737922D01*
X127987931Y-98804000D01*
X127035813Y-98804000D01*
X126607187Y-98804000D01*
X125650111Y-98804000D01*
X125689610Y-98779543D01*
X125757201Y-98690038D01*
X125787895Y-98582160D01*
X125777546Y-98470479D01*
X125727552Y-98370078D01*
X125655069Y-98304000D01*
X126607187Y-98304000D01*
X126594837Y-98237941D01*
X126594836Y-98237936D01*
X126517850Y-98039210D01*
X126517846Y-98039201D01*
X126405653Y-97858002D01*
X126405651Y-97858000D01*
X126262071Y-97700500D01*
X126091989Y-97572059D01*
X125901216Y-97477066D01*
X125901196Y-97477058D01*
X125696219Y-97418738D01*
X125696216Y-97418737D01*
X125537167Y-97404000D01*
X125084000Y-97404000D01*
X125084000Y-98254000D01*
X124584000Y-98254000D01*
X124584000Y-97404000D01*
X124130833Y-97404000D01*
X123971783Y-97418737D01*
X123971780Y-97418738D01*
X123766803Y-97477058D01*
X123766783Y-97477066D01*
X123576010Y-97572059D01*
X123405928Y-97700500D01*
X123262349Y-97857999D01*
X123253427Y-97872409D01*
X123201399Y-97919044D01*
X123132417Y-97930148D01*
X123068383Y-97902195D01*
X123029626Y-97844059D01*
X123024000Y-97807131D01*
X123024000Y-90660868D01*
X123043685Y-90593829D01*
X123096489Y-90548074D01*
X123165647Y-90538130D01*
X123229203Y-90567155D01*
X123253428Y-90595592D01*
X123262348Y-90610000D01*
X123405928Y-90767499D01*
X123576010Y-90895940D01*
X123766783Y-90990933D01*
X123766803Y-90990941D01*
X123971780Y-91049261D01*
X123971783Y-91049262D01*
X124130833Y-91064000D01*
X124584000Y-91064000D01*
X124584000Y-90214000D01*
X125084000Y-90214000D01*
X125084000Y-91064000D01*
X125537167Y-91064000D01*
X125696216Y-91049262D01*
X125696219Y-91049261D01*
X125901196Y-90990941D01*
X125901216Y-90990933D01*
X126091989Y-90895940D01*
X126262071Y-90767499D01*
X126405651Y-90609999D01*
X126405653Y-90609997D01*
X126517846Y-90428798D01*
X126517850Y-90428789D01*
X126594836Y-90230063D01*
X126594837Y-90230058D01*
X126607187Y-90164000D01*
X127035813Y-90164000D01*
X127048162Y-90230058D01*
X127048163Y-90230063D01*
X127125149Y-90428789D01*
X127125153Y-90428798D01*
X127237346Y-90609997D01*
X127237348Y-90609999D01*
X127380929Y-90767500D01*
X127385166Y-90771362D01*
X127383466Y-90773226D01*
X127418670Y-90820667D01*
X127423361Y-90890379D01*
X127421712Y-90896951D01*
X127383500Y-91033335D01*
X127383500Y-91033336D01*
X127383500Y-91396658D01*
X127398929Y-91508917D01*
X127398930Y-91508920D01*
X127459217Y-91647716D01*
X127459219Y-91647719D01*
X127459220Y-91647720D01*
X127547717Y-91756498D01*
X127554724Y-91765110D01*
X127619071Y-91810531D01*
X127673366Y-91848857D01*
X127678352Y-91852376D01*
X127678355Y-91852378D01*
X127763375Y-91882594D01*
X127820944Y-91903054D01*
X127971921Y-91913381D01*
X128021622Y-91903053D01*
X128120078Y-91882594D01*
X128120079Y-91882593D01*
X128120085Y-91882592D01*
X128254447Y-91812971D01*
X128365044Y-91709680D01*
X128443672Y-91580382D01*
X128484500Y-91434665D01*
X128484500Y-91071342D01*
X128484190Y-91069090D01*
X128469315Y-90960862D01*
X128469070Y-90959080D01*
X128422149Y-90851058D01*
X128419266Y-90844420D01*
X128409000Y-90795018D01*
X128409000Y-90214000D01*
X128909000Y-90214000D01*
X128909000Y-91064000D01*
X129185858Y-91064000D01*
X129252897Y-91083685D01*
X129298652Y-91136489D01*
X129308596Y-91205647D01*
X129293245Y-91250000D01*
X129239022Y-91343916D01*
X129239019Y-91343923D01*
X129184449Y-91511873D01*
X129180527Y-91523945D01*
X129160741Y-91712201D01*
X129180527Y-91900457D01*
X129181371Y-91903054D01*
X129239019Y-92080478D01*
X129239022Y-92080485D01*
X129333668Y-92244417D01*
X129421276Y-92341715D01*
X129460330Y-92385089D01*
X129613466Y-92496349D01*
X129613471Y-92496352D01*
X129786393Y-92573343D01*
X129786398Y-92573345D01*
X129971555Y-92612701D01*
X129971556Y-92612701D01*
X130160845Y-92612701D01*
X130160847Y-92612701D01*
X130346004Y-92573345D01*
X130518931Y-92496352D01*
X130520977Y-92494865D01*
X130532653Y-92486383D01*
X130598459Y-92462903D01*
X130605538Y-92462701D01*
X135443369Y-92462701D01*
X135510408Y-92482386D01*
X135556163Y-92535190D01*
X135566107Y-92604348D01*
X135561300Y-92625017D01*
X135558641Y-92633202D01*
X135517157Y-92760877D01*
X135512326Y-92775744D01*
X135492540Y-92964000D01*
X135512326Y-93152256D01*
X135512327Y-93152259D01*
X135570818Y-93332277D01*
X135570821Y-93332284D01*
X135665467Y-93496216D01*
X135766240Y-93608135D01*
X135792129Y-93636888D01*
X135945265Y-93748148D01*
X135945270Y-93748151D01*
X136118192Y-93825142D01*
X136118197Y-93825144D01*
X136303354Y-93864500D01*
X136397903Y-93864500D01*
X136464942Y-93884185D01*
X136485584Y-93900819D01*
X137276584Y-94691819D01*
X137310069Y-94753142D01*
X137305085Y-94822834D01*
X137263213Y-94878767D01*
X137197749Y-94903184D01*
X137188903Y-94903500D01*
X137124258Y-94903500D01*
X137057219Y-94883815D01*
X137032109Y-94862473D01*
X137003871Y-94831112D01*
X137003864Y-94831106D01*
X136850734Y-94719851D01*
X136850729Y-94719848D01*
X136677807Y-94642857D01*
X136677802Y-94642855D01*
X136532001Y-94611865D01*
X136492646Y-94603500D01*
X136303354Y-94603500D01*
X136270897Y-94610398D01*
X136118197Y-94642855D01*
X136118192Y-94642857D01*
X135945270Y-94719848D01*
X135945265Y-94719851D01*
X135792129Y-94831111D01*
X135665466Y-94971785D01*
X135570821Y-95135715D01*
X135570818Y-95135722D01*
X135544647Y-95216270D01*
X135512326Y-95315744D01*
X135492540Y-95504000D01*
X135512326Y-95692256D01*
X135512327Y-95692259D01*
X135570818Y-95872277D01*
X135570821Y-95872284D01*
X135665467Y-96036216D01*
X135773837Y-96156573D01*
X135792129Y-96176888D01*
X135945265Y-96288148D01*
X135945270Y-96288151D01*
X136118192Y-96365142D01*
X136118197Y-96365144D01*
X136303354Y-96404500D01*
X136303355Y-96404500D01*
X136492644Y-96404500D01*
X136492646Y-96404500D01*
X136677803Y-96365144D01*
X136850730Y-96288151D01*
X137003871Y-96176888D01*
X137032109Y-96145527D01*
X137091595Y-96108879D01*
X137124258Y-96104500D01*
X146472420Y-96104500D01*
X146539459Y-96124185D01*
X146585214Y-96176989D01*
X146595158Y-96246147D01*
X146566133Y-96309703D01*
X146546735Y-96327763D01*
X146535911Y-96335865D01*
X146532451Y-96338456D01*
X146446206Y-96453664D01*
X146446202Y-96453671D01*
X146395908Y-96588517D01*
X146389501Y-96648116D01*
X146389500Y-96648135D01*
X146389500Y-98043870D01*
X146389501Y-98043876D01*
X146395908Y-98103483D01*
X146446202Y-98238328D01*
X146446206Y-98238335D01*
X146532452Y-98353544D01*
X146532455Y-98353547D01*
X146647664Y-98439793D01*
X146647671Y-98439797D01*
X146782517Y-98490091D01*
X146782516Y-98490091D01*
X146789444Y-98490835D01*
X146842127Y-98496500D01*
X150337872Y-98496499D01*
X150397483Y-98490091D01*
X150532331Y-98439796D01*
X150647546Y-98353546D01*
X150733796Y-98238331D01*
X150784091Y-98103483D01*
X150786375Y-98082243D01*
X150813114Y-98017692D01*
X150870507Y-97977845D01*
X150909664Y-97971500D01*
X157587257Y-97971500D01*
X157602877Y-97973224D01*
X157602904Y-97972939D01*
X157610661Y-97973671D01*
X157610667Y-97973673D01*
X157633249Y-97972963D01*
X157700873Y-97990532D01*
X157748264Y-98041872D01*
X157760376Y-98110684D01*
X157733362Y-98175120D01*
X157724825Y-98184583D01*
X154971228Y-100938181D01*
X154909905Y-100971666D01*
X154883547Y-100974500D01*
X140657748Y-100974500D01*
X140590709Y-100954815D01*
X140565600Y-100933474D01*
X140559873Y-100927114D01*
X140559869Y-100927110D01*
X140406734Y-100815851D01*
X140406729Y-100815848D01*
X140233807Y-100738857D01*
X140233802Y-100738855D01*
X140072042Y-100704473D01*
X140048646Y-100699500D01*
X139859354Y-100699500D01*
X139835958Y-100704473D01*
X139674197Y-100738855D01*
X139674192Y-100738857D01*
X139501270Y-100815848D01*
X139501265Y-100815851D01*
X139348129Y-100927111D01*
X139221466Y-101067785D01*
X139126821Y-101231715D01*
X139126818Y-101231722D01*
X139068327Y-101411740D01*
X139068326Y-101411744D01*
X139048540Y-101600000D01*
X139068326Y-101788256D01*
X139068327Y-101788259D01*
X139126818Y-101968277D01*
X139126821Y-101968284D01*
X139221467Y-102132216D01*
X139342401Y-102266526D01*
X139348129Y-102272888D01*
X139501265Y-102384148D01*
X139501270Y-102384151D01*
X139674192Y-102461142D01*
X139674197Y-102461144D01*
X139859354Y-102500500D01*
X139859355Y-102500500D01*
X140048644Y-102500500D01*
X140048646Y-102500500D01*
X140233803Y-102461144D01*
X140406730Y-102384151D01*
X140559871Y-102272888D01*
X140562788Y-102269647D01*
X140565600Y-102266526D01*
X140625087Y-102229879D01*
X140657748Y-102225500D01*
X153695368Y-102225500D01*
X153762407Y-102245185D01*
X153808162Y-102297989D01*
X153818106Y-102367147D01*
X153813300Y-102387813D01*
X153800326Y-102427744D01*
X153790697Y-102519364D01*
X153782679Y-102595649D01*
X153756094Y-102660263D01*
X153747039Y-102670368D01*
X153032208Y-103385199D01*
X153019951Y-103395020D01*
X153020134Y-103395241D01*
X153014123Y-103400213D01*
X152966772Y-103450636D01*
X152945889Y-103471519D01*
X152945877Y-103471532D01*
X152941621Y-103477017D01*
X152937837Y-103481447D01*
X152905937Y-103515418D01*
X152905936Y-103515420D01*
X152896284Y-103532976D01*
X152885610Y-103549226D01*
X152873329Y-103565061D01*
X152873324Y-103565068D01*
X152854815Y-103607838D01*
X152852245Y-103613084D01*
X152829803Y-103653906D01*
X152824822Y-103673307D01*
X152818521Y-103691710D01*
X152810562Y-103710102D01*
X152810561Y-103710105D01*
X152803271Y-103756127D01*
X152802087Y-103761846D01*
X152790501Y-103806972D01*
X152790500Y-103806982D01*
X152790500Y-103827016D01*
X152788973Y-103846415D01*
X152785840Y-103866194D01*
X152785840Y-103866195D01*
X152790225Y-103912583D01*
X152790500Y-103918421D01*
X152790500Y-104457312D01*
X152770815Y-104524351D01*
X152758650Y-104540284D01*
X152683466Y-104623784D01*
X152588821Y-104787715D01*
X152588818Y-104787722D01*
X152530327Y-104967740D01*
X152530326Y-104967744D01*
X152510540Y-105156000D01*
X152513380Y-105183025D01*
X152515747Y-105205539D01*
X152503177Y-105274268D01*
X152455445Y-105325292D01*
X152392426Y-105342500D01*
X151667091Y-105342500D01*
X151600052Y-105322815D01*
X151554711Y-105270909D01*
X151552037Y-105265175D01*
X151552034Y-105265170D01*
X151546729Y-105257594D01*
X151475593Y-105156000D01*
X151416494Y-105071597D01*
X151249402Y-104904506D01*
X151249395Y-104904501D01*
X151055834Y-104768967D01*
X151055830Y-104768965D01*
X151055828Y-104768964D01*
X150841663Y-104669097D01*
X150841659Y-104669096D01*
X150841655Y-104669094D01*
X150613413Y-104607938D01*
X150613403Y-104607936D01*
X150378001Y-104587341D01*
X150377999Y-104587341D01*
X150142596Y-104607936D01*
X150142586Y-104607938D01*
X149914344Y-104669094D01*
X149914335Y-104669098D01*
X149700171Y-104768964D01*
X149700169Y-104768965D01*
X149506597Y-104904505D01*
X149339505Y-105071597D01*
X149209575Y-105257158D01*
X149154998Y-105300783D01*
X149085500Y-105307977D01*
X149023145Y-105276454D01*
X149006425Y-105257158D01*
X148876494Y-105071597D01*
X148709402Y-104904506D01*
X148709395Y-104904501D01*
X148515834Y-104768967D01*
X148515830Y-104768965D01*
X148515828Y-104768964D01*
X148301663Y-104669097D01*
X148301659Y-104669096D01*
X148301655Y-104669094D01*
X148073413Y-104607938D01*
X148073403Y-104607936D01*
X147838001Y-104587341D01*
X147837999Y-104587341D01*
X147602596Y-104607936D01*
X147602586Y-104607938D01*
X147374344Y-104669094D01*
X147374335Y-104669098D01*
X147160171Y-104768964D01*
X147160169Y-104768965D01*
X146966597Y-104904505D01*
X146799508Y-105071594D01*
X146669269Y-105257595D01*
X146614692Y-105301219D01*
X146545193Y-105308412D01*
X146482839Y-105276890D01*
X146466119Y-105257594D01*
X146336113Y-105071926D01*
X146336108Y-105071920D01*
X146169082Y-104904894D01*
X145975578Y-104769399D01*
X145761492Y-104669570D01*
X145761486Y-104669567D01*
X145548000Y-104612364D01*
X145548000Y-105507498D01*
X145440315Y-105458320D01*
X145333763Y-105443000D01*
X145262237Y-105443000D01*
X145155685Y-105458320D01*
X145048000Y-105507498D01*
X145048000Y-104612364D01*
X145047999Y-104612364D01*
X144834513Y-104669567D01*
X144834507Y-104669570D01*
X144620422Y-104769399D01*
X144620420Y-104769400D01*
X144426926Y-104904886D01*
X144304865Y-105026947D01*
X144243542Y-105060431D01*
X144173850Y-105055447D01*
X144117917Y-105013575D01*
X144101002Y-104982598D01*
X144095460Y-104967740D01*
X144051796Y-104850669D01*
X144051795Y-104850668D01*
X144051793Y-104850664D01*
X143965547Y-104735455D01*
X143965544Y-104735452D01*
X143850335Y-104649206D01*
X143850328Y-104649202D01*
X143715482Y-104598908D01*
X143715483Y-104598908D01*
X143655883Y-104592501D01*
X143655881Y-104592500D01*
X143655873Y-104592500D01*
X143655864Y-104592500D01*
X141860129Y-104592500D01*
X141860123Y-104592501D01*
X141800516Y-104598908D01*
X141665671Y-104649202D01*
X141665664Y-104649206D01*
X141550455Y-104735452D01*
X141550452Y-104735455D01*
X141464206Y-104850664D01*
X141464202Y-104850671D01*
X141413908Y-104985517D01*
X141407501Y-105045116D01*
X141407500Y-105045135D01*
X141407500Y-106840870D01*
X141407501Y-106840876D01*
X141413908Y-106900483D01*
X141464202Y-107035328D01*
X141464206Y-107035335D01*
X141550452Y-107150544D01*
X141550455Y-107150547D01*
X141665664Y-107236793D01*
X141665671Y-107236797D01*
X141800517Y-107287091D01*
X141800516Y-107287091D01*
X141807444Y-107287835D01*
X141860127Y-107293500D01*
X143655872Y-107293499D01*
X143715483Y-107287091D01*
X143850331Y-107236796D01*
X143965546Y-107150546D01*
X144051796Y-107035331D01*
X144101002Y-106903401D01*
X144142872Y-106847468D01*
X144208337Y-106823050D01*
X144276610Y-106837901D01*
X144304865Y-106859053D01*
X144426917Y-106981105D01*
X144620421Y-107116600D01*
X144834507Y-107216429D01*
X144834516Y-107216433D01*
X145048000Y-107273634D01*
X145048000Y-106378501D01*
X145155685Y-106427680D01*
X145262237Y-106443000D01*
X145333763Y-106443000D01*
X145440315Y-106427680D01*
X145548000Y-106378501D01*
X145548000Y-107273633D01*
X145761483Y-107216433D01*
X145761492Y-107216429D01*
X145975578Y-107116600D01*
X146169082Y-106981105D01*
X146336105Y-106814082D01*
X146466119Y-106628405D01*
X146520696Y-106584781D01*
X146590195Y-106577588D01*
X146652549Y-106609110D01*
X146669269Y-106628405D01*
X146799505Y-106814401D01*
X146966599Y-106981495D01*
X147063384Y-107049265D01*
X147160165Y-107117032D01*
X147160167Y-107117033D01*
X147160170Y-107117035D01*
X147374337Y-107216903D01*
X147602592Y-107278063D01*
X147779034Y-107293500D01*
X147837999Y-107298659D01*
X147838000Y-107298659D01*
X147838001Y-107298659D01*
X147896966Y-107293500D01*
X148073408Y-107278063D01*
X148173873Y-107251143D01*
X148243722Y-107252806D01*
X148293647Y-107283237D01*
X149090197Y-108079788D01*
X149100022Y-108092051D01*
X149100243Y-108091869D01*
X149105214Y-108097878D01*
X149126043Y-108117437D01*
X149155635Y-108145226D01*
X149176529Y-108166120D01*
X149182011Y-108170373D01*
X149186443Y-108174157D01*
X149220418Y-108206062D01*
X149237976Y-108215714D01*
X149254235Y-108226395D01*
X149270064Y-108238673D01*
X149312838Y-108257182D01*
X149318056Y-108259738D01*
X149358908Y-108282197D01*
X149378316Y-108287180D01*
X149396717Y-108293480D01*
X149415104Y-108301437D01*
X149458488Y-108308308D01*
X149461119Y-108308725D01*
X149466839Y-108309909D01*
X149511981Y-108321500D01*
X149532016Y-108321500D01*
X149551414Y-108323026D01*
X149571194Y-108326159D01*
X149571195Y-108326160D01*
X149571195Y-108326159D01*
X149571196Y-108326160D01*
X149617584Y-108321775D01*
X149623422Y-108321500D01*
X154593952Y-108321500D01*
X154609572Y-108323224D01*
X154609599Y-108322939D01*
X154617355Y-108323671D01*
X154617362Y-108323673D01*
X154686509Y-108321500D01*
X154716045Y-108321500D01*
X154722923Y-108320630D01*
X154728736Y-108320172D01*
X154775322Y-108318709D01*
X154794564Y-108313117D01*
X154813607Y-108309174D01*
X154833487Y-108306664D01*
X154876817Y-108289507D01*
X154882341Y-108287617D01*
X154886091Y-108286527D01*
X154927085Y-108274618D01*
X154944324Y-108264422D01*
X154961798Y-108255862D01*
X154980422Y-108248488D01*
X154980422Y-108248487D01*
X154980427Y-108248486D01*
X155018144Y-108221082D01*
X155023000Y-108217892D01*
X155063115Y-108194170D01*
X155077284Y-108179999D01*
X155092074Y-108167368D01*
X155108282Y-108155594D01*
X155137994Y-108119676D01*
X155141907Y-108115376D01*
X158207311Y-105049973D01*
X158268632Y-105016490D01*
X158338324Y-105021474D01*
X158387137Y-105054681D01*
X158392315Y-105060431D01*
X158398132Y-105066891D01*
X158398135Y-105066893D01*
X158551265Y-105178148D01*
X158551270Y-105178151D01*
X158724192Y-105255142D01*
X158724197Y-105255144D01*
X158909354Y-105294500D01*
X158968548Y-105294500D01*
X159035587Y-105314185D01*
X159056229Y-105330819D01*
X159265194Y-105539784D01*
X159275019Y-105552048D01*
X159275240Y-105551866D01*
X159280210Y-105557873D01*
X159280213Y-105557876D01*
X159280214Y-105557877D01*
X159330651Y-105605241D01*
X159351530Y-105626120D01*
X159357004Y-105630366D01*
X159361442Y-105634156D01*
X159395418Y-105666062D01*
X159409231Y-105673656D01*
X159412973Y-105675713D01*
X159429231Y-105686392D01*
X159445064Y-105698674D01*
X159467015Y-105708172D01*
X159487837Y-105717183D01*
X159493081Y-105719752D01*
X159533908Y-105742197D01*
X159553312Y-105747179D01*
X159571710Y-105753478D01*
X159590105Y-105761438D01*
X159636129Y-105768726D01*
X159641832Y-105769907D01*
X159686981Y-105781500D01*
X159707016Y-105781500D01*
X159726413Y-105783026D01*
X159746196Y-105786160D01*
X159792584Y-105781775D01*
X159798422Y-105781500D01*
X166174252Y-105781500D01*
X166241291Y-105801185D01*
X166266400Y-105822526D01*
X166272126Y-105828885D01*
X166272130Y-105828889D01*
X166425265Y-105940148D01*
X166425270Y-105940151D01*
X166598192Y-106017142D01*
X166598197Y-106017144D01*
X166783354Y-106056500D01*
X166783355Y-106056500D01*
X166972644Y-106056500D01*
X166972646Y-106056500D01*
X167157803Y-106017144D01*
X167330730Y-105940151D01*
X167483871Y-105828888D01*
X167610533Y-105688216D01*
X167705179Y-105524284D01*
X167763674Y-105344256D01*
X167783460Y-105156000D01*
X167763674Y-104967744D01*
X167705179Y-104787716D01*
X167610533Y-104623784D01*
X167483871Y-104483112D01*
X167483870Y-104483111D01*
X167330734Y-104371851D01*
X167330729Y-104371848D01*
X167157807Y-104294857D01*
X167157802Y-104294855D01*
X167012001Y-104263865D01*
X166972646Y-104255500D01*
X166783354Y-104255500D01*
X166750897Y-104262398D01*
X166598197Y-104294855D01*
X166598192Y-104294857D01*
X166425270Y-104371848D01*
X166425265Y-104371851D01*
X166272130Y-104483110D01*
X166272126Y-104483114D01*
X166266400Y-104489474D01*
X166206913Y-104526121D01*
X166174252Y-104530500D01*
X160076453Y-104530500D01*
X160009414Y-104510815D01*
X159988772Y-104494181D01*
X159942960Y-104448369D01*
X159909475Y-104387046D01*
X159907323Y-104373668D01*
X159896360Y-104269363D01*
X159908930Y-104200636D01*
X159956662Y-104149613D01*
X160024402Y-104132495D01*
X160070114Y-104143125D01*
X160237585Y-104217689D01*
X160422742Y-104257045D01*
X160422743Y-104257045D01*
X160612032Y-104257045D01*
X160612034Y-104257045D01*
X160797191Y-104217689D01*
X160970118Y-104140696D01*
X161123259Y-104029433D01*
X161249921Y-103888761D01*
X161344567Y-103724829D01*
X161403062Y-103544801D01*
X161422848Y-103356545D01*
X161403062Y-103168289D01*
X161344567Y-102988261D01*
X161249921Y-102824329D01*
X161123259Y-102683657D01*
X161123258Y-102683656D01*
X160970122Y-102572396D01*
X160970117Y-102572393D01*
X160797195Y-102495402D01*
X160797190Y-102495400D01*
X160636023Y-102461144D01*
X160612034Y-102456045D01*
X160422742Y-102456045D01*
X160398753Y-102461144D01*
X160237585Y-102495400D01*
X160237580Y-102495402D01*
X160064658Y-102572393D01*
X160064653Y-102572396D01*
X159911518Y-102683655D01*
X159911514Y-102683659D01*
X159905788Y-102690019D01*
X159846301Y-102726666D01*
X159813640Y-102731045D01*
X159529552Y-102731045D01*
X159462513Y-102711360D01*
X159416758Y-102658556D01*
X159406814Y-102589398D01*
X159435839Y-102525842D01*
X159441871Y-102519364D01*
X159978416Y-101982819D01*
X160039739Y-101949334D01*
X160066097Y-101946500D01*
X163357742Y-101946500D01*
X163424781Y-101966185D01*
X163449891Y-101987527D01*
X163478128Y-102018887D01*
X163478135Y-102018893D01*
X163631265Y-102130148D01*
X163631270Y-102130151D01*
X163804192Y-102207142D01*
X163804197Y-102207144D01*
X163989354Y-102246500D01*
X163989355Y-102246500D01*
X164178644Y-102246500D01*
X164178646Y-102246500D01*
X164363803Y-102207144D01*
X164536730Y-102130151D01*
X164689871Y-102018888D01*
X164816533Y-101878216D01*
X164911179Y-101714284D01*
X164969674Y-101534256D01*
X164989460Y-101346000D01*
X164969674Y-101157744D01*
X164911179Y-100977716D01*
X164816533Y-100813784D01*
X164689871Y-100673112D01*
X164689863Y-100673106D01*
X164536734Y-100561851D01*
X164536729Y-100561848D01*
X164363807Y-100484857D01*
X164363802Y-100484855D01*
X164218001Y-100453865D01*
X164178646Y-100445500D01*
X163989354Y-100445500D01*
X163956897Y-100452398D01*
X163804197Y-100484855D01*
X163804192Y-100484857D01*
X163631270Y-100561848D01*
X163631265Y-100561851D01*
X163478135Y-100673106D01*
X163478128Y-100673112D01*
X163449891Y-100704473D01*
X163390405Y-100741121D01*
X163357742Y-100745500D01*
X159809428Y-100745500D01*
X159801329Y-100744969D01*
X159766000Y-100740318D01*
X159726639Y-100745500D01*
X159609239Y-100760955D01*
X159609237Y-100760956D01*
X159463157Y-100821464D01*
X159337719Y-100917716D01*
X159316019Y-100945994D01*
X159310668Y-100952096D01*
X154956584Y-105306181D01*
X154895261Y-105339666D01*
X154868903Y-105342500D01*
X154439574Y-105342500D01*
X154372535Y-105322815D01*
X154326780Y-105270011D01*
X154316253Y-105205539D01*
X154321460Y-105156000D01*
X154301674Y-104967744D01*
X154243179Y-104787716D01*
X154148533Y-104623784D01*
X154134264Y-104607937D01*
X154073350Y-104540284D01*
X154043120Y-104477292D01*
X154041500Y-104457312D01*
X154041500Y-104196452D01*
X154061185Y-104129413D01*
X154077819Y-104108771D01*
X154633772Y-103552819D01*
X154695095Y-103519334D01*
X154721453Y-103516500D01*
X154780644Y-103516500D01*
X154780646Y-103516500D01*
X154965803Y-103477144D01*
X155138730Y-103400151D01*
X155291871Y-103288888D01*
X155418533Y-103148216D01*
X155513179Y-102984284D01*
X155571674Y-102804256D01*
X155591460Y-102616000D01*
X155571674Y-102427744D01*
X155513956Y-102250110D01*
X155511962Y-102180270D01*
X155548042Y-102120437D01*
X155568766Y-102105061D01*
X155580420Y-102098170D01*
X155594589Y-102083999D01*
X155609379Y-102071368D01*
X155625587Y-102059594D01*
X155655299Y-102023676D01*
X155659212Y-102019376D01*
X163160788Y-94517801D01*
X163173042Y-94507986D01*
X163172859Y-94507764D01*
X163178866Y-94502792D01*
X163178877Y-94502786D01*
X163209775Y-94469882D01*
X163226227Y-94452364D01*
X163236671Y-94441918D01*
X163247120Y-94431471D01*
X163251379Y-94425978D01*
X163255152Y-94421561D01*
X163287062Y-94387582D01*
X163296713Y-94370024D01*
X163307396Y-94353761D01*
X163319673Y-94337936D01*
X163338185Y-94295153D01*
X163340738Y-94289941D01*
X163363197Y-94249092D01*
X163368180Y-94229680D01*
X163374481Y-94211280D01*
X163382437Y-94192896D01*
X163389729Y-94146852D01*
X163390906Y-94141171D01*
X163402500Y-94096019D01*
X163402500Y-94075983D01*
X163404027Y-94056582D01*
X163405892Y-94044807D01*
X163407160Y-94036804D01*
X163402775Y-93990415D01*
X163402500Y-93984577D01*
X163402500Y-88993452D01*
X163422185Y-88926413D01*
X163438819Y-88905771D01*
X167409448Y-84935142D01*
X171337821Y-81006769D01*
X171399142Y-80973286D01*
X171468834Y-80978270D01*
X171524767Y-81020142D01*
X171549184Y-81085606D01*
X171549500Y-81094452D01*
X171549500Y-82167687D01*
X171529815Y-82234726D01*
X171513181Y-82255368D01*
X166482358Y-87286190D01*
X166468729Y-87297969D01*
X166449468Y-87312308D01*
X166415898Y-87352315D01*
X166412253Y-87356294D01*
X166406409Y-87362140D01*
X166386059Y-87387877D01*
X166336695Y-87446707D01*
X166332729Y-87452737D01*
X166332682Y-87452706D01*
X166328630Y-87459065D01*
X166328679Y-87459095D01*
X166324889Y-87465239D01*
X166292424Y-87534859D01*
X166257960Y-87603484D01*
X166255488Y-87610275D01*
X166255432Y-87610254D01*
X166252960Y-87617368D01*
X166253015Y-87617387D01*
X166250742Y-87624245D01*
X166242975Y-87661864D01*
X166235207Y-87699483D01*
X166222309Y-87753906D01*
X166217498Y-87774204D01*
X166216661Y-87781372D01*
X166216601Y-87781365D01*
X166215835Y-87788863D01*
X166215895Y-87788869D01*
X166215265Y-87796058D01*
X166217500Y-87872834D01*
X166217500Y-89739023D01*
X166197815Y-89806062D01*
X166145011Y-89851817D01*
X166117865Y-89859266D01*
X166118068Y-89860124D01*
X166110520Y-89861907D01*
X165975671Y-89912202D01*
X165975664Y-89912206D01*
X165860455Y-89998452D01*
X165860452Y-89998455D01*
X165774206Y-90113664D01*
X165774202Y-90113671D01*
X165723908Y-90248517D01*
X165717501Y-90308116D01*
X165717501Y-90308123D01*
X165717500Y-90308135D01*
X165717500Y-91303870D01*
X165717501Y-91303876D01*
X165723908Y-91363483D01*
X165774202Y-91498328D01*
X165774206Y-91498335D01*
X165860452Y-91613544D01*
X165860455Y-91613547D01*
X165975664Y-91699793D01*
X165975671Y-91699797D01*
X166020618Y-91716561D01*
X166110517Y-91750091D01*
X166170127Y-91756500D01*
X166805769Y-91756499D01*
X166872808Y-91776183D01*
X166893450Y-91792818D01*
X168136508Y-93035875D01*
X168169993Y-93097198D01*
X168165009Y-93166890D01*
X168123137Y-93222823D01*
X168057673Y-93247240D01*
X167989400Y-93232388D01*
X167974516Y-93222823D01*
X167960330Y-93212203D01*
X167960328Y-93212202D01*
X167825482Y-93161908D01*
X167825483Y-93161908D01*
X167765883Y-93155501D01*
X167765881Y-93155500D01*
X167765873Y-93155500D01*
X167765864Y-93155500D01*
X166170129Y-93155500D01*
X166170123Y-93155501D01*
X166110516Y-93161908D01*
X165975671Y-93212202D01*
X165975664Y-93212206D01*
X165860455Y-93298452D01*
X165860452Y-93298455D01*
X165774206Y-93413664D01*
X165774202Y-93413671D01*
X165723908Y-93548517D01*
X165717501Y-93608116D01*
X165717500Y-93608135D01*
X165717500Y-94603870D01*
X165717501Y-94603876D01*
X165723908Y-94663483D01*
X165774202Y-94798328D01*
X165774206Y-94798335D01*
X165860452Y-94913544D01*
X165860455Y-94913547D01*
X165975664Y-94999793D01*
X165975671Y-94999797D01*
X166110517Y-95050091D01*
X166110516Y-95050091D01*
X166117444Y-95050835D01*
X166170127Y-95056500D01*
X167765872Y-95056499D01*
X167825483Y-95050091D01*
X167960331Y-94999796D01*
X168010190Y-94962470D01*
X168075651Y-94938054D01*
X168143925Y-94952905D01*
X168193331Y-95002309D01*
X168208500Y-95061738D01*
X168208500Y-95691132D01*
X168188815Y-95758171D01*
X168169616Y-95779346D01*
X168170451Y-95780181D01*
X168041289Y-95909342D01*
X167949187Y-96058663D01*
X167949185Y-96058668D01*
X167933998Y-96104500D01*
X167894001Y-96225203D01*
X167894001Y-96225204D01*
X167894000Y-96225204D01*
X167883500Y-96327983D01*
X167883500Y-97728001D01*
X167883501Y-97728018D01*
X167894000Y-97830796D01*
X167894001Y-97830799D01*
X167942728Y-97977845D01*
X167949186Y-97997334D01*
X168041096Y-98146345D01*
X168041289Y-98146657D01*
X168170451Y-98275819D01*
X168168559Y-98277710D01*
X168201774Y-98324583D01*
X168208500Y-98364867D01*
X168208500Y-105141294D01*
X168207191Y-105159263D01*
X168203710Y-105183025D01*
X168208264Y-105235064D01*
X168208500Y-105240470D01*
X168208500Y-105248709D01*
X168212306Y-105281274D01*
X168219000Y-105357791D01*
X168220461Y-105364867D01*
X168220403Y-105364878D01*
X168222034Y-105372237D01*
X168222092Y-105372224D01*
X168223757Y-105379250D01*
X168250025Y-105451424D01*
X168274185Y-105524331D01*
X168277236Y-105530874D01*
X168277182Y-105530898D01*
X168280470Y-105537688D01*
X168280521Y-105537663D01*
X168283761Y-105544113D01*
X168283762Y-105544114D01*
X168283763Y-105544117D01*
X168297267Y-105564649D01*
X168325965Y-105608283D01*
X168366287Y-105673655D01*
X168370766Y-105679319D01*
X168370719Y-105679356D01*
X168375482Y-105685202D01*
X168375528Y-105685164D01*
X168380173Y-105690700D01*
X168436017Y-105743385D01*
X170537228Y-107844596D01*
X170567478Y-107893958D01*
X170622819Y-108064280D01*
X170622821Y-108064284D01*
X170717467Y-108228216D01*
X170830321Y-108353553D01*
X170844129Y-108368888D01*
X170997265Y-108480148D01*
X170997270Y-108480151D01*
X171170192Y-108557142D01*
X171170197Y-108557144D01*
X171355354Y-108596500D01*
X171355355Y-108596500D01*
X171544644Y-108596500D01*
X171544646Y-108596500D01*
X171729803Y-108557144D01*
X171902730Y-108480151D01*
X172055871Y-108368888D01*
X172182533Y-108228216D01*
X172277179Y-108064284D01*
X172335674Y-107884256D01*
X172355460Y-107696000D01*
X172335674Y-107507744D01*
X172277179Y-107327716D01*
X172182533Y-107163784D01*
X172055871Y-107023112D01*
X172055870Y-107023111D01*
X171902734Y-106911851D01*
X171902729Y-106911848D01*
X171729807Y-106834857D01*
X171729803Y-106834856D01*
X171664669Y-106821011D01*
X171603188Y-106787818D01*
X171602770Y-106787402D01*
X169745819Y-104930451D01*
X169712334Y-104869128D01*
X169709500Y-104842770D01*
X169709500Y-99861870D01*
X183161500Y-99861870D01*
X183161501Y-99861876D01*
X183167908Y-99921483D01*
X183218202Y-100056328D01*
X183218206Y-100056335D01*
X183304452Y-100171544D01*
X183304455Y-100171547D01*
X183419664Y-100257793D01*
X183419671Y-100257797D01*
X183554517Y-100308091D01*
X183554516Y-100308091D01*
X183561444Y-100308835D01*
X183614127Y-100314500D01*
X186709872Y-100314499D01*
X186769483Y-100308091D01*
X186904331Y-100257796D01*
X187019546Y-100171546D01*
X187105796Y-100056331D01*
X187156091Y-99921483D01*
X187162500Y-99861873D01*
X187162499Y-97266128D01*
X187156091Y-97206517D01*
X187124174Y-97120944D01*
X187105797Y-97071671D01*
X187105793Y-97071664D01*
X187019547Y-96956455D01*
X187019544Y-96956452D01*
X186904335Y-96870206D01*
X186904328Y-96870202D01*
X186769482Y-96819908D01*
X186769483Y-96819908D01*
X186709883Y-96813501D01*
X186709881Y-96813500D01*
X186709873Y-96813500D01*
X186709864Y-96813500D01*
X183614129Y-96813500D01*
X183614123Y-96813501D01*
X183554516Y-96819908D01*
X183419671Y-96870202D01*
X183419664Y-96870206D01*
X183304455Y-96956452D01*
X183304452Y-96956455D01*
X183218206Y-97071664D01*
X183218202Y-97071671D01*
X183167908Y-97206517D01*
X183161501Y-97266116D01*
X183161501Y-97266123D01*
X183161500Y-97266135D01*
X183161500Y-99861870D01*
X169709500Y-99861870D01*
X169709500Y-98364867D01*
X169729185Y-98297828D01*
X169748386Y-98276656D01*
X169747549Y-98275819D01*
X169785432Y-98237936D01*
X169876712Y-98146656D01*
X169968814Y-97997334D01*
X170023999Y-97830797D01*
X170034500Y-97728009D01*
X170034500Y-97278000D01*
X170834001Y-97278000D01*
X170834001Y-97727986D01*
X170844494Y-97830697D01*
X170899641Y-97997119D01*
X170899643Y-97997124D01*
X170991684Y-98146345D01*
X171115654Y-98270315D01*
X171264875Y-98362356D01*
X171264880Y-98362358D01*
X171431302Y-98417505D01*
X171431309Y-98417506D01*
X171534019Y-98427999D01*
X171658999Y-98427999D01*
X171659000Y-98427998D01*
X171659000Y-97278000D01*
X172159000Y-97278000D01*
X172159000Y-98427999D01*
X172283972Y-98427999D01*
X172283986Y-98427998D01*
X172386697Y-98417505D01*
X172553119Y-98362358D01*
X172553124Y-98362356D01*
X172702345Y-98270315D01*
X172826315Y-98146345D01*
X172918356Y-97997124D01*
X172918358Y-97997119D01*
X172973505Y-97830697D01*
X172973506Y-97830690D01*
X172983999Y-97727986D01*
X172984000Y-97727973D01*
X172984000Y-97278000D01*
X172159000Y-97278000D01*
X171659000Y-97278000D01*
X170834001Y-97278000D01*
X170034500Y-97278000D01*
X170034499Y-96778000D01*
X170834000Y-96778000D01*
X171659000Y-96778000D01*
X171659000Y-95628000D01*
X172159000Y-95628000D01*
X172159000Y-96778000D01*
X172983999Y-96778000D01*
X172983999Y-96328028D01*
X172983998Y-96328013D01*
X172973505Y-96225302D01*
X172918358Y-96058880D01*
X172918356Y-96058875D01*
X172826315Y-95909654D01*
X172702345Y-95785684D01*
X172553124Y-95693643D01*
X172553119Y-95693641D01*
X172386697Y-95638494D01*
X172386690Y-95638493D01*
X172283986Y-95628000D01*
X172159000Y-95628000D01*
X171659000Y-95628000D01*
X171534027Y-95628000D01*
X171534012Y-95628001D01*
X171431302Y-95638494D01*
X171264880Y-95693641D01*
X171264875Y-95693643D01*
X171115654Y-95785684D01*
X170991684Y-95909654D01*
X170899643Y-96058875D01*
X170899641Y-96058880D01*
X170844494Y-96225302D01*
X170844493Y-96225309D01*
X170834000Y-96328013D01*
X170834000Y-96778000D01*
X170034499Y-96778000D01*
X170034499Y-96327992D01*
X170023999Y-96225203D01*
X169968814Y-96058666D01*
X169876712Y-95909344D01*
X169752656Y-95785288D01*
X169747549Y-95780181D01*
X169749435Y-95778294D01*
X169716212Y-95731375D01*
X169709500Y-95691132D01*
X169709500Y-95464005D01*
X176156357Y-95464005D01*
X176176890Y-95711812D01*
X176176892Y-95711824D01*
X176237936Y-95952881D01*
X176337826Y-96180606D01*
X176473833Y-96388782D01*
X176506245Y-96423991D01*
X176642256Y-96571738D01*
X176838491Y-96724474D01*
X176838493Y-96724475D01*
X177056332Y-96842364D01*
X177057190Y-96842828D01*
X177263190Y-96913548D01*
X177290964Y-96923083D01*
X177292386Y-96923571D01*
X177537665Y-96964500D01*
X177786335Y-96964500D01*
X178031614Y-96923571D01*
X178266810Y-96842828D01*
X178485509Y-96724474D01*
X178681744Y-96571738D01*
X178850164Y-96388785D01*
X178986173Y-96180607D01*
X179086063Y-95952881D01*
X179147108Y-95711821D01*
X179147116Y-95711729D01*
X179167643Y-95464005D01*
X190656859Y-95464005D01*
X190677385Y-95711729D01*
X190677387Y-95711738D01*
X190738412Y-95952717D01*
X190838266Y-96180364D01*
X190938564Y-96333882D01*
X191678923Y-95593523D01*
X191702507Y-95673844D01*
X191780239Y-95794798D01*
X191888900Y-95888952D01*
X192019685Y-95948680D01*
X192029466Y-95950086D01*
X191291942Y-96687609D01*
X191338768Y-96724055D01*
X191338770Y-96724056D01*
X191557385Y-96842364D01*
X191557396Y-96842369D01*
X191792506Y-96923083D01*
X192037707Y-96964000D01*
X192286293Y-96964000D01*
X192531493Y-96923083D01*
X192766603Y-96842369D01*
X192766614Y-96842364D01*
X192985228Y-96724057D01*
X192985231Y-96724055D01*
X193032056Y-96687609D01*
X192294533Y-95950086D01*
X192304315Y-95948680D01*
X192435100Y-95888952D01*
X192543761Y-95794798D01*
X192621493Y-95673844D01*
X192645076Y-95593524D01*
X193385434Y-96333882D01*
X193485731Y-96180369D01*
X193585587Y-95952717D01*
X193646612Y-95711738D01*
X193646614Y-95711729D01*
X193667141Y-95464005D01*
X193667141Y-95463994D01*
X193646614Y-95216270D01*
X193646612Y-95216261D01*
X193585587Y-94975282D01*
X193485731Y-94747630D01*
X193385434Y-94594116D01*
X192645076Y-95334475D01*
X192621493Y-95254156D01*
X192543761Y-95133202D01*
X192435100Y-95039048D01*
X192304315Y-94979320D01*
X192294534Y-94977913D01*
X193032057Y-94240390D01*
X193032056Y-94240389D01*
X192985229Y-94203943D01*
X192766614Y-94085635D01*
X192766603Y-94085630D01*
X192531493Y-94004916D01*
X192286293Y-93964000D01*
X192037707Y-93964000D01*
X191792506Y-94004916D01*
X191557396Y-94085630D01*
X191557390Y-94085632D01*
X191338761Y-94203949D01*
X191291942Y-94240388D01*
X191291942Y-94240390D01*
X192029466Y-94977913D01*
X192019685Y-94979320D01*
X191888900Y-95039048D01*
X191780239Y-95133202D01*
X191702507Y-95254156D01*
X191678923Y-95334475D01*
X190938564Y-94594116D01*
X190838267Y-94747632D01*
X190738412Y-94975282D01*
X190677387Y-95216261D01*
X190677385Y-95216270D01*
X190656859Y-95463994D01*
X190656859Y-95464005D01*
X179167643Y-95464005D01*
X179167643Y-95463994D01*
X179147109Y-95216187D01*
X179147107Y-95216175D01*
X179086063Y-94975118D01*
X178986173Y-94747393D01*
X178850166Y-94539217D01*
X178750983Y-94431476D01*
X178681744Y-94356262D01*
X178580623Y-94277556D01*
X178539810Y-94220846D01*
X178535697Y-94191249D01*
X177794533Y-93450086D01*
X177804315Y-93448680D01*
X177935100Y-93388952D01*
X178043761Y-93294798D01*
X178121493Y-93173844D01*
X178145076Y-93093524D01*
X178885434Y-93833882D01*
X178985731Y-93680369D01*
X179085587Y-93452717D01*
X179146612Y-93211738D01*
X179146614Y-93211729D01*
X179167141Y-92964005D01*
X179167141Y-92963994D01*
X179146614Y-92716270D01*
X179146612Y-92716261D01*
X179085587Y-92475282D01*
X178985732Y-92247632D01*
X178873515Y-92075870D01*
X178853328Y-92008981D01*
X178872508Y-91941795D01*
X178903013Y-91908782D01*
X178904329Y-91907796D01*
X178904331Y-91907796D01*
X179019546Y-91821546D01*
X179105796Y-91706331D01*
X179156091Y-91571483D01*
X179162500Y-91511873D01*
X179162500Y-90464005D01*
X190656357Y-90464005D01*
X190676890Y-90711812D01*
X190676892Y-90711824D01*
X190737936Y-90952881D01*
X190837826Y-91180606D01*
X190973833Y-91388782D01*
X191000590Y-91417848D01*
X191142256Y-91571738D01*
X191338491Y-91724474D01*
X191338493Y-91724475D01*
X191540363Y-91833722D01*
X191557190Y-91842828D01*
X191792386Y-91923571D01*
X192037665Y-91964500D01*
X192286335Y-91964500D01*
X192531614Y-91923571D01*
X192766810Y-91842828D01*
X192985509Y-91724474D01*
X193181744Y-91571738D01*
X193350164Y-91388785D01*
X193486173Y-91180607D01*
X193586063Y-90952881D01*
X193647108Y-90711821D01*
X193651330Y-90660868D01*
X193667643Y-90464005D01*
X193667643Y-90463994D01*
X193647109Y-90216187D01*
X193647107Y-90216175D01*
X193586063Y-89975118D01*
X193486173Y-89747393D01*
X193350166Y-89539217D01*
X193328557Y-89515744D01*
X193181744Y-89356262D01*
X192985509Y-89203526D01*
X192985507Y-89203525D01*
X192985506Y-89203524D01*
X192766811Y-89085172D01*
X192766802Y-89085169D01*
X192531616Y-89004429D01*
X192286335Y-88963500D01*
X192037665Y-88963500D01*
X191792383Y-89004429D01*
X191557197Y-89085169D01*
X191557188Y-89085172D01*
X191338493Y-89203524D01*
X191142257Y-89356261D01*
X190973833Y-89539217D01*
X190837826Y-89747393D01*
X190737936Y-89975118D01*
X190676892Y-90216175D01*
X190676890Y-90216187D01*
X190656357Y-90463994D01*
X190656357Y-90464005D01*
X179162500Y-90464005D01*
X179162499Y-89416128D01*
X179156091Y-89356517D01*
X179151364Y-89343844D01*
X179105797Y-89221671D01*
X179105793Y-89221664D01*
X179019547Y-89106455D01*
X179019544Y-89106452D01*
X178904335Y-89020206D01*
X178904328Y-89020202D01*
X178769482Y-88969908D01*
X178769483Y-88969908D01*
X178709883Y-88963501D01*
X178709881Y-88963500D01*
X178709873Y-88963500D01*
X178709864Y-88963500D01*
X176614129Y-88963500D01*
X176614123Y-88963501D01*
X176554516Y-88969908D01*
X176419671Y-89020202D01*
X176419664Y-89020206D01*
X176304455Y-89106452D01*
X176304452Y-89106455D01*
X176218206Y-89221664D01*
X176218202Y-89221671D01*
X176167908Y-89356517D01*
X176161501Y-89416116D01*
X176161501Y-89416123D01*
X176161500Y-89416135D01*
X176161500Y-91511870D01*
X176161501Y-91511876D01*
X176167908Y-91571483D01*
X176218202Y-91706328D01*
X176218206Y-91706335D01*
X176304452Y-91821544D01*
X176304455Y-91821547D01*
X176420986Y-91908783D01*
X176462857Y-91964717D01*
X176467841Y-92034408D01*
X176450484Y-92075870D01*
X176338267Y-92247631D01*
X176238412Y-92475282D01*
X176177387Y-92716261D01*
X176177385Y-92716270D01*
X176156859Y-92963994D01*
X176156859Y-92964005D01*
X176177385Y-93211729D01*
X176177387Y-93211738D01*
X176238412Y-93452717D01*
X176338266Y-93680364D01*
X176438564Y-93833882D01*
X177178922Y-93093523D01*
X177202507Y-93173844D01*
X177280239Y-93294798D01*
X177388900Y-93388952D01*
X177519685Y-93448680D01*
X177529466Y-93450086D01*
X176786100Y-94193450D01*
X176775482Y-94240148D01*
X176743376Y-94277556D01*
X176642255Y-94356262D01*
X176473833Y-94539217D01*
X176337826Y-94747393D01*
X176237936Y-94975118D01*
X176176892Y-95216175D01*
X176176890Y-95216187D01*
X176156357Y-95463994D01*
X176156357Y-95464005D01*
X169709500Y-95464005D01*
X169709500Y-94356000D01*
X170618000Y-94356000D01*
X170618000Y-94603844D01*
X170624401Y-94663372D01*
X170624403Y-94663379D01*
X170674645Y-94798086D01*
X170674649Y-94798093D01*
X170760809Y-94913187D01*
X170760812Y-94913190D01*
X170875906Y-94999350D01*
X170875913Y-94999354D01*
X171010620Y-95049596D01*
X171010627Y-95049598D01*
X171070155Y-95055999D01*
X171070172Y-95056000D01*
X171618000Y-95056000D01*
X171618000Y-94356000D01*
X172118000Y-94356000D01*
X172118000Y-95056000D01*
X172665828Y-95056000D01*
X172665844Y-95055999D01*
X172725372Y-95049598D01*
X172725379Y-95049596D01*
X172860086Y-94999354D01*
X172860093Y-94999350D01*
X172975187Y-94913190D01*
X172975190Y-94913187D01*
X173061350Y-94798093D01*
X173061354Y-94798086D01*
X173111596Y-94663379D01*
X173111598Y-94663372D01*
X173117999Y-94603844D01*
X173118000Y-94603827D01*
X173118000Y-94356000D01*
X172118000Y-94356000D01*
X171618000Y-94356000D01*
X170618000Y-94356000D01*
X169709500Y-94356000D01*
X169709500Y-93856000D01*
X170618000Y-93856000D01*
X171618000Y-93856000D01*
X171618000Y-93156000D01*
X172118000Y-93156000D01*
X172118000Y-93856000D01*
X173118000Y-93856000D01*
X173118000Y-93608172D01*
X173117999Y-93608155D01*
X173111598Y-93548627D01*
X173111596Y-93548620D01*
X173061354Y-93413913D01*
X173061350Y-93413906D01*
X172975190Y-93298812D01*
X172975187Y-93298809D01*
X172860093Y-93212649D01*
X172860086Y-93212645D01*
X172725379Y-93162403D01*
X172725372Y-93162401D01*
X172665844Y-93156000D01*
X172118000Y-93156000D01*
X171618000Y-93156000D01*
X171070155Y-93156000D01*
X171010627Y-93162401D01*
X171010620Y-93162403D01*
X170875913Y-93212645D01*
X170875906Y-93212649D01*
X170760812Y-93298809D01*
X170760809Y-93298812D01*
X170674649Y-93413906D01*
X170674645Y-93413913D01*
X170624403Y-93548620D01*
X170624401Y-93548627D01*
X170618000Y-93608155D01*
X170618000Y-93856000D01*
X169709500Y-93856000D01*
X169709500Y-92860705D01*
X169710809Y-92842735D01*
X169714289Y-92818974D01*
X169711045Y-92781901D01*
X169709735Y-92766933D01*
X169709500Y-92761532D01*
X169709500Y-92753296D01*
X169709500Y-92753291D01*
X169705691Y-92720705D01*
X169698998Y-92644203D01*
X169698995Y-92644194D01*
X169697538Y-92637135D01*
X169697598Y-92637122D01*
X169695965Y-92629757D01*
X169695906Y-92629772D01*
X169694241Y-92622749D01*
X169694241Y-92622745D01*
X169667971Y-92550568D01*
X169646703Y-92486383D01*
X169643816Y-92477670D01*
X169640761Y-92471118D01*
X169640815Y-92471092D01*
X169637533Y-92464312D01*
X169637480Y-92464340D01*
X169634238Y-92457886D01*
X169634237Y-92457883D01*
X169592038Y-92393723D01*
X169551712Y-92328344D01*
X169551711Y-92328343D01*
X169551710Y-92328341D01*
X169547234Y-92322681D01*
X169547280Y-92322643D01*
X169542519Y-92316799D01*
X169542474Y-92316838D01*
X169537834Y-92311308D01*
X169481982Y-92258613D01*
X168527239Y-91303870D01*
X170617500Y-91303870D01*
X170617501Y-91303876D01*
X170623908Y-91363483D01*
X170674202Y-91498328D01*
X170674206Y-91498335D01*
X170760452Y-91613544D01*
X170760455Y-91613547D01*
X170875664Y-91699793D01*
X170875671Y-91699797D01*
X171010517Y-91750091D01*
X171010516Y-91750091D01*
X171017444Y-91750835D01*
X171070127Y-91756500D01*
X172665872Y-91756499D01*
X172725483Y-91750091D01*
X172860331Y-91699796D01*
X172975546Y-91613546D01*
X173061796Y-91498331D01*
X173112091Y-91363483D01*
X173118500Y-91303873D01*
X173118499Y-90308128D01*
X173112091Y-90248517D01*
X173105206Y-90230058D01*
X173061797Y-90113671D01*
X173061793Y-90113664D01*
X172975547Y-89998455D01*
X172975544Y-89998452D01*
X172860335Y-89912206D01*
X172860328Y-89912202D01*
X172725482Y-89861908D01*
X172725483Y-89861908D01*
X172665883Y-89855501D01*
X172665881Y-89855500D01*
X172665873Y-89855500D01*
X172665865Y-89855500D01*
X172617500Y-89855500D01*
X172550461Y-89835815D01*
X172504706Y-89783011D01*
X172493500Y-89731500D01*
X172493500Y-89284506D01*
X172513185Y-89217467D01*
X172552402Y-89178968D01*
X172677656Y-89101712D01*
X172801712Y-88977656D01*
X172893814Y-88828334D01*
X172948975Y-88661870D01*
X183161500Y-88661870D01*
X183161501Y-88661876D01*
X183167908Y-88721483D01*
X183218202Y-88856328D01*
X183218206Y-88856335D01*
X183304452Y-88971544D01*
X183304455Y-88971547D01*
X183419664Y-89057793D01*
X183419671Y-89057797D01*
X183554517Y-89108091D01*
X183554516Y-89108091D01*
X183561444Y-89108835D01*
X183614127Y-89114500D01*
X186709872Y-89114499D01*
X186769483Y-89108091D01*
X186904331Y-89057796D01*
X187019546Y-88971546D01*
X187105796Y-88856331D01*
X187156091Y-88721483D01*
X187162500Y-88661873D01*
X187162499Y-86066128D01*
X187156091Y-86006517D01*
X187147458Y-85983372D01*
X187105797Y-85871671D01*
X187105793Y-85871664D01*
X187019547Y-85756455D01*
X187019544Y-85756452D01*
X186904335Y-85670206D01*
X186904328Y-85670202D01*
X186769482Y-85619908D01*
X186769483Y-85619908D01*
X186709883Y-85613501D01*
X186709881Y-85613500D01*
X186709873Y-85613500D01*
X186709864Y-85613500D01*
X183614129Y-85613500D01*
X183614123Y-85613501D01*
X183554516Y-85619908D01*
X183419671Y-85670202D01*
X183419664Y-85670206D01*
X183304455Y-85756452D01*
X183304452Y-85756455D01*
X183218206Y-85871664D01*
X183218202Y-85871671D01*
X183167908Y-86006517D01*
X183162023Y-86061258D01*
X183161501Y-86066123D01*
X183161500Y-86066135D01*
X183161500Y-88661870D01*
X172948975Y-88661870D01*
X172948999Y-88661797D01*
X172959500Y-88559009D01*
X172959499Y-87208992D01*
X172948999Y-87106203D01*
X172893814Y-86939666D01*
X172801712Y-86790344D01*
X172677656Y-86666288D01*
X172528334Y-86574186D01*
X172361797Y-86519001D01*
X172361795Y-86519000D01*
X172259010Y-86508500D01*
X171533998Y-86508500D01*
X171533980Y-86508501D01*
X171431203Y-86519000D01*
X171431200Y-86519001D01*
X171264668Y-86574185D01*
X171264663Y-86574187D01*
X171115342Y-86666289D01*
X170991289Y-86790342D01*
X170899187Y-86939663D01*
X170899185Y-86939668D01*
X170877039Y-87006500D01*
X170844001Y-87106203D01*
X170844001Y-87106204D01*
X170844000Y-87106204D01*
X170833500Y-87208983D01*
X170833500Y-88559001D01*
X170833501Y-88559018D01*
X170844000Y-88661796D01*
X170844001Y-88661799D01*
X170899185Y-88828331D01*
X170899187Y-88828336D01*
X170916457Y-88856335D01*
X170991288Y-88977656D01*
X171115344Y-89101712D01*
X171183596Y-89143809D01*
X171230321Y-89195755D01*
X171242500Y-89249348D01*
X171242500Y-89731500D01*
X171222815Y-89798539D01*
X171170011Y-89844294D01*
X171118502Y-89855500D01*
X171070131Y-89855500D01*
X171070123Y-89855501D01*
X171010516Y-89861908D01*
X170875671Y-89912202D01*
X170875664Y-89912206D01*
X170760455Y-89998452D01*
X170760452Y-89998455D01*
X170674206Y-90113664D01*
X170674202Y-90113671D01*
X170623908Y-90248517D01*
X170617501Y-90308116D01*
X170617501Y-90308123D01*
X170617500Y-90308135D01*
X170617500Y-91303870D01*
X168527239Y-91303870D01*
X168254818Y-91031449D01*
X168221333Y-90970126D01*
X168218499Y-90943768D01*
X168218499Y-90308129D01*
X168218498Y-90308123D01*
X168218497Y-90308116D01*
X168212091Y-90248517D01*
X168205206Y-90230058D01*
X168161797Y-90113671D01*
X168161793Y-90113664D01*
X168075547Y-89998455D01*
X168075544Y-89998452D01*
X167960335Y-89912206D01*
X167960328Y-89912202D01*
X167825482Y-89861908D01*
X167817938Y-89860126D01*
X167818474Y-89857853D01*
X167764688Y-89835571D01*
X167724843Y-89778177D01*
X167718500Y-89739024D01*
X167718500Y-88825148D01*
X167738185Y-88758109D01*
X167790989Y-88712354D01*
X167860147Y-88702410D01*
X167923703Y-88731435D01*
X167960206Y-88786144D01*
X167974185Y-88828331D01*
X167974187Y-88828336D01*
X167991457Y-88856335D01*
X168066288Y-88977656D01*
X168190344Y-89101712D01*
X168339666Y-89193814D01*
X168506203Y-89248999D01*
X168608991Y-89259500D01*
X169334008Y-89259499D01*
X169334016Y-89259498D01*
X169334019Y-89259498D01*
X169433380Y-89249348D01*
X169436797Y-89248999D01*
X169603334Y-89193814D01*
X169752656Y-89101712D01*
X169876712Y-88977656D01*
X169968814Y-88828334D01*
X170023999Y-88661797D01*
X170034500Y-88559009D01*
X170034499Y-87208992D01*
X170023999Y-87106203D01*
X170002995Y-87042819D01*
X169994890Y-87018358D01*
X169992488Y-86948530D01*
X170024913Y-86891675D01*
X172159772Y-84756819D01*
X172221095Y-84723334D01*
X172247453Y-84720500D01*
X172306644Y-84720500D01*
X172306646Y-84720500D01*
X172491803Y-84681144D01*
X172664730Y-84604151D01*
X172817871Y-84492888D01*
X172944533Y-84352216D01*
X173039179Y-84188284D01*
X173076312Y-84074000D01*
X176894540Y-84074000D01*
X176914326Y-84262256D01*
X176914327Y-84262259D01*
X176972818Y-84442277D01*
X176972821Y-84442284D01*
X177067467Y-84606216D01*
X177134931Y-84681142D01*
X177194129Y-84746888D01*
X177347265Y-84858148D01*
X177347270Y-84858151D01*
X177520192Y-84935142D01*
X177520197Y-84935144D01*
X177705354Y-84974500D01*
X177705355Y-84974500D01*
X177894644Y-84974500D01*
X177894646Y-84974500D01*
X178079803Y-84935144D01*
X178252730Y-84858151D01*
X178405871Y-84746888D01*
X178532533Y-84606216D01*
X178627179Y-84442284D01*
X178685674Y-84262256D01*
X178705460Y-84074000D01*
X178685674Y-83885744D01*
X178627179Y-83705716D01*
X178532533Y-83541784D01*
X178405871Y-83401112D01*
X178395905Y-83393871D01*
X178252734Y-83289851D01*
X178252729Y-83289848D01*
X178079807Y-83212857D01*
X178079802Y-83212855D01*
X177934001Y-83181865D01*
X177894646Y-83173500D01*
X177705354Y-83173500D01*
X177672897Y-83180398D01*
X177520197Y-83212855D01*
X177520192Y-83212857D01*
X177347270Y-83289848D01*
X177347265Y-83289851D01*
X177194129Y-83401111D01*
X177067466Y-83541785D01*
X176972821Y-83705715D01*
X176972818Y-83705722D01*
X176914633Y-83884798D01*
X176914326Y-83885744D01*
X176894540Y-84074000D01*
X173076312Y-84074000D01*
X173097674Y-84008256D01*
X173117460Y-83820000D01*
X173097674Y-83631744D01*
X173039179Y-83451716D01*
X172977079Y-83344156D01*
X172944535Y-83287787D01*
X172944534Y-83287786D01*
X172944533Y-83287784D01*
X172861577Y-83195652D01*
X172831349Y-83132664D01*
X172839974Y-83063329D01*
X172859546Y-83032681D01*
X172859352Y-83032527D01*
X172860876Y-83030598D01*
X172861107Y-83030238D01*
X172861573Y-83029712D01*
X172861591Y-83029695D01*
X172881940Y-83003958D01*
X172931302Y-82945132D01*
X172931306Y-82945123D01*
X172935274Y-82939093D01*
X172935325Y-82939126D01*
X172939372Y-82932774D01*
X172939320Y-82932742D01*
X172943112Y-82926593D01*
X172975575Y-82856976D01*
X173010036Y-82788358D01*
X173010040Y-82788351D01*
X173010042Y-82788339D01*
X173012509Y-82781564D01*
X173012567Y-82781585D01*
X173015043Y-82774464D01*
X173014986Y-82774445D01*
X173017255Y-82767598D01*
X173017256Y-82767593D01*
X173017257Y-82767591D01*
X173032791Y-82692355D01*
X173050500Y-82617639D01*
X173050500Y-82617637D01*
X173051339Y-82610466D01*
X173051398Y-82610472D01*
X173052164Y-82602972D01*
X173052105Y-82602967D01*
X173052734Y-82595777D01*
X173050500Y-82519000D01*
X173050500Y-79653705D01*
X173051809Y-79635736D01*
X173055289Y-79611974D01*
X173050736Y-79559934D01*
X173050500Y-79554528D01*
X173050500Y-79546297D01*
X173050500Y-79546291D01*
X173046693Y-79513724D01*
X173045492Y-79499999D01*
X173039999Y-79437201D01*
X173038539Y-79430129D01*
X173038597Y-79430116D01*
X173036965Y-79422757D01*
X173036906Y-79422772D01*
X173035242Y-79415753D01*
X173035241Y-79415745D01*
X173008974Y-79343576D01*
X172984814Y-79270666D01*
X172984809Y-79270659D01*
X172981760Y-79264118D01*
X172981815Y-79264091D01*
X172978533Y-79257313D01*
X172978480Y-79257340D01*
X172975235Y-79250880D01*
X172933028Y-79186708D01*
X172892710Y-79121342D01*
X172888234Y-79115682D01*
X172888281Y-79115644D01*
X172883519Y-79109799D01*
X172883474Y-79109838D01*
X172878834Y-79104309D01*
X172878832Y-79104307D01*
X172878830Y-79104304D01*
X172848061Y-79075275D01*
X172822965Y-79051597D01*
X172362770Y-78591402D01*
X172332521Y-78542041D01*
X172277179Y-78371716D01*
X172182533Y-78207784D01*
X172055871Y-78067112D01*
X172052638Y-78064763D01*
X171902734Y-77955851D01*
X171902729Y-77955848D01*
X171729807Y-77878857D01*
X171729802Y-77878855D01*
X171584001Y-77847865D01*
X171544646Y-77839500D01*
X171355354Y-77839500D01*
X171322897Y-77846398D01*
X171170197Y-77878855D01*
X171170192Y-77878857D01*
X170997270Y-77955848D01*
X170997265Y-77955851D01*
X170983548Y-77965818D01*
X170917742Y-77989298D01*
X170910663Y-77989500D01*
X166941705Y-77989500D01*
X166923735Y-77988191D01*
X166899972Y-77984710D01*
X166854890Y-77988655D01*
X166847933Y-77989264D01*
X166842532Y-77989500D01*
X166834288Y-77989500D01*
X166801707Y-77993308D01*
X166725199Y-78000001D01*
X166718133Y-78001461D01*
X166718121Y-78001404D01*
X166710752Y-78003038D01*
X166710766Y-78003095D01*
X166703741Y-78004759D01*
X166631556Y-78031033D01*
X166558670Y-78055185D01*
X166558667Y-78055186D01*
X166558665Y-78055187D01*
X166558662Y-78055188D01*
X166552128Y-78058236D01*
X166552102Y-78058182D01*
X166545306Y-78061472D01*
X166545332Y-78061524D01*
X166538884Y-78064762D01*
X166474699Y-78106977D01*
X166409350Y-78147284D01*
X166403682Y-78151766D01*
X166403646Y-78151720D01*
X166397798Y-78156484D01*
X166397835Y-78156528D01*
X166392310Y-78161164D01*
X166392304Y-78161169D01*
X166392304Y-78161170D01*
X166354188Y-78201570D01*
X166339597Y-78217035D01*
X153771228Y-90785402D01*
X153709905Y-90818887D01*
X153709329Y-90819011D01*
X153644196Y-90832856D01*
X153644192Y-90832857D01*
X153471270Y-90909848D01*
X153471265Y-90909851D01*
X153318129Y-91021111D01*
X153191466Y-91161785D01*
X153096821Y-91325715D01*
X153096818Y-91325722D01*
X153040733Y-91498335D01*
X153038326Y-91505744D01*
X153018540Y-91694000D01*
X153038326Y-91882256D01*
X153038327Y-91882259D01*
X153096818Y-92062277D01*
X153096821Y-92062284D01*
X153191467Y-92226216D01*
X153318129Y-92366888D01*
X153471265Y-92478148D01*
X153471270Y-92478151D01*
X153644192Y-92555142D01*
X153644197Y-92555144D01*
X153829354Y-92594500D01*
X153829355Y-92594500D01*
X154018644Y-92594500D01*
X154018646Y-92594500D01*
X154203803Y-92555144D01*
X154376730Y-92478151D01*
X154529871Y-92366888D01*
X154656533Y-92226216D01*
X154751179Y-92062284D01*
X154806522Y-91891955D01*
X154836769Y-91842597D01*
X167152548Y-79526819D01*
X167213871Y-79493334D01*
X167240229Y-79490500D01*
X170501282Y-79490500D01*
X170568321Y-79510185D01*
X170614076Y-79562989D01*
X170624020Y-79632147D01*
X170619213Y-79652818D01*
X170564327Y-79821740D01*
X170564326Y-79821744D01*
X170546679Y-79989649D01*
X170520094Y-80054263D01*
X170511039Y-80064368D01*
X162393208Y-88182199D01*
X162380951Y-88192020D01*
X162381134Y-88192241D01*
X162375123Y-88197213D01*
X162327772Y-88247636D01*
X162306889Y-88268519D01*
X162306877Y-88268532D01*
X162302621Y-88274017D01*
X162298837Y-88278447D01*
X162266937Y-88312418D01*
X162266936Y-88312420D01*
X162257284Y-88329976D01*
X162246610Y-88346226D01*
X162234329Y-88362061D01*
X162234324Y-88362068D01*
X162215815Y-88404838D01*
X162213245Y-88410084D01*
X162190803Y-88450906D01*
X162185822Y-88470307D01*
X162179521Y-88488710D01*
X162171562Y-88507102D01*
X162171561Y-88507105D01*
X162164271Y-88553127D01*
X162163087Y-88558846D01*
X162151501Y-88603972D01*
X162151500Y-88603982D01*
X162151500Y-88624016D01*
X162149973Y-88643415D01*
X162146840Y-88663194D01*
X162146840Y-88663195D01*
X162151225Y-88709583D01*
X162151500Y-88715421D01*
X162151500Y-91685500D01*
X162131815Y-91752539D01*
X162079011Y-91798294D01*
X162027500Y-91809500D01*
X161957354Y-91809500D01*
X161924897Y-91816398D01*
X161772197Y-91848855D01*
X161772192Y-91848857D01*
X161599270Y-91925848D01*
X161599265Y-91925851D01*
X161446129Y-92037111D01*
X161319466Y-92177785D01*
X161224821Y-92341715D01*
X161224818Y-92341722D01*
X161174577Y-92496349D01*
X161166326Y-92521744D01*
X161147788Y-92698128D01*
X161146540Y-92710002D01*
X161146540Y-92714862D01*
X161126855Y-92781901D01*
X161110225Y-92802538D01*
X161020653Y-92892111D01*
X160956733Y-92956031D01*
X160895410Y-92989515D01*
X160825718Y-92984531D01*
X160776903Y-92951322D01*
X160766249Y-92939490D01*
X160766242Y-92939484D01*
X160613112Y-92828229D01*
X160613107Y-92828226D01*
X160440185Y-92751235D01*
X160440180Y-92751233D01*
X160294379Y-92720243D01*
X160255024Y-92711878D01*
X160065732Y-92711878D01*
X160045069Y-92716270D01*
X159880575Y-92751233D01*
X159880570Y-92751235D01*
X159707648Y-92828226D01*
X159707643Y-92828229D01*
X159554507Y-92939489D01*
X159427844Y-93080163D01*
X159333199Y-93244093D01*
X159333196Y-93244100D01*
X159278023Y-93413906D01*
X159274704Y-93424122D01*
X159254918Y-93612378D01*
X159254918Y-93612380D01*
X159254918Y-93617240D01*
X159235233Y-93684279D01*
X159218603Y-93704916D01*
X159102601Y-93820919D01*
X159089229Y-93834291D01*
X159027906Y-93867775D01*
X158958214Y-93862791D01*
X158902281Y-93820919D01*
X158878228Y-93759572D01*
X158873674Y-93716242D01*
X158815179Y-93536214D01*
X158720533Y-93372282D01*
X158593871Y-93231610D01*
X158581777Y-93222823D01*
X158440734Y-93120349D01*
X158440729Y-93120346D01*
X158267807Y-93043355D01*
X158267802Y-93043353D01*
X158122001Y-93012363D01*
X158082646Y-93003998D01*
X157893354Y-93003998D01*
X157860897Y-93010896D01*
X157708197Y-93043353D01*
X157708192Y-93043355D01*
X157535270Y-93120346D01*
X157535265Y-93120349D01*
X157382129Y-93231609D01*
X157308420Y-93313472D01*
X157248933Y-93350121D01*
X157216270Y-93354500D01*
X145852452Y-93354500D01*
X145785413Y-93334815D01*
X145764771Y-93318181D01*
X142185944Y-89739354D01*
X141342590Y-88896000D01*
X146390000Y-88896000D01*
X146390000Y-89343844D01*
X146396401Y-89403372D01*
X146396403Y-89403379D01*
X146446645Y-89538086D01*
X146446649Y-89538093D01*
X146532809Y-89653187D01*
X146532812Y-89653190D01*
X146647906Y-89739350D01*
X146647913Y-89739354D01*
X146782620Y-89789596D01*
X146782627Y-89789598D01*
X146842155Y-89795999D01*
X146842172Y-89796000D01*
X148340000Y-89796000D01*
X148340000Y-88896000D01*
X148840000Y-88896000D01*
X148840000Y-89796000D01*
X150337828Y-89796000D01*
X150337844Y-89795999D01*
X150397372Y-89789598D01*
X150397379Y-89789596D01*
X150532086Y-89739354D01*
X150532093Y-89739350D01*
X150647187Y-89653190D01*
X150647190Y-89653187D01*
X150733350Y-89538093D01*
X150733354Y-89538086D01*
X150783596Y-89403379D01*
X150783598Y-89403372D01*
X150789999Y-89343844D01*
X150790000Y-89343827D01*
X150790000Y-88896000D01*
X148840000Y-88896000D01*
X148340000Y-88896000D01*
X146390000Y-88896000D01*
X141342590Y-88896000D01*
X140842590Y-88396000D01*
X146390000Y-88396000D01*
X148340000Y-88396000D01*
X148340000Y-87496000D01*
X148840000Y-87496000D01*
X148840000Y-88396000D01*
X150790000Y-88396000D01*
X150790000Y-87948172D01*
X150789999Y-87948155D01*
X150783598Y-87888627D01*
X150783596Y-87888620D01*
X150733354Y-87753913D01*
X150733350Y-87753906D01*
X150647190Y-87638812D01*
X150647187Y-87638809D01*
X150532093Y-87552649D01*
X150532086Y-87552645D01*
X150397379Y-87502403D01*
X150397372Y-87502401D01*
X150337844Y-87496000D01*
X148840000Y-87496000D01*
X148340000Y-87496000D01*
X146842155Y-87496000D01*
X146782627Y-87502401D01*
X146782620Y-87502403D01*
X146647913Y-87552645D01*
X146647906Y-87552649D01*
X146532812Y-87638809D01*
X146532809Y-87638812D01*
X146446649Y-87753906D01*
X146446645Y-87753913D01*
X146396403Y-87888620D01*
X146396401Y-87888627D01*
X146390000Y-87948155D01*
X146390000Y-88396000D01*
X140842590Y-88396000D01*
X138606960Y-86160369D01*
X138573475Y-86099046D01*
X138571323Y-86085668D01*
X138553674Y-85917744D01*
X138495179Y-85737716D01*
X138400533Y-85573784D01*
X138273871Y-85433112D01*
X138273870Y-85433111D01*
X138120734Y-85321851D01*
X138120729Y-85321848D01*
X137947807Y-85244857D01*
X137947802Y-85244855D01*
X137802001Y-85213865D01*
X137762646Y-85205500D01*
X137573354Y-85205500D01*
X137540897Y-85212398D01*
X137388197Y-85244855D01*
X137388192Y-85244857D01*
X137215270Y-85321848D01*
X137215265Y-85321851D01*
X137062129Y-85433111D01*
X136935466Y-85573785D01*
X136840821Y-85737715D01*
X136840818Y-85737722D01*
X136782327Y-85917740D01*
X136782326Y-85917744D01*
X136762540Y-86106000D01*
X136782326Y-86294256D01*
X136782327Y-86294259D01*
X136840818Y-86474277D01*
X136840821Y-86474284D01*
X136935467Y-86638216D01*
X137062129Y-86778888D01*
X137215265Y-86890148D01*
X137215270Y-86890151D01*
X137388192Y-86967142D01*
X137388197Y-86967144D01*
X137573354Y-87006500D01*
X137632548Y-87006500D01*
X137699587Y-87026185D01*
X137720229Y-87042819D01*
X144607229Y-93929819D01*
X144640714Y-93991142D01*
X144635730Y-94060834D01*
X144593858Y-94116767D01*
X144528394Y-94141184D01*
X144519548Y-94141500D01*
X138476097Y-94141500D01*
X138409058Y-94121815D01*
X138388416Y-94105181D01*
X137339779Y-93056544D01*
X137306294Y-92995221D01*
X137303460Y-92968863D01*
X137303460Y-92964003D01*
X137302622Y-92956031D01*
X137297505Y-92907344D01*
X137310074Y-92838617D01*
X137357806Y-92787593D01*
X137425547Y-92770475D01*
X137491788Y-92792697D01*
X137512974Y-92811411D01*
X137541178Y-92842735D01*
X137570129Y-92874888D01*
X137723265Y-92986148D01*
X137723270Y-92986151D01*
X137896192Y-93063142D01*
X137896197Y-93063144D01*
X138081354Y-93102500D01*
X138081355Y-93102500D01*
X138270644Y-93102500D01*
X138270646Y-93102500D01*
X138455803Y-93063144D01*
X138628730Y-92986151D01*
X138781871Y-92874888D01*
X138908533Y-92734216D01*
X139003179Y-92570284D01*
X139061674Y-92390256D01*
X139081460Y-92202000D01*
X139061674Y-92013744D01*
X139003179Y-91833716D01*
X138908533Y-91669784D01*
X138781871Y-91529112D01*
X138781870Y-91529111D01*
X138628734Y-91417851D01*
X138628729Y-91417848D01*
X138455807Y-91340857D01*
X138455803Y-91340856D01*
X138390670Y-91327011D01*
X138329188Y-91293818D01*
X138328771Y-91293402D01*
X138261928Y-91226559D01*
X138250145Y-91212924D01*
X138235816Y-91193677D01*
X138235814Y-91193675D01*
X138235813Y-91193674D01*
X138235811Y-91193671D01*
X138195788Y-91160087D01*
X138191813Y-91156445D01*
X138188891Y-91153523D01*
X138185981Y-91150612D01*
X138160241Y-91130260D01*
X138101410Y-91080895D01*
X138095381Y-91076930D01*
X138095413Y-91076881D01*
X138089054Y-91072829D01*
X138089023Y-91072880D01*
X138082881Y-91069092D01*
X138082879Y-91069091D01*
X138082878Y-91069090D01*
X138040358Y-91049262D01*
X138013259Y-91036625D01*
X137979095Y-91019468D01*
X137944634Y-91002161D01*
X137944632Y-91002160D01*
X137944631Y-91002160D01*
X137937846Y-90999690D01*
X137937866Y-90999634D01*
X137930750Y-90997160D01*
X137930732Y-90997216D01*
X137923872Y-90994943D01*
X137896042Y-90989197D01*
X137848635Y-90979408D01*
X137799673Y-90967804D01*
X137773920Y-90961700D01*
X137766748Y-90960862D01*
X137766754Y-90960802D01*
X137759256Y-90960036D01*
X137759251Y-90960096D01*
X137752061Y-90959466D01*
X137675284Y-90961701D01*
X130605538Y-90961701D01*
X130538499Y-90942016D01*
X130532653Y-90938019D01*
X130518935Y-90928052D01*
X130518930Y-90928049D01*
X130346008Y-90851058D01*
X130346003Y-90851056D01*
X130194655Y-90818887D01*
X130160847Y-90811701D01*
X130160846Y-90811701D01*
X130154490Y-90810350D01*
X130154904Y-90808397D01*
X130099033Y-90785402D01*
X130059056Y-90728100D01*
X130056405Y-90658281D01*
X130077675Y-90613940D01*
X130080655Y-90609993D01*
X130192846Y-90428798D01*
X130192850Y-90428789D01*
X130269836Y-90230063D01*
X130269837Y-90230058D01*
X130282187Y-90164000D01*
X129325111Y-90164000D01*
X129364610Y-90139543D01*
X129432201Y-90050038D01*
X129462895Y-89942160D01*
X129452546Y-89830479D01*
X129402552Y-89730078D01*
X129330069Y-89664000D01*
X130282187Y-89664000D01*
X130269837Y-89597941D01*
X130269836Y-89597936D01*
X130192850Y-89399210D01*
X130192846Y-89399201D01*
X130080653Y-89218002D01*
X130080651Y-89218000D01*
X129937071Y-89060500D01*
X129766989Y-88932059D01*
X129576216Y-88837066D01*
X129576196Y-88837058D01*
X129371219Y-88778738D01*
X129371216Y-88778737D01*
X129212167Y-88764000D01*
X128909000Y-88764000D01*
X128909000Y-89614000D01*
X128409000Y-89614000D01*
X128409000Y-88764000D01*
X128105833Y-88764000D01*
X127946783Y-88778737D01*
X127946780Y-88778738D01*
X127741803Y-88837058D01*
X127741783Y-88837066D01*
X127551010Y-88932059D01*
X127380928Y-89060500D01*
X127237348Y-89218000D01*
X127237346Y-89218002D01*
X127125153Y-89399201D01*
X127125149Y-89399210D01*
X127048163Y-89597936D01*
X127048162Y-89597941D01*
X127035813Y-89664000D01*
X127992889Y-89664000D01*
X127953390Y-89688457D01*
X127885799Y-89777962D01*
X127855105Y-89885840D01*
X127865454Y-89997521D01*
X127915448Y-90097922D01*
X127987931Y-90164000D01*
X127035813Y-90164000D01*
X126607187Y-90164000D01*
X125650111Y-90164000D01*
X125689610Y-90139543D01*
X125757201Y-90050038D01*
X125787895Y-89942160D01*
X125777546Y-89830479D01*
X125727552Y-89730078D01*
X125655069Y-89664000D01*
X126607187Y-89664000D01*
X126594837Y-89597941D01*
X126594836Y-89597936D01*
X126517850Y-89399210D01*
X126517846Y-89399201D01*
X126405653Y-89218002D01*
X126405651Y-89218000D01*
X126262071Y-89060500D01*
X126091989Y-88932059D01*
X125901216Y-88837066D01*
X125901196Y-88837058D01*
X125696219Y-88778738D01*
X125696216Y-88778737D01*
X125537167Y-88764000D01*
X125084000Y-88764000D01*
X125084000Y-89614000D01*
X124584000Y-89614000D01*
X124584000Y-88764000D01*
X124130833Y-88764000D01*
X123971783Y-88778737D01*
X123971780Y-88778738D01*
X123766803Y-88837058D01*
X123766783Y-88837066D01*
X123576010Y-88932059D01*
X123405928Y-89060500D01*
X123262349Y-89217999D01*
X123253427Y-89232409D01*
X123201399Y-89279044D01*
X123132417Y-89290148D01*
X123068383Y-89262195D01*
X123029626Y-89204059D01*
X123024000Y-89167131D01*
X123024000Y-81344415D01*
X123043685Y-81277376D01*
X123096489Y-81231621D01*
X123165647Y-81221677D01*
X123229203Y-81250702D01*
X123258485Y-81288120D01*
X123291310Y-81352543D01*
X123502531Y-81677793D01*
X123711095Y-81935350D01*
X123711096Y-81935350D01*
X125202266Y-80444179D01*
X125365130Y-80634870D01*
X125555819Y-80797733D01*
X124064648Y-82288903D01*
X124064649Y-82288904D01*
X124322206Y-82497468D01*
X124647456Y-82708689D01*
X124993005Y-82884755D01*
X125355063Y-83023737D01*
X125729669Y-83124112D01*
X125729676Y-83124113D01*
X126112712Y-83184780D01*
X126499999Y-83205078D01*
X126500001Y-83205078D01*
X126887287Y-83184780D01*
X127270323Y-83124113D01*
X127270330Y-83124112D01*
X127644936Y-83023737D01*
X128006994Y-82884755D01*
X128352543Y-82708689D01*
X128677783Y-82497476D01*
X128677785Y-82497475D01*
X128935349Y-82288902D01*
X127444180Y-80797733D01*
X127634870Y-80634870D01*
X127797733Y-80444180D01*
X129288902Y-81935349D01*
X129497475Y-81677785D01*
X129497476Y-81677783D01*
X129708689Y-81352543D01*
X129884755Y-81006994D01*
X130023737Y-80644936D01*
X130124112Y-80270330D01*
X130124113Y-80270323D01*
X130143824Y-80145870D01*
X131501500Y-80145870D01*
X131501501Y-80145876D01*
X131507908Y-80205483D01*
X131558202Y-80340328D01*
X131558206Y-80340335D01*
X131644452Y-80455544D01*
X131644455Y-80455547D01*
X131759664Y-80541793D01*
X131759671Y-80541797D01*
X131894517Y-80592091D01*
X131894516Y-80592091D01*
X131901444Y-80592835D01*
X131954127Y-80598500D01*
X133089769Y-80598499D01*
X133156808Y-80618184D01*
X133177450Y-80634818D01*
X134562267Y-82019634D01*
X134574048Y-82033266D01*
X134588390Y-82052530D01*
X134628420Y-82086119D01*
X134632392Y-82089759D01*
X134638223Y-82095590D01*
X134638222Y-82095590D01*
X134663944Y-82115927D01*
X134722786Y-82165302D01*
X134722794Y-82165306D01*
X134728824Y-82169273D01*
X134728790Y-82169323D01*
X134735137Y-82173366D01*
X134735169Y-82173316D01*
X134741318Y-82177108D01*
X134741320Y-82177109D01*
X134741323Y-82177111D01*
X134810930Y-82209569D01*
X134879567Y-82244040D01*
X134879576Y-82244042D01*
X134886355Y-82246510D01*
X134886334Y-82246567D01*
X134893451Y-82249040D01*
X134893470Y-82248984D01*
X134900330Y-82251257D01*
X134975532Y-82266784D01*
X135050279Y-82284500D01*
X135050288Y-82284500D01*
X135057452Y-82285338D01*
X135057445Y-82285397D01*
X135064946Y-82286163D01*
X135064952Y-82286104D01*
X135072140Y-82286733D01*
X135072143Y-82286732D01*
X135072144Y-82286733D01*
X135148898Y-82284500D01*
X140607770Y-82284500D01*
X140674809Y-82304185D01*
X140695451Y-82320819D01*
X141707181Y-83332548D01*
X141740666Y-83393871D01*
X141743500Y-83420229D01*
X141743500Y-84518294D01*
X141742191Y-84536263D01*
X141738710Y-84560025D01*
X141743264Y-84612064D01*
X141743500Y-84617470D01*
X141743500Y-84625709D01*
X141747306Y-84658274D01*
X141754000Y-84734791D01*
X141755461Y-84741867D01*
X141755403Y-84741878D01*
X141757034Y-84749237D01*
X141757092Y-84749224D01*
X141758757Y-84756250D01*
X141785025Y-84828424D01*
X141809185Y-84901331D01*
X141812236Y-84907874D01*
X141812182Y-84907898D01*
X141815470Y-84914688D01*
X141815521Y-84914663D01*
X141818761Y-84921113D01*
X141818762Y-84921114D01*
X141818763Y-84921117D01*
X141857665Y-84980265D01*
X141860965Y-84985283D01*
X141901287Y-85050655D01*
X141905766Y-85056319D01*
X141905719Y-85056356D01*
X141910482Y-85062202D01*
X141910528Y-85062164D01*
X141915173Y-85067700D01*
X141971017Y-85120385D01*
X142680270Y-85829638D01*
X142692051Y-85843270D01*
X142706388Y-85862528D01*
X142746409Y-85896111D01*
X142750397Y-85899766D01*
X142756216Y-85905585D01*
X142756220Y-85905588D01*
X142756223Y-85905591D01*
X142781959Y-85925940D01*
X142840786Y-85975302D01*
X142840787Y-85975302D01*
X142840789Y-85975304D01*
X142846818Y-85979270D01*
X142846785Y-85979319D01*
X142853147Y-85983372D01*
X142853179Y-85983321D01*
X142859319Y-85987108D01*
X142859323Y-85987111D01*
X142894132Y-86003343D01*
X142928941Y-86019575D01*
X142992766Y-86051629D01*
X142997567Y-86054040D01*
X142997569Y-86054040D01*
X143004357Y-86056511D01*
X143004336Y-86056567D01*
X143011455Y-86059042D01*
X143011474Y-86058986D01*
X143018329Y-86061258D01*
X143093562Y-86076791D01*
X143168279Y-86094500D01*
X143168289Y-86094500D01*
X143175452Y-86095338D01*
X143175444Y-86095397D01*
X143182945Y-86096164D01*
X143182951Y-86096105D01*
X143190140Y-86096734D01*
X143190144Y-86096733D01*
X143190145Y-86096734D01*
X143266918Y-86094500D01*
X144384003Y-86094500D01*
X144451042Y-86114185D01*
X144471684Y-86130819D01*
X144645481Y-86304616D01*
X144675731Y-86353979D01*
X144714818Y-86474277D01*
X144714821Y-86474284D01*
X144809467Y-86638216D01*
X144936129Y-86778888D01*
X145089265Y-86890148D01*
X145089270Y-86890151D01*
X145262192Y-86967142D01*
X145262197Y-86967144D01*
X145447354Y-87006500D01*
X145447355Y-87006500D01*
X145636644Y-87006500D01*
X145636646Y-87006500D01*
X145821803Y-86967144D01*
X145994730Y-86890151D01*
X146147871Y-86778888D01*
X146274533Y-86638216D01*
X146369179Y-86474284D01*
X146427674Y-86294256D01*
X146447460Y-86106000D01*
X146427674Y-85917744D01*
X146369179Y-85737716D01*
X146274533Y-85573784D01*
X146147871Y-85433112D01*
X146147870Y-85433111D01*
X145994734Y-85321851D01*
X145994729Y-85321848D01*
X145821807Y-85244857D01*
X145821802Y-85244855D01*
X145713787Y-85221896D01*
X145652305Y-85188703D01*
X145652039Y-85188439D01*
X145546075Y-85082474D01*
X145512592Y-85021153D01*
X145517576Y-84951461D01*
X145559448Y-84895528D01*
X145572356Y-84887819D01*
X145572043Y-84887276D01*
X145576725Y-84884572D01*
X145576734Y-84884568D01*
X145763139Y-84754047D01*
X145924047Y-84593139D01*
X146054568Y-84406734D01*
X146081895Y-84348129D01*
X146128064Y-84295695D01*
X146195257Y-84276542D01*
X146262139Y-84296757D01*
X146306657Y-84348133D01*
X146333865Y-84406482D01*
X146464342Y-84592820D01*
X146625179Y-84753657D01*
X146811517Y-84884134D01*
X147017673Y-84980265D01*
X147017682Y-84980269D01*
X147213999Y-85032872D01*
X147214000Y-85032871D01*
X147214000Y-83989501D01*
X147321685Y-84038680D01*
X147428237Y-84054000D01*
X147499763Y-84054000D01*
X147606315Y-84038680D01*
X147714000Y-83989501D01*
X147714000Y-85032872D01*
X147910317Y-84980269D01*
X147910326Y-84980265D01*
X148116482Y-84884134D01*
X148302820Y-84753657D01*
X148463657Y-84592820D01*
X148594132Y-84406484D01*
X148621341Y-84348134D01*
X148667513Y-84295695D01*
X148734707Y-84276542D01*
X148801588Y-84296757D01*
X148846106Y-84348133D01*
X148873431Y-84406732D01*
X148873432Y-84406734D01*
X149003954Y-84593141D01*
X149164858Y-84754045D01*
X149164861Y-84754047D01*
X149351266Y-84884568D01*
X149557504Y-84980739D01*
X149557509Y-84980740D01*
X149557511Y-84980741D01*
X149610415Y-84994916D01*
X149777308Y-85039635D01*
X149939230Y-85053801D01*
X150003998Y-85059468D01*
X150004000Y-85059468D01*
X150004002Y-85059468D01*
X150060673Y-85054509D01*
X150230692Y-85039635D01*
X150450496Y-84980739D01*
X150656734Y-84884568D01*
X150843139Y-84754047D01*
X151004047Y-84593139D01*
X151134568Y-84406734D01*
X151161618Y-84348724D01*
X151207790Y-84296285D01*
X151274983Y-84277133D01*
X151341865Y-84297348D01*
X151386382Y-84348725D01*
X151413429Y-84406728D01*
X151413432Y-84406734D01*
X151543954Y-84593141D01*
X151704858Y-84754045D01*
X151865623Y-84866613D01*
X151909248Y-84921189D01*
X151918500Y-84968188D01*
X151918500Y-85151255D01*
X151916775Y-85166872D01*
X151917061Y-85166899D01*
X151916326Y-85174665D01*
X151918500Y-85243814D01*
X151918500Y-85273343D01*
X151918501Y-85273360D01*
X151919368Y-85280231D01*
X151919826Y-85286050D01*
X151921290Y-85332624D01*
X151921291Y-85332627D01*
X151926880Y-85351867D01*
X151930824Y-85370911D01*
X151933336Y-85390791D01*
X151950490Y-85434119D01*
X151952382Y-85439647D01*
X151965381Y-85484388D01*
X151975580Y-85501634D01*
X151984138Y-85519103D01*
X151991514Y-85537732D01*
X152018898Y-85575423D01*
X152022106Y-85580307D01*
X152045827Y-85620416D01*
X152045833Y-85620424D01*
X152059990Y-85634580D01*
X152072627Y-85649375D01*
X152084406Y-85665587D01*
X152089989Y-85670206D01*
X152120309Y-85695288D01*
X152124620Y-85699210D01*
X152400711Y-85975302D01*
X152477038Y-86051629D01*
X152510523Y-86112952D01*
X152512678Y-86126348D01*
X152516254Y-86160369D01*
X152530326Y-86294256D01*
X152530327Y-86294259D01*
X152588818Y-86474277D01*
X152588821Y-86474284D01*
X152683467Y-86638216D01*
X152810129Y-86778888D01*
X152963265Y-86890148D01*
X152963270Y-86890151D01*
X153136192Y-86967142D01*
X153136197Y-86967144D01*
X153321354Y-87006500D01*
X153321355Y-87006500D01*
X153510644Y-87006500D01*
X153510646Y-87006500D01*
X153695803Y-86967144D01*
X153868730Y-86890151D01*
X154021871Y-86778888D01*
X154148533Y-86638216D01*
X154243179Y-86474284D01*
X154301674Y-86294256D01*
X154321460Y-86106000D01*
X154301674Y-85917744D01*
X154243179Y-85737716D01*
X154148533Y-85573784D01*
X154021871Y-85433112D01*
X154021870Y-85433111D01*
X153868734Y-85321851D01*
X153868729Y-85321848D01*
X153695807Y-85244857D01*
X153695802Y-85244855D01*
X153550001Y-85213865D01*
X153510646Y-85205500D01*
X153510645Y-85205500D01*
X153451453Y-85205500D01*
X153384414Y-85185815D01*
X153363772Y-85169181D01*
X153232075Y-85037484D01*
X153198590Y-84976161D01*
X153203574Y-84906469D01*
X153245446Y-84850536D01*
X153248633Y-84848228D01*
X153383139Y-84754047D01*
X153544047Y-84593139D01*
X153674568Y-84406734D01*
X153770739Y-84200496D01*
X153829635Y-83980692D01*
X153844500Y-83810784D01*
X153844500Y-83297216D01*
X153829635Y-83127308D01*
X153777510Y-82932774D01*
X153770741Y-82907511D01*
X153770738Y-82907502D01*
X153726071Y-82811714D01*
X153674568Y-82701266D01*
X153544047Y-82514861D01*
X153544045Y-82514858D01*
X153383141Y-82353954D01*
X153196734Y-82223432D01*
X153196732Y-82223431D01*
X152990497Y-82127261D01*
X152990488Y-82127258D01*
X152770697Y-82068366D01*
X152770693Y-82068365D01*
X152770692Y-82068365D01*
X152770691Y-82068364D01*
X152770686Y-82068364D01*
X152544002Y-82048532D01*
X152543998Y-82048532D01*
X152317313Y-82068364D01*
X152317302Y-82068366D01*
X152097511Y-82127258D01*
X152097502Y-82127261D01*
X151891267Y-82223431D01*
X151891265Y-82223432D01*
X151704858Y-82353954D01*
X151543954Y-82514858D01*
X151413432Y-82701265D01*
X151413431Y-82701267D01*
X151386382Y-82759275D01*
X151340209Y-82811714D01*
X151273016Y-82830866D01*
X151206135Y-82810650D01*
X151161618Y-82759275D01*
X151134686Y-82701520D01*
X151134568Y-82701266D01*
X151004047Y-82514861D01*
X151004045Y-82514858D01*
X150843141Y-82353954D01*
X150656734Y-82223432D01*
X150656732Y-82223431D01*
X150450497Y-82127261D01*
X150450488Y-82127258D01*
X150230697Y-82068366D01*
X150230693Y-82068365D01*
X150230692Y-82068365D01*
X150230691Y-82068364D01*
X150230686Y-82068364D01*
X150004002Y-82048532D01*
X150003998Y-82048532D01*
X149777313Y-82068364D01*
X149777302Y-82068366D01*
X149557511Y-82127258D01*
X149557502Y-82127261D01*
X149351267Y-82223431D01*
X149351265Y-82223432D01*
X149164858Y-82353954D01*
X149003954Y-82514858D01*
X148879671Y-82692355D01*
X148873432Y-82701266D01*
X148873315Y-82701518D01*
X148846106Y-82759867D01*
X148799933Y-82812306D01*
X148732739Y-82831457D01*
X148665858Y-82811241D01*
X148621342Y-82759865D01*
X148594135Y-82701520D01*
X148594134Y-82701518D01*
X148463657Y-82515179D01*
X148302820Y-82354342D01*
X148116482Y-82223865D01*
X147910328Y-82127734D01*
X147714000Y-82075127D01*
X147714000Y-83118498D01*
X147606315Y-83069320D01*
X147499763Y-83054000D01*
X147428237Y-83054000D01*
X147321685Y-83069320D01*
X147214000Y-83118498D01*
X147214000Y-82075127D01*
X147017671Y-82127734D01*
X146811517Y-82223865D01*
X146625179Y-82354342D01*
X146464342Y-82515179D01*
X146333867Y-82701515D01*
X146306657Y-82759867D01*
X146260484Y-82812306D01*
X146193290Y-82831457D01*
X146126409Y-82811241D01*
X146081893Y-82759865D01*
X146054685Y-82701518D01*
X146054568Y-82701266D01*
X145924047Y-82514861D01*
X145924045Y-82514858D01*
X145763141Y-82353954D01*
X145576734Y-82223432D01*
X145576732Y-82223431D01*
X145370497Y-82127261D01*
X145370488Y-82127258D01*
X145150697Y-82068366D01*
X145150693Y-82068365D01*
X145150692Y-82068365D01*
X145150691Y-82068364D01*
X145150686Y-82068364D01*
X144924002Y-82048532D01*
X144923996Y-82048532D01*
X144869787Y-82053274D01*
X144801287Y-82039507D01*
X144751105Y-81990891D01*
X144735172Y-81922862D01*
X144758548Y-81857019D01*
X144771289Y-81842076D01*
X145519638Y-81093727D01*
X145533267Y-81081950D01*
X145552530Y-81067610D01*
X145552532Y-81067606D01*
X145552534Y-81067606D01*
X145580122Y-81034726D01*
X145586113Y-81027585D01*
X145589767Y-81023599D01*
X145595590Y-81017777D01*
X145615923Y-80992060D01*
X145665302Y-80933214D01*
X145665309Y-80933198D01*
X145669272Y-80927176D01*
X145669324Y-80927210D01*
X145673371Y-80920858D01*
X145673317Y-80920825D01*
X145677104Y-80914684D01*
X145677110Y-80914677D01*
X145709561Y-80845086D01*
X145732992Y-80798430D01*
X145744040Y-80776433D01*
X145744042Y-80776421D01*
X145746510Y-80769644D01*
X145746568Y-80769665D01*
X145749043Y-80762546D01*
X145748985Y-80762527D01*
X145751254Y-80755678D01*
X145751254Y-80755676D01*
X145751256Y-80755673D01*
X145763282Y-80697424D01*
X145796116Y-80635752D01*
X145857081Y-80601619D01*
X145884721Y-80598499D01*
X145931871Y-80598499D01*
X145931872Y-80598499D01*
X145991483Y-80592091D01*
X146126331Y-80541796D01*
X146241546Y-80455546D01*
X146327796Y-80340331D01*
X146377002Y-80208401D01*
X146418872Y-80152468D01*
X146484337Y-80128050D01*
X146552610Y-80142901D01*
X146580865Y-80164053D01*
X146702917Y-80286105D01*
X146896421Y-80421600D01*
X147110507Y-80521429D01*
X147110516Y-80521433D01*
X147324000Y-80578634D01*
X147324000Y-79683501D01*
X147431685Y-79732680D01*
X147538237Y-79748000D01*
X147609763Y-79748000D01*
X147716315Y-79732680D01*
X147824000Y-79683501D01*
X147824000Y-80578633D01*
X148037483Y-80521433D01*
X148037492Y-80521429D01*
X148251578Y-80421600D01*
X148445082Y-80286105D01*
X148612105Y-80119082D01*
X148742119Y-79933405D01*
X148796696Y-79889781D01*
X148866195Y-79882588D01*
X148928549Y-79914110D01*
X148945269Y-79933405D01*
X149075505Y-80119401D01*
X149242599Y-80286495D01*
X149339384Y-80354265D01*
X149436165Y-80422032D01*
X149436167Y-80422033D01*
X149436170Y-80422035D01*
X149650337Y-80521903D01*
X149878592Y-80583063D01*
X150055034Y-80598500D01*
X150113999Y-80603659D01*
X150114000Y-80603659D01*
X150114001Y-80603659D01*
X150172966Y-80598500D01*
X150349408Y-80583063D01*
X150577663Y-80521903D01*
X150791830Y-80422035D01*
X150985401Y-80286495D01*
X151152495Y-80119401D01*
X151282425Y-79933842D01*
X151337002Y-79890217D01*
X151406500Y-79883023D01*
X151468855Y-79914546D01*
X151485575Y-79933842D01*
X151615500Y-80119395D01*
X151615505Y-80119401D01*
X151782599Y-80286495D01*
X151879384Y-80354265D01*
X151976165Y-80422032D01*
X151976167Y-80422033D01*
X151976170Y-80422035D01*
X152190337Y-80521903D01*
X152418592Y-80583063D01*
X152595034Y-80598500D01*
X152653999Y-80603659D01*
X152654000Y-80603659D01*
X152654001Y-80603659D01*
X152712966Y-80598500D01*
X152889408Y-80583063D01*
X153117663Y-80521903D01*
X153331830Y-80422035D01*
X153525401Y-80286495D01*
X153692495Y-80119401D01*
X153828035Y-79925830D01*
X153927903Y-79711663D01*
X153989063Y-79483408D01*
X154009659Y-79248000D01*
X153989063Y-79012592D01*
X153927903Y-78784337D01*
X153828035Y-78570171D01*
X153824962Y-78565781D01*
X153692494Y-78376597D01*
X153525402Y-78209506D01*
X153525395Y-78209501D01*
X153522944Y-78207785D01*
X153449742Y-78156528D01*
X153331834Y-78073967D01*
X153331830Y-78073965D01*
X153297983Y-78058182D01*
X153117663Y-77974097D01*
X153117659Y-77974096D01*
X153117655Y-77974094D01*
X152889413Y-77912938D01*
X152889403Y-77912936D01*
X152654001Y-77892341D01*
X152653999Y-77892341D01*
X152418596Y-77912936D01*
X152418586Y-77912938D01*
X152190344Y-77974094D01*
X152190335Y-77974098D01*
X151976171Y-78073964D01*
X151976169Y-78073965D01*
X151782597Y-78209505D01*
X151615505Y-78376597D01*
X151485575Y-78562158D01*
X151430998Y-78605783D01*
X151361500Y-78612977D01*
X151299145Y-78581454D01*
X151282425Y-78562158D01*
X151152494Y-78376597D01*
X150985402Y-78209506D01*
X150985395Y-78209501D01*
X150982944Y-78207785D01*
X150909742Y-78156528D01*
X150791834Y-78073967D01*
X150791830Y-78073965D01*
X150757983Y-78058182D01*
X150577663Y-77974097D01*
X150577659Y-77974096D01*
X150577655Y-77974094D01*
X150349413Y-77912938D01*
X150349403Y-77912936D01*
X150114001Y-77892341D01*
X150113999Y-77892341D01*
X149878596Y-77912936D01*
X149878586Y-77912938D01*
X149650344Y-77974094D01*
X149650335Y-77974098D01*
X149436171Y-78073964D01*
X149436169Y-78073965D01*
X149242597Y-78209505D01*
X149075508Y-78376594D01*
X148945269Y-78562595D01*
X148890692Y-78606219D01*
X148821193Y-78613412D01*
X148758839Y-78581890D01*
X148742119Y-78562594D01*
X148612113Y-78376926D01*
X148612108Y-78376920D01*
X148445082Y-78209894D01*
X148251578Y-78074399D01*
X148037492Y-77974570D01*
X148037486Y-77974567D01*
X147824000Y-77917364D01*
X147824000Y-78812498D01*
X147716315Y-78763320D01*
X147609763Y-78748000D01*
X147538237Y-78748000D01*
X147431685Y-78763320D01*
X147324000Y-78812498D01*
X147324000Y-77917364D01*
X147323999Y-77917364D01*
X147110513Y-77974567D01*
X147110507Y-77974570D01*
X146896422Y-78074399D01*
X146896420Y-78074400D01*
X146702926Y-78209886D01*
X146580865Y-78331947D01*
X146519542Y-78365431D01*
X146449850Y-78360447D01*
X146393917Y-78318575D01*
X146377002Y-78287598D01*
X146327797Y-78155671D01*
X146327793Y-78155664D01*
X146241547Y-78040455D01*
X146241544Y-78040452D01*
X146126335Y-77954206D01*
X146126328Y-77954202D01*
X145991482Y-77903908D01*
X145991483Y-77903908D01*
X145931883Y-77897501D01*
X145931881Y-77897500D01*
X145931873Y-77897500D01*
X145931864Y-77897500D01*
X144136129Y-77897500D01*
X144136123Y-77897501D01*
X144076516Y-77903908D01*
X143941671Y-77954202D01*
X143941664Y-77954206D01*
X143826455Y-78040452D01*
X143826452Y-78040455D01*
X143740206Y-78155664D01*
X143740202Y-78155671D01*
X143689908Y-78290517D01*
X143683501Y-78350116D01*
X143683500Y-78350135D01*
X143683500Y-80145870D01*
X143683501Y-80145876D01*
X143689908Y-80205483D01*
X143740202Y-80340328D01*
X143740206Y-80340335D01*
X143826452Y-80455544D01*
X143826453Y-80455544D01*
X143826454Y-80455546D01*
X143831205Y-80459102D01*
X143873078Y-80515032D01*
X143878065Y-80584724D01*
X143844583Y-80646048D01*
X143844579Y-80646052D01*
X142581680Y-81908950D01*
X142520357Y-81942435D01*
X142450665Y-81937451D01*
X142406318Y-81908950D01*
X141545729Y-81048361D01*
X141533949Y-81034730D01*
X141523088Y-81020142D01*
X141519612Y-81015472D01*
X141519610Y-81015470D01*
X141479587Y-80981886D01*
X141475612Y-80978244D01*
X141472690Y-80975322D01*
X141469780Y-80972411D01*
X141444040Y-80952059D01*
X141414386Y-80927176D01*
X141385214Y-80902698D01*
X141385213Y-80902697D01*
X141385209Y-80902694D01*
X141379180Y-80898729D01*
X141379212Y-80898680D01*
X141372853Y-80894628D01*
X141372822Y-80894679D01*
X141366680Y-80890891D01*
X141366678Y-80890890D01*
X141366677Y-80890889D01*
X141327474Y-80872608D01*
X141297058Y-80858424D01*
X141262894Y-80841267D01*
X141228433Y-80823960D01*
X141228431Y-80823959D01*
X141228430Y-80823959D01*
X141221645Y-80821489D01*
X141221665Y-80821433D01*
X141214549Y-80818959D01*
X141214531Y-80819015D01*
X141207671Y-80816742D01*
X141179841Y-80810996D01*
X141132434Y-80801207D01*
X141083472Y-80789603D01*
X141057719Y-80783499D01*
X141050547Y-80782661D01*
X141050553Y-80782601D01*
X141043055Y-80781835D01*
X141043050Y-80781895D01*
X141035860Y-80781265D01*
X140959083Y-80783500D01*
X140899311Y-80783500D01*
X140832272Y-80763815D01*
X140786517Y-80711011D01*
X140776573Y-80641853D01*
X140805598Y-80578297D01*
X140864376Y-80540523D01*
X140867218Y-80539725D01*
X140935483Y-80521433D01*
X140935492Y-80521429D01*
X141149578Y-80421600D01*
X141343082Y-80286105D01*
X141510105Y-80119082D01*
X141645600Y-79925578D01*
X141745429Y-79711492D01*
X141745432Y-79711486D01*
X141802636Y-79498000D01*
X140905686Y-79498000D01*
X140931493Y-79457844D01*
X140972000Y-79319889D01*
X140972000Y-79176111D01*
X140931493Y-79038156D01*
X140905686Y-78998000D01*
X141802636Y-78998000D01*
X141802635Y-78997999D01*
X141745432Y-78784513D01*
X141745429Y-78784507D01*
X141645600Y-78570422D01*
X141645599Y-78570420D01*
X141510113Y-78376926D01*
X141510108Y-78376920D01*
X141343082Y-78209894D01*
X141149578Y-78074399D01*
X140935492Y-77974570D01*
X140935486Y-77974567D01*
X140722000Y-77917364D01*
X140722000Y-78812498D01*
X140614315Y-78763320D01*
X140507763Y-78748000D01*
X140436237Y-78748000D01*
X140329685Y-78763320D01*
X140222000Y-78812498D01*
X140222000Y-77917364D01*
X140221999Y-77917364D01*
X140008513Y-77974567D01*
X140008507Y-77974570D01*
X139794422Y-78074399D01*
X139794420Y-78074400D01*
X139600926Y-78209886D01*
X139600920Y-78209891D01*
X139433891Y-78376920D01*
X139433890Y-78376922D01*
X139303880Y-78562595D01*
X139249303Y-78606219D01*
X139179804Y-78613412D01*
X139117450Y-78581890D01*
X139100730Y-78562594D01*
X138970494Y-78376597D01*
X138803402Y-78209506D01*
X138803395Y-78209501D01*
X138800944Y-78207785D01*
X138727742Y-78156528D01*
X138609834Y-78073967D01*
X138609830Y-78073965D01*
X138575983Y-78058182D01*
X138395663Y-77974097D01*
X138395659Y-77974096D01*
X138395655Y-77974094D01*
X138167413Y-77912938D01*
X138167403Y-77912936D01*
X137932001Y-77892341D01*
X137931999Y-77892341D01*
X137696596Y-77912936D01*
X137696586Y-77912938D01*
X137468344Y-77974094D01*
X137468335Y-77974098D01*
X137254171Y-78073964D01*
X137254169Y-78073965D01*
X137060597Y-78209505D01*
X136893505Y-78376597D01*
X136763575Y-78562158D01*
X136708998Y-78605783D01*
X136639500Y-78612977D01*
X136577145Y-78581454D01*
X136560425Y-78562158D01*
X136430494Y-78376597D01*
X136263402Y-78209506D01*
X136263395Y-78209501D01*
X136260944Y-78207785D01*
X136187742Y-78156528D01*
X136069834Y-78073967D01*
X136069830Y-78073965D01*
X136035983Y-78058182D01*
X135855663Y-77974097D01*
X135855659Y-77974096D01*
X135855655Y-77974094D01*
X135627413Y-77912938D01*
X135627403Y-77912936D01*
X135392001Y-77892341D01*
X135391999Y-77892341D01*
X135156596Y-77912936D01*
X135156586Y-77912938D01*
X134928344Y-77974094D01*
X134928335Y-77974098D01*
X134714171Y-78073964D01*
X134714169Y-78073965D01*
X134520600Y-78209503D01*
X134398673Y-78331430D01*
X134337350Y-78364914D01*
X134267658Y-78359930D01*
X134211725Y-78318058D01*
X134194810Y-78287081D01*
X134145797Y-78155671D01*
X134145793Y-78155664D01*
X134059547Y-78040455D01*
X134059544Y-78040452D01*
X133944335Y-77954206D01*
X133944328Y-77954202D01*
X133809482Y-77903908D01*
X133809483Y-77903908D01*
X133749883Y-77897501D01*
X133749881Y-77897500D01*
X133749873Y-77897500D01*
X133749864Y-77897500D01*
X131954129Y-77897500D01*
X131954123Y-77897501D01*
X131894516Y-77903908D01*
X131759671Y-77954202D01*
X131759664Y-77954206D01*
X131644455Y-78040452D01*
X131644452Y-78040455D01*
X131558206Y-78155664D01*
X131558202Y-78155671D01*
X131507908Y-78290517D01*
X131501501Y-78350116D01*
X131501500Y-78350135D01*
X131501500Y-80145870D01*
X130143824Y-80145870D01*
X130184780Y-79887287D01*
X130205078Y-79500000D01*
X130205078Y-79499999D01*
X130184780Y-79112712D01*
X130124113Y-78729676D01*
X130124112Y-78729669D01*
X130023737Y-78355063D01*
X129884755Y-77993005D01*
X129708689Y-77647456D01*
X129497468Y-77322206D01*
X129288904Y-77064649D01*
X129288903Y-77064648D01*
X127797732Y-78555818D01*
X127634870Y-78365130D01*
X127444179Y-78202266D01*
X128935350Y-76711096D01*
X128935350Y-76711095D01*
X128677793Y-76502531D01*
X128352543Y-76291310D01*
X128252793Y-76240485D01*
X128201997Y-76192511D01*
X128185202Y-76124690D01*
X128207739Y-76058555D01*
X128262454Y-76015103D01*
X128309088Y-76006000D01*
X190190912Y-76006000D01*
X190257951Y-76025685D01*
G37*
%TD.AperFunction*%
%TD*%
M02*
