<?xml version="1.0" encoding="UTF-8"?>
<svg width="264.2mm" height="224.56mm" version="1.1" viewBox="0 0 264.2 224.56" xmlns="http://www.w3.org/2000/svg">
<g transform="translate(4.587 15.808)">
<path d="m25.546 208.54c-8.5145-1.2086-15.06-4.368-20.76-10.021-2.6857-2.6633-3.6335-4.0131-6.329-9.0143-2.8415-5.2721-3.7179-13.233-2.5268-22.953 0.29719-2.4253 0.62288-5.2828 0.72376-6.35 0.10088-1.0672 0.40863-3.369 0.68389-5.1153 0.27526-1.7462 0.98219-6.7469 1.571-11.113 0.58876-4.3656 1.222-8.89 1.4073-10.054 0.18525-1.1642 0.4297-2.9898 0.54322-4.057 0.19255-1.8099 1.2871-10.109 2.4659-18.697 0.27964-2.0373 0.76297-5.6092 1.0741-7.9375 0.3111-2.3283 0.88081-6.4558 1.266-9.1722 0.38522-2.7164 0.90864-6.447 1.1631-8.2903 0.72574-5.2561 1.27-9.0036 1.9724-13.582 0.35723-2.3283 0.7545-5.3446 0.88283-6.7028 0.12832-1.3582 0.38539-3.181 0.57126-4.0508 0.18587-0.86974 0.56599-3.4097 0.84471-5.6444 0.27872-2.2347 0.90794-6.8412 1.3983-10.237s1.1292-7.9992 1.4196-10.231c0.29045-2.2313 0.60601-4.2716 0.70124-4.5339 0.09523-0.2623 0.4129-2.7229 0.70594-5.4681 0.47687-4.4672 1.5195-10.825 2.6243-16.002 0.43858-2.0553 3.5472-9.8359 4.6917-11.743 2.3413-3.9012 6.1191-7.5875 9.5189-9.2885 2.6564-1.329 2.8196-1.3619 10.038-2.0184 16.798-1.5279 27.974-1.8169 77.54-2.0049 54.368-0.2062 59.936-0.0882 93.664 1.9846 3.6334 0.22329 4.9716 0.47144 7.5865 1.4068 2.7987 1.0011 3.5202 1.4513 6.0881 3.7986 3.2242 2.9472 4.8989 5.4807 7.3569 11.129 1.6329 3.7527 3.8055 12.679 4.1906 17.217 0.12349 1.4552 0.52215 4.3921 0.88591 6.5264 0.88463 5.1904 1.6707 10.467 1.9446 13.053 0.12331 1.1642 0.43846 3.466 0.70032 5.1153s0.57401 4.0305 0.69368 5.2917c0.11966 1.2612 0.44825 3.8806 0.73021 5.8208 0.93333 6.4227 2.2644 15.123 2.8066 18.344 0.51908 3.0843 1.1033 7.0765 2.1339 14.583 0.27539 2.0057 0.64928 4.2282 0.83089 4.9389 0.1816 0.71072 0.43805 2.4828 0.56987 3.9381 0.13183 1.4552 0.37739 3.3944 0.54567 4.3094 0.16829 0.91498 0.47063 3.0581 0.67188 4.7625 0.20124 1.7044 0.67168 5.242 1.0454 7.8614 1.1019 7.7228 1.7555 12.724 1.9825 15.169 0.11706 1.2612 0.3775 2.928 0.57874 3.7042 0.20125 0.77611 0.57183 2.9986 0.8235 4.9389 0.25168 1.9403 1.0214 7.3378 1.7105 11.994 1.2972 8.7664 2.3358 19.757 2.3358 24.718 0 4.3264-0.9208 10.231-2.0043 12.853-0.89069 2.1553-2.9574 5.7773-4.4284 7.7611-1.5151 2.0433-5.8756 6.1502-7.6231 7.1797-1.0367 0.61081-2.4655 1.4711-3.175 1.9118-0.70953 0.44067-1.5282 0.88969-1.8192 0.99782-0.29104 0.10812-1.2435 0.50019-2.1167 0.87126-0.87312 0.37106-3.0956 1.0328-4.9389 1.4705l-3.3514 0.79587-101.42 0.042c-55.783 0.0231-102.22-0.0707-103.19-0.20838zm206.59-10.422c2.6403-0.5554 5.9307-2.0295 8.0772-3.6187 1.7358-1.285 6.655-6.4108 7.2668-7.5719 0.28047-0.53226 0.66976-1.3881 0.8651-1.9019 0.35059-0.92213 0.34482-0.92667-0.4488-0.35274-0.83208 0.60175-1.6894 1.1768-3.8026 2.5506-1.4083 0.9155-4.3956 1.9933-7.9598 2.8717-2.276 0.56097-9.7701 0.61036-107.14 0.7061-104.38 0.10263-104.71 0.10075-108.3-0.62096-5.1442-1.032-6.3413-1.4855-10.586-4.0106-2.0801-1.2374-3.7821-2.1819-3.7821-2.099 0 0.66218 3.3503 5.0232 5.8996 7.6793 3.481 3.6269 5.2764 4.7023 10.057 6.0238l2.9172 0.80641 102.19 0.0374c90.235 0.0331 102.49-0.0254 104.75-0.49945zm4.247-18.459c2.6891-0.73491 6.3546-3.187 8.8658-5.931 1.8937-2.0692 2.4558-2.9736 3.1094-5.0031l0.79787-2.4773-0.79938-6.4622c-0.43966-3.5542-1.0088-7.7322-1.2648-9.2844-1.044-6.3306-2.4679-16.402-3.8902-27.517-0.94976-7.422-1.4702-11.118-2.5834-18.344-0.59773-3.8806-1.6529-11.183-2.3448-16.228-1.518-11.068-2.2225-15.762-2.6472-17.639-0.17559-0.77611-0.41711-2.3636-0.53669-3.5278-0.11959-1.1642-0.76773-5.9267-1.4403-10.583-0.67259-4.6567-1.448-10.213-1.723-12.347-0.27507-2.1343-0.5838-4.4362-0.68606-5.1153s-0.35208-2.6635-0.55515-4.4097c-0.20308-1.7462-0.59565-4.5244-0.87238-6.1736-0.27672-1.6492-0.76534-5.0624-1.0858-7.5847-1.2509-9.8455-3.6612-17.122-6.8762-20.758-1.9778-2.2371-3.7245-3.3044-6.4217-3.924-6.79-1.5599-27.509-2.0904-82.46-2.1113-71.41-0.0272-89.611 0.49752-95.879 2.7645-1.9757 0.71454-4.9886 3.8363-6.6248 6.8643-2.2424 4.1498-3.2182 8.303-5.0691 21.575-0.58178 4.1716-1.2228 8.696-1.4246 10.054-0.53253 3.5855-1.6663 12.319-2.3128 17.815-0.89721 7.6279-1.9726 15.384-3.3262 23.989-0.16787 1.0672-0.79479 5.3534-1.3932 9.525-0.59836 4.1716-1.3267 9.1722-1.6185 11.112-0.29179 1.9403-0.68965 4.8375-0.88414 6.4382-1.1297 9.298-2.407 18.697-2.6487 19.491-0.16515 0.5423-1.0765 7.2335-2.3064 16.933-0.38132 3.0074-0.84434 6.3412-1.029 7.4083-0.18461 1.0672-0.51335 3.6072-0.73054 5.6444s-0.63649 5.0449-0.93178 6.6836c-0.66705 3.7017-0.41296 7.5688 0.63435 9.6542 1.1078 2.2059 6.4359 7.2284 8.7751 8.2718 4.2523 1.8968-1.9047 1.8025 112.36 1.7206 84.504-0.0605 106.52-0.16742 107.82-0.52364zm-114.88-6.6052c-0.58208-0.0811-2.8024-0.32478-4.934-0.54147-7.8015-0.79305-17.913-3.8895-27.63-8.4615-1.612-0.75843-2.9914-1.379-3.0654-1.379-0.16338 0-5.1552-3.5701-6.5371-4.6752-0.54522-0.43605-1.6397-1.1822-2.4321-1.6581-1.6779-1.0078-5.4283-4.8138-8.0986-8.2187-1.0271-1.3097-1.985-2.3812-2.1287-2.3812-0.56876 0-7.7008 2.1077-9.0266 2.6676-2.861 1.2082-17.947 6.3513-25.224 8.5993-2.6194 0.80919-5.2838 1.7008-5.921 1.9813-1.6178 0.7123-2.1484 0.641-2.5996-0.34936-0.81002-1.7778 0.14191-2.3881 7.4623-4.7842 2.2313-0.73035 5.0888-1.7208 6.35-2.201 8.379-3.1905 10.983-4.106 12.7-4.4648 1.8516-0.38691 13.652-4.5124 14.194-4.962 0.14243-0.11831-0.43434-1.956-1.2817-4.0836-0.84736-2.1277-1.6399-4.1628-1.7612-4.5225-0.14541-0.43108-0.41917-0.57776-0.80326-0.43037-0.32047 0.12297-4.8832 0.92717-10.139 1.7871-10.46 1.7112-15.95 2.681-24.197 4.2739-2.2972 0.44372-2.2949 0.44517-2.2692-1.3884 0.01489-1.0612 0.21091-1.8189 0.51997-2.0099 0.48738-0.30121 1.1934-0.42475 8.9811-1.5714 2.1343-0.31426 5.9443-0.94981 8.4667-1.4123 14.051-2.5765 18.539-3.4579 18.639-3.6607 0.06143-0.1241 0.04316-1.5353-0.0406-3.1361l-0.1523-2.9104-13.986-2e-3c-7.6921-1e-3 -15.533-0.10438-17.425-0.22966l-3.4396-0.22777v-3.0686h34.855l0.37608-1.6757c0.20684-0.92163 0.42112-2.1385 0.47616-2.7041l0.10008-1.0284-4.9389-1.1834c-12.503-2.9958-15.564-3.764-16.123-4.0473-0.33041-0.16733-2.0767-0.60401-3.8806-0.97041-4.3428-0.8821-6.6778-1.8295-7.3334-2.9754-0.46978-0.82111-0.46616-0.9787 0.03397-1.4788 0.50876-0.50876 0.83002-0.51041 3.5244-0.0182 4.5996 0.84031 8.7253 1.8445 11.461 2.7894 1.3746 0.47481 3.2002 0.97885 4.0569 1.1201 1.2611 0.20792 4.5409 1.0073 8.7896 2.1422 4.1022 1.0958 5.3919 1.3198 5.8658 1.0187 0.29201-0.18555 1.0886-1.3692 1.7702-2.6304 1.5701-2.9051 4.3207-7.0248 5.2404-7.8489 0.38806-0.34769 1.1616-0.88121 1.719-1.1856l1.0135-0.55345-0.23529-3.9373c-0.12941-2.1655-0.38337-5.1279-0.56436-6.5831-0.18099-1.4552-0.59435-6.415-0.91857-11.022l-0.5895-8.3759 1.3153-2.6264c1.6828-3.3602 2.4037-3.8452 5.4481-3.6649 1.7853 0.10569 2.8779 0.41889 4.6298 1.3272 1.2612 0.65385 3.5631 1.8387 5.1153 2.633 1.5522 0.79429 3.2191 1.7872 3.7042 2.2064 0.48507 0.41925 2.5488 2.0697 4.5861 3.6677s4.2889 3.4597 5.0035 4.137c1.2255 1.1616 1.3977 1.2185 3.0308 1.0018 0.95232-0.12633 2.6695-0.47646 3.8159-0.77808 3.9668-1.0436 11.283-1.9373 17.607-2.1507 9.6379-0.32519 18.382 0.54574 26.991 2.6884 3.3796 0.84111 3.3506 0.85047 6.5232-2.1061 0.97014-0.90407 2.7164-2.306 3.8806-3.1154 1.1642-0.80941 2.831-2.0211 3.7042-2.6925 0.87313-0.67149 1.7142-1.2247 1.869-1.2294 0.15485-5e-3 1.1074-0.52698 2.1167-1.1606 3.578-2.2461 5.4432-2.9049 8.2251-2.9049 2.451 0 2.6252 0.0556 3.8641 1.2347 2.6384 2.5109 2.6059 2.2782 2.6146 18.754l8e-3 14.697 1.3422 1.7074c4.5262 5.7578 6.0212 7.9712 7.6276 11.293 0.0161 0.0332 1.3779-0.34394 3.0262-0.83807 1.6484-0.49414 4.1877-1.1758 5.6429-1.5148 3.3792-0.78724 7.3568-1.7965 11.818-2.9987 7.6702-2.0668 8.9063-2.3306 11.241-2.399 1.9703-0.0577 2.4962 0.0442 2.8204 0.54647 0.92796 1.4375-0.28199 1.9674-11.063 4.8447-1.4552 0.38838-3.519 0.953-4.5861 1.2547-2.5187 0.71209-8.6951 2.2012-11.75 2.8328-1.3208 0.27309-3.244 0.74148-4.2739 1.0409l-1.8725 0.54436 0.31019 1.6645c0.62764 3.368-1.5525 3.0353 17.979 2.7437l17.246-0.25745v3.1213l-10.848 0.23269c-5.9664 0.12799-13.643 0.23298-17.06 0.23332l-6.2121 7e-4 -0.1939 3.0868c-0.11661 1.8564-0.052 3.2589 0.16211 3.5184 0.19581 0.2374 0.93537 0.53273 1.6435 0.65629 0.70811 0.12355 4.0656 0.77709 7.4611 1.4523 7.1097 1.4138 6.9215 1.3786 11.112 2.0778 5.4035 0.90143 6.9482 1.1395 10.231 1.5769 4.7117 0.62785 4.7625 0.65887 4.7625 2.9098 0 2.2478-0.17232 2.4951-1.2476 1.7905-1.0164-0.66594-5.3254-1.5375-14.627-2.9587-3.9776-0.60769-7.7876-1.2443-8.4667-1.4147s-3.2191-0.64553-5.6444-1.0559c-2.4253-0.41038-4.8066-0.81976-5.2917-0.90973-0.77794-0.1443-0.95888 0.035-1.5343 1.5207-2.0018 5.1685-2.6932 7.2982-2.4462 7.5357 0.15199 0.14621 1.1495 0.58122 2.2166 0.96669 1.0672 0.38548 3.2896 1.2054 4.9389 1.8221 1.6492 0.61667 4.0875 1.3516 5.4184 1.6331 1.3308 0.28152 3.7915 1.07 5.468 1.7521 4.7641 1.9384 14.709 5.5715 18.306 6.6876l3.2632 1.0125v1.9048c0 1.6808-0.0726 1.8734-0.61737 1.6375-0.33954-0.14702-4.1892-1.4453-8.5549-2.885-4.3656-1.4397-9.525-3.2296-11.465-3.9774-1.9403-0.74786-5.4328-2.0142-7.7611-2.814-2.3283-0.79986-5.1065-1.7655-6.1736-2.1459-2.5454-0.90745-5.8267-1.7442-6.8398-1.7442-0.56991 0-1.2928 0.62409-2.4522 2.1171-0.90425 1.1644-1.6441 2.2666-1.6441 2.4492 0 0.4864-6.4962 6.0613-7.655 6.5694-0.54344 0.23825-1.4905 0.90449-2.1045 1.4805-2.3272 2.1832-6.4584 4.4325-14.229 7.7474-6.3305 2.7004-14.168 4.883-21.343 5.9439-3.3785 0.49952-16.843 0.96245-19.05 0.65495zm15.346-7.1984c11.231-1.3258 18.806-3.4159 25.929-7.1539 1.9933-1.046 2.258-1.1753 4.2333-2.067 3.1345-1.415 7.3919-4.4215 10.613-7.4948 1.7299-1.6504 3.7406-3.5698 4.4682-4.2652 0.7276-0.69546 1.3208-1.3809 1.3182-1.5231-2e-3 -0.14226-0.75665-0.51848-1.6757-0.83606-0.91904-0.31757-4.2904-1.558-7.4918-2.7564-3.2015-1.1984-7.4877-2.7325-9.525-3.4089s-4.2044-1.4601-4.8158-1.7415c-1.4529-0.66862-1.7303-0.64856-2.8903 0.2091-0.53614 0.39637-1.9635 0.95132-3.1718 1.2332-2.3736 0.55372-4.7532 1.6249-5.879 2.6465-0.97943 0.88873-4.2383 2.7582-8.8194 5.0592-4.5954 2.3082-7.7208 2.9149-13.274 2.5766-5.5489-0.33805-9.5198-2.0356-17.954-7.6753-1.1691-0.78169-2.764-1.4717-3.99-1.7262-1.3261-0.27529-2.4535-0.78488-3.2143-1.4529-0.64452-0.56591-1.494-1.0289-1.8876-1.0289-2.0361 0-9.5525 2.3833-18.594 5.8959-1.7462 0.6784-4.0084 1.5458-5.0271 1.9275-1.0186 0.38171-1.8521 0.91064-1.8521 1.1754 0 0.26476 0.59531 1.0468 1.3229 1.7378 0.7276 0.69102 2.3548 2.2759 3.616 3.522 3.6658 3.6219 8.5849 6.9712 13.295 9.0527 1.3219 0.58414 3.1972 1.4476 4.1673 1.9188 0.97014 0.47123 2.4646 1.1012 3.3209 1.4 0.85637 0.29879 1.7492 0.70272 1.984 0.89762 0.59625 0.49484 8.0236 2.3038 13.062 3.1814 8.6761 1.5111 14.357 1.6852 22.731 0.69666zm-4.1636-26.274c2.3516-0.49838 4.0192-1.1601 3.7079-1.4714-0.0898-0.0898-0.53999-0.22658-1.0004-0.3039-0.46037-0.0773-1.8689-0.31467-3.1301-0.52746-1.2612-0.21279-2.7378-0.5621-3.2815-0.77623-0.74674-0.29414-1.3505-0.27578-2.4694 0.0751-0.81456 0.25544-2.751 0.55591-4.3032 0.66773-1.567 0.11288-2.7998 0.36021-2.7718 0.55608 0.0277 0.19403 1.139 0.78306 2.4694 1.309 2.8434 1.1239 6.8687 1.2998 10.779 0.4711zm52.847-0.66794c0-0.43259 0.33601-1.4154 0.7467-2.184 1.593-2.9816 2.0755-4.0272 2.0755-4.4985 0-0.34634-1.056-0.66403-3.616-1.0878-4.7686-0.78943-14.369-1.9438-20.667-2.485-3.6195-0.31104-5.1467-0.57738-5.3745-0.93731-0.17501-0.27654-0.32064-1.1775-0.32361-2.0021l-5e-3 -1.4993 2.2049 9e-3c1.2127 5e-3 3.713 0.15635 5.5562 0.33632s5.0183 0.48941 7.0556 0.68765c4.0409 0.39321 11.991 1.3069 14.376 1.6522l1.4993 0.21708v-2.7975c0-2.8494-0.5249-6.5164-1.0817-7.5568-0.2819-0.52673-0.63525-0.50528-4.1113 0.24964-4.1258 0.89603-12.745 3.0868-18.09 4.598-1.8433 0.52112-4.1605 1.1219-5.1495 1.335-0.98895 0.21311-2.0208 0.57185-2.293 0.7972-0.27223 0.22535-1.3639 0.56732-2.4259 0.75993-1.8067 0.32766-2.0162 0.28993-3.2557-0.58612-1.6313-1.153-1.6799-1.6864-0.19324-2.1177 0.63059-0.18293 2.9722-0.88448 5.2035-1.559 2.2313-0.67453 4.4538-1.3322 4.9389-1.4614s2.0726-0.55587 3.5278-0.94802c8.5273-2.2979 15.098-3.8612 17.465-4.155 1.4849-0.18436 2.7823-0.41759 2.883-0.5183 0.18102-0.18101-1.6624-4.0349-2.5062-5.2396-0.40337-0.5759-2.3217-2.7743-5.5824-6.3975l-1.3229-1.47-0.0248-16.052c-0.0136-8.8284-0.15041-15.734-0.30395-15.346-0.15354 0.38805-0.21167 0.886-0.12919 1.1066 0.17451 0.4666-0.98959 1.3285-3.9518 2.9258-1.1642 0.62775-2.5135 1.5012-2.9986 1.9409-0.48507 0.43974-2.3107 1.7769-4.057 2.9715-5.2354 3.5815-5.9487 4.4463-5.4589 6.6181 0.16992 0.75341 0.19599 1.4828 0.0579 1.6208-0.13806 0.13806-1.0431 0.0391-2.0112-0.21983-0.96807-0.25897-2.5539-0.64187-3.524-0.85089-0.97014-0.20903-3.2555-0.78459-5.0787-1.279-11.726-3.18-28.046-3.5504-39.371-0.89363-1.5522 0.36412-4.8402 1.1468-7.3067 1.7393-2.4665 0.59251-4.7911 1.0773-5.1657 1.0773-0.76576 0-1.1095-0.64973-1.1095-2.0972 0-1.0694-1.8157-2.9698-5.167-5.4079-0.99858-0.72646-1.9-1.5409-2.0032-1.8098-0.18183-0.47385-4.7688-3.4381-7.9993-5.1694-0.87313-0.46793-1.9661-1.131-2.4288-1.4735-0.46273-0.34251-0.97867-0.62275-1.1465-0.62275-0.39028 0-0.37588 3.1293 0.03411 7.4083 0.65883 6.8764 1.4881 23.585 1.1959 24.098-0.16528 0.28996-1.3324 1.4387-2.5936 2.5528-1.2612 1.1141-2.6107 2.5982-2.9989 3.298s-1.3051 2.0546-2.0374 3.0105c-1.4086 1.8387-1.9589 3.2479-1.4466 3.7044 0.17012 0.15159 1.8174 0.55258 3.6607 0.8911s6.2883 1.408 9.8778 2.3766c3.5895 0.9686 9.1148 2.2853 12.278 2.926 5.5156 1.117 8.831 2.3032 9.1552 3.2757 0.10952 0.32856-0.9549 0.43277-4.3827 0.42906-5.0564-5e-3 -8.4866-0.62425-17.404-3.1395-4.3077-1.2151-7.58-2.0076-14.164-3.4304-0.98862-0.21364-1.0842-0.0802-1.5506 2.1651-0.12091 0.58208-0.30703 2.7829-0.4136 4.8908l-0.19376 3.8324 2.2518-0.23105c1.2385-0.12708 3.2837-0.38201 4.5449-0.5665s4.9918-0.65552 8.2903-1.0467c3.2985-0.39121 7.2672-0.89579 8.8194-1.1213 3.2134-0.46682 7.4017-0.58566 7.7696-0.22047 0.37024 0.36752-0.54469 3.8108-1.0139 3.8156-0.4011 4e-3 -8.8642 1.0553-13.988 1.7374-1.4552 0.19374-4.4715 0.59237-6.7028 0.88586-2.2313 0.29348-5.1449 0.7126-6.4747 0.93138l-2.4177 0.39777 0.20843 1.0421c0.24422 1.2211 1.9124 5.0868 2.7145 6.2903l0.55688 0.83561 3.5001-1.3617c1.925-0.74895 3.7382-1.5445 4.0292-1.768s1.561-0.67923 2.8222-1.0129c1.2612-0.33367 4.1981-1.2922 6.5264-2.13 2.3283-0.83783 5.6196-1.9688 7.3139-2.5133 2.8023-0.90053 3.137-0.94056 3.7042-0.44307 2.2642 1.9858 5.7659 2.4861 16.357 2.3368 9.3441-0.13171 9.4902-0.16966 9.4902-2.4649 0-3.1377-1.4666-4.7264-5.9972-6.4965-1.4552-0.56853-3.1221-1.4578-3.7042-1.9761l-1.0583-0.9424 0.74243-0.99787c0.40834-0.54884 1.2375-1.2878 1.8427-1.6422 2.5598-1.4991 8.0996-3.0598 10.861-3.0598 2.4557 0 6.4082 1.0173 9.1947 2.3666 3.0886 1.4955 3.727 2.1445 3.5778 3.6366-0.1059 1.0593-0.27936 1.191-2.7588 2.0956-3.4577 1.2615-6.0025 2.5717-6.8792 3.5417-1.0347 1.145-0.98038 3.9399 0.0976 5.0184 0.79381 0.79422 0.91467 0.80413 10.407 0.85326 12.412 0.0642 12.543 0.0491 14.501-1.6745l1.5666-1.379 2.9415 1.1107c1.6178 0.61088 3.9432 1.486 5.1674 1.9447 1.2242 0.45868 2.653 1.0526 3.175 1.3199 0.52204 0.26726 2.2192 0.82688 3.7714 1.2436 2.6236 0.70433 8.8708 2.9664 11.275 4.0824 1.2318 0.57191 1.6018 0.4226 1.6018-0.64649zm-87.665-28.236c-2.5128-0.61108-5.3689-2.266-6.1825-3.5823-0.45392-0.73445-0.6967-1.7506-0.6967-2.916 0-1.991 0.81634-3.1606 3.2018-4.5872 5.3647-3.2084 16.695-1.7584 18.852 2.4125 0.70187 1.3573 0.64862 3.0322-0.1525 4.7964-0.52944 1.1659-1.0533 1.6473-2.6346 2.421-3.4516 1.6887-8.8303 2.3208-12.388 1.4557zm6.654-6.3902c-0.15495-0.40381-0.81597-0.52916-2.7903-0.52916-2.3923 0-3.295 0.27465-2.7369 0.83274 0.12408 0.12407 1.4642 0.22559 2.978 0.22559 2.3016 0 2.7191-0.0867 2.5493-0.52917zm45.288 6.5188c-3.3262-0.52508-6.6804-3.0189-7.4702-5.5542-0.84165-2.7015 2.9672-6.1953 7.7577-7.1161 1.4807-0.28462 1.8148-0.24508 2.2006 0.26044 0.39732 0.52055 0.49639 0.52923 0.78275 0.0685 0.24777-0.3986 0.95532-0.51439 2.8965-0.47398 3.7983 0.0791 7.0188 1.6603 8.8524 4.3466 1.6078 2.3555-0.62457 6.0902-4.6936 7.8523-1.8605 0.80567-7.1335 1.1205-10.326 0.61648zm4.679-5.4604c0.24154-0.29104 0.65785-0.52917 0.92514-0.52917 0.26728 0 0.48596-0.15875 0.48596-0.35278s-0.18593-0.35278-0.41319-0.35278c-0.22725 0-0.7091-0.2678-1.0708-0.59511-0.61928-0.56044-0.70003-0.55267-1.3861 0.13341-0.60195 0.60195-0.65892 0.85857-0.32791 1.4771 0.46948 0.87723 1.1696 0.96318 1.7869 0.21937zm-25.373 17.238c0.47038-0.51137 1.4697-1.3811 2.2208-1.9328l1.3655-1.003-1.0128-0.39123c-1.2548-0.48473-4.7839-0.59845-6.6207-0.21333l-1.3746 0.28822 2.0692 2.091c1.138 1.15 2.1655 2.091 2.2833 2.091s0.59899-0.41839 1.0694-0.92975zm-83.635-62.165c-2.3221-0.60362-5.0118-2.9826-5.5512-4.9099-0.14832-0.53001-0.26968-10.727-0.26968-22.659 0-21.652 0.0014-21.699 0.77297-23.14 0.99598-1.8613 2.9097-3.5312 4.5973-4.0116 1.8293-0.52072 118.59-0.88565 144.44-0.45141 19.346 0.3251 19.653 0.3414 21.151 1.1226 1.6746 0.87287 2.0744 1.2899 3.2349 3.3738 0.78463 1.409 0.78596 1.4428 0.88968 22.544 0.0933 18.971 0.0434 21.325-0.48722 23.012-0.62456 1.9856-2.373 4.1068-3.9786 4.8267-0.70539 0.31628-20.596 0.42963-82.421 0.46967-44.82 0.029-81.889-0.0504-82.374-0.17648zm163.08-5.9908 0.78411-0.78393 0.0923-20.011c0.0854-18.515 0.0458-20.103-0.52917-21.245l-0.62143-1.2347-6.5264-0.21955c-3.5895-0.12075-39.868-0.23981-80.619-0.26458-81.049-0.0493-75.071-0.20468-75.974 1.9751-0.29908 0.72203-0.38383 6.3958-0.3132 20.967 0.09242 19.069 0.12737 20.011 0.76816 20.719l0.67133 0.74161 78.175 0.089c42.996 0.0489 79.33 0.0802 80.742 0.0695 2.1671-0.0164 2.6895-0.14164 3.3514-0.80337zm-41.238-3.5346c-1.8632-1.1702-1.8219-2.1634 0.21904-5.2707 1.7525-2.6682 2.2287-3.8419 2.6506-6.5341 0.29758-1.8985 0.8715-1.4682 1.5808 1.1852 0.3348 1.2524 1.2657 3.618 2.0686 5.257 0.80295 1.639 1.4599 3.1571 1.4599 3.3736 0 0.2165-0.48157 0.85501-1.0702 1.4189-0.9261 0.88726-1.3891 1.0411-3.4396 1.1431-1.884 0.0937-2.5948-0.0237-3.4693-0.57293zm30.151-0.84135c-0.30468-0.24514-1.4701-1.9538-2.5898-3.7971-1.1197-1.8433-2.5544-4.0658-3.1882-4.9389s-1.5568-2.349-2.0511-3.2797c-0.6926-1.3041-1.6959-2.275-4.3744-4.2333-4.5567-3.3315-4.4874-3.2966-8.283-4.1715-4.7297-1.0902-9.5129-1.1432-13.538-0.14997-1.7616 0.43463-3.6649 1.0351-4.2296 1.3344-0.56475 0.29928-1.6618 0.88229-2.4379 1.2956-1.7909 0.95367-5.6574 4.1401-6.4014 5.2755-1.6712 2.5505-4.0369 7.5867-4.2318 9.0087-0.16742 1.2215-0.37428 1.6231-0.83598 1.6231-0.33743 0-1.1096 0.09922-1.7159 0.22049-0.69709 0.13942-1.1024 0.07863-1.1024-0.16532 0-0.21219 0.22207-0.30059 0.49348-0.19643 0.27142 0.10415 0.59829 0.01979 0.72638-0.18746 0.37108-0.60041-1.2658-0.44462-1.9636 0.1869-1.1413 1.0329-1.4824 0.27243-1.2642-2.8182 0.1111-1.5734 0.2761-3.1783 0.36667-3.5663 0.0906-0.38806 0.41508-1.7764 0.72112-3.0852 0.6067-2.5945 1.3746-3.9745 4.5043-8.0952 2.258-2.9729 4.5201-4.8601 9.1576-7.6398 4.6042-2.7597 7.1934-3.3523 14.775-3.3812 9.6836-0.03696 12.176 0.70498 19.984 5.9496 2.0346 1.3666 6.8275 6.042 6.8275 6.6601 0 0.17444 0.46153 1.001 1.0256 1.8368 2.1776 3.2265 3.2077 5.9277 3.2077 8.4109 0 2.1822-0.0732 2.3923-1.2411 3.5601-1.0825 1.0825-1.1857 1.3298-0.8078 1.9349 0.30397 0.48674 0.33219 0.97983 0.0945 1.6523-0.40344 1.1416-0.87527 1.361-1.6268 0.7563zm-52.611-4.3724c0.072-0.21938-0.25822-0.49652-0.73371-0.61586s-1.0969-0.30616-1.381-0.41515c-0.5558-0.21328-1.1034 0.73648-0.75223 1.3047 0.28364 0.45894 2.7023 0.22806 2.8669-0.27366zm0.75989-3.7689c0.93572-2.8368 1.7217-4.3059 3.4798-6.5038 0.6596-0.82462 1.0205-1.4993 0.80206-1.4993s-0.2975-0.16134-0.17563-0.35853c0.12187-0.19719 0.37616-0.26301 0.56507-0.14625 0.18891 0.11676 1.0849-0.39659 1.991-1.1408 1.9454-1.5976 4.5487-3.2933 5.056-3.2933 0.19759 0 0.9433-0.39688 1.6571-0.88194 0.71385-0.48507 1.4675-0.88194 1.6748-0.88194 0.57371 0 2.2756-0.84803 2.2787-1.1355 1e-3 -0.13943 0.2135-0.17264 0.47108-0.0738 0.25758 0.09884 0.93227-0.01139 1.4993-0.24496 0.56703-0.23357 1.666-0.43849 2.4421-0.45537 1.0238-0.02226 1.3814-0.1681 1.303-0.53138-0.0934-0.4324-0.0255-0.4324 0.49783 0 0.55161 0.45579 0.58945 0.41389 0.42203-0.46721-0.1115-0.58685 5e-3 -1.1247 0.29592-1.3661 0.38681-0.32103 0.47981-0.18874 0.47981 0.68249 0 1.2218 0.61316 1.8103 1.1246 1.0794 0.27369-0.39114 0.37631-0.39655 0.52495-0.02769 0.14647 0.36346 0.36021 0.3435 1.0315-0.09633 0.63256-0.41447 0.84968-0.4412 0.85845-0.10568 6e-3 0.24701 0.34509 0.05223 0.75253-0.43284 0.71378-0.84978 0.73178-0.853 0.49366-0.08819-0.15 0.48175-0.0991 0.79375 0.12941 0.79375 0.20711 0 0.37655-0.3875 0.37655-0.86112 0-0.47362 0.18293-0.97418 0.40651-1.1124 0.2951-0.18239 0.3423 0.15028 0.17222 1.2139-0.23021 1.4396 0.26115 2.0921 0.70481 0.93597 0.29672-0.77325 0.83313-0.64628 0.83313 0.19721 0 1.1073 0.59603 0.4972 0.85312-0.87319 0.12515-0.66712 0.42096-1.285 0.65735-1.373 0.6663-0.24806-1.1594-0.85503-3.4221-1.1377-1.9882-0.24841-2.0318-0.23588-1.6518 0.47422 0.27205 0.50834 0.27755 0.79908 0.0181 0.95941-0.20873 0.129-0.553-0.24893-0.78385-0.86054-0.33078-0.87632-0.62169-1.0962-1.4808-1.1192-0.58805-0.01577-1.541-0.06224-2.1176-0.10327-2.7224-0.19374-9.4034 1.2732-11.892 2.6111-0.32628 0.17541-1.755 0.90595-3.175 1.6234-2.7527 1.3908-5.9854 4.3353-7.9149 7.2092-1.3605 2.0263-3.7827 7.0304-3.5268 7.2862 0.10559 0.10559-0.0405 0.52395-0.32474 0.92969-0.28419 0.40574-0.50417 0.9802-0.48885 1.2766 0.0187 0.36267 0.086 0.39468 0.20578 0.09789 0.24292-0.60202 0.8247-0.55805 0.8247 0.06233 0 0.27681 0.27781 0.58376 0.61736 0.6821 0.33955 0.09834 0.0221 0.11085-0.70556 0.0278-0.77514-0.08849-1.3229 3.53e-4 -1.3229 0.21473 0 0.64241 0.76929 1.2159 1.7217 1.2835 0.8487 0.06025 0.99232-0.14122 1.7603-2.4694zm8.3948-13.53c-0.36824-0.36823-0.276-0.82315 0.16689-0.82315 0.22115 0 0.61297-0.27781 0.87073-0.61736 0.44415-0.5851 0.46923-0.58378 0.47986 0.02519 6e-3 0.35341-0.21557 0.86934-0.49275 1.1465-0.56908 0.56908-0.69215 0.60136-1.0247 0.26878zm17.404-5.2623c0-0.50124 0.17065-0.85446 0.37923-0.78493 0.20858 0.06953 0.36733 0.2415 0.35278 0.38218-0.0145 0.14067-0.0265 0.49389-0.0265 0.78493 0 0.29104-0.15875 0.52917-0.35277 0.52917-0.19403 0-0.35278-0.4101-0.35278-0.91134zm5.8208 0.55856c-0.23798-0.38506 0.0641-1.0583 0.47491-1.0583 0.14129 0 0.28081 0.3175 0.31004 0.70556 0.0559 0.74191-0.41395 0.95307-0.78495 0.35278zm19.644 16.367c-0.0614-0.75567-0.28316-1.5327-0.49289-1.7267-0.26669-0.24672-0.31442-0.16298-0.15875 0.27853 0.12243 0.34722 0.0414 0.9215-0.18014 1.2762-0.47477 0.76022-0.13114 1.9231 0.50255 1.7006 0.27851-0.09775 0.39972-0.66054 0.32923-1.5286zm-2.9536-5.4446c1.0407-0.96958 0.97928-1.3445-0.48095-2.9344-0.6873-0.74838-1.4986-1.7406-1.8028-2.2049-0.30422-0.4643-0.73481-0.84418-0.95686-0.84418-0.22206 0-0.5989-0.3125-0.83743-0.69446-0.23854-0.38195-0.91944-0.94564-1.5131-1.2526-1.0323-0.53384-1.1089-0.52279-1.7561 0.25348-0.90261 1.0827-0.89993 2.6202 5e-3 3.1047 0.47837 0.25601 0.70556 0.26001 0.70556 0.01242 0-0.20086-0.18521-0.3652-0.41158-0.3652-0.22636 0-0.30957-0.102-0.18491-0.22666 0.12466-0.12466 0.46101-0.03217 0.74743 0.20554 0.29647 0.24606 0.84692 0.32867 1.2781 0.19183 0.65016-0.20635 0.72378-0.13472 0.52032 0.50634-0.18243 0.57476 0.11228 1.1132 1.2799 2.3383 0.83429 0.87538 1.6475 1.825 1.8072 2.1104 0.38718 0.69184 0.6816 0.65494 1.5998-0.20054zm-10.058-7.5159c0.13202-0.34405-0.0638-0.42712-0.71385-0.30285-0.65617 0.12543-0.85201 0.03993-0.73215-0.31966 0.09-0.27 0.33562-0.4909 0.54581-0.4909 0.79348 0 0.76187-0.43613-0.0896-1.236l-0.88056-0.82724-5e-3 0.85525c-3e-3 0.47038-0.0971 1.1994-0.20997 1.6201-0.16149 0.60206-0.0291 0.79828 0.62218 0.92209 0.45504 0.08651 0.92941 0.1789 1.0542 0.20533 0.12477 0.02642 0.30871-0.1653 0.40877-0.42605zm-2.5583-1.3227c0.21736-0.40613 0.29929-1.1205 0.18208-1.5875-0.38741-1.5436-2.6691-0.80293-2.6691 0.86641 0 0.51719 1.0332 1.4595 1.6003 1.4595 0.27036 0 0.66939-0.33228 0.88674-0.73841zm-124.2 12.068c0-1.5748 0.1489-2.8633 0.33089-2.8633 0.18199 0 1.3369 0.23332 2.5666 0.51849 3.7526 0.87029 4.9554 1.0489 7.1319 1.0592l2.0918 0.0098 0.44104-1.5875c0.6347-2.2846 1.1963-3.6723 2.8551-7.0556 0.80865-1.6492 1.7872-3.7924 2.1745-4.7625l0.70425-1.7639-5.9489-0.20386v-3.8531h5.6013c6.3883 0 6.6074 0.09017 6.5073 2.6776-0.04369 1.129-0.86058 3.1165-3.2048 7.7973-1.7304 3.4551-3.6082 7.593-4.1729 9.1952-0.56627 1.6068-1.264 2.9798-1.5559 3.0617-0.29104 0.08167-3.9026 0.25766-8.0257 0.3911l-7.4965 0.2426v-2.8633zm40.122 2.5609c-0.11105-0.17968 0.447-1.6324 1.2401-3.2282 1.6797-3.3798 2.3081-3.6355 4.0629-1.6533l1.1051 1.2482 6.5002-0.20334 0.66624-2.2931c0.36643-1.2612 0.73548-2.5312 0.82011-2.8222 0.71521-2.4594 1.5582-7.4023 1.3832-8.1104-0.40574-1.6418-1.6773-1.828-4.3911-0.64298-1.8192 0.79434-1.777 0.7217-1.9077 3.2853-0.0299 0.58523-0.32174 0.72389-1.7117 0.81308-1.8162 0.11654-1.8621 0.05516-1.2946-1.7306 0.77412-2.4359 2.1167-4.7465 3.1566-5.4325 0.58823-0.38806 1.1614-1.0627 1.2736-1.4993 0.20256-0.78774 0.25434-0.79375 6.8309-0.79375 7.4634 0 7.0551-0.16501 7.0551 2.8511 0 1.6759-0.0346 1.735-1.0142 1.735-2.8956 0-3.0664 0.15412-4.0633 3.6668-0.50585 1.7825-0.91444 3.552-0.90799 3.9322 0.0108 0.63738 0.0665 0.62549 0.71438-0.15244 0.38645-0.46405 0.78297-0.76339 0.88116-0.6652 0.0982 0.09819 0.27314 0.97742 0.38878 1.9539 0.19142 1.6162 0.1351 1.8148-0.62831 2.2156-2.1546 1.1311-3.3972 2.4744-4.1372 4.4723-0.41545 1.1217-0.88891 2.2451-1.0521 2.4964-0.36154 0.55674-14.642 1.0886-14.97 0.55751zm-20.357-0.39714c0.02667-0.72487 3.1579-5.2681 3.9308-5.7034 1.2122-0.68269 2.0567-0.28792 2.0567 0.96141 0 1.3287 1.1065 1.8316 4.0305 1.8316h2.2334l0.80654-2.2049c0.4436-1.2127 1.9092-4.4539 3.2568-7.2028 1.3477-2.7489 2.3441-5.1698 2.2143-5.3799-0.53412-0.86422-4.119-0.15784-5.7397 1.131-0.87344 0.69458-1.317 0.76775-4.0427 0.66679-2.9155-0.10799-3.0333-0.14321-2.4694-0.73808 0.32568-0.34357 1.1891-1.3565 1.9186-2.251 1.7195-2.1084 4.238-3.3617 7.643-3.8037 2.6908-0.34928 6.5536-0.14376 8.0845 0.43015 0.71346 0.26746 0.8028 0.48978 0.65461 1.629-0.21991 1.6906-1.9529 6.8013-2.5407 7.4929-0.24738 0.29104-1.3584 2.5929-2.469 5.1153-3.2426 7.3647-3.5069 7.8101-4.7873 8.0661-1.5816 0.31632-14.793 0.28016-14.781-0.04045zm40.401-0.05894c-0.10997-0.17794-0.29822-1.0405-0.41834-1.9168-0.21453-1.5652-0.19624-1.6026 1.0359-2.1174 0.68984-0.28823 2.099-0.62591 3.1316-0.7504 1.8358-0.22134 1.8911-0.20153 2.5029 0.89641 0.60679 1.0889 0.68425 1.1179 2.5723 0.96131 1.9111-0.15848 3.5053-0.96596 4.065-2.0589 0.14406-0.2813 0.61345-1.3846 1.0431-2.4517 0.6461-1.6048 3.9326-8.687 4.461-9.6132 0.083-0.14552-1.6668-0.26458-3.8886-0.26458h-4.0395l-0.24184 0.97014c-0.13301 0.53358-0.4858 1.4861-0.78399 2.1167-0.46613 0.98574-0.72204 1.1459-1.8249 1.1417-0.7055-0.0028-1.6534-0.10408-2.1065-0.2254-0.7271-0.19468-0.79662-0.36556-0.59216-1.4554 0.12741-0.67917 0.42186-1.808 0.65433-2.5086 0.414-1.2477 0.45641-1.2714 2.0685-1.1588 1.5027 0.10501 1.6902 0.02829 2.1555-0.88194 0.28028-0.54833 0.62072-1.5129 0.75652-2.1435l0.2469-1.1465 4.8227 0.0309c2.6525 0.017 5.6164 0.13631 6.5866 0.26515l1.7639 0.23425-0.083 2.4587c-0.076 2.2517-0.30385 2.9199-2.7063 7.9369-1.4428 3.013-3.2526 6.844-4.0217 8.5133-1.0509 2.2809-1.6057 3.0906-2.2326 3.2584-1.3136 0.35161-14.704 0.27034-14.927-0.09059z" stroke-width=".35278"/>
</g>
</svg>
